<?xml version="1.0" encoding="UTF-8"?>
<svg id="Calque_2" data-name="Calque 2" xmlns="http://www.w3.org/2000/svg" viewBox="0 0 62.96 68.81">
  <defs>
    <style>
      .cls-1 {
        fill: #e3241c;
      }

      .cls-2 {
        fill: #6093c9;
      }

      .cls-3 {
        fill: #004b98;
      }
    </style>
  </defs>
  <g id="Calque_1-2" data-name="Calque 1">
    <g>
      <rect class="cls-1" x="11.92" y="11.63" width="39.26" height="39.26"/>
      <path class="cls-2" d="M24.03,35.83c1.62,2.44,4.39,4.05,7.54,4.05,4.99,0,9.03-4.04,9.03-9.03,0-.49-.04-.96-.11-1.43-.42-2.64-1.99-4.91-4.18-6.26-1.38-.85-3-1.34-4.74-1.34-1.54,0-2.98.38-4.25,1.06-1.06.57-2,1.34-2.76,2.27-1.06,1.3-1.76,2.89-1.96,4.64-.04.35-.06.7-.06,1.06,0,1.84.55,3.55,1.5,4.98"/>
      <polygon class="cls-3" points="29.12 27.99 28.95 28.31 28.54 28.08 28.64 27.92 29.12 27.99"/>
      <polygon class="cls-3" points="31.55 26.22 32.05 26.4 32.09 26.75 30.81 27.62 30.17 27.46 30.17 27.22 30.57 26.86 31.55 26.22"/>
      <polygon class="cls-3" points="30.85 26.27 30.44 26.71 29.91 27.05 29.69 26.91 30.09 26.34 30.43 26.31 30.66 25.91 30.77 25.91 30.85 26.27"/>
      <polygon class="cls-3" points="31.62 24.99 30.97 25.65 30.67 25.44 31.49 24.79 31.62 24.99"/>
      <polygon class="cls-3" points="25.58 27.79 25.49 28.46 25.21 28.42 25.38 27.37 25.53 27.38 25.58 27.58 25.58 27.79"/>
      <polygon class="cls-3" points="25.7 28.68 25.62 29.03 25.45 29 25.36 28.86 25.41 28.61 25.7 28.68"/>
      <polygon class="cls-3" points="25.7 29.19 25.72 29.39 25.55 29.39 25.52 29.2 25.7 29.19"/>
      <path class="cls-3" d="M25.77,29.54s.05.11.05.11l-.15.07-.05-.12.15-.06Z"/>
      <path class="cls-3" d="M25.71,29.94v-.09s.08-.07.08-.07l.05.11s-.12.05-.13.05"/>
      <polygon class="cls-3" points="31.67 29.37 31.73 29.25 31.91 29.35 31.87 29.51 31.93 29.55 31.84 30.01 31.48 29.98 31.71 29.41 31.67 29.37"/>
      <polygon class="cls-3" points="31.29 29.64 31.43 29.68 31.38 29.86 31.18 29.8 31.29 29.64"/>
      <path class="cls-3" d="M35.62,36.95c-.11.2-.16.28-.34.47-.19.21-.57.42-.69.47l-.46.2-.11.02-.05-.17.8-.79.36-.08.29-.17.2.04Z"/>
      <path class="cls-3" d="M35.21,38.01s-.14.1-.14.1c0,0-.11-.11-.11-.11,0,0,.15-.09.15-.09,0,0,.1.11.1.11"/>
      <polygon class="cls-3" points="32.24 31.15 32.18 31.42 32.06 31.4 32.07 31.19 32.18 31.2 32.21 31.13 32.24 31.15"/>
      <polygon class="cls-3" points="25.64 30.14 25.48 30.19 25.44 30.02 25.59 29.97 25.64 30.14"/>
      <path class="cls-3" d="M24.03,35.83c-.95-1.43-1.5-3.14-1.5-4.98,0-.36.02-.71.06-1.06l.72-.8.71-.1-.14-.44.45-1.57.19-.54.04-1.18c.76-.93,1.69-1.7,2.76-2.27l.44.08,1.25.19s1.27.28,1.89.23c.88-.06,1.38-.41,1.59-.55l.09.05-.32.25.25.1.1.28-.02.39-.11.09-.56.37-.72.34-.79.76.19.17-.27.51-.32-.04v-.14s-.49-.32-.49-.32l-.52.55.68.13.05.18-.45.54.43.16-.47.64-.65-.05-.23.25-.77-.43-1.25-.42-.3.52-.22-.17.15-.38.32-.25s-.37-.87-.39-.89c-.12-.09-.25-.2-.39-.24-.06-.02-.11-.02-.17-.02-.2,0-.5.18-.5.36v.26s.02.06.02.06l.33.28-.03.2-.44.02-.56,1.39.86,1.28.12.24s.22.95.31,1.27c.17.62.23,1.44.25,1.46l.9,1.31-.07.55-1.37,1.03-.51-.13-.62.52"/>
      <path class="cls-3" d="M36.58,23.66l-.4.26-.33.38-.98-.56,1.42-.3.29.22ZM36.31,23.17l-1.12.11-.16-.07-.69.07-.18-.05-1.21.28-.05.43,1.47,1.61-.03.34h-.22s-.2.42-.2.42l.31,1.39-.46.43.06.41h-.17s-.14-.27-.14-.27l-.56-.18-.4.53-.41.42.19.3.34-.03.06.15.13-.02.24-.68.14.1-.16.37.06.07-.11.38-.38.1c-.03-.14-.1-.24-.1-.24h-.13s-.04.28-.04.28l-.21.06-.13.2c-.05.06-.18.09-.32.08-.12,0-.32-.06-.32-.06,0,0-.07.09-.07.09,0,0,.05.05.05.06,0,0,.08.06.06.18-.02.1-.12.19-.29.19-.05,0-.1,0-.15-.02l-.08-.02-.2.49.53.4s.24-.16.52-.42c.08-.08.24-.14.34-.14.08,0,.12.03.19.07.2.09.28.43.28.42l-.09.02.03.06.26-.05-.21-.54.07-.02.46.45,1.29.36-.25.66-1.02-.26-.24.03-.51-.34-1.66-.25-.86.42c-.12.06-.24.2-.37.46-.25.48-.38.76-.42.93l-.06.24.54,1,1.28,1.29c.07.07-.03.34-.22.65-.05.09-.15.33-.27.73-.09.27-.21.5-.37.67-.34.37-.52.58-.53.61l-.21.6s.03.04.07.05c.31.11.63.16.95.16.48,0,1.02-.14,1.49-.38.27-.14.54-.3.81-.48.27-.18.51-.36.7-.53.03-.02.16-.15.4-.37.18-.17.35-.29.49-.36.07-.03.12-.07.13-.1l.44-1.12.98-.93.51-.82-.13-.26-.5.1-1.23-1.41.3-.03,1.16,1.2.63-.51.41-.58.19-.31.07-.16-.46-.36-.53.15-.3-.26.68-.21.53.09.82-.18,1.08.88h.38c.07-.32.08-.42.08-.75,0-.35-.05-.71-.14-1.07-.04-.17-.07-.29-.08-.35l-.02-.12.21-.19.45.11.7-.6h0c-.42-2.64-1.99-4.91-4.18-6.26h0Z"/>
      <path class="cls-3" d="M15.55,0h1.89l2.35,5.74h-1.79l-.34-.93h-2.33l-.34.93h-1.79L15.55,0ZM17.28,3.77l-.79-2.27-.79,2.27h1.58Z"/>
      <path class="cls-3" d="M21.99,0h2.59c2,0,2.8,1.61,2.8,2.94s-.72,2.79-2.47,2.79h-2.91V0ZM24.28,4.37c.88,0,1.29-.48,1.29-1.51,0-.76-.31-1.51-1.29-1.51h-.48v3.01h.48Z"/>
      <polygon class="cls-3" points="29.99 0 33.86 0 33.86 1.21 31.8 1.21 31.8 2.22 33.68 2.22 33.68 3.43 31.8 3.43 31.8 4.52 33.89 4.52 33.89 5.74 29.99 5.74 29.99 0"/>
      <polygon class="cls-3" points="38.46 5.74 36.65 5.74 36.65 0 38.27 0 39.81 2.32 41.35 0 42.97 0 42.97 5.74 41.17 5.74 41.21 2.66 41.2 2.64 39.81 4.74 38.43 2.64 38.41 2.66 38.46 5.74"/>
      <polygon class="cls-3" points="45.91 0 49.78 0 49.78 1.21 47.72 1.21 47.72 2.22 49.6 2.22 49.6 3.43 47.72 3.43 47.72 4.52 49.81 4.52 49.81 5.74 45.91 5.74 45.91 0"/>
      <path class="cls-3" d="M3.44,60.12h-.5l-.45-1.09h-1.44l-.43,1.09H.12l1.46-3.73h.34l1.52,3.73ZM1.24,58.55h1.05l-.55-1.34-.51,1.34Z"/>
      <path class="cls-3" d="M5.84,58.05h-.46c.17.19.23.33.23.54s-.1.43-.21.55c-.3.35-.9.17-.9.46,0,.14.23.22.68.32.48.1.65.37.65.68,0,.48-.39.78-1.06.78-.6,0-1.03-.31-1.03-.74,0-.36.17-.57.56-.68-.15-.1-.23-.2-.23-.31,0-.16.14-.3.35-.35h0c-.16-.09-.29-.19-.37-.32-.08-.12-.12-.28-.12-.46,0-.52.37-.84.98-.84h.92v.38ZM4.68,60.24c-.3,0-.51.15-.51.37,0,.25.22.37.62.37s.62-.13.62-.35c0-.31-.46-.39-.73-.39M4.79,58.1c-.24,0-.44.2-.44.44,0,.27.18.45.45.45.25,0,.43-.19.43-.46,0-.23-.2-.43-.43-.43"/>
      <path class="cls-3" d="M8.38,59.88c-.27.2-.51.29-.89.29-.7,0-1.09-.63-1.09-1.3,0-.74.43-1.24,1.05-1.24s.97.44.97,1.35h-1.57c.07.48.32.73.75.73.27,0,.52-.11.78-.29v.47ZM7.98,58.65c-.02-.37-.21-.6-.52-.6-.34,0-.54.22-.6.6h1.12Z"/>
      <path class="cls-3" d="M9.65,58h.01c.17-.23.42-.37.67-.37.42,0,.76.32.76.99v1.51h-.44v-1.51c0-.36-.17-.59-.44-.59-.19,0-.35.1-.56.35v1.75h-.44v-2.44h.44v.32Z"/>
      <path class="cls-3" d="M13.71,58.31c-.25-.18-.42-.24-.62-.24-.4,0-.68.33-.68.83s.3.81.76.81c.19,0,.37-.05.59-.16v.48c-.15.07-.43.14-.67.14-.67,0-1.14-.51-1.14-1.22,0-.8.43-1.32,1.11-1.32.26,0,.43.07.65.17v.52Z"/>
      <path class="cls-3" d="M16.43,59.88c-.27.2-.51.29-.89.29-.7,0-1.08-.63-1.08-1.3,0-.74.43-1.24,1.04-1.24s.97.44.97,1.35h-1.57c.07.48.32.73.75.73.27,0,.52-.11.78-.29v.47ZM16.03,58.65c-.02-.37-.21-.6-.52-.6-.34,0-.54.22-.6.6h1.12Z"/>
      <path class="cls-3" d="M20.81,60.12h-.94c-.67,0-1.09-.5-1.09-1.28,0-.71.46-1.21,1.12-1.21.15,0,.29.03.47.1v-1.32h.44v3.71ZM20.36,58.16c-.15-.07-.26-.09-.41-.09-.43,0-.72.34-.72.85,0,.46.17.8.68.8h.45v-1.56Z"/>
      <path class="cls-3" d="M23.6,59.88c-.27.2-.51.29-.89.29-.7,0-1.08-.63-1.08-1.3,0-.74.43-1.24,1.05-1.24s.97.44.97,1.35h-1.57c.07.48.32.73.75.73.27,0,.52-.11.78-.29v.47ZM23.2,58.65c-.02-.37-.21-.6-.52-.6-.34,0-.54.22-.6.6h1.12Z"/>
      <rect class="cls-3" x="26.06" y="56.41" width=".44" height="3.71"/>
      <polygon class="cls-3" points="30.77 56.89 29.33 56.89 29.33 58.01 30.72 58.01 30.72 58.49 29.33 58.49 29.33 59.64 30.81 59.64 30.81 60.12 28.84 60.12 28.84 56.41 30.77 56.41 30.77 56.89"/>
      <path class="cls-3" d="M31.99,58h.01c.17-.23.42-.37.67-.37.43,0,.76.32.76.99v1.51h-.44v-1.51c0-.36-.17-.59-.44-.59-.2,0-.35.1-.56.35v1.75h-.44v-2.44h.44v.32Z"/>
      <polygon class="cls-3" points="34.05 57.68 34.53 57.68 35.13 59.18 35.72 57.68 36.19 57.68 35.21 60.17 35.06 60.17 34.05 57.68"/>
      <path class="cls-3" d="M37.1,57.23c-.14,0-.26-.13-.26-.29s.12-.29.26-.29.26.13.26.29-.12.29-.26.29M37.31,60.12h-.44v-2.44h.44v2.44Z"/>
      <path class="cls-3" d="M38.76,57.68v.56h.01c.22-.43.44-.61.65-.61.18,0,.35.09.53.28l-.24.42c-.13-.14-.31-.24-.41-.24-.3,0-.54.33-.54.75v1.28h-.44v-2.44h.44Z"/>
      <path class="cls-3" d="M42.74,58.88c0,.77-.49,1.29-1.21,1.29s-1.18-.54-1.18-1.29c0-.7.51-1.25,1.18-1.25.7,0,1.21.52,1.21,1.25M40.8,58.88c0,.52.29.86.72.86.47,0,.76-.33.76-.85,0-.47-.32-.82-.76-.82-.42,0-.72.34-.72.81"/>
      <path class="cls-3" d="M44,58h.01c.17-.23.42-.37.67-.37.42,0,.76.32.76.99v1.51h-.44v-1.51c0-.36-.17-.59-.44-.59-.19,0-.35.1-.56.35v1.75h-.44v-2.44h.44v.32Z"/>
      <path class="cls-3" d="M46.81,58h0c.17-.23.42-.37.67-.37.42,0,.76.32.76.99v1.51h-.44v-1.51c0-.36-.17-.59-.44-.59-.19,0-.35.1-.56.35v1.75h-.45v-2.44h.45v.32Z"/>
      <path class="cls-3" d="M51.02,59.88c-.27.2-.51.29-.89.29-.7,0-1.08-.63-1.08-1.3,0-.74.43-1.24,1.05-1.24s.97.44.97,1.35h-1.57c.07.48.32.73.75.73.27,0,.52-.11.78-.29v.47ZM50.62,58.65c-.02-.37-.21-.6-.52-.6-.34,0-.54.22-.6.6h1.12Z"/>
      <path class="cls-3" d="M52.31,57.68v.32c.23-.25.44-.37.65-.37.28,0,.52.15.67.44.2-.24.43-.44.74-.44.45,0,.74.38.74.96v1.53h-.44v-1.51c0-.37-.21-.57-.46-.57-.14,0-.34.13-.5.31v1.77h-.44v-1.52c0-.4-.18-.57-.4-.57s-.37.08-.56.31v1.77h-.44v-2.44h.44Z"/>
      <path class="cls-3" d="M57.86,59.88c-.27.2-.51.29-.89.29-.7,0-1.09-.63-1.09-1.3,0-.74.43-1.24,1.05-1.24s.97.44.97,1.35h-1.57c.07.48.32.73.75.73.27,0,.52-.11.78-.29v.47ZM57.46,58.65c-.02-.37-.21-.6-.52-.6-.34,0-.54.22-.6.6h1.12Z"/>
      <path class="cls-3" d="M59.15,58h.01c.17-.23.42-.37.67-.37.42,0,.76.32.76.99v1.51h-.44v-1.51c0-.36-.17-.59-.44-.59-.19,0-.35.1-.56.35v1.75h-.44v-2.44h.44v.32Z"/>
      <path class="cls-3" d="M62.07,57.68h.71v.43h-.71v1.25c0,.29.19.37.32.37.16,0,.32-.06.5-.18v.45c-.15.09-.39.16-.54.16-.48,0-.73-.33-.73-.77v-1.29h-.39v-.05l.83-.89v.51Z"/>
      <path class="cls-3" d="M1.98,67.31c-.27.2-.51.29-.89.29-.7,0-1.08-.63-1.08-1.3,0-.74.43-1.24,1.04-1.24s.97.44.97,1.34H.44c.07.49.32.74.75.74.27,0,.52-.11.78-.29v.47ZM1.58,66.08c-.01-.37-.21-.6-.52-.6-.34,0-.54.22-.6.6h1.12Z"/>
      <path class="cls-3" d="M3.25,65.11h.71v.43h-.71v1.25c0,.29.19.37.32.37.16,0,.32-.06.5-.18v.45c-.15.09-.39.16-.54.16-.48,0-.73-.33-.73-.77v-1.29h-.39v-.05l.83-.89v.51Z"/>
      <path class="cls-3" d="M8.05,67.56h-.94c-.67,0-1.08-.5-1.08-1.28,0-.71.46-1.21,1.11-1.21.15,0,.29.03.47.1v-1.32h.44v3.71ZM7.6,65.6c-.15-.07-.26-.09-.41-.09-.43,0-.71.34-.71.85,0,.46.17.8.68.8h.45v-1.56Z"/>
      <path class="cls-3" d="M10.76,67.3c-.27.2-.51.29-.89.29-.7,0-1.08-.62-1.08-1.3,0-.74.43-1.24,1.04-1.24s.97.44.97,1.34h-1.57c.07.48.32.74.75.74.27,0,.52-.11.78-.29v.47ZM10.37,66.07c-.02-.37-.21-.6-.52-.6-.34,0-.54.22-.6.6h1.12Z"/>
      <rect class="cls-3" x="13.01" y="63.86" width=".44" height="3.71"/>
      <path class="cls-3" d="M16.06,67.39c-.2.15-.29.19-.43.19-.19,0-.3-.08-.34-.25-.2.17-.4.25-.6.25-.33,0-.55-.28-.55-.6,0-.48.4-.63.76-.77l.39-.15v-.13c0-.3-.13-.43-.4-.43-.24,0-.49.13-.71.4v-.53c.17-.22.42-.33.74-.33.45,0,.81.25.81.81v1.26c0,.09.03.13.09.13.04,0,.13-.05.23-.13v.29ZM15.3,66.33c-.38.14-.71.28-.71.57,0,.2.14.34.32.34.14,0,.27-.08.39-.2v-.71Z"/>
      <polygon class="cls-3" points="21.4 67.56 20.92 67.56 20.92 64.67 20.91 64.67 19.86 66.11 19.78 66.11 18.74 64.67 18.73 64.67 18.73 67.56 18.24 67.56 18.24 63.85 18.7 63.85 19.82 65.37 20.95 63.85 21.4 63.85 21.4 67.56"/>
      <path class="cls-3" d="M24.01,67.42c-.2.15-.29.19-.43.19-.19,0-.3-.08-.34-.25-.19.17-.4.25-.6.25-.33,0-.55-.28-.55-.6,0-.48.4-.63.76-.77l.39-.15v-.13c0-.31-.13-.43-.4-.43-.24,0-.49.12-.71.4v-.53c.17-.22.42-.33.74-.33.45,0,.81.25.81.8v1.26c0,.09.03.12.08.12.05,0,.13-.05.23-.13v.29ZM23.25,66.35c-.38.14-.71.28-.71.57,0,.2.13.34.32.34.14,0,.27-.08.39-.2v-.71Z"/>
      <path class="cls-3" d="M25.56,64.81h-.27l-.43-.47-.41.47h-.26l.45-.82h.46l.47.82ZM25.09,67.56h-.44v-2.44h.44v2.44Z"/>
      <path class="cls-3" d="M26.5,65.12h.71v.43h-.71v1.25c0,.29.19.37.32.37.16,0,.32-.06.5-.18v.45c-.16.09-.39.16-.54.16-.48,0-.73-.33-.73-.77v-1.29h-.39v-.05l.83-.89v.51Z"/>
      <path class="cls-3" d="M28.37,65.12v.56h.01c.22-.43.44-.61.65-.61.18,0,.35.09.53.28l-.23.42c-.13-.14-.31-.24-.41-.24-.3,0-.54.33-.54.75v1.28h-.44v-2.44h.44Z"/>
      <path class="cls-3" d="M30.34,64.67c-.14,0-.26-.13-.26-.29s.12-.29.26-.29.26.13.26.29-.12.29-.26.29M30.55,67.56h-.44v-2.44h.44v2.44Z"/>
      <path class="cls-3" d="M32.71,65.75c-.25-.18-.48-.26-.65-.26-.18,0-.29.09-.29.22,0,.11.15.24.54.49.37.27.5.44.5.69,0,.43-.32.72-.74.72-.27,0-.49-.06-.78-.22v-.52c.29.22.55.32.73.32.18,0,.33-.1.33-.28,0-.34-1.04-.52-1.04-1.18,0-.41.29-.66.74-.66.21,0,.42.07.66.2v.48Z"/>
      <path class="cls-3" d="M35.45,67.32c-.27.2-.51.29-.89.29-.69,0-1.08-.63-1.08-1.3,0-.74.43-1.24,1.04-1.24s.97.44.97,1.34h-1.57c.07.48.32.73.75.73.27,0,.52-.11.78-.29v.47ZM35.05,66.09c-.01-.37-.21-.61-.52-.61-.34,0-.54.22-.6.61h1.12Z"/>
      <path class="cls-3" d="M39.61,67.56h-.94c-.67,0-1.08-.5-1.08-1.28,0-.71.46-1.21,1.11-1.21.15,0,.29.03.47.1v-1.32h.44v3.71ZM39.17,65.6c-.15-.07-.26-.09-.41-.09-.43,0-.72.34-.72.85,0,.46.17.8.68.8h.45v-1.56Z"/>
      <path class="cls-3" d="M42.31,67.32c-.27.2-.51.29-.89.29-.7,0-1.08-.63-1.08-1.3,0-.74.43-1.24,1.05-1.24s.97.44.97,1.34h-1.57c.07.48.33.73.75.73.27,0,.52-.11.78-.29v.47ZM41.91,66.09c-.01-.37-.21-.61-.52-.61-.34,0-.54.22-.6.61h1.12Z"/>
      <rect class="cls-3" x="44.59" y="63.85" width=".44" height="3.71"/>
      <polygon class="cls-3" points="49.06 64.33 47.62 64.33 47.62 65.45 49.01 65.45 49.01 65.93 47.62 65.93 47.62 67.08 49.11 67.08 49.11 67.56 47.14 67.56 47.14 63.85 49.06 63.85 49.06 64.33"/>
      <path class="cls-3" d="M50.24,65.44h.01c.17-.23.42-.37.66-.37.42,0,.76.31.76.99v1.51h-.44v-1.51c0-.36-.17-.6-.44-.6-.19,0-.35.1-.56.35v1.75h-.44v-2.44h.44v.32Z"/>
      <path class="cls-3" d="M54.38,67.32c-.27.2-.51.29-.89.29-.7,0-1.09-.63-1.09-1.3,0-.74.43-1.24,1.05-1.24s.97.44.97,1.34h-1.57c.07.48.32.73.75.73.27,0,.52-.11.78-.29v.47ZM53.98,66.09c-.02-.37-.21-.61-.52-.61-.34,0-.54.22-.6.61h1.12Z"/>
      <path class="cls-3" d="M55.64,65.12v.56h.01c.22-.43.44-.61.65-.61.18,0,.35.09.53.28l-.24.42c-.13-.14-.31-.24-.41-.24-.3,0-.54.33-.54.75v1.28h-.44v-2.44h.44Z"/>
      <path class="cls-3" d="M59.13,65.49h-.46c.17.19.23.33.23.53s-.1.43-.21.55c-.3.35-.91.17-.91.46,0,.14.23.22.68.31.48.1.65.37.65.68,0,.48-.39.78-1.05.78-.6,0-1.03-.31-1.03-.74,0-.36.17-.57.56-.67-.15-.1-.23-.2-.23-.31,0-.16.14-.29.35-.35h0c-.16-.09-.29-.19-.37-.32-.08-.12-.12-.28-.12-.46,0-.52.37-.84.98-.84h.92v.38ZM57.96,67.68c-.3,0-.51.15-.51.37,0,.24.22.38.62.38s.62-.13.62-.35c0-.31-.46-.39-.73-.39M58.07,65.54c-.24,0-.44.2-.44.44,0,.27.18.45.45.45.25,0,.43-.19.43-.46,0-.23-.2-.43-.43-.43"/>
      <path class="cls-3" d="M59.96,64.67c-.14,0-.26-.13-.26-.29s.12-.29.26-.29.26.13.26.29-.12.29-.26.29M60.17,67.56h-.44v-2.44h.44v2.44Z"/>
      <path class="cls-3" d="M62.92,67.32c-.27.2-.51.29-.89.29-.69,0-1.08-.63-1.08-1.3,0-.74.43-1.24,1.04-1.24s.97.44.97,1.34h-1.57c.07.48.33.73.75.73.27,0,.52-.11.78-.29v.47ZM62.52,66.09c-.02-.37-.21-.61-.52-.61-.34,0-.54.22-.6.61h1.12Z"/>
      <polygon class="cls-3" points="27.75 57.61 27.57 57.61 27.44 56.9 27.44 56.25 27.84 56.25 27.84 56.9 27.75 57.61"/>
      <polygon class="cls-3" points="46.18 65.02 46 65.02 45.87 64.3 45.87 63.65 46.27 63.65 46.27 64.3 46.18 65.02"/>
    </g>
  </g>
</svg>