<?xml version="1.0" encoding="UTF-8"?>
<svg id="Calque_2" data-name="Calque 2" xmlns="http://www.w3.org/2000/svg" xmlns:xlink="http://www.w3.org/1999/xlink" viewBox="0 0 90.43 70.46">
  <defs>
    <style>
      .cls-1 {
        fill: none;
      }

      .cls-2 {
        fill: #5b869f;
      }

      .cls-3 {
        clip-path: url(#clippath);
      }

      .cls-4 {
        fill: #e5044c;
      }
    </style>
    <clipPath id="clippath">
      <rect class="cls-1" width="90.43" height="70.46"/>
    </clipPath>
  </defs>
  <g id="Calque_1-2" data-name="Calque 1">
    <g class="cls-3">
      <path class="cls-4" d="M83.46,46.37c-14.22-63.32-41.98-8.47-75.37-28.93v7.79c26.51,15.63,51.07-32.73,59.63,21.15h15.73Z"/>
      <path class="cls-2" d="M71.02,52.69h-1.76l-.37,1.19h-.94l1.72-4.96h1.03l1.65,4.96h-.97l-.36-1.19ZM70.82,51.99l-.64-2.32h-.01l-.71,2.32h1.36Z"/>
      <path class="cls-2" d="M73.1,50.83c0-.23-.01-.44-.03-.61h.85c.01.19.03.38.03.56h.02,0c.13-.22.39-.62,1-.62.86,0,1.12.62,1.12,1.36v2.36h-.91v-2.2c0-.56-.15-.79-.52-.79-.48,0-.65.39-.65.86v2.13h-.91v-3.06Z"/>
      <path class="cls-2" d="M80.68,48.92h.85v1.86h.01c.13-.22.39-.62,1.01-.62.86,0,1.12.62,1.12,1.36v2.36h-.91v-2.19c0-.56-.14-.79-.52-.79-.48,0-.64.39-.64.86v2.13h-.91v-4.96Z"/>
      <path class="cls-2" d="M77.1,50.44c.25-.11.62-.27,1.2-.27,1.17,0,1.45.55,1.45,1.47v1.6c0,.26.02.5.05.64h-.82c-.04-.14-.05-.32-.05-.5h-.02c-.23.3-.51.56-1.06.56-.59,0-1.13-.39-1.13-1.08,0-1,.84-1.24,1.99-1.24h.18v-.14c0-.36-.18-.7-.7-.7-.46,0-.86.22-1.04.36l-.05-.71ZM78.89,52.09h-.08c-.78,0-1.24.16-1.24.69,0,.33.23.56.58.56.54,0,.74-.39.74-1.05v-.21Z"/>
      <path class="cls-2" d="M26.42,39.19h-3.17l-.66,2.06h-1.69l3.09-8.58h1.85l2.97,8.58h-1.74l-.65-2.06ZM26.06,37.99l-1.16-4.01h-.03l-1.27,4.01h2.45Z"/>
      <path class="cls-2" d="M29.84,42.24c.38.2,1.15.54,2,.54,1.55,0,1.8-.99,1.8-1.99v-.6h-.02c-.27.49-.73,1.07-1.8,1.07-.95,0-2.38-.59-2.38-3.14,0-1.75.67-3.29,2.46-3.29.99,0,1.45.54,1.8,1.08h.05c0-.33.04-.65.05-.98h1.48c-.03.33-.05.66-.05.99v4.67c0,1.98-.65,3.39-3.14,3.39-1.08,0-1.94-.26-2.34-.39l.1-1.35ZM32.21,40.14c1.03,0,1.44-.69,1.44-2.13,0-1.33-.54-2.04-1.32-2.03-.86.01-1.19.75-1.19,2.04,0,1.49.51,2.11,1.07,2.11"/>
      <path class="cls-2" d="M41.71,40.95c-.35.14-1.06.41-2.04.41-2.19,0-3.14-1.47-3.14-3.17,0-1.89,1.07-3.36,2.8-3.36,1.46,0,2.72.8,2.72,3.38v.29h-3.93c0,1.08.46,1.73,1.73,1.73,1.01,0,1.48-.28,1.78-.49l.08,1.2ZM40.47,37.54c0-1.12-.4-1.68-1.13-1.68-.86,0-1.21.84-1.21,1.68h2.35Z"/>
      <path class="cls-2" d="M43.4,35.97c0-.39-.01-.76-.05-1.04h1.53c.02.32.05.65.05.97h.04-.01c.24-.38.7-1.07,1.81-1.07,1.55,0,2.01,1.07,2.01,2.35v4.08h-1.64v-3.79c0-.97-.26-1.38-.94-1.38-.86,0-1.16.68-1.16,1.49v3.69h-1.64v-5.28Z"/>
      <path class="cls-2" d="M54.74,41.1c-.38.14-.95.26-1.61.26-2.25,0-3.2-1.47-3.2-3.26s1.01-3.27,3.29-3.27c.52,0,1.12.15,1.43.26l-.09,1.2c-.3-.13-.7-.31-1.15-.31-1.24,0-1.78.77-1.78,2.13,0,1.18.61,2.09,1.87,2.09.39,0,.94-.17,1.16-.31l.09,1.21Z"/>
      <path class="cls-2" d="M60.7,40.95c-.34.14-1.05.41-2.03.41-2.19,0-3.14-1.47-3.14-3.17,0-1.89,1.07-3.36,2.8-3.36,1.47,0,2.72.8,2.72,3.38v.29h-3.93c0,1.08.46,1.73,1.73,1.73,1,0,1.48-.28,1.78-.49l.08,1.2ZM59.46,37.54c0-1.12-.39-1.68-1.14-1.68-.86,0-1.21.84-1.21,1.68h2.35Z"/>
      <path class="cls-2" d="M15.95,47.76c.36-.15.87-.37,1.69-.37,1.66,0,2.05.75,2.05,2v2.17c0,.36.04.69.07.88h-1.16c-.06-.19-.07-.44-.07-.68h-.02c-.32.41-.73.76-1.49.76-.83,0-1.6-.53-1.6-1.46,0-1.35,1.18-1.69,2.81-1.69h.26v-.18c0-.49-.26-.95-1-.95-.64,0-1.21.29-1.46.48l-.07-.97ZM18.49,50.01h-.12c-1.1,0-1.75.21-1.75.94,0,.45.32.76.82.76.76,0,1.05-.53,1.05-1.42v-.28Z"/>
      <path class="cls-2" d="M21.29,46.44l1.29-.37v1.39h1.07v.88h-1.07v2.58c0,.53.21.68.58.68.23,0,.39-.06.49-.1v.85c-.2.09-.48.17-.86.17-.96,0-1.5-.41-1.5-1.45v-2.73h-.85v-.88h.85v-1.03Z"/>
      <path class="cls-2" d="M24.76,45.35h1.33v1.18h-1.33v-1.18ZM24.78,47.47h1.29v4.98h-1.29v-4.98Z"/>
      <path class="cls-2" d="M29.45,47.39c1.09,0,2.35.53,2.35,2.56s-1.26,2.57-2.35,2.57-2.36-.49-2.36-2.57,1.27-2.56,2.36-2.56M29.45,51.67c.83,0,1.02-.89,1.02-1.72s-.19-1.71-1.02-1.71-1.02.88-1.02,1.71.2,1.72,1.02,1.72"/>
      <path class="cls-2" d="M32.81,48.29c0-.31,0-.6-.04-.82h1.2c.01.25.04.51.04.76h.03-.01c.19-.3.55-.84,1.42-.84,1.21,0,1.58.84,1.58,1.85v3.21h-1.29v-2.99c0-.76-.21-1.09-.74-1.09-.67,0-.91.53-.91,1.17v2.9h-1.29v-4.16Z"/>
      <path class="cls-2" d="M10.25,48.29c0-.31-.01-.6-.04-.82h1.2c.01.25.04.51.04.76h.03,0c.19-.3.55-.84,1.42-.84,1.22,0,1.58.84,1.58,1.85v3.21h-1.28v-2.99c0-.76-.21-1.09-.74-1.09-.67,0-.91.53-.91,1.17v2.9h-1.29v-4.16Z"/>
      <path class="cls-2" d="M38.5,47.76c.36-.15.87-.37,1.69-.37,1.66,0,2.04.75,2.04,2v2.17c0,.36.04.69.07.88h-1.16c-.06-.19-.07-.44-.07-.68h-.02c-.32.41-.73.76-1.49.76-.83,0-1.6-.53-1.6-1.46,0-1.35,1.18-1.69,2.81-1.69h.26v-.18c0-.49-.26-.95-.99-.95-.64,0-1.22.29-1.46.48l-.07-.97ZM41.03,50.01h-.11c-1.1,0-1.75.21-1.75.94,0,.45.32.76.82.76.77,0,1.05-.53,1.05-1.42v-.28Z"/>
      <rect class="cls-2" x="43.51" y="45.2" width="1.29" height="7.25"/>
      <path class="cls-2" d="M49.94,52.2c-.27.1-.83.32-1.6.32-1.72,0-2.47-1.15-2.47-2.49,0-1.49.84-2.64,2.2-2.64,1.15,0,2.14.63,2.14,2.66v.23h-3.09c0,.85.36,1.36,1.36,1.36.79,0,1.16-.22,1.4-.39l.06.95ZM48.96,49.53c0-.88-.31-1.32-.89-1.32-.67,0-.95.67-.95,1.32h1.85Z"/>
      <path class="cls-2" d="M14.58,57.86v6.3c0,.35.01.66.04.84h-1.19c-.02-.14-.04-.43-.04-.76h-.03c-.2.42-.58.84-1.4.84-1.31,0-1.85-1.16-1.85-2.52,0-1.6.68-2.53,1.82-2.53.76,0,1.18.4,1.36.78h.02v-2.94h1.27ZM12.21,64.22c.74,0,1-.75,1-1.68s-.29-1.65-.98-1.65-.95.64-.95,1.62c0,1.13.19,1.71.93,1.71"/>
      <rect class="cls-2" x="22.59" y="55.79" width="1.64" height="9.22"/>
      <polygon class="cls-2" points="25.81 56.13 27.13 56.13 27.13 57.16 26.88 59.18 25.81 59.18 25.81 56.13"/>
      <path class="cls-2" d="M36.02,59.04c.46-.19,1.11-.47,2.15-.47,2.12,0,2.6.96,2.6,2.54v2.77c0,.46.05.87.09,1.12h-1.48c-.08-.25-.09-.55-.09-.86h-.03c-.41.52-.92.96-1.9.96-1.05,0-2.03-.67-2.03-1.85,0-1.72,1.51-2.15,3.58-2.15h.33v-.24c0-.63-.33-1.2-1.27-1.2-.82,0-1.55.37-1.86.61l-.09-1.23ZM39.24,61.9h-.15c-1.4,0-2.23.27-2.23,1.2,0,.58.41.97,1.05.97.98,0,1.33-.67,1.33-1.81v-.36Z"/>
      <path class="cls-2" d="M43.96,55.79v3.8h.02c.24-.49.78-1.01,1.76-1.01,1.46,0,2.35,1.2,2.35,3.27,0,1.76-.7,3.26-2.39,3.26-1.06,0-1.55-.54-1.81-1.08h-.04c0,.43-.03.8-.05.99h-1.53c.04-.23.05-.63.05-1.08v-8.14h1.64ZM45.25,63.99c.95,0,1.2-.74,1.2-2.2,0-1.27-.32-2.09-1.23-2.09s-1.27.9-1.27,2.13.33,2.17,1.29,2.17"/>
      <path class="cls-2" d="M49.44,55.98h1.69v1.5h-1.69v-1.5ZM49.47,58.67h1.64v6.33h-1.64v-6.33Z"/>
      <path class="cls-2" d="M53.35,57.37l1.64-.47v1.77h1.36v1.12h-1.36v3.28c0,.67.26.87.74.87.29,0,.5-.07.62-.14v1.08c-.25.11-.61.21-1.1.21-1.21,0-1.9-.51-1.9-1.84v-3.47h-1.08v-1.12h1.08v-1.3Z"/>
      <path class="cls-2" d="M57.96,59.04c.46-.19,1.11-.47,2.15-.47,2.11,0,2.6.96,2.6,2.54v2.77c0,.46.05.87.1,1.12h-1.48c-.08-.25-.09-.55-.09-.86h-.03c-.41.52-.92.96-1.9.96-1.06,0-2.04-.67-2.04-1.85,0-1.72,1.51-2.15,3.58-2.15h.33v-.24c0-.63-.33-1.2-1.27-1.2-.82,0-1.54.37-1.86.61l-.1-1.23ZM61.18,61.9h-.15c-1.4,0-2.23.27-2.23,1.2,0,.58.41.97,1.04.97.98,0,1.34-.67,1.34-1.81v-.36Z"/>
      <path class="cls-2" d="M64.57,57.37l1.64-.47v1.77h1.36v1.12h-1.36v3.28c0,.67.26.87.74.87.29,0,.5-.07.62-.14v1.08c-.25.11-.61.21-1.1.21-1.21,0-1.9-.51-1.9-1.84v-3.47h-1.08v-1.12h1.08v-1.3Z"/>
      <path class="cls-2" d="M28.9,55.79h1.54v3.89h.03c.24-.38.7-1.06,1.82-1.06,1.56,0,2.02,1.06,2.02,2.33v4.05h-1.65v-3.77c0-.96-.27-1.36-.94-1.36-.87,0-1.17.67-1.17,1.47v3.66h-1.65v-9.22Z"/>
      <path class="cls-2" d="M19.61,64.79c-.27.1-.82.31-1.57.31-1.7,0-2.43-1.13-2.43-2.46,0-1.46.83-2.6,2.17-2.6,1.14,0,2.11.62,2.11,2.62v.23h-3.05c0,.84.36,1.35,1.34,1.35.78,0,1.15-.22,1.38-.38l.06.93ZM18.65,62.15c0-.86-.31-1.31-.88-1.31-.66,0-.94.65-.94,1.31h1.82Z"/>
      <path class="cls-2" d="M73.79,8.56c0,1.26-1.17,2.28-2.61,2.28h-7.63c-1.44,0-2.61-1.02-2.61-2.28V2.84c0-1.26,1.17-2.29,2.61-2.29h7.63c1.44,0,2.61,1.02,2.61,2.29v5.72Z"/>
    </g>
  </g>
</svg>