<?xml version="1.0" encoding="UTF-8"?>
<svg id="Calque_2" data-name="Calque 2" xmlns="http://www.w3.org/2000/svg" viewBox="0 0 273.8 102">
  <defs>
    <style>
      .cls-1 {
        fill: #fff;
      }

      .cls-2 {
        fill: #0371a0;
      }

      .cls-3 {
        fill: #3c5fa9;
      }

      .cls-4 {
        fill: #8d99cd;
      }

      .cls-5 {
        fill: none;
        stroke: #00a9d2;
        stroke-miterlimit: 15.35;
        stroke-width: .76px;
      }

      .cls-6 {
        fill: #a2bd1b;
      }
    </style>
  </defs>
  <g id="Calque_1-2" data-name="Calque 1">
    <g>
      <polygon class="cls-1" points="43.04 5.34 43.04 99.27 273.8 99.27 259.93 52.89 273.8 5.34 43.04 5.34"/>
      <polygon class="cls-3" points="113.17 18.84 115.8 18.84 115.8 34.58 121.01 34.58 121.01 37.21 113.17 37.21 113.17 18.84"/>
      <path class="cls-3" d="M124.7,29.6h2.58v-1.5c0-.98-.49-1.5-1.29-1.5s-1.29.52-1.29,1.5v1.5ZM124.7,31.66v1.78c0,.83.49,1.29,1.29,1.29,1.01,0,1.24-.75,1.29-1.32h2.63c0,1.08-.39,2.09-1.06,2.79-.7.72-1.65,1.16-2.86,1.16-1.6,0-2.81-.75-3.43-1.88-.36-.67-.49-1.6-.49-2.66v-4.31c0-1.06.13-1.99.49-2.66.62-1.14,1.83-1.88,3.43-1.88,2.43,0,3.92,1.78,3.92,4.08v3.61h-5.21Z"/>
      <path class="cls-3" d="M136.39,27.79c-.03-.88-.65-1.34-1.34-1.34-.83,0-1.29.64-1.29,1.32,0,.49.13.95,1.11,1.34l1.55.62c1.96.75,2.58,2.14,2.58,3.69,0,2.17-1.65,3.95-3.92,3.95-2.06,0-3.82-1.37-3.92-3.95h2.48c.1.72.44,1.47,1.42,1.47.75,0,1.47-.54,1.47-1.42,0-.72-.31-1.21-1.32-1.6l-1.26-.46c-1.65-.62-2.66-1.86-2.66-3.61,0-2.22,1.75-3.82,3.87-3.82s3.69,1.65,3.71,3.82h-2.48Z"/>
      <path class="cls-3" d="M234.19,26.29c-.03-1.02-.75-1.55-1.55-1.55-.96,0-1.49.75-1.49,1.52,0,.57.15,1.11,1.29,1.55l1.79.72c2.27.87,2.99,2.48,2.99,4.28,0,2.51-1.91,4.58-4.54,4.58-2.39,0-4.43-1.59-4.55-4.58h2.87c.12.84.51,1.7,1.65,1.7.87,0,1.7-.63,1.7-1.64,0-.84-.36-1.4-1.52-1.85l-1.47-.54c-1.91-.72-3.08-2.15-3.08-4.19,0-2.57,2.03-4.43,4.48-4.43s4.28,1.91,4.3,4.43h-2.87ZM222.56,17.44h3.05v4.6h1.88v2.39h-1.88v8.4c0,1.4.54,1.49,1.88,1.49v2.87h-1.26c-2.75,0-3.68-1.94-3.68-3.56v-9.21h-1.52v-2.39h1.52v-4.6ZM217.27,30.69c-.33-.06-.57-.09-.84-.09-1.32,0-2.39.54-2.39,2.15,0,1.17.6,1.94,1.59,1.94s1.64-.72,1.64-1.94v-2.06ZM217.27,35.65h-.06c-.81,1.11-1.46,1.73-2.93,1.73s-3.29-.69-3.29-4.04.99-5.14,4.81-5.14c.42,0,.84.06,1.47.09v-1.58c0-1.02-.39-1.79-1.52-1.79-.78,0-1.55.54-1.73,1.53h-2.96c.09-1.35.57-2.48,1.38-3.29.81-.81,1.94-1.29,3.32-1.29,2.54,0,4.58,1.61,4.58,4.78v10.56h-3.05v-1.55ZM203.66,32.84c0,.96.57,1.49,1.49,1.49,1.17,0,1.44-.87,1.5-1.52h3.05c0,1.26-.45,2.42-1.23,3.23-.81.84-1.91,1.35-3.32,1.35-1.85,0-3.26-.87-3.98-2.18-.42-.78-.57-1.85-.57-3.08v-4.99c0-1.23.15-2.3.57-3.08.72-1.32,2.12-2.18,3.98-2.18,2.81,0,4.55,2.03,4.55,4.84h-3.05c0-1.23-.57-1.79-1.5-1.79s-1.49.6-1.49,1.73v6.19ZM194.86,22.05h3.05v15.16h-3.05v-15.16ZM194.86,15.92h3.05v3.05h-3.05v-3.05ZM188.65,24.44h-1.5v-2.39h1.5v-2.06c0-2.93,1.94-4.07,3.92-4.07h1.41v2.87h-1.38c-.57,0-.9.39-.9,1.05v2.21h2.27v2.39h-2.27v12.77h-3.05v-12.77ZM182.69,22.05h3.05v15.16h-3.05v-15.16ZM182.69,15.92h3.05v3.05h-3.05v-3.05ZM176.59,17.44h3.05v4.6h1.88v2.39h-1.88v8.4c0,1.4.54,1.49,1.88,1.49v2.87h-1.26c-2.75,0-3.68-1.94-3.68-3.56v-9.21h-1.53v-2.39h1.53v-4.6ZM168.28,22.05h3.05v1.61c1.26-1.11,2.27-1.79,4.04-1.79v3.23c-.3-.12-.6-.18-.93-.18-1.28,0-3.11.81-3.11,3.29v9h-3.05v-15.16ZM159.99,28.39h2.99v-1.74c0-1.14-.57-1.73-1.49-1.73s-1.49.6-1.49,1.73v1.74ZM159.99,30.78v2.06c0,.96.57,1.49,1.49,1.49,1.17,0,1.43-.87,1.49-1.52h3.05c0,1.26-.45,2.42-1.23,3.23-.81.84-1.91,1.35-3.32,1.35-1.85,0-3.26-.87-3.98-2.18-.42-.78-.57-1.85-.57-3.08v-4.99c0-1.23.15-2.3.57-3.08.72-1.32,2.12-2.18,3.98-2.18,2.81,0,4.54,2.06,4.54,4.73v4.19h-6.04ZM149.38,32.84c0,.96.57,1.49,1.49,1.49,1.17,0,1.43-.87,1.49-1.52h3.05c0,1.26-.45,2.42-1.23,3.23-.81.84-1.91,1.35-3.32,1.35-1.85,0-3.26-.87-3.98-2.18-.42-.78-.57-1.85-.57-3.08v-4.99c0-1.23.15-2.3.57-3.08.72-1.32,2.12-2.18,3.98-2.18,2.81,0,4.54,2.03,4.54,4.84h-3.05c0-1.23-.57-1.79-1.49-1.79s-1.49.6-1.49,1.73v6.19Z"/>
      <path class="cls-4" d="M237.8,48.39c0-2.25-1.94-4.58-4.85-4.58-3.34,0-4.99,2.48-4.99,5.55,0,2.54.66,4.19,3.17,5.21l2.08.85c1.43.57,1.68.91,1.68,3.08,0,1.85-.14,3.02-2.11,3.02-1.48,0-2.05-1.03-2.05-2.08v-.91h-2.91v1.08c0,2.73,2.14,4.81,4.96,4.81,3.77,0,5.02-2.54,5.02-5.95,0-2.96-.48-4.58-3.05-5.55l-2.22-.88c-1.51-.6-1.65-1.14-1.65-2.71,0-1.34.37-2.62,1.97-2.62,1.48,0,2.05,1.11,2.05,2.45v.65h2.91v-1.42ZM217.26,64.25h8.67v-2.9h-5.76v-5.95h5.02v-2.73h-5.02v-5.95h5.76v-2.73h-8.67v20.28ZM210.96,64.25h2.91v-20.28h-2.91v20.28ZM194.45,64.25h2.91v-12.33h.06l2.85,8.71h1.45l2.88-8.71h.06v12.33h2.91v-20.28h-2.82l-3.71,10.74h-.06l-3.74-10.74h-2.79v20.28ZM181.56,59.47c0,3.3,2.51,4.96,4.88,4.96s4.88-1.65,4.88-4.96v-10.71c0-3.3-2.51-4.95-4.88-4.95s-4.88,1.65-4.88,4.95v10.71ZM184.46,48.76c0-1.4.91-2.05,1.97-2.05s1.97.65,1.97,2.05v10.71c0,1.39-.91,2.05-1.97,2.05s-1.97-.66-1.97-2.05v-10.71ZM168.38,64.25h2.91v-12.19h.06l4.45,12.19h2.74v-20.28h-2.91v12.22h-.06l-4.39-12.22h-2.79v20.28ZM155.6,59.47c0,3.3,2.51,4.96,4.88,4.96s4.88-1.65,4.88-4.96v-10.71c0-3.3-2.51-4.95-4.88-4.95s-4.88,1.65-4.88,4.95v10.71ZM158.51,48.76c0-1.4.91-2.05,1.97-2.05s1.97.65,1.97,2.05v10.71c0,1.39-.91,2.05-1.97,2.05s-1.97-.66-1.97-2.05v-10.71ZM152.84,58.47h-2.91v1c0,1.6-1.03,2.05-1.83,2.05-1.31,0-1.77-.91-1.77-2.08v-10.36c0-1.37.34-2.36,1.8-2.36,1.11,0,1.8.97,1.8,2.11v.97h2.91v-1.14c0-2.82-2-4.84-4.68-4.84-2.82,0-4.73,2.02-4.73,4.67v11.16c0,3.7,2.57,4.78,4.79,4.78,2.6,0,4.62-2.19,4.62-4.7v-1.25ZM132.47,64.25h8.67v-2.9h-5.76v-5.95h5.02v-2.73h-5.02v-5.95h5.76v-2.73h-8.67v20.28ZM134.81,43.07h1.88l3.77-4.02h-3.08l-2.57,4.02ZM126.43,48.99l2.91-2.11v-2.9h-2.91v5.01ZM113.88,64.25h4.05c3.42,0,5.36-1.79,5.36-5.55v-9.48c0-3.28-1.83-5.24-5.1-5.24h-4.31v20.28ZM116.79,46.71h1.34c1.71,0,2.25.91,2.25,2.51v9.77c0,1.74-.63,2.53-2.25,2.53h-1.34v-14.81Z"/>
      <path class="cls-5" d="M237.8,48.39c0-2.25-1.94-4.58-4.85-4.58-3.34,0-4.99,2.48-4.99,5.55,0,2.54.66,4.19,3.17,5.21l2.08.85c1.43.57,1.68.91,1.68,3.08,0,1.85-.14,3.02-2.11,3.02-1.48,0-2.05-1.03-2.05-2.08v-.91h-2.91v1.08c0,2.73,2.14,4.81,4.96,4.81,3.77,0,5.02-2.54,5.02-5.95,0-2.96-.48-4.58-3.05-5.55l-2.22-.88c-1.51-.6-1.65-1.14-1.65-2.71,0-1.34.37-2.62,1.97-2.62,1.48,0,2.05,1.11,2.05,2.45v.65h2.91v-1.42ZM217.26,64.25h8.67v-2.9h-5.76v-5.95h5.02v-2.73h-5.02v-5.95h5.76v-2.73h-8.67v20.28ZM210.96,64.25h2.91v-20.28h-2.91v20.28ZM194.45,64.25h2.91v-12.33h.06l2.85,8.71h1.45l2.88-8.71h.06v12.33h2.91v-20.28h-2.82l-3.71,10.74h-.06l-3.74-10.74h-2.79v20.28ZM181.56,59.47c0,3.3,2.51,4.96,4.88,4.96s4.88-1.65,4.88-4.96v-10.71c0-3.3-2.51-4.95-4.88-4.95s-4.88,1.65-4.88,4.95v10.71ZM184.46,48.76c0-1.4.91-2.05,1.97-2.05s1.97.65,1.97,2.05v10.71c0,1.39-.91,2.05-1.97,2.05s-1.97-.66-1.97-2.05v-10.71ZM168.38,64.25h2.91v-12.19h.06l4.45,12.19h2.74v-20.28h-2.91v12.22h-.06l-4.39-12.22h-2.79v20.28ZM155.6,59.47c0,3.3,2.51,4.96,4.88,4.96s4.88-1.65,4.88-4.96v-10.71c0-3.3-2.51-4.95-4.88-4.95s-4.88,1.65-4.88,4.95v10.71ZM158.51,48.76c0-1.4.91-2.05,1.97-2.05s1.97.65,1.97,2.05v10.71c0,1.39-.91,2.05-1.97,2.05s-1.97-.66-1.97-2.05v-10.71ZM152.84,58.47h-2.91v1c0,1.6-1.03,2.05-1.83,2.05-1.31,0-1.77-.91-1.77-2.08v-10.36c0-1.37.34-2.36,1.8-2.36,1.11,0,1.8.97,1.8,2.11v.97h2.91v-1.14c0-2.82-2-4.84-4.68-4.84-2.82,0-4.73,2.02-4.73,4.67v11.16c0,3.7,2.57,4.78,4.79,4.78,2.6,0,4.62-2.19,4.62-4.7v-1.25ZM132.47,64.25h8.67v-2.9h-5.76v-5.95h5.02v-2.73h-5.02v-5.95h5.76v-2.73h-8.67v20.28ZM134.81,43.07h1.88l3.77-4.02h-3.08l-2.57,4.02ZM126.43,48.99l2.91-2.11v-2.9h-2.91v5.01ZM113.88,64.25h4.05c3.42,0,5.36-1.79,5.36-5.55v-9.48c0-3.28-1.83-5.24-5.1-5.24h-4.31v20.28ZM116.79,46.71h1.34c1.71,0,2.25.91,2.25,2.51v9.77c0,1.74-.63,2.53-2.25,2.53h-1.34v-14.81Z"/>
      <path class="cls-4" d="M116.77,61.54h1.34c1.63,0,2.25-.8,2.25-2.54v-9.79c0-1.6-.54-2.51-2.25-2.51h-1.34v14.84ZM113.85,43.96h4.31c3.28,0,5.11,1.97,5.11,5.25v9.5c0,3.77-1.94,5.57-5.36,5.57h-4.05v-20.32Z"/>
      <polygon class="cls-4" points="126.38 43.96 129.29 43.96 129.29 46.87 126.38 48.98 126.38 43.96"/>
      <path class="cls-4" d="M137.33,39.02h3.08l-3.77,4.02h-1.88l2.57-4.02ZM132.43,43.96h8.67v2.74h-5.76v5.96h5.02v2.74h-5.02v5.96h5.76v2.91h-8.67v-20.32Z"/>
      <path class="cls-4" d="M152.77,59.74c0,2.51-2.03,4.71-4.62,4.71-2.23,0-4.8-1.09-4.8-4.8v-11.19c0-2.65,1.91-4.68,4.74-4.68s4.68,2.02,4.68,4.85v1.14h-2.91v-.97c0-1.14-.68-2.11-1.8-2.11-1.46,0-1.8,1-1.8,2.37v10.39c0,1.17.46,2.08,1.77,2.08.8,0,1.83-.46,1.83-2.05v-1h2.91v1.26Z"/>
      <path class="cls-4" d="M158.42,59.48c0,1.4.91,2.05,1.97,2.05s1.97-.66,1.97-2.05v-10.73c0-1.4-.91-2.05-1.97-2.05s-1.97.66-1.97,2.05v10.73ZM155.51,48.75c0-3.31,2.51-4.96,4.88-4.96s4.88,1.65,4.88,4.96v10.73c0,3.31-2.51,4.97-4.88,4.97s-4.88-1.66-4.88-4.97v-10.73Z"/>
      <polygon class="cls-4" points="168.29 43.96 171.09 43.96 175.48 56.2 175.54 56.2 175.54 43.96 178.45 43.96 178.45 64.28 175.71 64.28 171.26 52.06 171.2 52.06 171.2 64.28 168.29 64.28 168.29 43.96"/>
      <path class="cls-4" d="M184.38,59.48c0,1.4.91,2.05,1.97,2.05s1.97-.66,1.97-2.05v-10.73c0-1.4-.91-2.05-1.97-2.05s-1.97.66-1.97,2.05v10.73ZM181.47,48.75c0-3.31,2.51-4.96,4.88-4.96s4.88,1.65,4.88,4.96v10.73c0,3.31-2.51,4.97-4.88,4.97s-4.88-1.66-4.88-4.97v-10.73Z"/>
      <polygon class="cls-4" points="194.37 43.96 197.16 43.96 200.9 54.72 200.96 54.72 204.67 43.96 207.49 43.96 207.49 64.28 204.58 64.28 204.58 51.92 204.53 51.92 201.64 60.65 200.19 60.65 197.34 51.92 197.28 51.92 197.28 64.28 194.37 64.28 194.37 43.96"/>
      <rect class="cls-4" x="210.89" y="43.96" width="2.91" height="20.32"/>
      <polygon class="cls-4" points="217.16 43.96 225.84 43.96 225.84 46.7 220.08 46.7 220.08 52.66 225.1 52.66 225.1 55.4 220.08 55.4 220.08 61.37 225.84 61.37 225.84 64.28 217.16 64.28 217.16 43.96"/>
      <path class="cls-4" d="M237.68,49.81h-2.91v-.66c0-1.34-.57-2.45-2.05-2.45-1.6,0-1.97,1.29-1.97,2.63,0,1.57.14,2.11,1.66,2.71l2.23.88c2.57.97,3.05,2.6,3.05,5.56,0,3.43-1.26,5.97-5.02,5.97-2.83,0-4.97-2.08-4.97-4.82v-1.08h2.91v.91c0,1.06.57,2.08,2.06,2.08,1.97,0,2.11-1.17,2.11-3.02,0-2.17-.26-2.51-1.68-3.08l-2.08-.86c-2.51-1.03-3.17-2.68-3.17-5.22,0-3.08,1.65-5.56,4.99-5.56,2.91,0,4.85,2.34,4.85,4.59v1.43Z"/>
      <path class="cls-6" d="M119.06,84.6h1.33c.85,0,1.56-.41,2.15-1.23.58-.82.87-1.94.87-3.36,0-1.21-.26-2.26-.78-3.14-.52-.88-1.26-1.32-2.24-1.32h-1.33v9.06ZM113.94,88.43v-16.68h6.45c2.8,0,4.9.83,6.29,2.49,1.39,1.66,2.09,3.58,2.09,5.77,0,2.49-.75,4.52-2.24,6.08-1.5,1.56-3.44,2.34-5.82,2.34h-6.77Z"/>
      <polygon class="cls-6" points="135.03 71.75 135.03 75.25 132.75 78.95 130.82 78.95 132.5 75.63 130.82 75.63 130.82 71.75 135.03 71.75"/>
      <path class="cls-6" d="M141.84,68.65l5.59-2.74.89,2.38-5.84,2.03-.64-1.67ZM150.37,84.45v3.98h-12.55v-16.68h12.55v3.85h-7.53v2.42h6.09v3.7h-6.09v2.73h7.53Z"/>
      <path class="cls-6" d="M166.66,88.43h-4.17l-4.57-7.37c-.59-.95-1.18-2.09-1.77-3.45.27,1.08.4,1.99.4,2.74v8.08h-4.16v-16.68h4.84l3.89,6.11c.77,1.21,1.36,2.28,1.76,3.2-.26-1.43-.39-2.88-.39-4.38v-4.94h4.17v16.68Z"/>
      <polygon class="cls-6" points="182.12 84.45 182.12 88.43 169.57 88.43 169.57 71.75 182.12 71.75 182.12 75.6 174.6 75.6 174.6 78.02 180.68 78.02 180.68 81.73 174.6 81.73 174.6 84.45 182.12 84.45"/>
      <path class="cls-6" d="M189.27,78.49h2.19c.64,0,1.16-.14,1.55-.4.39-.27.59-.66.59-1.18,0-1.07-.66-1.6-1.97-1.6h-2.36v3.19ZM199,88.43h-5.68l-2.44-6.38h-1.62v6.38h-5.12v-16.68h8.71c1.92,0,3.42.45,4.48,1.35,1.06.9,1.6,2.09,1.6,3.56,0,.96-.2,1.81-.59,2.55-.39.74-1.18,1.39-2.37,1.95l3.02,7.27Z"/>
      <path class="cls-6" d="M215.66,79.09v9.35h-2.51c-.2-.69-.43-1.27-.67-1.75-1.04,1.34-2.57,2-4.6,2-2.15,0-3.92-.75-5.3-2.25-1.39-1.5-2.08-3.54-2.08-6.11s.67-4.59,2.01-6.29c1.34-1.7,3.34-2.55,5.98-2.55,1.99,0,3.59.51,4.8,1.52,1.21,1.01,2,2.44,2.36,4.3l-4.96.49c-.24-1.74-1.01-2.6-2.29-2.6-1.68,0-2.52,1.6-2.52,4.79,0,1.93.27,3.21.81,3.82.54.62,1.19.92,1.96.92.62,0,1.15-.19,1.58-.56.44-.37.66-.89.66-1.54h-2.76v-3.54h7.52Z"/>
      <rect class="cls-6" x="218.36" y="71.75" width="5.12" height="16.68"/>
      <polygon class="cls-6" points="238.94 84.45 238.94 88.43 226.39 88.43 226.39 71.75 238.94 71.75 238.94 75.6 231.41 75.6 231.41 78.02 237.5 78.02 237.5 81.73 231.41 81.73 231.41 84.45 238.94 84.45"/>
      <path class="cls-6" d="M99.08,39.19c-1.32-5.3-.74-11.35-3.48-15.75-2.84-4.56-8.55-6.67-12.56-10.05-4.05-3.42-7.12-8.7-12.01-10.71-3.11-1.27-6.63-1.06-10.16-.84-1.96.12-3.93.24-5.84.1-5.14-.37-10.68-2.88-15.94-1.56-5.27,1.31-8.98,6.13-13.34,8.86-4.52,2.84-10.43,4.14-13.78,8.16-3.38,4.07-3.61,10.17-5.58,15.09C4.44,37.37.39,41.91.03,47.27c-.35,5.17,3,10.24,4.32,15.54,1.32,5.3.74,11.35,3.48,15.75,2.83,4.56,8.54,6.66,12.56,10.05,4.05,3.42,7.12,8.7,12.01,10.71,3.11,1.27,6.63,1.06,10.16.84,1.96-.12,3.93-.24,5.84-.1,5.14.37,10.68,2.88,15.94,1.56,5.26-1.31,8.98-6.13,13.34-8.86,4.52-2.84,10.43-4.14,13.78-8.16,3.38-4.07,3.6-10.17,5.58-15.09,1.95-4.87,6.01-9.41,6.37-14.77.35-5.17-3-10.24-4.32-15.54"/>
      <path class="cls-1" d="M94.17,40.41c-5.89-23.63-29.68-38.05-53.13-32.2C17.59,14.06,3.36,37.95,9.25,61.59c5.89,23.64,29.68,38.05,53.13,32.21,23.45-5.85,37.68-29.75,31.79-53.38"/>
      <path class="cls-2" d="M42.68,11.78c-.44.1-.88-.18-.98-.62-.1-.45.17-.89.61-.99.44-.1.88.18.99.62.1.44-.17.88-.6.98h-.02ZM38.94,11.97c-.13-.44.11-.9.54-1.04.43-.13.89.12,1.03.55.13.44-.11.9-.55,1.03h-.04c-.42.11-.85-.13-.98-.55M45.45,11.25h0c-.45.07-.87-.24-.94-.69-.07-.45.23-.88.68-.95.45-.07.87.24.94.69.07.43-.2.83-.61.93l-.07.02ZM36.24,12.95c-.17-.43.05-.9.47-1.07.42-.16.9.05,1.06.48.17.43-.05.91-.47,1.07l-.1.03c-.39.1-.82-.12-.96-.51M48.25,10.91c-.45.04-.85-.3-.89-.75-.04-.45.29-.86.74-.89.45-.04.85.3.89.76.03.41-.23.77-.62.87l-.13.02ZM33.61,14.13c-.19-.41-.01-.9.39-1.1.41-.19.9-.01,1.09.4.19.41.02.9-.39,1.1l-.15.05c-.37.09-.77-.09-.94-.46M51.06,10.77c-.45,0-.83-.36-.83-.82,0-.46.35-.83.81-.84.45,0,.83.36.83.81,0,.39-.26.72-.62.81l-.18.02ZM31.08,15.5c-.22-.4-.08-.9.32-1.13.4-.22.9-.07,1.12.33.22.4.08.9-.32,1.12l-.2.08c-.35.09-.73-.07-.92-.4M53.88,10.84c-.46-.03-.8-.42-.78-.88.02-.45.41-.8.86-.78.46.03.8.42.78.88-.02.37-.28.67-.62.75-.08.02-.16.03-.24.02M28.65,17.04c-.25-.38-.14-.9.24-1.14.38-.25.89-.14,1.14.24.25.39.14.9-.24,1.15-.08.05-.16.09-.25.11-.33.08-.69-.05-.89-.35M56.69,11.1c-.45-.06-.77-.47-.71-.93.06-.45.47-.77.92-.71.45.06.77.47.71.93-.04.35-.29.62-.61.7-.1.02-.2.03-.31.02M26.33,18.76c-.27-.37-.21-.88.16-1.16.36-.27.88-.2,1.15.16.27.37.2.88-.15,1.16-.09.07-.19.12-.3.14-.31.08-.65-.03-.85-.3M59.47,11.56c-.45-.09-.73-.53-.65-.97.09-.45.52-.74.97-.64.44.09.73.52.64.97-.06.32-.31.57-.61.64-.11.03-.24.03-.36,0M24.15,20.63c-.3-.34-.27-.86.07-1.16.34-.3.86-.26,1.16.08.3.34.27.87-.07,1.16-.1.09-.22.15-.34.18-.29.07-.61-.02-.82-.26M62.21,12.23c-.44-.12-.7-.58-.58-1.02.12-.44.57-.7,1.01-.58.44.12.7.58.58,1.02-.08.3-.31.51-.59.58-.13.03-.28.03-.42,0M22.1,22.66c-.33-.32-.33-.84,0-1.17h0c.32-.33.84-.33,1.16,0,.32.32.33.85,0,1.17-.11.11-.25.18-.38.22-.27.07-.56,0-.78-.21M64.9,13.08c-.43-.15-.66-.63-.5-1.06.15-.43.62-.66,1.04-.5.43.15.65.62.5,1.05-.1.27-.32.46-.57.53-.15.04-.31.03-.47-.02M20.19,24.83c-.35-.3-.39-.82-.09-1.17.3-.35.82-.38,1.16-.08.35.29.39.82.09,1.16-.11.14-.26.23-.43.27-.25.06-.52,0-.73-.17M67.52,14.12c-.41-.18-.61-.67-.43-1.09.18-.42.66-.61,1.08-.43.41.18.61.67.43,1.09-.11.24-.32.41-.56.47-.17.04-.35.03-.53-.04M18.45,27.13c-.36-.27-.44-.79-.17-1.16.27-.36.78-.44,1.14-.17.37.27.44.79.18,1.16-.12.16-.28.27-.46.31-.23.06-.48.01-.69-.14M70.07,15.35c-.4-.21-.56-.71-.35-1.12.21-.4.71-.56,1.11-.35.4.21.56.71.35,1.11-.12.22-.31.37-.53.42-.19.05-.39.03-.58-.07M16.87,29.54c-.38-.25-.5-.76-.25-1.14.24-.39.75-.5,1.13-.25.39.24.5.76.26,1.14-.12.19-.3.31-.49.36-.21.05-.44.02-.64-.11M72.53,16.75c-.39-.24-.51-.75-.27-1.14.23-.39.74-.51,1.13-.27.39.24.51.75.28,1.14-.12.19-.3.32-.5.37-.21.05-.43.02-.63-.1M15.46,32.07c-.4-.22-.54-.72-.33-1.12.22-.4.71-.55,1.12-.33.4.22.55.72.33,1.12-.11.21-.3.35-.52.41-.2.05-.41.02-.59-.08M74.88,18.32c-.37-.27-.46-.78-.2-1.15.26-.37.78-.45,1.14-.19.37.27.46.78.2,1.15-.12.17-.29.28-.47.32-.22.06-.47.01-.67-.13M14.24,34.68c-.42-.19-.6-.68-.41-1.1.19-.42.67-.6,1.09-.41.41.19.59.68.41,1.1-.11.24-.32.4-.55.46-.18.04-.36.03-.54-.05M77.12,20.05h0c-.35-.29-.4-.81-.11-1.16.28-.35.8-.4,1.15-.11.35.29.4.81.11,1.17-.11.14-.27.23-.43.27-.25.06-.51,0-.72-.17M13.19,37.38c-.42-.16-.64-.64-.48-1.06.16-.43.64-.64,1.05-.48.43.16.65.64.49,1.06-.1.27-.32.45-.57.51-.16.04-.32.03-.49-.03M79.23,21.95c-.33-.32-.34-.84-.03-1.17.31-.33.83-.34,1.16-.02s.34.84.03,1.17c-.11.12-.25.19-.39.23-.26.07-.55,0-.77-.2M12.34,40.14c-.43-.13-.68-.59-.56-1.03.13-.44.58-.69,1.02-.56.43.13.68.59.56,1.03-.08.29-.32.5-.59.57-.13.03-.28.03-.43,0M81.21,23.98c-.31-.34-.29-.86.05-1.17.33-.31.85-.29,1.16.06.3.34.28.86-.05,1.17-.1.09-.23.16-.35.19-.28.07-.6-.01-.8-.25M11.69,42.96c-.44-.1-.72-.54-.62-.98.1-.45.53-.73.98-.63.44.1.72.54.63.99-.07.32-.31.55-.6.62-.12.03-.24.03-.38,0M83.04,26.15c-.28-.36-.22-.88.13-1.16.35-.28.87-.22,1.15.14.28.36.22.88-.13,1.16-.09.07-.2.12-.31.15-.3.08-.64-.02-.84-.29M11.23,45.81c-.45-.07-.76-.48-.7-.94.06-.45.48-.76.93-.7.45.07.76.49.7.94-.05.34-.3.6-.61.68-.1.02-.21.03-.32.01M84.71,28.44c-.26-.38-.16-.89.22-1.15.38-.26.89-.16,1.14.22.26.38.16.89-.22,1.15-.08.06-.17.09-.26.12-.32.08-.68-.04-.88-.34M10.98,48.7c-.45-.04-.79-.43-.76-.89.04-.46.43-.8.88-.76.45.03.79.43.76.88-.03.37-.29.66-.62.74-.08.02-.17.03-.26.02M86.22,30.85c-.23-.39-.1-.9.29-1.13.39-.23.89-.09,1.12.3.23.4.1.9-.29,1.13l-.21.09c-.35.09-.72-.07-.91-.39M10.93,51.6c-.45,0-.82-.38-.82-.83,0-.46.37-.83.82-.82.45,0,.82.38.82.83,0,.39-.26.71-.62.8l-.2.03ZM87.55,33.35c-.2-.41-.03-.91.38-1.1.41-.2.9-.03,1.1.38.2.41.04.9-.37,1.11l-.17.06c-.37.09-.76-.08-.93-.44M11.09,54.49c-.45.03-.85-.32-.88-.77-.03-.45.31-.85.76-.88.45-.03.84.32.88.77.03.41-.24.76-.62.86l-.14.02ZM88.7,35.94c-.17-.42.03-.91.45-1.08.42-.17.9.04,1.07.46.17.43-.03.91-.45,1.08l-.11.04c-.39.1-.8-.11-.96-.49M11.45,57.36c-.45.06-.86-.26-.93-.71-.06-.45.25-.87.7-.93.45-.06.87.25.93.71h0c.06.43-.21.82-.61.92l-.09.02ZM89.67,38.61c-.14-.43.09-.89.52-1.04.43-.14.9.1,1.04.53.14.43-.1.9-.53,1.04h-.06c-.41.12-.84-.12-.98-.54M12.01,60.21c-.45.09-.88-.19-.98-.64-.1-.45.18-.89.63-.98.44-.1.88.19.97.64.09.43-.18.86-.6.97h-.03ZM90.47,41.43h0s0,0,0,0ZM90.47,41.43v-.05s-.02-.04-.02-.04c-.11-.44.16-.89.6-1,.44-.11.88.16.99.6v.05s.02.05.02.05h0c.11.45-.16.89-.6,1-.44.11-.89-.16-1-.6M11.75,62.44c-.13-.44.13-.9.56-1.02.43-.13.89.13,1.02.57.13.44-.13.9-.56,1.02h-.03c-.43.12-.86-.14-.99-.57M92.01,44.88c-.45.08-.87-.22-.95-.67-.08-.45.22-.88.67-.95.45-.08.87.22.95.67.07.43-.19.84-.61.94h-.06ZM12.65,65.25c-.15-.43.06-.9.49-1.06.43-.15.9.06,1.05.5.15.43-.07.9-.49,1.06l-.08.02c-.4.1-.82-.12-.97-.52M92.35,47.77c-.45.04-.85-.29-.9-.74-.05-.45.28-.86.73-.9.45-.05.85.28.9.74.04.42-.22.79-.61.89l-.12.02ZM13.76,67.99c-.18-.42,0-.91.41-1.09.41-.18.9,0,1.08.42h0c.18.42,0,.9-.41,1.09l-.13.05c-.38.1-.78-.09-.95-.47M92.49,50.66c-.45.01-.83-.35-.85-.8-.01-.46.34-.83.79-.85.45-.01.84.35.85.8.01.39-.25.74-.62.83l-.18.02ZM15.05,70.65c-.21-.4-.07-.9.33-1.11.4-.21.9-.06,1.11.34.21.4.06.9-.34,1.12l-.19.07c-.36.09-.74-.07-.92-.42M92.43,53.55c-.45-.02-.81-.4-.79-.86.02-.46.4-.81.85-.79.45.02.81.4.79.86-.01.37-.27.68-.62.77-.07.02-.15.03-.23.02M16.52,73.21c-.24-.39-.13-.9.26-1.14.38-.24.89-.12,1.13.26h0c.24.39.12.9-.26,1.14-.08.05-.16.08-.24.1-.34.08-.7-.05-.89-.36M92.16,56.44c-.45-.05-.78-.46-.73-.91.05-.46.46-.78.91-.73.45.05.78.46.73.91-.04.36-.29.63-.61.71-.09.02-.19.03-.29.02M18.18,75.66c-.26-.37-.19-.89.18-1.16.37-.27.88-.18,1.15.18.26.37.19.89-.18,1.16-.09.06-.18.11-.28.14-.31.08-.66-.04-.87-.32M91.69,59.29c-.45-.08-.74-.51-.66-.96.08-.45.51-.74.96-.66.45.08.74.52.66.96h0c-.06.33-.3.58-.61.65-.11.03-.23.03-.34,0M20,77.99c-.29-.35-.25-.87.09-1.16.35-.3.86-.25,1.16.1.29.35.25.87-.1,1.17-.1.08-.21.14-.33.17-.29.07-.62-.02-.83-.27M91.01,62.1c-.44-.12-.7-.57-.59-1.01.11-.45.56-.71,1-.6.44.12.7.57.59,1.01-.08.3-.31.53-.6.6-.13.03-.27.03-.4,0M21.98,80.18h0c-.32-.33-.31-.85,0-1.17.33-.32.84-.31,1.16.01.32.33.31.85-.01,1.17-.11.1-.24.17-.38.21-.27.07-.57,0-.79-.23M90.15,64.86c-.43-.14-.66-.61-.52-1.05.14-.43.61-.66,1.04-.52.43.14.66.61.52,1.05-.09.28-.31.47-.58.54-.15.04-.31.03-.46-.02M24.11,82.23c-.34-.3-.37-.83-.07-1.17.3-.34.82-.37,1.16-.07.34.3.37.83.07,1.17-.11.13-.26.21-.41.25-.26.06-.54,0-.75-.18M89.09,67.55c-.42-.18-.62-.66-.44-1.08.17-.42.65-.62,1.07-.45.42.18.62.66.45,1.08-.1.25-.32.42-.56.48-.16.04-.34.03-.51-.04M26.37,84.11c-.36-.28-.43-.8-.15-1.16.28-.36.79-.43,1.15-.15.36.28.43.8.15,1.16-.12.15-.28.26-.45.3-.23.06-.49.01-.7-.15M87.85,70.16c-.41-.21-.57-.7-.37-1.11.2-.41.69-.57,1.1-.37.41.2.57.7.37,1.11-.11.22-.31.37-.54.43-.18.05-.38.03-.56-.06M28.76,85.84h0c-.38-.26-.48-.77-.23-1.15.25-.38.76-.48,1.14-.23.37.25.48.77.23,1.14-.12.18-.3.3-.49.34-.22.05-.45.02-.65-.11M86.43,72.67c-.39-.23-.52-.74-.29-1.13.23-.39.73-.52,1.12-.29.39.23.52.74.29,1.13-.11.2-.3.33-.5.38-.2.05-.42.03-.61-.09M31.27,87.39c-.39-.22-.53-.73-.31-1.12.22-.39.72-.54,1.12-.31.39.23.53.73.31,1.13-.11.2-.3.34-.51.39-.2.05-.41.03-.6-.08M84.83,75.07c-.37-.26-.47-.77-.21-1.15.26-.37.77-.47,1.14-.21.37.26.46.77.21,1.15-.12.17-.29.28-.48.33-.22.05-.46.02-.66-.12M33.87,88.76c-.41-.2-.58-.69-.39-1.1.19-.41.68-.58,1.09-.39.41.2.58.69.39,1.1-.11.23-.32.39-.54.44-.17.04-.37.03-.55-.06M83.07,77.36c-.35-.29-.41-.8-.13-1.16.28-.35.8-.41,1.15-.13.35.29.41.81.13,1.16-.12.14-.27.24-.45.28-.24.06-.5,0-.71-.16M36.56,89.95c-.42-.17-.63-.65-.46-1.07.17-.43.64-.63,1.06-.47.42.17.63.65.46,1.07-.1.26-.31.43-.56.5-.16.04-.33.03-.5-.03M81.16,79.52c-.34-.31-.36-.83-.05-1.17.31-.33.82-.36,1.16-.04.33.31.35.83.05,1.16-.11.12-.25.2-.4.24-.26.07-.54,0-.75-.2M39.33,90.94c-.43-.14-.67-.6-.54-1.04.14-.43.6-.67,1.03-.54.43.14.67.6.54,1.04-.09.29-.32.49-.58.56-.14.04-.3.03-.45-.02M79.09,81.54c-.31-.34-.3-.86.03-1.17.33-.31.85-.29,1.16.04.31.33.3.85-.03,1.17-.1.1-.23.17-.36.2-.28.07-.59-.01-.8-.23M42.16,91.73c-.44-.11-.71-.56-.61-1,.11-.45.55-.72.99-.61.44.11.71.55.61,1-.07.31-.31.54-.6.61-.12.03-.26.03-.39,0M76.89,83.4c-.29-.35-.24-.87.12-1.16.35-.29.87-.23,1.15.12.29.35.23.87-.12,1.16-.1.08-.21.13-.32.16-.3.07-.63-.02-.84-.28M45.03,92.32c-.45-.08-.75-.5-.68-.95.07-.45.5-.76.94-.68.45.08.75.5.68.95-.05.34-.3.59-.61.67-.1.03-.21.03-.33.01M74.57,85.1c-.26-.37-.17-.89.2-1.15.37-.26.88-.17,1.14.2.26.37.17.89-.2,1.15-.09.06-.18.1-.27.12-.32.08-.67-.04-.87-.32M47.94,92.7c-.45-.04-.79-.44-.74-.9.04-.46.44-.79.89-.75.45.04.78.45.74.9-.03.36-.29.64-.61.72-.09.02-.18.03-.28.02M72.12,86.63c-.23-.39-.11-.9.27-1.13.39-.24.89-.11,1.13.28.23.39.11.9-.28,1.14-.07.04-.15.07-.23.09-.34.08-.71-.06-.9-.38M50.87,92.87c-.45-.01-.81-.39-.81-.85,0-.46.38-.81.84-.8.45,0,.81.39.8.84,0,.38-.27.7-.62.79l-.21.02ZM69.58,87.98c-.21-.41-.04-.91.36-1.11.41-.21.9-.05,1.11.36.21.41.05.9-.36,1.11l-.17.07c-.36.09-.75-.08-.93-.43M53.8,92.84c-.46.02-.84-.33-.86-.79-.02-.46.33-.84.78-.86.45-.02.84.33.86.79.02.4-.25.75-.62.84l-.16.03ZM66.95,89.14c-.18-.42.02-.9.44-1.08.42-.17.9.02,1.07.45.18.42-.02.91-.43,1.08l-.12.04c-.39.1-.79-.1-.96-.48M56.73,92.59c-.45.05-.86-.27-.92-.73-.05-.45.27-.86.72-.92.45-.06.86.27.91.72.05.42-.22.8-.61.9l-.1.02ZM64.25,90.11c-.15-.43.08-.9.51-1.05.43-.14.9.08,1.04.52.15.43-.08.9-.51,1.05l-.07.02c-.41.1-.83-.12-.97-.54M59.62,92.14c-.44.09-.88-.21-.96-.66-.09-.45.2-.88.65-.97.44-.08.88.21.96.66.08.43-.19.85-.61.96h-.04ZM61.48,90.9c-.12-.44.14-.89.58-1.01.43-.12.89.14,1.01.59.12.44-.14.89-.58,1.01h-.01c-.43.11-.88-.15-.99-.59"/>
      <path class="cls-3" d="M39.36,63.41c.61,4.98-2.88,9.84-8.03,10.48-4.42.54-9.78-.99-10.69-8.35l-2.73-22.21c-.65-5.27,2.65-9.76,8.26-10.45,5.32-.65,9.79,2.88,10.47,8.49l.28,2.27-5.78.71-.24-1.93c-.28-2.27-1.87-4.02-4.08-3.75-2.89.36-3.33,2.42-2.99,5.14l2.53,20.62c.29,2.32,1.41,4.02,4.02,3.7,1.59-.19,3.52-1.35,3.12-4.52l-.24-1.98,5.78-.71.31,2.49Z"/>
      <polygon class="cls-3" points="39.65 31.57 56.87 29.46 57.54 34.9 46.1 36.3 47.55 48.14 57.52 46.92 58.19 52.36 48.22 53.58 49.67 65.42 61.12 64.02 61.82 69.8 44.6 71.91 39.65 31.57"/>
      <polygon class="cls-3" points="62.02 28.83 79.25 26.71 79.92 32.15 68.47 33.56 69.93 45.4 79.9 44.17 80.56 49.61 70.59 50.83 72.05 62.67 83.49 61.27 84.2 67.05 66.98 69.16 62.02 28.83"/>
    </g>
  </g>
</svg>