<?xml version="1.0" encoding="UTF-8"?>
<svg id="Calque_2" data-name="Calque 2" xmlns="http://www.w3.org/2000/svg" xmlns:xlink="http://www.w3.org/1999/xlink" viewBox="0 0 100.66 74.06">
  <defs>
    <style>
      .cls-1 {
        fill: url(#Dégradé_sans_nom_5);
      }

      .cls-2 {
        fill: #fff;
      }

      .cls-3 {
        fill: #0071b9;
      }
    </style>
    <linearGradient id="Dégradé_sans_nom_5" data-name="Dégradé sans nom 5" x1="-50.15" y1="96.21" x2="-13.71" y2="96.21" gradientTransform="translate(29.11 -86.68) rotate(-13.88)" gradientUnits="userSpaceOnUse">
      <stop offset="0" stop-color="#4c3088"/>
      <stop offset="1" stop-color="#80368a"/>
    </linearGradient>
  </defs>
  <g id="Calque_1-2" data-name="Calque 1">
    <g>
      <polygon class="cls-2" points="31.18 26.24 50.32 5.56 69.32 26.12 50.2 37.12 31.18 26.24"/>
      <path class="cls-3" d="M14.58,51.77c-.25.64-.43,1.31-.5,1.95-1.21.64-2.79,1.01-4.67,1.02-5.31.01-8.46-3.3-8.47-7.63-.02-6.32,4.26-8.76,9.07-8.77,1.6,0,3.62.47,4.68,1.11-.3.76-.45,1.56-.52,2.34h-.32c-1.15-1.42-2.32-2.03-3.94-2.03-2.45,0-5.22,2.14-5.2,7,.01,4.72,2.81,6.56,5.44,6.56,1.47,0,3.16-.7,4.14-1.73l.3.18Z"/>
      <path class="cls-3" d="M17.24,44.96c0-2.57-.06-4.33-.2-6.34,1.35.02,2.73.11,4.08.1,2.24,0,4.17-.06,4.79-.13-.05.28-.09.55-.09.96,0,.48.05.69.1,1.03-1.74-.11-4.49-.26-5.18-.26-.11,1.67-.11,3.32-.1,4.99,1.99-.05,3.46-.1,5.2-.2-.09.53-.11.73-.11,1.03,0,.25.04.46.12.94-1.74-.13-3.46-.2-5.2-.19,0,.96-.02,1.95-.01,2.93,0,.96.03,1.95.08,2.86,1.72,0,3.48-.1,5.24-.31-.04.32-.09.55-.09,1.03,0,.48.05.71.1.99-.82-.02-1.9-.11-4.01-.1-3.73,0-4.35.08-4.86.13.13-2.02.17-3.78.17-6.35v-3.11Z"/>
      <path class="cls-3" d="M32.5,47.1h-.21v.94c.01,2.56.06,4.33.2,6.34-.5-.05-1.12-.11-1.88-.11-.75,0-1.37.07-1.88.12.13-2.01.17-3.78.17-6.34v-3.11c-.01-2.57-.06-4.33-.21-6.34.5.04,1.12.11,1.88.11.83,0,1.81-.12,3.37-.12,2.31,0,3.16.2,3.96.77.92.66,1.49,1.67,1.5,3.02,0,2.22-1.27,3.65-3.54,4.22,1.47,2.58,3.22,5.19,4.9,7.78-.69-.04-1.38-.11-2.07-.11-.68,0-1.39.07-2.08.12l-4.12-7.28ZM32.35,39.89c-.04,2.08-.06,4.14-.05,6.23.18.02.34.05.5.05,2.02,0,3.11-1.13,3.11-3.28,0-2.7-1.06-3-3.56-2.99"/>
      <path class="cls-3" d="M45.18,42.28c0-.87,0-1.69-.07-2.01-.89,0-2.82.14-4.19.3.07-.34.11-.66.11-1.01,0-.34-.05-.66-.12-1.01,2.08.06,3.12.11,5.96.1,2.84,0,3.87-.06,5.82-.13-.07.34-.11.66-.11,1.01,0,.34.05.66.12,1.01-1.24-.15-3.16-.29-4.08-.29-.05.32-.04,1.15-.04,2.01l.02,5.72c0,2.57.05,4.33.2,6.35-.51-.04-1.12-.11-1.88-.11-.75,0-1.37.07-1.88.12.13-2.01.17-3.78.17-6.35l-.02-5.73Z"/>
      <path class="cls-3" d="M55.31,44.86c0-2.56-.06-4.33-.2-6.34.5.04,1.12.11,1.88.11.76,0,1.38-.07,1.88-.12-.14,2.02-.18,3.78-.17,6.34v3.12c.01,2.56.07,4.33.21,6.34-.5-.05-1.12-.11-1.88-.11-.75,0-1.37.07-1.88.12.13-2.01.17-3.78.17-6.35v-3.11Z"/>
      <path class="cls-3" d="M62.85,44.85c0-2.57-.06-4.33-.2-6.34.51.05,1.12.11,1.88.11,1.31,0,2.82-.12,4.12-.12,2.75,0,4.63,1.04,4.64,3.54,0,2.5-2.3,3.55-3.72,3.79v.04c1.4.07,4.12,1.07,4.13,3.84,0,3.28-2.6,4.59-5.33,4.6-1.21,0-2.22-.11-3.37-.11-.82,0-1.81.08-2.31.12.13-2.02.17-3.78.17-6.34v-3.12ZM67.44,39.8c-.66,0-.82.02-1.12.07-.04,1.12-.08,2.4-.08,3.18,0,.82.03,1.56.03,2.34h1.03c1.31,0,2.61-.97,2.6-2.92,0-1.46-.65-2.68-2.46-2.67M67.25,46.69c-.41,0-.71.03-.98.03,0,.64-.02,1.28-.02,2.22,0,1.44.06,3.21.06,4.01.41.02.76.04,1.26.04,1.35,0,2.52-1.13,2.51-3.12,0-2.13-.99-3.18-2.82-3.18"/>
      <path class="cls-3" d="M89.38,54.23c-.73-.04-1.37-.11-2.02-.11-.64,0-1.31.08-1.95.12-.49-1.56-1.01-3.13-1.59-4.69-.98-.02-1.95-.04-2.93-.04-.8,0-1.58.03-2.38.05-.61,1.56-1.11,3.12-1.54,4.7-.36-.04-.71-.11-1.08-.11-.36,0-.71.07-1.14.12,1.12-2.54,4.53-10.71,6.49-15.94.3.04.58.11.87.11.3,0,.57-.07.87-.12,1.96,5.22,4.66,12.17,6.41,15.9M83.29,48.21c-.67-1.86-1.32-3.66-2.05-5.45-.77,1.79-1.48,3.6-2.14,5.46h4.19Z"/>
      <path class="cls-3" d="M93.15,42.16c0-.87,0-1.69-.07-2.01-.89,0-2.82.14-4.19.31.07-.34.11-.66.11-1.01s-.05-.67-.12-1.01c2.09.06,3.11.11,5.95.1,2.84,0,3.87-.06,5.82-.13-.07.34-.11.67-.11,1.01s.05.66.12,1.01c-1.24-.15-3.16-.29-4.08-.29-.05.32-.05,1.15-.04,2.01v5.73c.02,2.57.07,4.33.21,6.34-.5-.04-1.12-.11-1.88-.11-.76,0-1.38.07-1.88.12.13-2.02.18-3.78.17-6.35v-5.72Z"/>
      <polygon class="cls-3" points="33.12 25.44 50.29 35.63 50.29 34.73 33.61 24.87 33.12 25.44"/>
      <polygon class="cls-3" points="34.39 24.06 50.29 33.49 50.29 32.59 34.9 23.5 34.39 24.06"/>
      <polygon class="cls-3" points="35.65 22.71 50.29 31.36 50.29 30.45 36.16 22.15 35.65 22.71"/>
      <polygon class="cls-3" points="36.95 21.29 50.29 29.22 50.29 28.31 37.46 20.74 36.95 21.29"/>
      <polygon class="cls-3" points="38.22 19.91 50.29 27.08 50.29 26.17 38.74 19.35 38.22 19.91"/>
      <polygon class="cls-3" points="39.46 18.56 50.29 24.94 50.29 24.04 39.98 17.99 39.46 18.56"/>
      <polygon class="cls-3" points="40.77 17.14 50.29 22.81 50.29 21.9 41.29 16.59 40.77 17.14"/>
      <polygon class="cls-3" points="42.02 15.78 50.29 20.67 50.29 19.76 42.53 15.22 42.02 15.78"/>
      <polygon class="cls-3" points="43.28 14.43 50.29 18.53 50.29 17.62 43.79 13.86 43.28 14.43"/>
      <polygon class="cls-3" points="44.58 13.03 50.29 16.39 50.29 15.48 45.09 12.46 44.58 13.03"/>
      <polygon class="cls-3" points="45.88 11.62 50.29 14.25 50.29 13.35 46.39 11.06 45.88 11.62"/>
      <polygon class="cls-3" points="47.14 10.24 50.29 12.11 50.29 11.21 47.66 9.68 47.14 10.24"/>
      <polygon class="cls-3" points="48.4 8.87 50.29 9.98 50.29 9.07 48.92 8.31 48.4 8.87"/>
      <polygon class="cls-3" points="49.7 7.47 50.29 7.84 50.29 6.83 49.7 7.47"/>
      <polygon class="cls-3" points="67.45 25.28 50.29 35.35 50.29 34.73 67.09 24.87 67.45 25.28"/>
      <polygon class="cls-3" points="66.17 23.91 50.29 33.21 50.29 32.59 65.8 23.5 66.17 23.91"/>
      <polygon class="cls-3" points="64.9 22.56 50.29 31.08 50.29 30.45 64.53 22.15 64.9 22.56"/>
      <polygon class="cls-3" points="63.6 21.15 50.29 28.94 50.29 28.31 63.22 20.74 63.6 21.15"/>
      <polygon class="cls-3" points="62.32 19.77 50.29 26.8 50.29 26.17 61.93 19.35 62.32 19.77"/>
      <polygon class="cls-3" points="61.06 18.4 50.29 24.66 50.29 24.04 60.67 17.99 61.06 18.4"/>
      <polygon class="cls-3" points="59.74 17 50.29 22.52 50.29 21.9 59.36 16.59 59.74 17"/>
      <polygon class="cls-3" points="58.49 15.64 50.29 20.39 50.29 19.76 58.11 15.22 58.49 15.64"/>
      <polygon class="cls-3" points="57.22 14.28 50.29 18.25 50.29 17.62 56.84 13.86 57.22 14.28"/>
      <polygon class="cls-3" points="55.92 12.89 50.29 16.11 50.29 15.48 55.53 12.46 55.92 12.89"/>
      <polygon class="cls-3" points="54.61 11.48 50.29 13.97 50.29 13.35 54.22 11.06 54.61 11.48"/>
      <polygon class="cls-3" points="53.34 10.1 50.29 11.84 50.29 11.21 52.94 9.68 53.34 10.1"/>
      <polygon class="cls-3" points="52.08 8.75 50.29 9.7 50.29 9.07 51.67 8.31 52.08 8.75"/>
      <polygon class="cls-3" points="50.75 7.32 50.29 7.56 50.29 6.83 50.75 7.32"/>
      <path class="cls-3" d="M4.34,72.21l-1.3-2.66h-.94v2.66H.8v-6.68h2.62c1.36,0,2.17.93,2.17,2.04,0,.94-.57,1.52-1.22,1.75l1.49,2.88h-1.51ZM3.33,66.7h-1.23v1.76h1.23c.57,0,.95-.36.95-.88s-.38-.88-.95-.88"/>
      <path class="cls-3" d="M7.78,70.15c0,.63.38,1.09,1.07,1.09.53,0,.8-.15,1.11-.46l.74.73c-.5.49-.98.77-1.86.77-1.15,0-2.26-.52-2.26-2.5,0-1.59.86-2.49,2.13-2.49,1.36,0,2.13.99,2.13,2.33v.54h-3.06ZM9.52,68.79c-.13-.29-.4-.51-.82-.51s-.68.22-.81.51c-.08.18-.1.31-.11.53h1.86c0-.22-.04-.35-.11-.53M9.03,66.54h-.82l.6-1.59h1.29l-1.07,1.59Z"/>
      <path class="cls-3" d="M14.78,72.21v-2.96c0-.67-.42-.89-.8-.89s-.82.22-.82.89v2.96h-1.22v-4.89h1.19v.45c.32-.34.77-.5,1.22-.5.49,0,.88.16,1.15.43.4.4.5.86.5,1.39v3.12h-1.22Z"/>
      <path class="cls-3" d="M20.67,71.67c-.3.32-.8.6-1.52.6s-1.21-.28-1.51-.6c-.44-.46-.55-1.01-.55-1.9s.11-1.43.55-1.89c.3-.32.79-.6,1.51-.6s1.22.28,1.52.6c.44.46.55,1.01.55,1.89s-.11,1.44-.55,1.9M19.73,68.58c-.14-.14-.33-.21-.57-.21s-.42.08-.56.21c-.25.25-.28.68-.28,1.18s.03.94.28,1.19c.14.14.32.21.56.21s.43-.08.57-.21c.25-.25.28-.69.28-1.19s-.03-.93-.28-1.18"/>
      <polygon class="cls-3" points="24.39 72.21 23.44 72.21 21.64 67.32 22.92 67.32 23.91 70.34 24.9 67.32 26.18 67.32 24.39 72.21"/>
      <path class="cls-3" d="M29.3,72.21v-.42c-.33.33-.64.47-1.2.47s-.96-.14-1.25-.43c-.26-.27-.4-.66-.4-1.1,0-.78.53-1.42,1.67-1.42h1.15v-.24c0-.54-.26-.77-.91-.77-.47,0-.68.11-.94.4l-.78-.76c.48-.53.95-.67,1.76-.67,1.37,0,2.08.58,2.08,1.73v3.22h-1.19ZM29.27,70.15h-.96c-.44,0-.68.21-.68.55s.23.56.7.56c.34,0,.55-.03.77-.23.13-.12.18-.32.18-.62v-.26Z"/>
      <path class="cls-3" d="M33.32,72.21c-1,0-1.42-.7-1.42-1.4v-2.42h-.52v-.93h.52v-1.44h1.22v1.44h.86v.93h-.86v2.34c0,.28.13.44.42.44h.44v1.03h-.67Z"/>
      <path class="cls-3" d="M35.05,65.5h1.25v.99h-1.25v-.99ZM35.07,67.32h1.22v4.89h-1.22v-4.89Z"/>
      <path class="cls-3" d="M41.01,71.67c-.3.32-.79.6-1.52.6s-1.21-.28-1.51-.6c-.44-.46-.55-1.01-.55-1.9s.11-1.43.55-1.89c.3-.32.79-.6,1.51-.6s1.22.28,1.52.6c.44.46.55,1.01.55,1.89s-.11,1.44-.55,1.9M40.06,68.58c-.14-.14-.33-.21-.57-.21s-.42.08-.57.21c-.25.25-.28.68-.28,1.18s.03.94.28,1.19c.14.14.32.21.57.21s.43-.08.57-.21c.26-.25.28-.69.28-1.19s-.03-.93-.28-1.18"/>
      <path class="cls-3" d="M45.55,72.21v-2.96c0-.67-.42-.89-.81-.89s-.82.22-.82.89v2.96h-1.22v-4.89h1.19v.45c.32-.34.77-.5,1.22-.5.49,0,.88.16,1.15.43.4.4.5.86.5,1.39v3.12h-1.22Z"/>
      <path class="cls-3" d="M51.18,70.15c0,.63.38,1.09,1.07,1.09.53,0,.8-.15,1.11-.46l.74.73c-.49.49-.97.77-1.85.77-1.16,0-2.26-.52-2.26-2.5,0-1.59.86-2.49,2.13-2.49,1.36,0,2.13.99,2.13,2.33v.54h-3.05ZM52.92,68.79c-.13-.29-.4-.51-.82-.51s-.68.22-.81.51c-.08.18-.1.31-.11.53h1.85c0-.22-.04-.35-.11-.53M52.44,66.54h-.82l.6-1.59h1.29l-1.07,1.59Z"/>
      <path class="cls-3" d="M58.19,72.21v-2.96c0-.67-.42-.89-.81-.89s-.82.22-.82.89v2.96h-1.22v-4.89h1.19v.45c.32-.34.77-.5,1.22-.5.49,0,.88.16,1.15.43.4.4.5.86.5,1.39v3.12h-1.22Z"/>
      <path class="cls-3" d="M61.66,70.14c0,.63.39,1.09,1.07,1.09.54,0,.8-.15,1.11-.46l.74.72c-.49.49-.98.77-1.86.77-1.15,0-2.26-.52-2.26-2.5,0-1.59.86-2.49,2.13-2.49,1.36,0,2.13.99,2.13,2.33v.54h-3.06ZM63.41,68.79c-.13-.29-.41-.51-.82-.51s-.68.22-.81.51c-.08.18-.1.31-.11.53h1.86c0-.22-.04-.35-.11-.53"/>
      <path class="cls-3" d="M68.48,68.65c-.18-.19-.35-.29-.65-.29-.38,0-.79.28-.79.9v2.94h-1.22v-4.89h1.19v.47c.24-.28.7-.52,1.23-.52.48,0,.82.12,1.15.46l-.92.93Z"/>
      <path class="cls-3" d="M71.47,74.06c-.75,0-1.27-.15-1.77-.64l.76-.77c.27.26.54.37.96.37.73,0,.98-.51.98-1.01v-.5c-.32.36-.68.49-1.16.49s-.89-.16-1.17-.43c-.46-.46-.49-1.09-.49-1.94s.04-1.47.49-1.93c.27-.27.7-.43,1.17-.43.52,0,.85.14,1.19.51v-.46h1.18v4.71c0,1.17-.84,2.03-2.15,2.03M71.6,68.36c-.72,0-.8.62-.8,1.27s.08,1.27.8,1.27.81-.63.81-1.27-.08-1.27-.81-1.27"/>
      <path class="cls-3" d="M75.93,70.15c0,.63.39,1.09,1.07,1.09.54,0,.8-.15,1.11-.46l.74.73c-.5.49-.98.77-1.86.77-1.15,0-2.26-.52-2.26-2.5,0-1.59.86-2.49,2.13-2.49,1.36,0,2.13.99,2.13,2.33v.54h-3.06ZM77.67,68.79c-.13-.29-.4-.51-.81-.51s-.68.22-.81.51c-.08.18-.11.31-.12.53h1.86c0-.22-.04-.35-.11-.53M77.19,66.54h-.82l.6-1.59h1.29l-1.07,1.59Z"/>
      <path class="cls-3" d="M81.63,72.21c-1,0-1.42-.7-1.42-1.4v-2.42h-.52v-.93h.52v-1.44h1.22v1.44h.86v.93h-.86v2.34c0,.28.13.44.42.44h.44v1.03h-.66Z"/>
      <path class="cls-3" d="M83.36,65.5h1.25v.99h-1.25v-.99ZM83.38,67.32h1.22v4.89h-1.22v-4.89Z"/>
      <path class="cls-3" d="M88.62,74v-2.22c-.32.35-.69.49-1.19.49s-.92-.17-1.19-.44c-.49-.49-.5-1.33-.5-2.06s.01-1.57.5-2.05c.27-.27.72-.44,1.2-.44.52,0,.87.14,1.21.51v-.46h1.19v6.68h-1.22ZM87.78,68.36c-.73,0-.83.6-.83,1.4s.1,1.41.83,1.41.83-.61.83-1.41-.1-1.4-.83-1.4"/>
      <path class="cls-3" d="M94,72.21v-.45c-.32.34-.77.51-1.22.51-.49,0-.88-.16-1.15-.43-.4-.39-.5-.85-.5-1.39v-3.13h1.22v2.96c0,.67.42.89.81.89s.82-.22.82-.89v-2.96h1.22v4.89h-1.19Z"/>
      <path class="cls-3" d="M97.5,70.14c0,.63.39,1.09,1.07,1.09.54,0,.8-.15,1.11-.46l.74.72c-.5.49-.98.77-1.86.77-1.15,0-2.26-.52-2.26-2.5,0-1.59.87-2.49,2.13-2.49,1.36,0,2.13.99,2.13,2.33v.54h-3.06ZM99.25,68.79c-.13-.29-.4-.51-.81-.51s-.69.22-.82.51c-.08.18-.1.31-.11.53h1.86c-.01-.22-.04-.35-.11-.53"/>
      <g>
        <path class="cls-2" d="M42.08,16.22c-.03-.13-.08-.33-.11-.52-.03-.25-.08-.47-.12-.63-.3-1.23-1.31-1.88-2.33-1.95.34-.31.64-.77.77-1.46.09-.46.02-.87-.05-1.17-.03-.1-.11-.37-.18-.63-.05-.16-.1-.32-.11-.37-.02-.09-.06-.28-.09-.46-.05-.25-.09-.49-.11-.57-.24-.97-.78-1.62-1.52-1.9.64-.62.88-1.52.63-2.52-.02-.09-.09-.32-.15-.53-.04-.13-.07-.24-.08-.28-.03-.11-.07-.36-.11-.61-.08-.43-.11-.61-.14-.75-.33-1.36-1.6-2.13-2.94-1.8-.07.02-.26.07-.45.12-.13.04-.27.08-.32.09l-.51.13c-.09.02-.35.1-.59.18-.14.04-.28.09-.32.1-.15.04-.59.13-1.01.22-.45.1-.88.19-1.03.23l-1.24.31c-.11.02-.36.06-.6.1l-.14.03c-.16.04-.32.07-.44.09-.12.02-.22.04-.29.06-1.35.33-1.92,1.05-2.13,1.83-.59-.72-1.55-1.07-2.53-.83-.14.03-.54.12-.92.2-.41.09-.81.18-.95.21-.85.21-3.75,1.02-5.35,2.57-.75.71-1.58,1.91-1.97,2.84-.08.19-.19.55-.3.99-.79-1.11-2.75-3.66-7.34-2.52-.27.07-.94.25-1.64.45-.57.16-1.22.34-1.41.39-.14.03-.5.12-.84.19-.33.08-.65.15-.76.18-1.75.43-2.65,1.86-2.24,3.54.03.12.12.44.22.76.08.26.15.53.18.63.04.18.16.68.26,1.18.11.51.22,1.01.27,1.18s.18.67.31,1.15c.12.43.23.85.27.99.06.24.23,1.01.38,1.7.16.75.31,1.39.37,1.64.07.3.28,1.02.49,1.78.18.62.38,1.33.43,1.53.07.3.21.92.44,2.15.02.21.06.37.08.47.34,1.37,1.66,2.19,3.01,1.86.16-.04.42-.12.98-.3.3-.09.59-.19.69-.22.23-.06.82-.18.96-.2l.12-.02c.07,0,.19-.02.34-.06.67-.16,1.27-.65,1.56-1.32.61.46,1.31.59,2.14.38.14-.03.26-.07.38-.11.03,0,.06-.02.08-.03l.13-.04c.21-.07,1.07-.31,1.38-.39.09-.02.33-.07.56-.12.3-.06.6-.12.71-.15,1.25-.31,2-1.49,1.7-2.69-.07-.28-.17-.52-.34-.79.04.03.07.06.11.09,1.05.9,1.79,1.47,3.68,1.69.79.1,1.85.19,2.99-.06h.05c.1-.03.74-.18,1.15-.27.21-.05.35-.08.36-.08,2.64-.65,3.51-1.31,3.95-1.77.17-.19.31-.37.42-.56.62.48,1.46.68,2.31.47.08-.02.29-.08.51-.14.17-.05.34-.1.4-.11.11-.03.44-.12.78-.2.31-.08.61-.16.72-.19.06-.01.21-.05.36-.08.2-.04.4-.09.47-.1.08-.02.31-.08.52-.14.15-.04.29-.08.35-.1.23-.06.46-.1.69-.15.27-.05.55-.11.85-.18.09-.02.3-.08.5-.14.13-.04.26-.08.29-.08.07-.01.2-.04.34-.06.23-.04.46-.08.54-.1,1.21-.3,2.27-1.53,1.86-3.21-.02-.1-.09-.35-.16-.6-.05-.19-.1-.37-.12-.44"/>
        <path class="cls-1" d="M7.42,16.01c-.07-.27-.31-1.46-.36-1.68-.1-.39-.28-1.24.66-1.47.82-.2,1.47.54,1.69,1.43.06.24.24,1.2.25,1.43,0,.54-.24,1.01-.94,1.18s-1.17-.38-1.3-.89M4.34,9.48c-.27.07-1.38.32-1.6.37-.77.19-1.22.66-1.01,1.51.05.22.34,1.17.39,1.39.09.36.45,2.02.53,2.36s.5,1.83.58,2.14c.13.51.63,2.87.75,3.33.13.53.8,2.83.92,3.31.1.41.26,1.14.48,2.37,0,.08.02.18.04.25.11.44.49.75.98.63.24-.06,1.45-.46,1.67-.52.24-.06.92-.2,1.15-.23.1-.02.18-.02.27-.04.14-.04.56-.24.43-.75-.04-.15-.26-.84-.29-.96-.04-.17-.19-.85-.22-1-.05-.22-.33-1.15-.38-1.32-.04-.15-.14-.56.2-.64.24-.06.68.47,1.07.99.11.15.23.3.34.45.3.39.67.73.96,1.1.11.15.62.85.73.98.2.21.39.32.85.2.17-.04.31-.1.45-.14.28-.1,1.2-.35,1.51-.42.19-.05,1.08-.22,1.27-.26.36-.09.55-.37.48-.66-.05-.22-.14-.38-1.13-1.47-.14-.17-.29-.34-.43-.51-.12-.18-.25-.38-.4-.57-.23-.33-1.59-1.66-1.68-2.02-.05-.19.05-.32.24-.6.52-.69.7-1.51.76-1.7.3-1.28.19-2.33-.08-3.42-.07-.27-.59-2.27-1.13-3.03-.95-1.36-2.31-2.79-5.65-1.97-.48.12-2.62.72-3.05.83M17.76,6.94c-.62.59-1.3,1.6-1.57,2.26-.18.43-.6,2.15-.55,3.17.02.38.08.75.13,1.15.02.2.03.43.05.63.03.45.11.95.26,1.58.3,1.23,1.01,3.04,1.33,3.6.34.64.89,1.32,1.38,1.74.2.18.39.34.59.5.88.76,1.33,1.13,2.81,1.31.82.1,1.62.14,2.43-.04.12-.03,1.48-.34,1.51-.35.68-.17,2.51-.65,3.12-1.28.41-.43.38-.74.26-1.22l-.17-.68c-.07-.29-.38-1.63-.44-1.89s-.42-1.51-.49-1.78c-.06-.24-.29-1.37-.34-1.58-.05-.19-.3-1.11-.32-1.31-.05-.22-.26-1.17-.31-1.36-.08-.21-.19-.65-.83-.77-.16-.04-.34-.02-.48.02-.1.02-.57.19-.66.24-.27.07-1.18.32-1.49.39-.19.05-1.1.22-1.29.27-.58.14-.94.57-.87,1.06.02.07.54,2.49.57,2.61.12.48.67.53.77.5.07-.02.35-.16.42-.18.22-.05.82,0,.98.63.04.14.14.79.18.93.02.1.19.57.22.69.14.56-.49.71-.73.77-1.18.29-1.69-.4-2.09-1-.23-.3-.48-.6-.69-.91-.24-.35-.29-.57-.35-.81-.05-.19-.28-1.03-.32-1.2-.19-.75-.21-1.18-.21-1.69-.02-.2-.02-.4-.05-.6-.08-.65-.08-.73,0-1.15.19-.79.63-1.59,2.33-2.01.24-.06.47-.09.71-.15.27-.07.56-.14.85-.08.16.01.33.07.46.09.13.02.26.01.38-.02.31-.08.7-.48.74-.85.01-.16-.07-.47-.15-.83l-.42-1.69c-.03-.12-.11-.56-.14-.66-.13-.51-.56-.71-1-.6-.29.07-1.61.35-1.87.41-.56.14-3.25.86-4.6,2.16M28.12,5.53c.07.29.41,1.57.48,1.83.21.85.38,1.73.59,2.58.09.36.54,2,.62,2.31.08.34.42,1.8.49,2.09.04.17.26.94.3,1.11s.17.99.21,1.15c.05.22.34,1.28.39,1.49.1.41.25,1.02.33,1.54.02.1.02.2.05.3.13.51.64.84,1.22.7.15-.04.77-.22.91-.25.22-.05,1.28-.34,1.49-.39.12-.03.71-.15.83-.18.14-.04.74-.21.87-.24.51-.13,1.03-.2,1.54-.33.15-.04.69-.2.82-.23s.74-.13.86-.16c.29-.07.83-.38.63-1.18-.04-.17-.25-.89-.28-1.03-.04-.17-.11-.44-.15-.71-.01-.15-.05-.3-.08-.44-.17-.68-.8-.73-1.11-.65-.17.04-.31.1-.47.17-.16.07-.36.11-.55.16-.17.04-.34.08-.51.1-.22.03-.48.04-.73.08-.31.08-.7.17-.99.17-.65-.02-.75-.46-.87-.94-.17-.68-.26-1.04-.19-1.29.13-.5.64-.64,1.02-.74.29-.07,1.72-.32,1.98-.39.36-.09.72-.18.83-.79.02-.11.02-.24-.04-.45-.04-.17-.26-.86-.3-1-.04-.17-.17-.88-.2-1.03-.17-.68-.46-.91-1.18-.73-.12.03-.67.19-.77.22-.17.04-.86.16-1,.2-.12.03-.62.2-.71.23-.85.21-1.08-.73-1.14-.98-.17-.68-.19-.75-.12-.92.09-.25.31-.51,1.23-.74.17-.04.89-.14,1.03-.18.12-.03.64-.21.74-.23.07-.02.34-.06.41-.1.8-.28.72-.84.63-1.18-.04-.14-.2-.72-.23-.82-.05-.22-.21-1.15-.26-1.35-.11-.46-.48-.68-.91-.57-.12.03-.65.19-.77.22l-.51.13c-.15.04-.79.25-.91.28-.31.08-1.75.38-2.04.45l-1.26.31c-.1.02-.42.08-.71.13-.31.08-.61.13-.73.15-1.23.3-1.07.98-.77,2.17"/>
      </g>
    </g>
  </g>
</svg>