<?xml version="1.0" encoding="UTF-8"?>
<svg id="Calque_2" data-name="Calque 2" xmlns="http://www.w3.org/2000/svg" viewBox="0 0 26.66 12.1">
  <defs>
    <style>
      .cls-1 {
        fill: #fff;
      }

      .cls-2 {
        fill: #8abb7e;
      }
    </style>
  </defs>
  <g id="Calque_1-2" data-name="Calque 1">
    <g>
      <polygon class="cls-2" points="20.23 12.1 0 12.1 0 0 20.23 0 26.66 6.05 20.23 12.1"/>
      <path class="cls-1" d="M7.91,7.95c.34,0,.65-.08.91-.23.27-.15.48-.35.65-.59l.96.74c-.27.37-.63.67-1.06.89-.43.22-.92.33-1.46.33-.47,0-.9-.08-1.29-.26-.39-.17-.73-.4-1.01-.68s-.5-.62-.65-1c-.15-.38-.23-.79-.23-1.22s.08-.83.23-1.22c.15-.38.37-.72.65-1s.62-.51,1.01-.68.82-.26,1.29-.26c.54,0,1.03.11,1.46.34.43.22.79.52,1.06.88l-.96.74c-.17-.25-.39-.44-.65-.59-.26-.15-.57-.23-.91-.23-.28,0-.54.05-.78.16s-.44.25-.61.43c-.17.18-.3.39-.4.64-.1.25-.14.51-.14.8s.05.55.14.8c.1.25.23.46.4.64.17.18.37.32.61.43s.5.16.78.16Z"/>
    </g>
  </g>
</svg>