<?xml version="1.0" encoding="UTF-8"?>
<svg id="Calque_2" data-name="Calque 2" xmlns="http://www.w3.org/2000/svg" viewBox="0 0 26.66 12.1">
  <defs>
    <style>
      .cls-1 {
        fill: #fff;
      }

      .cls-2 {
        fill: #6bae5e;
      }
    </style>
  </defs>
  <g id="Calque_1-2" data-name="Calque 1">
    <g>
      <polygon class="cls-2" points="20.23 12.1 0 12.1 0 0 20.23 0 26.66 6.05 20.23 12.1"/>
      <path class="cls-1" d="M5.24,8.91V2.93h1.7c.62,0,1.11.15,1.47.44.36.29.53.69.53,1.19,0,.24-.05.46-.16.66-.11.2-.26.38-.47.52.31.14.56.34.73.59.17.25.26.53.26.83,0,.55-.2.98-.6,1.29-.4.31-.94.47-1.62.47h-1.83ZM6.97,3.96h-.51v1.31h.51c.23,0,.41-.06.53-.17s.19-.28.19-.49-.06-.36-.19-.47c-.13-.12-.31-.18-.53-.18ZM7.14,6.32h-.68v1.56h.68c.28,0,.5-.07.66-.21.16-.14.24-.34.24-.58s-.08-.44-.24-.57c-.16-.13-.38-.2-.66-.2Z"/>
    </g>
  </g>
</svg>