<?xml version="1.0" encoding="UTF-8"?>
<svg id="Calque_2" data-name="Calque 2" xmlns="http://www.w3.org/2000/svg" viewBox="0 0 26.66 12.1">
  <defs>
    <style>
      .cls-1 {
        fill: #e41f1d;
      }

      .cls-2 {
        fill: #fff;
      }
    </style>
  </defs>
  <g id="Calque_1-2" data-name="Calque 1">
    <g>
      <polygon class="cls-1" points="20.23 12.1 0 12.1 0 0 20.23 0 26.66 6.05 20.23 12.1"/>
      <path class="cls-2" d="M8.02,7.95c.28,0,.54-.05.78-.14.24-.09.44-.22.62-.38v-1.01h-1.52v-1.1h2.74v2.55c-.28.37-.64.67-1.09.89-.45.22-.96.33-1.51.33-.49,0-.93-.08-1.33-.26-.4-.17-.75-.4-1.03-.68s-.51-.62-.67-1c-.16-.38-.24-.79-.24-1.22s.08-.83.23-1.22c.15-.38.37-.72.65-1s.62-.51,1.01-.68.82-.26,1.29-.26c.54,0,1.03.11,1.46.34.43.22.79.52,1.06.88l-.96.74c-.17-.25-.39-.44-.65-.59-.26-.15-.57-.23-.91-.23-.28,0-.54.05-.78.16s-.44.25-.61.43c-.17.18-.3.39-.4.64-.1.25-.14.51-.14.8s.05.55.15.8c.1.25.24.46.42.64s.39.32.64.43.52.16.81.16Z"/>
    </g>
  </g>
</svg>