<?xml version="1.0" encoding="UTF-8"?>
<svg id="Calque_2" data-name="Calque 2" xmlns="http://www.w3.org/2000/svg" viewBox="0 0 26.66 12.1">
  <defs>
    <style>
      .cls-1 {
        fill: #f0e54e;
      }

      .cls-2 {
        fill: #fff;
      }
    </style>
  </defs>
  <g id="Calque_1-2" data-name="Calque 1">
    <g>
      <polygon class="cls-1" points="20.23 12.1 0 12.1 0 0 20.23 0 26.66 6.05 20.23 12.1"/>
      <path class="cls-2" d="M5.24,8.91V2.93h2.35c.47,0,.91.08,1.3.24.39.16.73.38,1,.65.28.27.49.59.65.95.15.36.23.75.23,1.15s-.08.79-.23,1.15c-.15.36-.37.68-.65.95-.28.27-.61.49-1,.65-.39.16-.83.24-1.3.24h-2.35ZM7.61,4.03h-1.15v3.78h1.15c.28,0,.54-.05.77-.15.23-.1.43-.23.6-.4.17-.17.3-.37.4-.6.1-.23.15-.48.15-.74s-.05-.52-.15-.75c-.1-.23-.23-.43-.4-.6-.17-.17-.37-.3-.6-.4-.23-.1-.49-.15-.77-.15Z"/>
    </g>
  </g>
</svg>