<?xml version="1.0" encoding="UTF-8"?>
<svg id="Calque_2" data-name="Calque 2" xmlns="http://www.w3.org/2000/svg" xmlns:xlink="http://www.w3.org/1999/xlink" viewBox="0 0 102.99 88.47">
  <defs>
    <style>
      .cls-1 {
        fill: none;
        stroke: #98bf1e;
        stroke-miterlimit: 10;
        stroke-width: .83px;
      }

      .cls-2 {
        fill: url(#Dégradé_sans_nom_5);
      }

      .cls-3 {
        fill: #fff;
      }

      .cls-4 {
        fill: #98bf1e;
      }

      .cls-5 {
        fill: #3b88c4;
      }
    </style>
    <linearGradient id="Dégradé_sans_nom_5" data-name="Dégradé sans nom 5" x1="1.04" y1="129.06" x2="37.47" y2="129.06" gradientTransform="translate(-28.46 -106.29) rotate(-13.88)" gradientUnits="userSpaceOnUse">
      <stop offset="0" stop-color="#4c3088"/>
      <stop offset="1" stop-color="#80368a"/>
    </linearGradient>
  </defs>
  <g id="Calque_1-2" data-name="Calque 1">
    <g>
      <path class="cls-5" d="M96.67,83.22c-.64,0-.96-.32-.96-.95v-3.98c0-.64.32-.95.96-.95h3.2c.64,0,.96.32.96.95v.03c0,.62-.32.92-.96.92h-3.52v2.07h3.52c2.03,0,3.04-1,3.04-2.99v-.03c0-2.02-1.01-3.02-3.04-3.02h-3.2c-2.03,0-3.04,1.01-3.04,3.02v3.98c0,2.02,1.01,3.03,3.04,3.03h5.44v-2.07h-5.44ZM85.71,83.22c-.64,0-.96-.32-.96-.95v-7.01h-2.08v7.01c0,2.02,1.01,3.03,3.04,3.03h3.2c2.03,0,3.04-1,3.04-2.99v-7.04h-2.08v7.04c0,.62-.32.92-.96.92h-3.2ZM78.91,88.47h2.08v-10.19c0-2.02-1.01-3.02-3.04-3.02h-3.2c-2.03,0-3.04,1.01-3.04,3.02v3.98c0,2.02,1.01,3.03,3.04,3.03h3.52v-2.07h-3.52c-.64,0-.96-.32-.96-.95v-3.98c0-.64.32-.95.96-.95h3.2c.64,0,.96.32.96.95v10.19ZM67.73,85.29h2.08v-10.03h-2.08v10.03ZM67.47,73.86h2.56v-2.58h-2.56v2.58ZM61.79,77.33h.8v7.96h1.97v-7.96h1.71v-2.07h-1.71v-3.98h-1.97v3.98h-.8v2.07ZM58.49,70.3l-4.48,2.2v2.34l4.48-2.23v-2.31ZM54.67,83.22c-.64,0-.96-.32-.96-.95v-3.98c0-.64.32-.95.96-.95h3.2c.64,0,.96.32.96.95v.03c0,.62-.32.92-.96.92h-3.52v2.07h3.52c2.03,0,3.04-1,3.04-2.99v-.03c0-2.02-1.01-3.02-3.04-3.02h-3.2c-2.03,0-3.04,1.01-3.04,3.02v3.98c0,2.02,1.01,3.03,3.04,3.03h5.44v-2.07h-5.44ZM42.43,86.4v2.07h3.84c2.03,0,3.04-1.01,3.04-3.03v-7.16c0-2.02-1.01-3.02-3.04-3.02h-3.2c-2.03,0-3.04,1.01-3.04,3.02v3.98c0,2.02,1.01,3.03,3.04,3.03h3.52v-2.07h-3.52c-.64,0-.96-.32-.96-.95v-3.98c0-.64.32-.95.96-.95h3.2c.64,0,.96.32.96.95v7.16c0,.64-.32.95-.96.95h-3.84ZM36.27,78.28c0-.64.32-.95.96-.95h1.44v-2.07h-1.44c-2.03,0-3.04,1.01-3.04,3.02v7.01h2.08v-7.01ZM26.43,83.22c-.64,0-.96-.32-.96-.95v-3.98c0-.64.32-.95.96-.95h3.2c.64,0,.96.32.96.95v.03c0,.62-.32.92-.96.92h-3.52v2.07h3.52c2.03,0,3.04-1,3.04-2.99v-.03c0-2.02-1.01-3.02-3.04-3.02h-3.2c-2.03,0-3.04,1.01-3.04,3.02v3.98c0,2.02,1.01,3.03,3.04,3.03h5.44v-2.07h-5.44ZM21.71,78.28c0-2.02-1.01-3.02-3.04-3.02h-6.24v10.03h2.08v-7.96h4.16c.64,0,.96.32.96.95v7.01h2.08v-7.01ZM8.98,70.3l-4.48,2.2v2.34l4.48-2.23v-2.31ZM5.15,83.22c-.64,0-.96-.32-.96-.95v-3.98c0-.64.32-.95.96-.95h3.2c.64,0,.96.32.96.95v.03c0,.62-.32.92-.96.92h-3.52v2.07h3.52c2.03,0,3.04-1,3.04-2.99v-.03c0-2.02-1.01-3.02-3.04-3.02h-3.2c-2.03,0-3.04,1.01-3.04,3.02v3.98c0,2.02,1.01,3.03,3.04,3.03h5.44v-2.07h-5.44Z"/>
      <path class="cls-5" d="M98.57,67.22c-.43,0-.64-.22-.64-.66v-2.73c0-.44.21-.66.64-.66h2.13c.43,0,.64.22.64.66v.02c0,.42-.21.64-.64.64h-2.34v1.42h2.34c1.35,0,2.02-.68,2.02-2.05v-.02c0-1.38-.68-2.08-2.02-2.08h-2.13c-1.35,0-2.02.69-2.02,2.08v2.73c0,1.39.67,2.08,2.02,2.08h3.62v-1.42h-3.62ZM92.28,67.22c-.43,0-.64-.22-.64-.66v-2.73c0-.44.21-.66.64-.66h3.09v-1.42h-3.09c-1.35,0-2.02.69-2.02,2.08v2.73c0,1.39.67,2.08,2.02,2.08h3.09v-1.42h-3.09ZM88.87,63.83c0-1.38-.68-2.08-2.02-2.08h-4.15v6.88h1.38v-5.46h2.77c.43,0,.64.22.64.66v4.81h1.38v-4.81ZM79.29,63.17c.42,0,.64.22.64.66v2.73c0,.44-.21.66-.64.66h-2.13c-.43,0-.64-.22-.64-.66v-.02c0-.42.21-.64.64-.64h2.35v-1.42h-2.35c-1.35,0-2.02.68-2.02,2.05v.02c0,1.39.67,2.08,2.02,2.08h2.13c1.35,0,2.02-.69,2.02-2.08v-2.73c0-1.38-.67-2.08-2.02-2.08h-3.62v1.42h3.62ZM69.27,68.64h1.38v-5.46h1.17c.42,0,.64.22.64.66v4.81h1.38v-4.81c0-1.38-.67-2.08-2.02-2.08h-5.76v6.88h1.39v-5.46h1.81v5.46ZM63.31,63.83c0-.44.21-.66.64-.66h.96v-1.42h-.96c-1.35,0-2.02.69-2.02,2.08v4.81h1.38v-4.81ZM54.36,66.56c0,1.39.67,2.08,2.02,2.08h2.13c1.35,0,2.02-.68,2.02-2.05v-2.75c0-1.38-.67-2.08-2.02-2.08h-2.13c-1.35,0-2.02.69-2.02,2.08v2.73ZM56.38,67.22c-.43,0-.64-.22-.64-.66v-2.73c0-.44.21-.66.64-.66h2.13c.43,0,.64.22.64.66v2.75c0,.42-.21.64-.64.64h-2.13ZM52.23,68.64v-5.46h1.07v-1.42h-1.07v-.66c0-.44.36-.66,1.07-.66v-1.42c-1.63,0-2.45.69-2.45,2.08v7.54h1.38ZM48.07,63.83c0-.44.21-.66.64-.66h.96v-1.42h-.96c-1.35,0-2.03.69-2.03,2.08v4.81h1.39v-4.81ZM41.25,67.22c-.43,0-.64-.22-.64-.66v-2.73c0-.44.21-.66.64-.66h2.13c.43,0,.64.22.64.66v.02c0,.42-.21.64-.64.64h-2.34v1.42h2.34c1.35,0,2.03-.68,2.03-2.05v-.02c0-1.38-.68-2.08-2.03-2.08h-2.13c-1.35,0-2.02.69-2.02,2.08v2.73c0,1.39.67,2.08,2.02,2.08h3.62v-1.42h-3.62ZM33.05,63.83c0-.44.21-.66.64-.66h2.13c.43,0,.64.22.64.66v2.73c0,.44-.21.66-.64.66h-2.34v1.42h2.34c1.35,0,2.02-.69,2.02-2.08v-2.73c0-1.38-.68-2.08-2.02-2.08h-2.13c-1.35,0-2.03.69-2.03,2.08v6.45h1.39v-6.45ZM26.02,63.17c.43,0,.64.22.64.66v2.73c0,.44-.21.66-.64.66h-2.13c-.43,0-.64-.22-.64-.66v-.02c0-.42.21-.64.64-.64h2.34v-1.42h-2.34c-1.35,0-2.02.68-2.02,2.05v.02c0,1.39.67,2.08,2.02,2.08h2.13c1.35,0,2.03-.69,2.03-2.08v-2.73c0-1.38-.68-2.08-2.03-2.08h-3.62v1.42h3.62ZM19.2,68.64h1.39v-9.61h-1.39v9.61ZM11.53,67.22c-.43,0-.64-.22-.64-.66v-2.73c0-.44.21-.66.64-.66h2.13c.43,0,.64.22.64.66v.02c0,.42-.21.64-.64.64h-2.34v1.42h2.34c1.35,0,2.02-.68,2.02-2.05v-.02c0-1.38-.67-2.08-2.02-2.08h-2.13c-1.35,0-2.02.69-2.02,2.08v2.73c0,1.39.68,2.08,2.02,2.08h3.62v-1.42h-3.62ZM6.74,66.56c0,.44-.21.66-.64.66h-2.13c-.43,0-.64-.22-.64-.66v-2.73c0-.44.21-.66.64-.66h2.34v-1.42h-2.34c-1.35,0-2.02.69-2.02,2.08v2.73c0,1.39.68,2.08,2.02,2.08h2.13c1.35,0,2.02-.69,2.02-2.08v-7.54h-1.39v7.54Z"/>
      <path class="cls-5" d="M97.2,55.42h-11.12c-1.55,0-2.57-1.06-2.57-2.61,0-1.4,1.02-2.5,2.57-2.5h11.73v-5.45h-8.55c-1.7,0-3.1-.57-4.2-1.7-1.02-1.02-1.55-2.38-1.55-4.09v-4.05c0-1.63.57-3.03,1.66-4.16,1.14-1.14,2.5-1.7,4.12-1.7h11.12c1.51,0,2.57,1.06,2.57,2.57s-1.06,2.53-2.57,2.53h-11.73v5.45h8.47c1.63,0,2.99.57,4.12,1.66,1.14,1.1,1.7,2.46,1.7,4.09v4.47c0,1.4-.57,2.68-1.7,3.82-1.1,1.1-2.46,1.66-4.08,1.66M53.75,39.76l.04-5.45h-9.12v5.45h9.08ZM58.97,45.47v7.11c0,1.82-1.21,2.88-2.57,2.88s-2.61-1.06-2.61-2.84v-7.76h-9.12v7.98c0,1.63-1.21,2.57-2.57,2.57s-2.61-.95-2.61-2.57v-23.68h13.66c1.59,0,2.95.57,4.09,1.66,1.17,1.1,1.74,2.46,1.74,4.09v4.2c0,1.17-.72,2.57-1.51,3.18,1.02.79,1.51,1.85,1.51,3.18M22.92,39.76h9.08v-5.52h-9.08v5.52ZM31.39,44.87h-8.47v8.02c0,1.51-1.1,2.53-2.61,2.53s-2.57-1.06-2.57-2.53v-18.01c0-1.59.57-2.95,1.7-4.05,1.13-1.1,2.5-1.66,4.09-1.66h7.87c1.63,0,2.99.57,4.12,1.66,1.14,1.1,1.7,2.42,1.7,4.05v4.24c0,1.63-.57,2.99-1.7,4.09-1.13,1.1-2.5,1.66-4.12,1.66"/>
      <path class="cls-5" d="M77.03,34.43h-11.22v16.49h11.22v-16.49ZM75.3,55.51h-7.93c-1.64,0-3.01-.57-4.16-1.72-1.11-1.15-1.68-2.52-1.68-4.16v-14.72c0-1.64.57-3.01,1.68-4.12,1.14-1.14,2.52-1.72,4.16-1.72h7.93c1.64,0,3.01.57,4.16,1.72,1.15,1.11,1.72,2.48,1.72,4.12v14.72c0,1.64-.57,3.01-1.72,4.16s-2.52,1.72-4.16,1.72"/>
      <path class="cls-4" d="M3.13,53.21h7.53v-3.85c0-.6.42-1.03,1.02-1.03.65,0,.97.35.97,1.05v3.76c0,1.46-.72,2.19-2.19,2.19H3.22c-.83,0-1.25-.37-1.25-1.11,0-.57.49-1,1.15-1"/>
      <path class="cls-4" d="M10.31,47.14h-6.01c-.66,0-1.2-.23-1.65-.69-.45-.46-.68-1.02-.68-1.68v-4.51c0-.63.4-1.05,1.03-1.05s1.03.42,1.03,1.05v4.78h2.25v-4.78c0-.63.42-1.05,1.03-1.05.68,0,1.02.35,1.02,1.05v4.78h2.22v-4.78c.01-.62.45-1.05,1.06-1.05s1.03.43,1.03,1.05v4.51c0,.66-.23,1.22-.68,1.68-.45.46-1,.69-1.66.69"/>
      <path class="cls-4" d="M12.65,31.93v4.53c0,.63-.43,1.05-1.06,1.05-.57,0-1.02-.42-1.02-1.05v-4.78h-2.22v3.48c0,.69-.23,1.26-.69,1.71-.42.42-.97.63-1.66.63h-1.65c-.66,0-1.23-.23-1.7-.68-.46-.46-.69-1.02-.69-1.68v-4.53c0-.62.43-1.05,1.05-1.05s1.03.43,1.03,1.05v4.78h2.22v-3.45c0-.66.23-1.22.68-1.68.45-.46,1-.69,1.66-.69h1.82c.57,0,1.09.23,1.56.69.45.45.68,1,.68,1.66"/>
      <path class="cls-1" d="M66.96,38.17h3.06c.33-.41.66-.82.99-1.24-.33-.41-.66-.82-.99-1.24h-3.06v2.47Z"/>
      <polygon class="cls-4" points="66.54 45.51 73.9 45.51 73.9 45.48 75.2 43.86 73.9 42.24 73.9 42.21 66.54 42.21 66.54 45.51"/>
      <polygon class="cls-4" points="66.54 41.67 72.04 41.67 72.04 41.64 73.34 40.02 72.04 38.4 72.04 38.37 66.54 38.37 66.54 41.67"/>
      <polygon class="cls-4" points="66.54 49.36 75.12 49.36 75.12 49.33 76.42 47.71 75.12 46.09 75.12 46.06 66.54 46.06 66.54 49.36"/>
      <polygon class="cls-4" points="73.72 36.17 76.15 37.79 76.15 34.56 73.72 36.17"/>
      <g>
        <path class="cls-3" d="M42.08,16.22c-.03-.13-.08-.33-.11-.52-.03-.25-.08-.47-.12-.63-.3-1.23-1.31-1.88-2.33-1.95.34-.31.64-.77.77-1.46.09-.46.02-.87-.05-1.17-.03-.1-.11-.37-.18-.63-.05-.16-.1-.32-.11-.37-.02-.09-.06-.28-.09-.46-.05-.25-.09-.49-.11-.57-.24-.97-.78-1.62-1.52-1.9.64-.62.88-1.52.63-2.52-.02-.09-.09-.32-.15-.53-.04-.13-.07-.24-.08-.28-.03-.11-.07-.36-.11-.61-.08-.43-.11-.61-.14-.75-.33-1.36-1.6-2.13-2.94-1.8-.07.02-.26.07-.45.12-.13.04-.27.08-.32.09l-.51.13c-.09.02-.35.1-.59.18-.14.04-.28.09-.32.1-.15.04-.59.13-1.01.22-.45.1-.88.19-1.03.23l-1.24.31c-.11.02-.36.06-.6.1l-.14.03c-.16.04-.32.07-.44.09-.12.02-.22.04-.29.06-1.35.33-1.92,1.05-2.13,1.83-.59-.72-1.55-1.07-2.53-.83-.14.03-.54.12-.92.2-.41.09-.81.18-.95.21-.85.21-3.75,1.02-5.35,2.57-.75.71-1.58,1.91-1.97,2.84-.08.19-.19.55-.3.99-.79-1.11-2.75-3.66-7.34-2.52-.27.07-.94.25-1.64.45-.57.16-1.22.34-1.41.39-.14.03-.5.12-.84.19-.33.08-.65.15-.76.18-1.75.43-2.65,1.86-2.24,3.54.03.12.12.44.22.76.08.26.15.53.18.63.04.18.16.68.26,1.18.11.51.22,1.01.27,1.18s.18.67.31,1.15c.12.43.23.85.27.99.06.24.23,1.01.38,1.7.16.75.31,1.39.37,1.64.07.3.28,1.02.49,1.78.18.62.38,1.33.43,1.53.07.3.21.92.44,2.15.02.21.06.37.08.47.34,1.37,1.66,2.19,3.01,1.86.16-.04.42-.12.98-.3.3-.09.59-.19.69-.22.23-.06.82-.18.96-.2l.12-.02c.07,0,.19-.02.34-.06.67-.16,1.27-.65,1.56-1.32.61.46,1.31.59,2.14.38.14-.03.26-.07.38-.11.03,0,.06-.02.08-.03l.13-.04c.21-.07,1.07-.31,1.38-.39.09-.02.33-.07.56-.12.3-.06.6-.12.71-.15,1.25-.31,2-1.49,1.7-2.69-.07-.28-.17-.52-.34-.79.04.03.07.06.11.09,1.05.9,1.79,1.47,3.68,1.69.79.1,1.85.19,2.99-.06h.05c.1-.03.74-.18,1.15-.27.21-.05.35-.08.36-.08,2.64-.65,3.51-1.31,3.95-1.77.17-.19.31-.37.42-.56.62.48,1.46.68,2.31.47.08-.02.29-.08.51-.14.17-.05.34-.1.4-.11.11-.03.44-.12.78-.2.31-.08.61-.16.72-.19.06-.01.21-.05.36-.08.2-.04.4-.09.47-.1.08-.02.31-.08.52-.14.15-.04.29-.08.35-.1.23-.06.46-.1.69-.15.27-.05.55-.11.85-.18.09-.02.3-.08.5-.14.13-.04.26-.08.29-.08.07-.01.2-.04.34-.06.23-.04.46-.08.54-.1,1.21-.3,2.27-1.53,1.86-3.21-.02-.1-.09-.35-.16-.6-.05-.19-.1-.37-.12-.44"/>
        <path class="cls-2" d="M7.42,16.01c-.07-.27-.31-1.46-.36-1.68-.1-.39-.28-1.24.66-1.47.82-.2,1.47.54,1.69,1.43.06.24.24,1.2.25,1.43,0,.54-.24,1.01-.94,1.18s-1.17-.38-1.3-.89M4.34,9.48c-.27.07-1.38.32-1.6.37-.77.19-1.22.66-1.01,1.51.05.22.34,1.17.39,1.39.09.36.45,2.02.53,2.36s.5,1.83.58,2.14c.13.51.63,2.87.75,3.33.13.53.8,2.83.92,3.31.1.41.26,1.14.48,2.37,0,.08.02.18.04.25.11.44.49.75.98.63.24-.06,1.45-.46,1.67-.52.24-.06.92-.2,1.15-.23.1-.02.18-.02.27-.04.14-.04.56-.24.43-.75-.04-.15-.26-.84-.29-.96-.04-.17-.19-.85-.22-1-.05-.22-.33-1.15-.38-1.32-.04-.15-.14-.56.2-.64.24-.06.68.47,1.07.99.11.15.23.3.34.45.3.39.67.73.96,1.1.11.15.62.85.73.98.2.21.39.32.85.2.17-.04.31-.1.45-.14.28-.1,1.2-.35,1.51-.42.19-.05,1.08-.22,1.27-.26.36-.09.55-.37.48-.66-.05-.22-.14-.38-1.13-1.47-.14-.17-.29-.34-.43-.51-.12-.18-.25-.38-.4-.57-.23-.33-1.59-1.66-1.68-2.02-.05-.19.05-.32.24-.6.52-.69.7-1.51.76-1.7.3-1.28.19-2.33-.08-3.42-.07-.27-.59-2.27-1.13-3.03-.95-1.36-2.31-2.79-5.65-1.97-.48.12-2.62.72-3.05.83M17.76,6.94c-.62.59-1.3,1.6-1.57,2.26-.18.43-.6,2.15-.55,3.17.02.38.08.75.13,1.15.02.2.03.43.05.63.03.45.11.95.26,1.58.3,1.23,1.01,3.04,1.33,3.6.34.64.89,1.32,1.38,1.74.2.18.39.34.59.5.88.76,1.33,1.13,2.81,1.31.82.1,1.62.14,2.43-.04.12-.03,1.48-.34,1.51-.35.68-.17,2.51-.65,3.12-1.28.41-.43.38-.74.26-1.22l-.17-.68c-.07-.29-.38-1.63-.44-1.89s-.42-1.51-.49-1.78c-.06-.24-.29-1.37-.34-1.58-.05-.19-.3-1.11-.32-1.31-.05-.22-.26-1.17-.31-1.36-.08-.21-.19-.65-.83-.77-.16-.04-.34-.02-.48.02-.1.02-.57.19-.66.24-.27.07-1.18.32-1.49.39-.19.05-1.1.22-1.29.27-.58.14-.94.57-.87,1.06.02.07.54,2.49.57,2.61.12.48.67.53.77.5.07-.02.35-.16.42-.18.22-.05.82,0,.98.63.04.14.14.79.18.93.02.1.19.57.22.69.14.56-.49.71-.73.77-1.18.29-1.69-.4-2.09-1-.23-.3-.48-.6-.69-.91-.24-.35-.29-.57-.35-.81-.05-.19-.28-1.03-.32-1.2-.19-.75-.21-1.18-.21-1.69-.02-.2-.02-.4-.05-.6-.08-.65-.08-.73,0-1.15.19-.79.63-1.59,2.33-2.01.24-.06.47-.09.71-.15.27-.07.56-.14.85-.08.16.01.33.07.46.09.13.02.26.01.38-.02.31-.08.7-.48.74-.85.01-.16-.07-.47-.15-.83l-.42-1.69c-.03-.12-.11-.56-.14-.66-.13-.51-.56-.71-1-.6-.29.07-1.61.35-1.87.41-.56.14-3.25.86-4.6,2.16M28.12,5.53c.07.29.41,1.57.48,1.83.21.85.38,1.73.59,2.58.09.36.54,2,.62,2.31.08.34.42,1.8.49,2.09.04.17.26.94.3,1.11s.17.99.21,1.15c.05.22.34,1.28.39,1.49.1.41.25,1.02.33,1.54.02.1.02.2.05.3.13.51.64.84,1.22.7.15-.04.77-.22.91-.25.22-.05,1.28-.34,1.49-.39.12-.03.71-.15.83-.18.14-.04.74-.21.87-.24.51-.13,1.03-.2,1.54-.33.15-.04.69-.2.82-.23s.74-.13.86-.16c.29-.07.83-.38.63-1.18-.04-.17-.25-.89-.28-1.03-.04-.17-.11-.44-.15-.71-.01-.15-.05-.3-.08-.44-.17-.68-.8-.73-1.11-.65-.17.04-.31.1-.47.17-.16.07-.36.11-.55.16-.17.04-.34.08-.51.1-.22.03-.48.04-.73.08-.31.08-.7.17-.99.17-.65-.02-.75-.46-.87-.94-.17-.68-.26-1.04-.19-1.29.13-.5.64-.64,1.02-.74.29-.07,1.72-.32,1.98-.39.36-.09.72-.18.83-.79.02-.11.02-.24-.04-.45-.04-.17-.26-.86-.3-1-.04-.17-.17-.88-.2-1.03-.17-.68-.46-.91-1.18-.73-.12.03-.67.19-.77.22-.17.04-.86.16-1,.2-.12.03-.62.2-.71.23-.85.21-1.08-.73-1.14-.98-.17-.68-.19-.75-.12-.92.09-.25.31-.51,1.23-.74.17-.04.89-.14,1.03-.18.12-.03.64-.21.74-.23.07-.02.34-.06.41-.1.8-.28.72-.84.63-1.18-.04-.14-.2-.72-.23-.82-.05-.22-.21-1.15-.26-1.35-.11-.46-.48-.68-.91-.57-.12.03-.65.19-.77.22l-.51.13c-.15.04-.79.25-.91.28-.31.08-1.75.38-2.04.45l-1.26.31c-.1.02-.42.08-.71.13-.31.08-.61.13-.73.15-1.23.3-1.07.98-.77,2.17"/>
      </g>
    </g>
  </g>
</svg>