<?xml version="1.0" encoding="UTF-8"?>
<svg id="Calque_2" data-name="Calque 2" xmlns="http://www.w3.org/2000/svg" viewBox="0 0 121.28 60.18">
  <defs>
    <style>
      .cls-1 {
        fill: #1d1d1b;
      }
    </style>
  </defs>
  <g id="Calque_1-2" data-name="Calque 1">
    <g>
      <polygon class="cls-1" points="46.25 50.29 47.03 50.29 47.03 53.23 48.49 53.23 48.49 53.89 46.25 53.89 46.25 50.29"/>
      <g>
        <path class="cls-1" d="M49.63,52.25h1.27c-.01-.26-.21-.52-.6-.52-.36,0-.59.18-.67.52M50.43,53.99c-.98,0-1.53-.64-1.53-1.4s.51-1.4,1.42-1.4c.77,0,1.27.49,1.27,1.17,0,.15-.02.28-.04.37h-1.93c.07.48.38.68.82.68.3,0,.56-.12.71-.31l.5.37c-.26.32-.68.53-1.2.53"/>
        <path class="cls-1" d="M53.96,53.12c.17.2.37.34.64.34.22,0,.34-.12.34-.28,0-.45-1.32-.28-1.32-1.2,0-.46.41-.8.99-.8.42,0,.8.19,1,.44l-.46.38c-.14-.16-.32-.3-.54-.3s-.32.11-.32.25c0,.44,1.32.29,1.32,1.18-.01.55-.48.84-1,.84-.49,0-.84-.18-1.11-.48l.46-.39Z"/>
        <path class="cls-1" d="M56.76,52.25h1.27c-.01-.26-.21-.52-.6-.52-.36,0-.59.18-.67.52M57.56,53.99c-.98,0-1.53-.64-1.53-1.4s.51-1.4,1.42-1.4c.77,0,1.27.49,1.27,1.17,0,.15-.02.28-.04.37h-1.93c.07.48.38.68.82.68.3,0,.56-.12.71-.31l.5.37c-.26.32-.68.53-1.2.53"/>
        <path class="cls-1" d="M59.4,51.3h.7v.26c.18-.18.42-.31.73-.31.09,0,.17.02.24.04v.64c-.09-.02-.18-.04-.31-.04-.34,0-.56.18-.66.34v1.66h-.7v-2.6Z"/>
      </g>
      <polygon class="cls-1" points="62.1 51.3 62.82 53.15 63.53 51.3 64.28 51.3 63.28 53.89 62.36 53.89 61.36 51.3 62.1 51.3"/>
      <g>
        <path class="cls-1" d="M64.72,51.29h.7v2.6h-.7v-2.6ZM64.62,50.41c0-.23.21-.43.45-.43s.45.2.45.43-.2.43-.45.43-.45-.2-.45-.43"/>
        <path class="cls-1" d="M68.19,53.08l.54.39c-.26.32-.66.53-1.17.53-.95,0-1.52-.64-1.52-1.4s.57-1.4,1.52-1.4c.5,0,.91.21,1.17.53l-.54.39c-.13-.18-.35-.3-.64-.3-.45,0-.79.33-.79.78s.33.78.8.78c.27,0,.49-.12.62-.3"/>
        <path class="cls-1" d="M69.68,52.25h1.27c-.01-.26-.21-.52-.6-.52-.36,0-.59.18-.67.52M70.48,53.99c-.98,0-1.53-.64-1.53-1.4s.51-1.4,1.42-1.4c.77,0,1.27.49,1.27,1.17,0,.15-.02.28-.04.37h-1.93c.07.48.38.68.82.68.3,0,.56-.12.71-.31l.5.37c-.26.32-.68.53-1.2.53"/>
        <path class="cls-1" d="M74.49,52.19v.81c.19.25.44.38.76.38.47,0,.78-.33.78-.78s-.31-.78-.78-.78c-.32,0-.59.13-.76.38M73.79,51.3h.7v.21c.21-.2.48-.31.86-.31.88,0,1.4.64,1.4,1.4s-.52,1.4-1.4,1.4c-.38,0-.65-.11-.86-.32v1.48h-.7v-3.86Z"/>
        <path class="cls-1" d="M79.2,51.3h.7v1.44c0,.78-.48,1.26-1.29,1.26s-1.29-.48-1.29-1.26v-1.44h.7v1.47c0,.38.21.61.59.61s.59-.23.59-.61v-1.47Z"/>
        <path class="cls-1" d="M81.36,52.18v.82c.19.24.45.37.76.37.47,0,.78-.33.78-.78s-.31-.78-.78-.78c-.32,0-.59.13-.76.37M82.22,53.99c-.38,0-.65-.11-.86-.31v.21h-.69v-3.86h.69v1.48c.21-.2.48-.31.86-.31.88,0,1.4.64,1.4,1.4s-.52,1.4-1.4,1.4"/>
      </g>
      <rect class="cls-1" x="84.26" y="50.03" width=".7" height="3.86"/>
      <g>
        <path class="cls-1" d="M85.78,51.29h.7v2.6h-.7v-2.6ZM85.68,50.41c0-.23.21-.43.45-.43s.45.2.45.43-.2.43-.45.43-.45-.2-.45-.43"/>
        <path class="cls-1" d="M89.26,53.08l.54.39c-.26.32-.66.53-1.17.53-.95,0-1.52-.64-1.52-1.4s.57-1.4,1.52-1.4c.5,0,.91.21,1.17.53l-.54.39c-.13-.18-.35-.3-.64-.3-.45,0-.79.33-.79.78s.33.78.8.78c.27,0,.49-.12.62-.3"/>
        <path class="cls-1" d="M92.49,52.19v.81c.19.25.44.38.76.38.47,0,.78-.33.78-.78s-.31-.78-.78-.78c-.32,0-.59.13-.76.38M91.8,51.3h.7v.21c.21-.2.48-.31.86-.31.88,0,1.4.64,1.4,1.4s-.52,1.4-1.4,1.4c-.38,0-.65-.11-.86-.32v1.48h-.7v-3.86Z"/>
        <path class="cls-1" d="M97.51,52.59c0-.45-.33-.78-.78-.78s-.8.33-.8.78.34.78.8.78.78-.34.78-.78M98.24,52.59c0,.78-.61,1.4-1.51,1.4s-1.51-.62-1.51-1.4.61-1.4,1.51-1.4,1.51.62,1.51,1.4"/>
        <path class="cls-1" d="M100.69,51.3h.7v1.44c0,.78-.48,1.26-1.29,1.26s-1.29-.48-1.29-1.26v-1.44h.7v1.47c0,.38.21.61.59.61s.59-.23.59-.61v-1.47Z"/>
        <path class="cls-1" d="M102.16,51.3h.7v.26c.18-.18.42-.31.73-.31.09,0,.17.02.24.04v.64c-.09-.02-.18-.04-.31-.04-.34,0-.56.18-.66.34v1.66h-.7v-2.6Z"/>
        <path class="cls-1" d="M105.86,51.3h.7v.2c.19-.17.42-.3.76-.3s.66.14.84.42c.2-.23.46-.42.92-.42.57,0,1.02.37,1.02,1.1v1.6h-.7v-1.57c0-.31-.18-.51-.49-.51s-.47.2-.58.37c0,.04,0,.07,0,.11v1.6h-.7v-1.57c0-.31-.18-.51-.49-.51s-.48.22-.58.39v1.7h-.7v-2.6Z"/>
        <path class="cls-1" d="M110.88,51.29h.7v2.6h-.7v-2.6ZM110.78,50.41c0-.23.21-.43.45-.43s.45.2.45.43-.2.43-.45.43-.45-.2-.45-.43"/>
        <path class="cls-1" d="M112.95,52.25h1.27c-.01-.26-.21-.52-.6-.52-.36,0-.59.18-.67.52M113.74,53.99c-.98,0-1.53-.64-1.53-1.4s.51-1.4,1.42-1.4c.77,0,1.27.49,1.27,1.17,0,.15-.02.28-.04.37h-1.93c.07.48.38.68.82.68.3,0,.56-.12.71-.31l.5.37c-.26.32-.68.53-1.2.53"/>
        <path class="cls-1" d="M117.36,51.3h.7v1.44c0,.78-.48,1.26-1.29,1.26s-1.29-.48-1.29-1.26v-1.44h.7v1.47c0,.38.21.61.59.61s.59-.23.59-.61v-1.47Z"/>
      </g>
      <polygon class="cls-1" points="118.45 53.89 119.42 52.56 118.5 51.29 119.3 51.29 119.87 52.09 120.44 51.29 121.24 51.29 120.31 52.56 121.28 53.89 120.49 53.89 119.87 53.02 119.25 53.89 118.45 53.89"/>
      <g>
        <path class="cls-1" d="M46.11,57.48h.7v.26c.18-.18.42-.31.73-.31.09,0,.17.02.24.04v.64c-.09-.02-.18-.04-.31-.04-.34,0-.56.18-.66.34v1.66h-.7v-2.6Z"/>
        <path class="cls-1" d="M49.15,57.06l.57-.85h.75l-.66.85h-.67ZM48.75,58.43h1.27c-.01-.26-.21-.52-.6-.52-.36,0-.59.18-.67.52M49.55,60.17c-.98,0-1.53-.64-1.53-1.4s.51-1.4,1.42-1.4c.77,0,1.27.49,1.27,1.17,0,.15-.02.28-.04.37h-1.93c.07.48.38.68.82.68.3,0,.56-.12.71-.31l.5.37c-.26.32-.68.53-1.2.53"/>
        <path class="cls-1" d="M51.38,57.48h.7v.21c.19-.17.45-.31.82-.31.6,0,1.07.39,1.07,1.15v1.54h-.7v-1.52c0-.34-.21-.56-.55-.56s-.54.22-.64.39v1.7h-.7v-2.6Z"/>
        <path class="cls-1" d="M56.85,58.77c0-.45-.33-.78-.78-.78s-.8.33-.8.78.34.78.8.78.78-.34.78-.78M57.58,58.77c0,.78-.61,1.4-1.51,1.4s-1.51-.62-1.51-1.4.61-1.4,1.51-1.4,1.51.62,1.51,1.4"/>
      </g>
      <polygon class="cls-1" points="58.53 57.48 59.24 59.33 59.95 57.48 60.7 57.48 59.7 60.07 58.78 60.07 57.78 57.48 58.53 57.48"/>
      <g>
        <path class="cls-1" d="M61.65,58.43h1.27c-.01-.26-.21-.52-.6-.52-.36,0-.59.18-.67.52M62.44,60.17c-.98,0-1.53-.64-1.53-1.4s.51-1.4,1.42-1.4c.77,0,1.27.49,1.27,1.17,0,.15-.02.28-.04.37h-1.93c.07.48.38.68.82.68.3,0,.56-.12.71-.31l.5.37c-.26.32-.68.53-1.2.53"/>
        <path class="cls-1" d="M64.28,57.48h.7v.26c.18-.18.42-.31.73-.31.09,0,.17.02.24.04v.64c-.09-.02-.18-.04-.31-.04-.34,0-.56.18-.66.34v1.66h-.7v-2.6Z"/>
        <path class="cls-1" d="M67.97,57.48h.7v.2c.19-.17.42-.3.76-.3s.66.14.84.42c.2-.23.46-.42.92-.42.57,0,1.02.37,1.02,1.1v1.6h-.7v-1.57c0-.31-.18-.51-.49-.51s-.46.2-.58.37c0,.04,0,.07,0,.11v1.6h-.7v-1.57c0-.31-.18-.51-.49-.51s-.48.22-.58.39v1.7h-.7v-2.6Z"/>
        <path class="cls-1" d="M75.1,58.77c0-.45-.33-.78-.78-.78s-.8.33-.8.78.34.78.8.78.78-.34.78-.78M75.83,58.77c0,.78-.61,1.4-1.51,1.4s-1.51-.62-1.51-1.4.61-1.4,1.51-1.4,1.51.62,1.51,1.4"/>
        <path class="cls-1" d="M76.46,57.48h.7v.21c.19-.17.45-.31.82-.31.6,0,1.07.39,1.07,1.15v1.54h-.7v-1.52c0-.34-.21-.56-.55-.56s-.54.22-.64.39v1.7h-.7v-2.6Z"/>
        <path class="cls-1" d="M81.31,56.21h.7v1.47c.19-.18.45-.31.82-.31.6,0,1.07.39,1.07,1.15v1.54h-.7v-1.52c0-.35-.2-.56-.55-.56s-.54.22-.64.39v1.69h-.7v-3.86Z"/>
        <path class="cls-1" d="M85.6,59.63c.32,0,.55-.14.68-.34v-.37l-.66.1c-.29.05-.41.16-.41.32,0,.17.15.29.38.29M84.52,59.37c0-.39.32-.68.91-.78l.84-.13v-.07c0-.27-.22-.45-.54-.45-.27,0-.48.12-.62.31l-.51-.36c.25-.32.65-.52,1.15-.52.8,0,1.21.45,1.21,1.02v1.68h-.7v-.25c-.17.2-.5.33-.83.33-.55,0-.93-.3-.93-.78"/>
        <path class="cls-1" d="M88.46,58.36v.82c.19.24.45.37.76.37.47,0,.78-.33.78-.78s-.31-.78-.78-.78c-.32,0-.59.13-.76.37M89.32,60.17c-.38,0-.65-.11-.86-.31v.21h-.69v-3.86h.69v1.48c.21-.2.48-.31.86-.31.88,0,1.4.64,1.4,1.4s-.52,1.4-1.4,1.4"/>
        <path class="cls-1" d="M91.36,57.48h.7v2.6h-.7v-2.6ZM91.25,56.6c0-.23.21-.43.45-.43s.45.2.45.43-.2.43-.45.43-.45-.2-.45-.43"/>
        <path class="cls-1" d="M93.06,58.06h-.51v-.59h.51v-.65h.7v.65h.84v.59h-.84v1.06c0,.29.16.4.44.4.19,0,.32-.02.41-.06v.57c-.14.06-.3.08-.53.08-.69,0-1.02-.36-1.02-1v-1.06Z"/>
        <path class="cls-1" d="M96.14,59.63c.32,0,.55-.14.68-.34v-.37l-.66.1c-.29.05-.41.16-.41.32,0,.17.15.29.38.29M95.07,59.37c0-.39.32-.68.91-.78l.84-.13v-.07c0-.27-.22-.45-.54-.45-.27,0-.48.12-.62.31l-.51-.36c.25-.32.65-.52,1.15-.52.8,0,1.21.45,1.21,1.02v1.68h-.7v-.25c-.17.2-.5.33-.83.33-.55,0-.93-.3-.93-.78"/>
        <path class="cls-1" d="M98.49,58.06h-.51v-.59h.51v-.65h.7v.65h.84v.59h-.84v1.06c0,.29.16.4.44.4.19,0,.32-.02.41-.06v.57c-.14.06-.3.08-.53.08-.69,0-1.02-.36-1.02-1v-1.06Z"/>
      </g>
      <polygon class="cls-1" points="46.02 13.42 54 13.42 54 15.78 48.8 15.78 48.8 18.95 53.22 18.95 53.22 21.32 48.8 21.32 48.8 27.11 46.02 27.11 46.02 13.42"/>
      <g>
        <path class="cls-1" d="M55.7,17.25h2.48v.98c.64-.67,1.49-1.17,2.6-1.17.33,0,.63.06.86.14v2.6c-.31-.08-.65-.14-1.1-.14-1.21,0-1.99.66-2.37,1.27v6.18h-2.48v-9.86Z"/>
        <path class="cls-1" d="M66.49,25.5c1.11,0,1.92-.59,2.43-1.39v-1.35l-2.33.41c-1.06.18-1.47.61-1.47,1.23s.53,1.1,1.37,1.1M62.66,24.5c0-1.51,1.15-2.66,3.29-3.01l2.97-.51v-.26c0-1.04-.78-1.7-1.9-1.7-.96,0-1.76.41-2.21,1.17l-1.84-1.39c.88-1.21,2.35-1.95,4.13-1.95,2.86,0,4.32,1.7,4.32,3.87v6.38h-2.5v-.92c-.63.78-1.78,1.31-2.93,1.31-1.98,0-3.33-1.13-3.33-2.99"/>
        <path class="cls-1" d="M74.26,17.25h2.48v.78c.68-.66,1.6-1.17,2.91-1.17,2.13,0,3.83,1.47,3.83,4.38v5.87h-2.52v-5.77c0-1.31-.72-2.13-1.94-2.13s-1.92.84-2.29,1.47v6.43h-2.48v-9.86Z"/>
        <path class="cls-1" d="M93.23,24l1.98,1.51c-.92,1.21-2.37,1.99-4.17,1.99-3.4,0-5.44-2.44-5.44-5.32s2.03-5.32,5.44-5.32c1.8,0,3.25.78,4.17,1.99l-1.98,1.51c-.47-.68-1.21-1.15-2.23-1.15-1.62,0-2.82,1.25-2.82,2.97s1.19,2.97,2.86,2.97c.96,0,1.72-.47,2.19-1.15"/>
        <path class="cls-1" d="M98.67,20.81h4.44c-.04-.98-.76-1.88-2.07-1.88-1.21,0-2.03.59-2.37,1.88M101.44,27.5c-3.5,0-5.48-2.45-5.48-5.32s1.84-5.32,5.07-5.32c2.74,0,4.54,1.84,4.54,4.42,0,.55-.08,1.08-.16,1.41h-6.9c.16,1.62,1.29,2.58,2.97,2.58,1.08,0,1.96-.47,2.48-1.17l1.78,1.41c-.92,1.23-2.45,1.99-4.3,1.99"/>
        <path class="cls-1" d="M48.8,33.67v3.42h1.57c1.17,0,1.86-.63,1.86-1.74,0-1.04-.68-1.68-1.86-1.68h-1.57ZM46.02,31.31h4.19c3.01,0,4.87,1.54,4.87,4.09,0,1.64-.8,2.88-2.19,3.54l4.3,6.06h-3.33l-3.64-5.53h-1.43v5.53h-2.78v-13.69Z"/>
        <path class="cls-1" d="M61.88,33.58l2.03-3.25h2.7l-2.35,3.25h-2.39ZM60.53,38.7h4.44c-.04-.98-.76-1.88-2.07-1.88-1.21,0-2.03.59-2.37,1.88M63.31,45.39c-3.5,0-5.48-2.45-5.48-5.32s1.84-5.32,5.07-5.32c2.74,0,4.54,1.84,4.54,4.42,0,.55-.08,1.08-.16,1.41h-6.9c.16,1.62,1.29,2.58,2.97,2.58,1.08,0,1.96-.47,2.48-1.17l1.78,1.41c-.92,1.23-2.45,1.99-4.3,1.99"/>
        <path class="cls-1" d="M69.86,35.14h2.48v.78c.68-.66,1.6-1.17,2.91-1.17,2.13,0,3.83,1.47,3.83,4.38v5.87h-2.52v-5.77c0-1.31-.72-2.13-1.94-2.13s-1.92.84-2.29,1.47v6.43h-2.48v-9.86Z"/>
        <path class="cls-1" d="M89.42,40.07c0-1.72-1.19-2.97-2.78-2.97s-2.86,1.25-2.86,2.97,1.21,2.97,2.86,2.97,2.78-1.27,2.78-2.97M92,40.07c0,2.95-2.19,5.32-5.4,5.32s-5.4-2.37-5.4-5.32,2.19-5.32,5.4-5.32,5.4,2.37,5.4,5.32"/>
      </g>
      <polygon class="cls-1" points="95.4 35.14 97.96 42.18 100.51 35.14 103.18 35.14 99.59 45 96.32 45 92.74 35.14 95.4 35.14"/>
      <polygon class="cls-1" points="104.49 36.94 106.25 31.31 109.07 31.31 106.8 36.94 104.49 36.94"/>
      <g>
        <path class="cls-1" d="M22.53,23.4c-.09-.38-.34-.69-.62-.95-.3-.25-.62-.46-.98-.61-.35-.15-.72-.25-1.09-.3-.37-.05-.75-.05-1.11,0-.73.11-1.31.53-1.89.91-.59.4-1.1.91-1.63,1.59l-.11-.03c-.06-.44.03-.89.2-1.31.17-.42.44-.81.77-1.13.33-.32.75-.58,1.19-.73.45-.15.92-.21,1.38-.23.93-.03,1.83.23,2.57.71.37.24.69.54.96.88.27.33.47.75.47,1.18h-.12ZM29.97,21.32c-.31-.04-.64-.03-.96.03-.32.05-.64.15-.94.29-.3.14-.58.33-.83.56-.24.23-.45.51-.51.84h-.1c-.02-.38.15-.74.37-1.04.22-.3.49-.57.81-.79.63-.43,1.4-.69,2.2-.69.4,0,.81.04,1.21.16.12.04.24.08.36.14-.25-.58-.54-1.15-.9-1.68-2.25-3.36-6.3-5.32-10.35-5.41-4.05-.08-8.03,1.58-11.1,4.22l.27-.14c.19-.12.4-.24.62-.33l-.62.33c-1.57,1.02-2.23,3.14-2.64,5.04-.44,2.03-.83,4.1-.66,6.16.17,2.07.95,4.16,2.51,5.52,1.63,1.42,3.88,1.89,6.05,2.01,3.13.18,6.29-.27,9.25-1.3,2.65-.93,5.21-2.39,6.8-4.69,1.62-2.34,2-5.38,1.3-8.15-.15-.12-.31-.24-.48-.35-.52-.31-1.03-.66-1.67-.74"/>
        <path class="cls-1" d="M19.43.41c-.98.59-1.92,1.25-2.82,1.93-.46.34-.89.7-1.34,1.05l-1.31,1.09c-1.73,1.46-3.25,3.16-4.82,4.78-1.57,1.63-3.12,3.28-4.65,4.95-1.51,1.68-3.02,3.37-4.48,5.1l.11.1c1.63-1.57,3.25-3.15,4.9-4.69,1.63-1.56,3.28-3.1,4.95-4.62,1.66-1.53,3.43-2.94,5-4.55.79-.8,1.58-1.61,2.34-2.45.77-.83,1.52-1.68,2.23-2.59l-.1-.11Z"/>
        <path class="cls-1" d="M20.15,0l-.1.1c1.71,1.82,3.44,3.62,5.16,5.43l5.21,5.38c1.75,1.78,3.4,3.65,5.24,5.35,1.83,1.69,3.72,3.33,5.74,4.83l.31-.28-.02-.02h0c-1.56-1.98-3.24-3.82-4.98-5.61-1.74-1.79-3.66-3.39-5.48-5.09l-5.51-5.07c-1.85-1.67-3.69-3.36-5.56-5.02"/>
      </g>
    </g>
  </g>
</svg>