<?xml version="1.0" encoding="UTF-8"?>
<svg id="Calque_2" data-name="Calque 2" xmlns="http://www.w3.org/2000/svg" viewBox="0 0 87 58.29">
  <defs>
    <style>
      .cls-1 {
        fill: #253473;
      }

      .cls-2 {
        fill: #e30a18;
      }

      .cls-3 {
        fill: #9d9d9c;
      }
    </style>
  </defs>
  <g id="Calque_1-2" data-name="Calque 1">
    <g>
      <path d="M2,58.19l.05-.15c-.63-.12-.71-.12-.46-.81l.26-.71h.7c.31,0,.32.13.27.47h.18l.42-1.14h-.18c-.16.27-.28.47-.62.47h-.69l.37-1c.11-.32.18-.38.61-.38h.3c.44,0,.49.12.49.57h.18l.15-.78H1.39l-.05.15c.51.1.55.15.32.81l-.57,1.56c-.24.65-.34.7-.92.81l-.04.15h1.87ZM5.64,56.29c.09-.31.04-.58-.19-.58-.28,0-.35.21-.64.83v-.35c0-.25-.08-.47-.31-.47-.27,0-.51.41-.69.82h.12c.13-.18.25-.29.34-.29.11,0,.17.17,0,.56l-.51,1.14c-.09.21,0,.35.21.35.13,0,.18-.03.24-.17l.5-1.33c.14-.18.27-.33.43-.5h.49ZM7.94,55.6h-.2s-.22.2-.22.2h-.05c-1.08,0-2.02,1.21-2.02,2.1,0,.25.15.39.39.39.28,0,.55-.4.86-.82v.15c-.05.44.08.67.31.67.27,0,.51-.41.69-.82h-.12c-.13.18-.25.29-.34.29-.1,0-.17-.18,0-.56l.7-1.6ZM5.95,57.55c0-.58.65-1.38,1.02-1.38.08,0,.16,0,.22.03l-.38,1.01c-.22.27-.56.59-.71.59-.09,0-.15-.08-.15-.25M8.34,56.07h.44l-.69,1.89c-.06.16.02.32.19.32.39,0,1.03-.39,1.25-.92h-.12c-.18.18-.51.43-.8.48l.64-1.78h.65l.08-.27h-.63l.24-.68h-.25l-.45.68-.54.08v.19ZM11.44,57.37h-.16c-.2.24-.42.43-.64.43s-.34-.13-.34-.43c0-.12.01-.25.04-.36l1.31-.43c.26-.61-.05-.87-.41-.87-.62,0-1.33,1.04-1.33,1.95,0,.41.19.63.5.63.36,0,.73-.35,1.03-.92M10.99,56.06c.17,0,.33.13.25.47l-.82.19c.14-.38.38-.66.57-.66M13.9,56.29c.09-.31.04-.58-.19-.58-.28,0-.35.21-.64.83v-.35c0-.25-.08-.47-.31-.47-.26,0-.51.41-.69.82h.12c.13-.18.25-.29.34-.29.11,0,.17.17,0,.56l-.51,1.14c-.1.21,0,.35.21.35.13,0,.18-.03.24-.17l.5-1.33c.14-.18.27-.33.43-.5h.49ZM13.91,57.94c-.1.21,0,.35.21.35.13,0,.18-.03.24-.17l.5-1.33c.23-.29.71-.59.9-.59.14,0,.12.11.03.28l-.77,1.49c-.08.15.02.32.19.32.38,0,.83-.34,1.01-.82h-.12c-.12.18-.33.37-.53.4l.66-1.34c.09-.17.13-.33.13-.46,0-.22-.12-.36-.35-.36-.33,0-.66.37-1.05.83v-.35c0-.25-.08-.47-.31-.47-.14,0-.28.12-.41.3v.05c.25-.01.36.36.18.74l-.51,1.14ZM18.09,55.03c.17,0,.31-.14.31-.31s-.14-.31-.31-.31-.31.14-.31.31.14.31.31.31M17.96,55.98c.05-.17-.07-.28-.16-.28-.38,0-.83.34-1.01.82h.12c.12-.18.33-.37.53-.4l-.73,1.89c-.07.17.07.27.16.27.36,0,.78-.35.96-.82h-.12c-.12.18-.33.37-.53.4l.77-1.89ZM18.55,56.07h.44l-.69,1.89c-.06.16.02.32.19.32.39,0,1.03-.39,1.25-.92h-.12c-.18.18-.51.43-.8.48l.64-1.78h.65l.08-.27h-.63l.24-.68h-.25l-.45.68-.54.08v.19ZM21.39,55.47l.92-.86v-.1h-.5l-.57.96h.14ZM21.65,57.37h-.16c-.2.24-.42.43-.64.43s-.34-.13-.34-.43c0-.12.01-.25.04-.36l1.31-.43c.26-.61-.05-.87-.41-.87-.62,0-1.33,1.04-1.33,1.95,0,.41.19.63.5.63.36,0,.73-.35,1.03-.92M21.2,56.06c.18,0,.33.13.25.47l-.82.19c.14-.38.38-.66.57-.66"/>
      <path d="M2.94,48.57l.92-.64v-.1h-.56l-.51.74h.15ZM2.56,50.55c.31,0,.32.13.27.47h.18l.42-1.14h-.18c-.16.27-.28.47-.62.47h-.69l.35-.95c.11-.32.18-.38.61-.38h.3c.44,0,.49.12.49.56h.18l.15-.78H1.4l-.05.15c.51.1.56.15.32.81l-.57,1.56c-.24.65-.34.7-.92.81l-.04.15h2.91l.52-.83h-.2c-.33.31-.75.61-1.33.61-.77,0-.7-.03-.45-.74l.28-.76h.7ZM5.88,52.59c0-.3-.27-.41-.71-.55-.38-.11-.55-.15-.55-.27,0-.1.08-.22.24-.3.62-.03,1.02-.59,1.02-1.06,0-.1-.02-.18-.05-.26h.53l.08-.27h-.83c-.1-.06-.22-.1-.34-.1-.66,0-1.09.58-1.09,1.05,0,.35.23.58.5.63-.31.14-.48.3-.48.49,0,.11.04.18.13.26-.71.21-.99.45-.99.78s.43.47.95.47c.87,0,1.59-.47,1.59-.86M4.85,51.29c-.16,0-.22-.13-.22-.29,0-.42.23-1.04.58-1.04.16,0,.22.13.22.29,0,.42-.23,1.04-.58,1.04M3.87,52.82c0-.25.24-.41.59-.54.11.06.29.12.51.19.36.12.5.17.5.28,0,.23-.39.41-.93.41-.45,0-.67-.1-.67-.33M8.7,49.67h-.2s-.22.2-.22.2h-.05c-1.08,0-2.02,1.21-2.02,2.1,0,.25.15.39.39.39.28,0,.55-.4.86-.82l-.02.15c-.04.44.1.67.32.67.27,0,.51-.41.69-.82h-.12c-.13.18-.25.29-.34.29-.1,0-.17-.18,0-.56l.7-1.6ZM6.7,51.62c0-.58.65-1.38,1.01-1.38.08,0,.16,0,.22.03l-.38,1.01c-.22.27-.56.59-.71.59-.09,0-.15-.08-.15-.25M9.22,51.94l1.32-3.47-.04-.05-.83.1v.1l.16.12c.15.11.1.22-.03.57l-1.03,2.72c-.08.15.02.32.19.32.38,0,.78-.34.96-.82h-.12c-.12.18-.38.37-.57.4M11.74,49.1c.17,0,.31-.14.31-.31s-.14-.31-.31-.31-.31.14-.31.31.14.31.31.31M11.61,50.05c.05-.17-.07-.28-.16-.28-.38,0-.83.34-1.01.82h.12c.12-.18.33-.37.53-.4l-.73,1.89c-.07.18.07.27.16.27.36,0,.78-.35.96-.82h-.12c-.12.18-.33.37-.53.4l.77-1.89ZM12.19,50.14h.44l-.69,1.89c-.06.16.02.32.19.32.39,0,1.03-.39,1.25-.92h-.12c-.18.18-.51.43-.8.48l.64-1.78h.65l.08-.27h-.63l.24-.68h-.25l-.45.68-.54.08v.19ZM15.03,49.53l.92-.86v-.1h-.5l-.57.96h.14ZM15.29,51.44h-.16c-.2.24-.42.43-.64.43s-.34-.13-.34-.43c0-.12.01-.25.04-.36l1.31-.43c.26-.61-.05-.87-.41-.87-.62,0-1.33,1.04-1.33,1.95,0,.41.19.63.5.63.36,0,.73-.35,1.03-.92M14.84,50.13c.18,0,.33.13.25.47l-.82.19c.14-.38.38-.66.57-.66"/>
      <path d="M3.11,42.87h-1.73l-.05.15c.51.1.56.15.32.81l-.56,1.56c-.24.65-.34.7-.92.81l-.04.15h2.63l.57-1.02h-.2c-.32.36-.7.8-1.29.8-.44,0-.49-.08-.26-.74l.56-1.56c.23-.65.34-.7.92-.81l.04-.15ZM5.03,43.17c.17,0,.31-.14.31-.31s-.14-.31-.31-.31-.31.14-.31.31.14.31.31.31M4.89,44.12c.05-.18-.07-.28-.16-.28-.38,0-.83.34-1.01.82h.12c.12-.18.33-.37.53-.4l-.73,1.89c-.07.17.07.27.16.27.36,0,.78-.35.96-.82h-.12c-.12.18-.33.37-.53.4l.77-1.89ZM7.47,44.37c0-.39-.14-.53-.41-.53-.33,0-.65.35-.96.78l.79-2.08-.04-.05-.83.1v.1l.16.12c.15.11.1.23-.03.57l-.85,2.2c-.06.16-.14.35-.14.4,0,.23.31.44.59.44.64,0,1.72-1.16,1.72-2.05M5.98,46.04c-.13,0-.31-.12-.31-.22,0-.03.06-.18.13-.37l.21-.56c.23-.27.58-.56.77-.56.12,0,.21.08.21.25,0,.52-.48,1.46-1.01,1.46M9.2,45.51h-.16c-.2.24-.42.43-.64.43s-.34-.13-.34-.43c0-.12.01-.25.04-.36l1.31-.43c.26-.61-.05-.87-.41-.87-.62,0-1.33,1.04-1.33,1.95,0,.41.19.63.5.63.36,0,.73-.35,1.03-.92M8.75,44.2c.18,0,.33.13.25.47l-.82.19c.14-.38.38-.66.57-.66M11.66,44.42c.09-.31.04-.58-.19-.58-.28,0-.35.21-.64.83v-.35c0-.25-.08-.47-.31-.47-.27,0-.51.41-.69.82h.12c.13-.18.25-.29.34-.29.11,0,.17.17,0,.56l-.51,1.14c-.1.21,0,.35.21.35.13,0,.18-.03.24-.17l.5-1.33c.14-.18.27-.33.43-.5h.49ZM12.01,44.21h.35l-.69,1.89c-.06.16.02.32.19.32.39,0,1.03-.39,1.25-.92h-.12c-.18.18-.51.43-.8.48l.64-1.78h.65l.08-.27h-.63l.24-.68h-.25l-.45.68-.45.08v.19ZM14.72,43.6l.92-.86v-.1h-.5l-.57.96h.14ZM14.99,45.51h-.16c-.2.24-.42.43-.64.43s-.34-.13-.34-.43c0-.12.01-.25.04-.36l1.31-.43c.26-.61-.05-.87-.41-.87-.62,0-1.33,1.04-1.33,1.95,0,.41.19.63.5.63.36,0,.73-.35,1.03-.92M14.53,44.2c.18,0,.33.13.25.47l-.82.19c.14-.38.38-.66.57-.66"/>
      <polygon points=".19 13.05 1.84 13.05 3.4 15.71 4.96 13.05 6.61 13.05 6.61 19.51 5.3 19.51 5.3 14.92 3.86 17.3 2.94 17.3 1.5 14.92 1.5 19.51 .19 19.51 .19 13.05"/>
      <rect x="8.42" y="13.05" width="1.31" height="6.46"/>
      <polygon points="11.54 13.05 13.22 13.05 16.11 17.67 16.11 13.05 17.42 13.05 17.42 19.51 15.74 19.51 12.85 14.87 12.85 19.51 11.54 19.51 11.54 13.05"/>
      <rect x="19.24" y="13.05" width="1.31" height="6.46"/>
      <path d="M22.73,17.74c.39.5.9.79,1.43.79s.83-.28.83-.75c0-1.15-2.95-.89-2.95-3.04,0-1.02.84-1.87,2.07-1.87.97,0,1.71.43,2.26,1.09l-.96.86c-.38-.49-.8-.8-1.29-.8-.45,0-.75.29-.75.67,0,1.15,2.95.89,2.95,3.07-.02,1.2-.96,1.94-2.14,1.94-1.09,0-1.83-.4-2.4-1.08l.95-.88Z"/>
      <polygon points="26.99 13.05 32.28 13.05 32.28 14.24 30.29 14.24 30.29 19.51 28.98 19.51 28.98 14.24 26.99 14.24 26.99 13.05"/>
      <path d="M33.56,11.26h1.35l1.04,1.24h-1.2l-1.19-1.24ZM33.45,13.05h3.76v1.12h-2.45v1.49h2.09v1.12h-2.09v1.61h2.45v1.12h-3.76v-6.46Z"/>
      <path d="M40.05,14.17v1.61h.74c.55,0,.88-.29.88-.82,0-.49-.32-.79-.88-.79h-.74ZM38.74,13.05h1.97c1.42,0,2.3.73,2.3,1.93,0,.78-.38,1.36-1.03,1.67l2.03,2.86h-1.57l-1.71-2.61h-.67v2.61h-1.31v-6.46Z"/>
      <polygon points="44.83 13.05 48.59 13.05 48.59 14.17 46.14 14.17 46.14 15.66 48.22 15.66 48.22 16.78 46.14 16.78 46.14 18.39 48.59 18.39 48.59 19.51 44.83 19.51 44.83 13.05"/>
      <path d="M1.5,23.67v4.08h1.24c1.2,0,2.07-.9,2.07-2.04s-.87-2.04-2.07-2.04h-1.24ZM.19,22.48h2.54c2.05,0,3.43,1.48,3.43,3.23s-1.38,3.23-3.43,3.23H.19v-6.46Z"/>
      <polygon points="7.43 22.48 11.19 22.48 11.19 23.6 8.74 23.6 8.74 25.09 10.83 25.09 10.83 26.21 8.74 26.21 8.74 27.82 11.19 27.82 11.19 28.94 7.43 28.94 7.43 22.48"/>
      <polygon points="15.13 22.48 16.44 22.48 16.44 27.75 18.89 27.75 18.89 28.94 15.13 28.94 15.13 22.48"/>
      <path d="M23.71,26.14l-.89-2.42-.89,2.42h1.77ZM21.97,22.48h1.71l2.44,6.46h-1.39l-.62-1.68h-2.58l-.62,1.68h-1.39l2.44-6.46Z"/>
      <polygon points="28.87 22.48 34.17 22.48 34.17 23.67 32.17 23.67 32.17 28.94 30.86 28.94 30.86 23.67 28.87 23.67 28.87 22.48"/>
      <path d="M36.64,23.6v1.61h.74c.55,0,.88-.29.88-.82,0-.49-.32-.79-.88-.79h-.74ZM35.33,22.48h1.97c1.42,0,2.3.73,2.3,1.93,0,.78-.38,1.36-1.03,1.67l2.03,2.86h-1.57l-1.71-2.61h-.67v2.61h-1.31v-6.46Z"/>
      <path d="M45.07,26.14l-.89-2.42-.89,2.42h1.77ZM43.32,22.48h1.71l2.44,6.46h-1.39l-.62-1.68h-2.58l-.62,1.68h-1.39l2.44-6.46Z"/>
      <polygon points="48.49 22.48 50.17 22.48 53.05 27.1 53.05 22.48 54.36 22.48 54.36 28.94 52.68 28.94 49.8 24.3 49.8 28.94 48.49 28.94 48.49 22.48"/>
      <path d="M56.55,27.17c.39.5.9.79,1.43.79s.83-.28.83-.75c0-1.15-2.95-.89-2.95-3.04,0-1.02.84-1.87,2.07-1.87.97,0,1.72.43,2.26,1.09l-.96.86c-.38-.49-.8-.8-1.29-.8-.45,0-.75.29-.75.67,0,1.15,2.95.89,2.95,3.07-.02,1.2-.96,1.94-2.14,1.94-1.09,0-1.83-.4-2.4-1.08l.95-.88Z"/>
      <rect x="61.52" y="22.48" width="1.31" height="6.46"/>
      <polygon points="63.98 22.48 69.27 22.48 69.27 23.67 67.28 23.67 67.28 28.94 65.97 28.94 65.97 23.67 63.98 23.67 63.98 22.48"/>
      <rect x="70.44" y="22.48" width="1.31" height="6.46"/>
      <path d="M78.52,25.71c0-1.24-.87-2.19-2.08-2.19s-2.08.95-2.08,2.19.87,2.19,2.08,2.19,2.08-.95,2.08-2.19M79.86,25.71c0,1.84-1.39,3.41-3.42,3.41s-3.43-1.57-3.43-3.41,1.39-3.41,3.43-3.41,3.42,1.57,3.42,3.41"/>
      <polygon points="81.12 22.48 82.8 22.48 85.69 27.1 85.69 22.48 87 22.48 87 28.94 85.32 28.94 82.43 24.3 82.43 28.94 81.12 28.94 81.12 22.48"/>
      <path d="M1.47,31.35l1.04-1.24h1.35l-1.2,1.24h-1.19ZM.19,31.91h3.76v1.12H1.5v1.49h2.08v1.12H1.5v1.61h2.45v1.12H.19v-6.46Z"/>
      <polygon points="5.49 31.91 7.16 31.91 10.05 36.53 10.05 31.91 11.36 31.91 11.36 38.36 9.68 38.36 6.8 33.72 6.8 38.36 5.49 38.36 5.49 31.91"/>
      <polygon points="13.18 31.91 16.94 31.91 16.94 33.02 14.49 33.02 14.49 34.52 16.57 34.52 16.57 35.63 14.49 35.63 14.49 37.25 16.94 37.25 16.94 38.36 13.18 38.36 13.18 31.91"/>
      <path d="M19.78,33.02v1.61h.74c.55,0,.88-.29.88-.82,0-.49-.32-.79-.88-.79h-.74ZM18.47,31.91h1.97c1.42,0,2.3.73,2.3,1.93,0,.78-.38,1.36-1.03,1.67l2.03,2.86h-1.57l-1.71-2.61h-.67v2.61h-1.31v-6.46Z"/>
      <path d="M28.96,36.76v-1.09h-1.64v-1.19h2.95v2.75c-.6.8-1.6,1.32-2.81,1.32-2.09,0-3.52-1.57-3.52-3.41s1.39-3.41,3.43-3.41c1.17,0,2.13.52,2.72,1.31l-1.03.8c-.37-.53-.95-.89-1.69-.89-1.22,0-2.08.95-2.08,2.19s.91,2.18,2.18,2.18c.61,0,1.13-.21,1.5-.56"/>
      <path d="M33.01,31.35l1.04-1.24h1.35l-1.2,1.24h-1.19ZM31.74,31.91h3.76v1.12h-2.45v1.49h2.09v1.12h-2.09v1.61h2.45v1.12h-3.76v-6.46Z"/>
      <polygon points="36.51 31.91 41.8 31.91 41.8 33.1 39.81 33.1 39.81 38.36 38.5 38.36 38.5 33.1 36.51 33.1 36.51 31.91"/>
      <rect x="42.96" y="31.91" width="1.31" height="6.46"/>
      <path d="M51.04,35.14c0-1.24-.87-2.19-2.08-2.19s-2.08.95-2.08,2.19.87,2.18,2.08,2.18,2.08-.95,2.08-2.18M52.86,38.82c.14,0,.32-.02.46-.07v1.11c-.21.08-.4.12-.68.12-.72,0-1.38-.3-2.02-.85l-.77-.68c-.28.07-.57.11-.89.11-2.04,0-3.43-1.57-3.43-3.41s1.39-3.41,3.43-3.41,3.42,1.57,3.42,3.41c0,1.08-.48,2.07-1.27,2.69l.39.37c.5.45.94.62,1.36.62"/>
      <path d="M57.46,31.91h1.31v3.93c0,1.7-.99,2.71-2.62,2.71s-2.61-1.02-2.61-2.71v-3.93h1.31v4.04c0,.87.49,1.37,1.31,1.37s1.3-.51,1.3-1.37v-4.04Z"/>
      <polygon points="60.4 31.91 64.17 31.91 64.17 33.02 61.71 33.02 61.71 34.52 63.8 34.52 63.8 35.63 61.71 35.63 61.71 37.25 64.17 37.25 64.17 38.36 60.4 38.36 60.4 31.91"/>
      <path class="cls-1" d="M6.93,6.16s.05,0,.07-.03h-.13s-.02-.02-.02-.03c-.08.02-.18.05-.26.07-.11.03-.21.11-.34.15-.18.07-.33.21-.52.28-.02,0-.02-.02-.02-.03.02-.05.08-.07.11-.11,0-.02,0-.03-.02-.03.13-.18.31-.28.47-.42v-.05c.05-.07.13-.1.16-.18.02-.05.08-.11.16-.15-.02-.02-.05-.02-.05-.05-.07,0-.13.03-.2-.02.03-.03.07-.05.1-.06-.01,0-.03,0-.04-.02-.02-.03.03-.07.08-.08.07-.02.15-.02.19-.07-.11-.02-.24.03-.36-.03.08-.21.21-.39.41-.49.02,0,.05,0,.05.02,0,.08-.05.15-.13.16.13.03.26.03.39.1-.02.03-.05.02-.07.02.08.05.18.02.26.08-.05.05-.1,0-.15,0,.5.15,1.04.26,1.46.59-.36.18-.73.26-1.12.34-.05,0-.08,0-.13-.02,0,.02,0,.05-.02.05-.07,0-.11,0-.16.03-.06.03-.16.05-.21,0M6.6,7.29s0,0,0,0c-.06.04-.12.09-.18.12-.07.04-.14.07-.21.1,0,0,0,0,0,0,0,0-.02-.01-.03,0-.06.03-.11.08-.16.12,0,0-.02.02-.02.02h0s0,0,0,0c0,0-.02.01-.02.02,0,0,0,0,0,0t0,0s-.02.02-.04.04c0,0-.01.01-.02.02,0,0-.04,0-.04-.01h0s-.02,0-.03.01c0,0-.02,0-.03.01,0,0,0,0-.01,0s0,0-.01,0c-.02.02-.04.03-.06.05-.03.03-.07.07-.1.1h0s0,0,0,0c0,0,0,0,0,0,0,0,0,0,0,0,0,0,0,0,0,0,0,0,0,.01-.01.02h0s0,0-.01,0c0,0,0,0,0,0,0,0,0,0,0,0,0,0,0-.02-.01-.03h0s0,0,0,0c.02-.02.04-.04.05-.06,0,0,0,0,0,0,0,0,.01-.01.02-.02,0-.01.02-.02.03-.03,0,0,0,0,.01-.01.02-.02.04-.05.05-.07,0,0,0,0,0,0,0,0,0,0,0-.01,0-.01.02-.02.02-.03,0-.01.01-.02.02-.03,0,0,0,0,0,0,0,0,0,0,0,0,0,0,0,0,0,0,0-.01.01-.03.01-.04,0,0,0,0,0,0,0,0,0,0,0-.01,0,0,0-.01,0-.02,0,0,0,0,0,0,0,0,0-.02,0-.02,0,0,0,0,0-.01.02-.03.04-.06.06-.09,0,0,0,0,0,0-.02.02-.04.04-.06.05-.02.01-.05,0-.03-.02.02-.01.03-.02.04-.03,0,0,0,0,0,0,.03-.03.05-.06.08-.08.02-.01.04-.03.05-.04,0,0,0,0,0,0,.01-.02.02-.03.04-.04t0,0c.15-.15.42-.14.62-.24.08-.03.18.02.26,0,.05,0,.1,0,.15.03-.15.08-.28.17-.41.25M6.89,7.42s-.02.03-.04.05c.02,0,.04.01.02.03-.04.03-.07.07-.12.09,0,0-.01,0-.02,0-.02.02-.04.04-.06.06-.02.02-.11,0-.08-.02.04-.04.08-.08.12-.11.02-.02.05-.04.07-.07.01-.01.02-.03.04-.04s.1-.02.09.02M6.14,4.99s-.03.04-.05.07c-.02.03-.03.05-.06.07-.02,0-.03,0-.03-.02.02-.07.07-.13.13-.15.02,0,.02.02.02.03M4.79,6.06s-.02-.02-.02-.03c.21-.28.37-.54.52-.83.21-.11.39-.28.55-.46.28-.29.57-.55.91-.71.13-.05.29-.03.42.02-.05.07-.13.05-.2.1-.02,0-.03,0-.05-.02.02-.02.02-.03.02-.05-.16.18-.39.26-.52.47-.1.16-.16.37-.37.42-.07.02.02-.05-.02-.03-.5.31-.86.68-1.25,1.12M7.27,6.42s-.1.02-.08-.02c.02-.08.13-.08.19-.11.03-.02.08-.05.11-.03.03.05.08.03.11.07-.1.1-.23.05-.34.1M9.77,7.58c.09-.09.18-.19.28-.29h0c.17-.2.34-.38.54-.55.06-.05.12-.1.18-.14.02-.02.02-.05.03-.07-.08.03-.13.1-.21.13-.02,0-.03-.02-.02-.03.06-.04.12-.09.17-.13h-.01s-.02-.02-.02-.03c-.21-.03-.37.11-.52.24-.03.02-.07-.02-.08-.02-.24.08-.42.29-.67.39v-.03c-.1.03-.19.09-.29.11-.15.03-.28.02-.41.02-.2.02-.39.06-.59.11,0,0-.01,0-.02,0-.11.03-.2.07-.3.12,0,0,0,0-.01,0,0,.01-.02.02-.02.03-.04.04-.07.07-.11.1-.1.05-.18.14-.27.21,0,0-.02,0-.03,0-.09.08-.17.17-.26.25,0,0-.03.01-.05,0t0,0s0-.01.01-.02c.01-.02.03-.05.04-.07.02-.03.03-.05.05-.08.02-.03.04-.07.07-.1,0,0,0-.02,0-.02,0,0-.01,0-.02,0,.08-.08.18-.15.27-.2h0s-.03,0-.02-.02c.01-.01.02-.03.03-.04,0,0,0-.01,0-.01,0,0,0,0-.01-.01-.03.02-.05.03-.08.05-.04.03-.07.11-.13.11,0,0-.02,0-.02,0,0,0-.01,0-.02,0,0,0,0,0,0,0,0,0,0,0,0,0,0,0,0,0,0,0,0,0,0,0,0-.01,0,0,0,0,0-.01,0,0,0,0,0-.01,0,0,0-.01.01-.02,0,0,0-.01,0-.01,0-.01.01-.02.02-.04,0,0,0-.01.01-.02,0-.01.01-.02.02-.03,0-.01,0-.02-.01-.03.03-.04.07-.07.11-.1h0c.06-.03.12-.07.19-.1,0,0,.02-.02.03-.02-.09.03-.18.07-.26.13,0,0-.02,0-.03.02,0,0-.02,0-.04-.02,0,0,0,0,0-.01.02-.03.07-.05.1-.08.02,0,.03,0,.03.02.52-.41,1.23-.31,1.83-.52.05-.03.1-.07.15-.1.08-.03.15-.11.24-.16.13-.1.23-.21.28-.37,0-.02-.02-.03-.02-.03-.21.23-.45.41-.71.54-.34.18-.71.15-1.07.2.02-.03.05-.03.08-.03,0-.05.03-.07.07-.1h.05s.02-.03.03-.03c.03,0,.08-.02.07-.02-.05-.07-.15.05-.23,0,.03-.03.02-.08.05-.1h.07s.03-.07.03-.07c.24-.15.47-.26.7-.39-.05,0-.08.05-.13.02.03,0,0-.05.03-.05.18-.05.32-.15.5-.21-.07,0-.11.05-.18,0,.03-.02.05-.05.1-.05v-.05s.02-.02.03-.02c-.02,0-.03-.02-.03-.02.02-.03.07-.02.1-.05-.02,0-.05,0-.05-.02.05-.07.13-.08.21-.1-.02-.03-.07,0-.07-.03,0-.02.02-.02.03-.02h-.03s-.02-.05-.02-.07c.1-.11.1-.26.15-.39-.02,0-.03,0-.03-.02-.16.18-.42.24-.67.31h-.08c-.08.03-.19.03-.28-.02-.06-.03-.1-.08-.16-.13-.13-.08-.26-.15-.41-.2-.41-.13-.83-.2-1.25-.18.18-.1.38-.1.57-.16.28-.08.54-.18.83-.16-.05-.02-.11,0-.16,0-.23-.02-.46.05-.7.1-.16.03-.31.1-.47.13-.1.03-.15.13-.26.11v-.05c.16-.2.36-.39.62-.41.29-.05.57,0,.86.03.21.02.41.07.62.11.08,0,.1.13.16.15.1.03.2,0,.29.07,0-.03-.02-.07,0-.1.07-.07.15.02.21-.02.13-.08-.11-.23-.18-.34,0-.02.02-.03.02-.03.13.11.23.24.39.33.08.03.28.08.24-.02-.08-.18-.24-.33-.37-.49v-.07s-.03-.02-.05-.03v-.07c-.07-.03-.05-.1-.08-.15-.05-.08-.02-.2-.05-.29-.03-.1-.05-.18-.07-.28-.05-.28-.11-.52-.15-.78-.03-.31.18-.55.32-.83.11-.19.24-.39.45-.52.05-.2.18-.36.31-.52.13-.16.35-.26.5-.32.23-.1.43-.17.43-.17H0v8.59h7.89c.31-.22.62-.33,1.05-.54.2-.1.67-.31.83-.47"/>
      <path class="cls-2" d="M23.63,0h-9.24s.02,0,.09.04c.08.04.17.09.23.12.12.06.24.14.31.26.03.05.08.15.05.21-.03.08-.05.21-.13.24-.1.05-.23.05-.34.03-.07,0-.13-.02-.19-.03.24.1.47.21.63.44.02.03.08.05.15.05.02,0,.02.03.02.05-.03.03-.07.05-.05.1h.05c.08-.03.07-.2.18-.15.08.05.11.16.07.24-.07.07-.13.11-.19.16-.02.03-.02.08,0,.11.05.07.06.13.08.2.05.11.07.24.11.36.07.24.13.49.11.73,0,.13-.07.24-.02.37.03.13.11.23.18.34.07.1.13.16.18.26.1.16.28.33.2.52-.05.11-.23.1-.34.16-.1.08-.02.21.03.29.08.15-.1.24-.21.29.03.05.1.03.11.07.02.08.1.13.05.21-.07.1-.26.15-.16.29.07.11.02.24-.02.36-.05.15-.18.21-.29.24-.1.03-.21.03-.31.02-.03-.02-.07-.03-.1-.03-.28-.03-.55-.11-.83-.11-.08.02-.16.03-.23.07-.07.05-.14.11-.2.17t0,0s-.02.03-.04.04c0,0-.01.02-.02.03,0,0-.01.01-.01.02-.05.06-.09.12-.13.19,0,0,0,0,0,.01,0,0,0,.02-.01.02-.05.1-.09.2-.12.3-.11.37-.06.69.02.77.02.02.54.18.89.34.17.08.29.13.38.19h9.08V0Z"/>
      <path class="cls-3" d="M14.94,3.14c.07.02.16.02.16.05-.03.13-.23.16-.32.29h-.05s-.03.11-.08.11c-.05-.02-.1,0-.15.02.06.07.15.11.24.1.02,0,.05.03.05.07,0,0,.02,0,.03-.02.02,0,.03,0,.03.02v.07c-.05.07-.13.03-.2.05.13.03.26.03.37,0,.1-.03,0-.2.07-.28-.03,0,0-.05-.03-.05.03-.03.07-.08.1-.1.03,0,.08-.02.1-.05,0-.03-.07-.05-.05-.08.1-.07.18-.16.15-.26-.02-.05-.15-.05-.23-.08-.08-.03-.18,0-.28.02-.08,0-.16.05-.24.07-.11.03-.21.1-.31.16.11-.05.23-.07.36-.1.1,0,.18-.02.28,0"/>
    </g>
  </g>
</svg>