<?xml version="1.0" encoding="UTF-8"?>
<svg id="Calque_2" data-name="Calque 2" xmlns="http://www.w3.org/2000/svg" xmlns:xlink="http://www.w3.org/1999/xlink" viewBox="0 0 54.02 54.02">
  <defs>
    <style>
      .cls-1 {
        fill: none;
      }

      .cls-2, .cls-3, .cls-4, .cls-5, .cls-6, .cls-7, .cls-8, .cls-9, .cls-10, .cls-11, .cls-12, .cls-13, .cls-14, .cls-15, .cls-16, .cls-17, .cls-18, .cls-19, .cls-20, .cls-21, .cls-22, .cls-23, .cls-24, .cls-25, .cls-26, .cls-27, .cls-28, .cls-29, .cls-30, .cls-31 {
        fill: #243570;
      }

      .cls-3 {
        font-size: 4.15px;
      }

      .cls-3, .cls-4, .cls-5, .cls-6, .cls-7, .cls-8, .cls-9, .cls-10, .cls-11, .cls-12, .cls-13, .cls-14, .cls-15, .cls-16, .cls-17, .cls-18, .cls-19, .cls-20, .cls-21, .cls-22, .cls-23, .cls-24, .cls-25, .cls-26, .cls-27, .cls-28, .cls-29, .cls-30, .cls-31 {
        font-family: Marianne-Bold, Marianne;
        font-weight: 700;
      }

      .cls-4 {
        font-size: 4.15px;
      }

      .cls-5 {
        font-size: 4.15px;
      }

      .cls-6 {
        font-size: 4.15px;
      }

      .cls-7 {
        font-size: 4.15px;
      }

      .cls-8 {
        font-size: 4.15px;
      }

      .cls-9 {
        font-size: 4.15px;
      }

      .cls-10 {
        font-size: 4.15px;
      }

      .cls-11 {
        font-size: 4.15px;
      }

      .cls-12 {
        font-size: 4.15px;
      }

      .cls-13 {
        font-size: 4.15px;
      }

      .cls-14 {
        font-size: 4.15px;
      }

      .cls-15 {
        font-size: 4.15px;
      }

      .cls-16 {
        font-size: 4.15px;
      }

      .cls-17 {
        font-size: 4.15px;
      }

      .cls-18 {
        font-size: 4.15px;
      }

      .cls-19 {
        font-size: 4.15px;
      }

      .cls-20 {
        font-size: 4.15px;
      }

      .cls-21 {
        font-size: 4.15px;
      }

      .cls-22 {
        font-size: 4.15px;
      }

      .cls-23 {
        font-size: 4.15px;
      }

      .cls-24 {
        font-size: 4.15px;
      }

      .cls-25 {
        font-size: 4.15px;
      }

      .cls-26 {
        font-size: 4.15px;
      }

      .cls-27 {
        font-size: 4.15px;
      }

      .cls-28 {
        font-size: 4.15px;
      }

      .cls-29 {
        font-size: 4.15px;
      }

      .cls-30 {
        font-size: 4.15px;
      }

      .cls-31 {
        font-size: 4.15px;
      }

      .cls-32 {
        fill: #fff;
      }

      .cls-33 {
        clip-path: url(#clippath);
      }
    </style>
    <clipPath id="clippath">
      <path class="cls-1" d="M0,27.01c0,14.92,12.09,27.01,27.01,27.01s27.01-12.09,27.01-27.01S41.92,0,27.01,0,0,12.09,0,27.01"/>
    </clipPath>
  </defs>
  <g id="Calque_1-2" data-name="Calque 1">
    <g class="cls-33">
      <path class="cls-2" d="M6.85,34.48c0,.47-.38.85-.85.85s-.85-.38-.85-.85.38-.85.85-.85.85.38.85.85"/>
      <path class="cls-2" d="M49.02,34.48c0,.47-.38.85-.85.85s-.85-.38-.85-.85.38-.85.85-.85.85.38.85.85"/>
      <path class="cls-2" d="M44.05,26.99c0,9.39-7.61,17-17,17s-17-7.61-17-17,7.61-17,17-17,17,7.61,17,17"/>
      <path class="cls-32" d="M27.99,29.21c-.05-.21-.19-.39-.35-.53-.17-.14-.35-.26-.55-.34-.2-.09-.4-.14-.61-.17-.21-.03-.42-.03-.62,0-.41.06-.73.3-1.06.51-.33.22-.62.51-.91.89l-.06-.02c-.03-.25.02-.5.11-.73.09-.24.24-.45.43-.63.19-.18.42-.32.67-.41.25-.08.52-.12.78-.13.52-.02,1.02.13,1.44.4.21.14.39.3.54.49.15.19.27.42.26.66h-.07ZM33.09,28.46c-.29-.17-.58-.37-.93-.41-.18-.02-.36-.02-.54.01-.18.03-.36.09-.53.17-.17.08-.33.18-.46.31-.13.13-.25.28-.29.47h-.06c0-.21.08-.42.21-.58.13-.17.28-.32.45-.44.35-.24.79-.39,1.23-.39.22,0,.46.02.68.09.07.02.14.05.2.08-.14-.33-.3-.64-.5-.94-1.26-1.88-3.53-2.98-5.8-3.03-2.27-.05-4.5.89-6.22,2.36l.15-.08c.11-.07.22-.13.35-.18l-.35.18c-.88.57-1.25,1.76-1.48,2.83-.25,1.14-.46,2.3-.37,3.45.09,1.16.53,2.33,1.41,3.1.91.8,2.18,1.06,3.39,1.13,1.75.1,3.53-.15,5.18-.73,1.48-.52,2.92-1.34,3.81-2.63.91-1.31,1.12-3.02.73-4.57-.09-.07-.17-.14-.27-.19"/>
      <path class="cls-32" d="M23.74,19.21c.44-.45.89-.9,1.31-1.37.43-.47.85-.94,1.25-1.45l-.05-.06c-.55.33-1.07.7-1.58,1.08-.26.19-.5.39-.75.59l-.73.61c-.97.82-1.82,1.77-2.7,2.68-.88.91-1.75,1.84-2.61,2.77-.85.94-1.69,1.89-2.51,2.86l.06.06c.91-.88,1.82-1.76,2.74-2.63.92-.87,1.84-1.74,2.77-2.59.93-.85,1.92-1.65,2.8-2.55"/>
      <path class="cls-32" d="M38.72,27.75c-.87-1.11-1.82-2.14-2.79-3.14-.98-1-2.05-1.9-3.07-2.86l-3.09-2.84c-1.04-.94-2.07-1.88-3.12-2.81l-.06.06c.96,1.02,1.93,2.03,2.89,3.04l2.92,3.01c.98,1,1.91,2.05,2.93,3,1.03.95,2.09,1.87,3.22,2.71l.18-.15s0,0-.01-.01h0Z"/>
      <path class="cls-2" d="M27.05.64C12.52.64.7,12.46.7,26.99s11.82,26.36,26.36,26.36,26.36-11.82,26.36-26.36S41.59.64,27.05.64M27.05,53.99C12.17,53.99.06,41.88.06,26.99S12.17,0,27.05,0s26.99,12.11,26.99,26.99-12.11,26.99-26.99,26.99"/>
      <text class="cls-13" transform="translate(19.91 49.08) rotate(14.58)"><tspan x="0" y="0">A</tspan></text>
      <text class="cls-28" transform="translate(23.14 49.91) rotate(6.09)"><tspan x="0" y="0">G</tspan></text>
      <text class="cls-11" transform="translate(26.7 50.25) rotate(-2)"><tspan x="0" y="0">R</tspan></text>
      <text class="cls-26" transform="translate(29.72 50.12) rotate(-8.98)"><tspan x="0" y="0">É</tspan></text>
      <text class="cls-20" transform="translate(32.34 49.69) rotate(-15.54)"><tspan x="0" y="0">É</tspan></text>
      <text class="cls-27" transform="translate(7 29.44) rotate(-91.61)"><tspan x="0" y="0">M</tspan></text>
      <text class="cls-14" transform="translate(6.9 25.82) rotate(-81.94)"><tspan x="0" y="0">O</tspan></text>
      <text class="cls-9" transform="translate(7.35 22.52) rotate(-72.43)"><tspan x="0" y="0">N</tspan></text>
      <text class="cls-8" transform="translate(8.44 19.28) rotate(-66.11)"><tspan x="0" y="0"> </tspan></text>
      <text class="cls-22" transform="translate(8.82 18.29) rotate(-60.34)"><tspan x="0" y="0">A</tspan></text>
      <text class="cls-6" transform="translate(10.26 15.74) rotate(-52.14)"><tspan x="0" y="0">C</tspan></text>
      <text class="cls-30" transform="translate(12.07 13.4) rotate(-43.89)"><tspan x="0" y="0">C</tspan></text>
      <text class="cls-29" transform="translate(14.18 11.34) rotate(-35.12)"><tspan x="0" y="0">O</tspan></text>
      <text class="cls-12" transform="translate(16.89 9.41) rotate(-25.33)"><tspan x="0" y="0">M</tspan></text>
      <text class="cls-21" transform="translate(20.2 7.88) rotate(-16.74)"><tspan x="0" y="0">P</tspan></text>
      <text class="cls-4" transform="translate(22.28 7.22) rotate(-9.75)"><tspan x="0" y="0">A</tspan></text>
      <text class="cls-5" transform="translate(25.16 6.7) rotate(-1.27)"><tspan x="0" y="0">G</tspan></text>
      <text class="cls-16" transform="translate(28.36 6.62) rotate(7.9)"><tspan x="0" y="0">N</tspan></text>
      <text class="cls-31" transform="translate(31.71 7.09) rotate(16.92)"><tspan x="0" y="0">A</tspan></text>
      <text class="cls-10" transform="translate(34.32 7.87) rotate(24)"><tspan x="0" y="0">T</tspan></text>
      <text class="cls-25" transform="translate(36.66 8.92) rotate(30.92)"><tspan x="0" y="0">E</tspan></text>
      <text class="cls-24" transform="translate(38.69 10.1) rotate(38.38)"><tspan x="0" y="0">U</tspan></text>
      <text class="cls-23" transform="translate(41 11.94) rotate(46.26)"><tspan x="0" y="0">R</tspan></text>
      <text class="cls-7" transform="translate(42.85 13.92) rotate(51.54)"><tspan x="0" y="0"> </tspan></text>
      <text class="cls-17" transform="translate(43.54 14.72) rotate(56.82)"><tspan x="0" y="0">R</tspan></text>
      <text class="cls-15" transform="translate(45.01 16.98) rotate(63.92)"><tspan x="0" y="0">É</tspan></text>
      <text class="cls-3" transform="translate(46.07 19.05) rotate(72.01)"><tspan x="0" y="0">N</tspan></text>
      <text class="cls-19" transform="translate(47.12 22.28) rotate(81.54)"><tspan x="0" y="0">O</tspan></text>
      <text class="cls-15" transform="translate(47.63 25.51) rotate(90.93)"><tspan x="0" y="0">V</tspan></text>
      <text class="cls-18" transform="translate(47.55 28.52) rotate(95.8)"><tspan x="0" y="0">’</tspan></text>
    </g>
  </g>
</svg>