<?xml version="1.0" encoding="UTF-8"?>
<svg id="Calque_2" data-name="Calque 2" xmlns="http://www.w3.org/2000/svg" viewBox="0 0 89.2 48.04">
  <defs>
    <style>
      .cls-1 {
        fill: #243570;
      }

      .cls-2 {
        fill: none;
        stroke: #24346d;
        stroke-miterlimit: 10;
        stroke-width: 1.42px;
      }

      .cls-3 {
        fill: #24346d;
      }
    </style>
  </defs>
  <g id="Calque_1-2" data-name="Calque 1">
    <g>
      <g>
        <path class="cls-1" d="M0,47.92v-4.2h1.12c.42,0,.75.11,1,.32s.37.5.37.86c0,.25-.06.47-.19.65-.12.18-.3.32-.52.41l1.36,1.96h-.68l-1.21-1.85s-.04,0-.07,0h-.62v1.84h-.56ZM1.14,44.21h-.58v1.37h.58c.24,0,.43-.06.56-.18s.2-.29.2-.52c0-.21-.07-.38-.2-.5s-.32-.18-.56-.18Z"/>
        <path class="cls-1" d="M4.57,47.92v-4.2h2.26v.49h-1.69v1.33h1.45v.49h-1.45v1.4h1.69v.49h-2.26ZM5.97,43.36h-.52l.68-.81h.61l-.77.81Z"/>
        <path class="cls-1" d="M8.66,47.92v-4.2h.74l2.38,3.49v-3.49h.56v4.2h-.74l-2.38-3.49v3.49h-.56Z"/>
        <path class="cls-1" d="M16.24,43.6c.32,0,.62.06.89.18.27.12.5.28.7.48.19.2.34.44.45.71.11.27.16.55.16.86s-.05.58-.16.85c-.11.27-.26.5-.45.71-.19.2-.42.36-.7.48-.27.12-.57.18-.89.18s-.63-.06-.9-.18c-.27-.12-.5-.28-.7-.48s-.34-.43-.45-.71c-.11-.27-.16-.55-.16-.85s.05-.58.16-.86c.11-.27.26-.5.45-.71s.42-.36.7-.48c.27-.12.57-.18.9-.18ZM16.24,47.51c.24,0,.45-.04.65-.13s.37-.21.51-.36c.14-.15.26-.33.34-.54s.12-.42.12-.66-.04-.45-.12-.66-.19-.39-.34-.54c-.14-.15-.31-.28-.51-.36s-.42-.13-.65-.13-.45.04-.65.13c-.2.09-.37.21-.52.36-.14.15-.26.33-.34.54s-.12.42-.12.66.04.45.12.66.19.39.34.54c.14.15.32.28.52.36.2.09.42.13.65.13Z"/>
        <path class="cls-1" d="M19.52,43.72h.6l1.45,3.64,1.45-3.64h.6l-1.68,4.2h-.74l-1.68-4.2Z"/>
        <path class="cls-1" d="M24.24,47.92l1.67-4.2h.76l1.67,4.2h-.6l-.49-1.24h-1.93l-.49,1.24h-.6ZM25.51,46.2h1.56l-.78-1.99-.78,1.99Z"/>
        <path class="cls-1" d="M29.02,44.24v-.52h3.35v.52h-1.39v3.68h-.56v-3.68h-1.39Z"/>
        <path class="cls-1" d="M33.97,47.92v-4.2h.56v4.2h-.56Z"/>
        <path class="cls-1" d="M38.43,43.6c.32,0,.62.06.89.18.27.12.5.28.7.48.19.2.34.44.45.71.11.27.16.55.16.86s-.05.58-.16.85c-.11.27-.26.5-.45.71-.19.2-.42.36-.7.48-.27.12-.57.18-.89.18s-.63-.06-.9-.18c-.27-.12-.5-.28-.7-.48s-.34-.43-.45-.71c-.11-.27-.16-.55-.16-.85s.05-.58.16-.86c.11-.27.26-.5.45-.71s.42-.36.7-.48c.27-.12.57-.18.9-.18ZM38.43,47.51c.24,0,.45-.04.65-.13s.37-.21.51-.36c.14-.15.26-.33.34-.54s.12-.42.12-.66-.04-.45-.12-.66-.19-.39-.34-.54c-.14-.15-.31-.28-.51-.36s-.42-.13-.65-.13-.45.04-.65.13c-.2.09-.37.21-.52.36-.14.15-.26.33-.34.54s-.12.42-.12.66.04.45.12.66.19.39.34.54c.14.15.32.28.52.36.2.09.42.13.65.13Z"/>
        <path class="cls-1" d="M42.32,47.92v-4.2h.74l2.38,3.49v-3.49h.56v4.2h-.74l-2.38-3.49v3.49h-.56Z"/>
        <path class="cls-1" d="M50.39,47.92v-4.2h1.61c.33,0,.63.06.9.17.27.11.5.26.7.46.19.19.34.42.45.67.11.25.16.52.16.81s-.05.55-.16.81c-.11.25-.26.48-.45.67s-.42.34-.7.46c-.27.11-.57.17-.9.17h-1.61ZM52.02,44.24h-1.06v3.17h1.06c.23,0,.45-.04.64-.13.2-.08.37-.2.51-.34.14-.14.26-.31.34-.5.08-.19.12-.4.12-.61s-.04-.43-.12-.62c-.08-.19-.19-.36-.34-.5-.14-.14-.32-.25-.51-.34-.2-.08-.41-.12-.64-.12Z"/>
        <path class="cls-1" d="M56.11,45.33h-.44l-.07-1.61h.58l-.07,1.61Z"/>
        <path class="cls-1" d="M57.16,47.92l1.67-4.2h.76l1.67,4.2h-.6l-.49-1.24h-1.93l-.49,1.24h-.6ZM58.43,46.2h1.56l-.78-1.99-.78,1.99Z"/>
        <path class="cls-1" d="M62.81,47.92v-4.2h.73l1.28,2.09,1.28-2.09h.73v4.2h-.56v-3.43l-1.22,1.99h-.43l-1.22-1.99v3.43h-.56Z"/>
        <path class="cls-1" d="M68.86,47.92v-4.2h1.23c.42,0,.75.11.99.32s.37.5.37.86-.12.65-.37.86-.58.32-.99.32h-.67v1.84h-.56ZM70.1,44.21h-.68v1.37h.68c.24,0,.43-.06.56-.18.14-.12.2-.29.2-.52,0-.21-.07-.38-.2-.5-.14-.12-.32-.18-.56-.18Z"/>
        <path class="cls-1" d="M73.03,47.92v-4.2h.56v3.68h1.69v.52h-2.26Z"/>
        <path class="cls-1" d="M76.88,47.92v-4.2h2.26v.49h-1.69v1.33h1.45v.49h-1.45v1.4h1.69v.49h-2.26Z"/>
        <path class="cls-1" d="M83.57,46.37v-2.65h.56v2.62c0,.54-.15.95-.45,1.25-.3.3-.69.45-1.18.45s-.88-.15-1.18-.45-.45-.72-.45-1.25v-2.62h.56v2.65c0,.36.1.64.29.84.19.2.45.3.78.3s.58-.1.77-.3c.19-.2.29-.48.29-.84Z"/>
        <path class="cls-1" d="M86.06,47.92v-4.2h1.12c.42,0,.75.11,1,.32s.37.5.37.86c0,.25-.06.47-.19.65-.12.18-.3.32-.52.41l1.36,1.96h-.68l-1.21-1.85s-.04,0-.07,0h-.62v1.84h-.56ZM87.2,44.21h-.58v1.37h.58c.24,0,.43-.06.56-.18s.2-.29.2-.52c0-.21-.07-.38-.2-.5s-.32-.18-.56-.18Z"/>
      </g>
      <path class="cls-2" d="M60.4,14.49c-1.08-7.79-7.76-13.78-15.84-13.78-6.93,0-12.83,4.41-15.05,10.57M28.72,18.91c1.08,7.79,7.76,13.78,15.84,13.78,6.93,0,12.83-4.41,15.05-10.57M26.03,18.91l2.76-4.78,2.76,4.78h-5.52ZM63.15,14.49l-2.76,4.78-2.76-4.78h5.52ZM34.84,13.16l9.71-6.02,10.15,6.09M37.07,11.77v12.83h15.18v-12.83"/>
      <polygon class="cls-3" points="39.78 21.89 39.78 13.29 44.58 10.31 49.54 13.29 49.54 21.89 39.78 21.89"/>
    </g>
  </g>
</svg>