<?xml version="1.0" encoding="UTF-8"?>
<svg id="Calque_2" data-name="Calque 2" xmlns="http://www.w3.org/2000/svg" viewBox="0 0 86.62 51.57">
  <defs>
    <style>
      .cls-1 {
        fill: #243570;
      }

      .cls-2 {
        stroke-linejoin: round;
      }

      .cls-2, .cls-3, .cls-4 {
        fill: none;
      }

      .cls-2, .cls-4 {
        stroke: #fff;
        stroke-width: .38px;
      }

      .cls-3 {
        stroke: #24346d;
        stroke-width: 1.42px;
      }

      .cls-3, .cls-4 {
        stroke-miterlimit: 10;
      }

      .cls-5 {
        fill: #24346d;
      }
    </style>
  </defs>
  <g id="Calque_1-2" data-name="Calque 1">
    <g>
      <g>
        <path class="cls-1" d="M0,51.45v-4.2h1.12c.42,0,.75.11,1,.32s.37.5.37.86c0,.25-.06.47-.19.65-.12.18-.3.32-.52.41l1.36,1.96h-.68l-1.21-1.85s-.04,0-.07,0h-.62v1.84h-.56ZM1.14,47.75h-.58v1.37h.58c.24,0,.43-.06.56-.18s.2-.29.2-.52c0-.21-.07-.38-.2-.5s-.32-.18-.56-.18Z"/>
        <path class="cls-1" d="M4.57,51.45v-4.2h2.26v.49h-1.69v1.33h1.45v.49h-1.45v1.4h1.69v.49h-2.26ZM5.97,46.9h-.52l.68-.81h.61l-.77.81Z"/>
        <path class="cls-1" d="M8.66,51.45v-4.2h.74l2.38,3.49v-3.49h.56v4.2h-.74l-2.38-3.49v3.49h-.56Z"/>
        <path class="cls-1" d="M16.24,47.13c.32,0,.62.06.89.18.27.12.5.28.7.48.19.2.34.44.45.71.11.27.16.55.16.86s-.05.58-.16.85c-.11.27-.26.5-.45.71-.19.2-.42.36-.7.48-.27.12-.57.18-.89.18s-.63-.06-.9-.18c-.27-.12-.5-.28-.7-.48s-.34-.43-.45-.71c-.11-.27-.16-.55-.16-.85s.05-.58.16-.86c.11-.27.26-.5.45-.71s.42-.36.7-.48c.27-.12.57-.18.9-.18ZM16.24,51.05c.24,0,.45-.04.65-.13s.37-.21.51-.36c.14-.15.26-.33.34-.54s.12-.42.12-.66-.04-.45-.12-.66-.19-.39-.34-.54c-.14-.15-.31-.28-.51-.36s-.42-.13-.65-.13-.45.04-.65.13c-.2.09-.37.21-.52.36-.14.15-.26.33-.34.54s-.12.42-.12.66.04.45.12.66.19.39.34.54c.14.15.32.28.52.36.2.09.42.13.65.13Z"/>
        <path class="cls-1" d="M19.52,47.25h.6l1.45,3.64,1.45-3.64h.6l-1.68,4.2h-.74l-1.68-4.2Z"/>
        <path class="cls-1" d="M24.24,51.45l1.67-4.2h.76l1.67,4.2h-.6l-.49-1.24h-1.93l-.49,1.24h-.6ZM25.51,49.73h1.56l-.78-1.99-.78,1.99Z"/>
        <path class="cls-1" d="M29.02,47.77v-.52h3.35v.52h-1.39v3.68h-.56v-3.68h-1.39Z"/>
        <path class="cls-1" d="M33.97,51.45v-4.2h.56v4.2h-.56Z"/>
        <path class="cls-1" d="M38.43,47.13c.32,0,.62.06.89.18.27.12.5.28.7.48.19.2.34.44.45.71.11.27.16.55.16.86s-.05.58-.16.85c-.11.27-.26.5-.45.71-.19.2-.42.36-.7.48-.27.12-.57.18-.89.18s-.63-.06-.9-.18c-.27-.12-.5-.28-.7-.48s-.34-.43-.45-.71c-.11-.27-.16-.55-.16-.85s.05-.58.16-.86c.11-.27.26-.5.45-.71s.42-.36.7-.48c.27-.12.57-.18.9-.18ZM38.43,51.05c.24,0,.45-.04.65-.13s.37-.21.51-.36c.14-.15.26-.33.34-.54s.12-.42.12-.66-.04-.45-.12-.66-.19-.39-.34-.54c-.14-.15-.31-.28-.51-.36s-.42-.13-.65-.13-.45.04-.65.13c-.2.09-.37.21-.52.36-.14.15-.26.33-.34.54s-.12.42-.12.66.04.45.12.66.19.39.34.54c.14.15.32.28.52.36.2.09.42.13.65.13Z"/>
        <path class="cls-1" d="M42.32,51.45v-4.2h.74l2.38,3.49v-3.49h.56v4.2h-.74l-2.38-3.49v3.49h-.56Z"/>
        <path class="cls-1" d="M50.29,51.45v-4.2h1.23c.42,0,.75.11.99.32s.37.5.37.86-.12.65-.37.86-.58.32-.99.32h-.67v1.84h-.56ZM51.53,47.75h-.68v1.37h.68c.24,0,.43-.06.56-.18.14-.12.2-.29.2-.52,0-.21-.07-.38-.2-.5-.14-.12-.32-.18-.56-.18Z"/>
        <path class="cls-1" d="M53.55,51.45l1.67-4.2h.76l1.67,4.2h-.6l-.49-1.24h-1.93l-.49,1.24h-.6ZM54.82,49.73h1.56l-.78-1.99-.78,1.99Z"/>
        <path class="cls-1" d="M59.2,51.45v-4.2h1.12c.42,0,.75.11,1,.32s.37.5.37.86c0,.25-.06.47-.19.65-.12.18-.3.32-.52.41l1.36,1.96h-.68l-1.21-1.85s-.04,0-.07,0h-.62v1.84h-.56ZM60.34,47.75h-.58v1.37h.58c.24,0,.43-.06.56-.18s.2-.29.2-.52c0-.21-.07-.38-.2-.5s-.32-.18-.56-.18Z"/>
        <path class="cls-1" d="M67.91,51.05c.26,0,.5-.05.71-.15.21-.1.39-.23.54-.39v-.94h-1.21v-.51h1.78v1.65c-.2.26-.45.47-.76.63-.31.16-.66.23-1.06.23-.34,0-.64-.06-.92-.18-.28-.12-.52-.28-.72-.48-.2-.2-.35-.43-.46-.71-.11-.27-.17-.55-.17-.85s.05-.58.16-.86c.11-.27.26-.5.45-.71s.42-.36.7-.48c.27-.12.57-.18.9-.18.38,0,.71.08,1.02.24.3.16.55.37.74.62l-.45.35c-.14-.2-.32-.37-.55-.49-.23-.13-.48-.19-.76-.19-.24,0-.45.04-.65.13-.2.09-.37.21-.52.36-.14.15-.26.33-.34.54s-.12.42-.12.66.04.45.13.66.2.39.35.54c.15.15.33.28.53.36.21.09.43.13.68.13Z"/>
        <path class="cls-1" d="M71.58,51.45v-4.2h2.26v.49h-1.69v1.33h1.45v.49h-1.45v1.4h1.69v.49h-2.26Z"/>
        <path class="cls-1" d="M75.36,50.88l.41-.38c.15.18.31.32.48.42s.36.14.55.14c.23,0,.41-.06.53-.19s.19-.29.19-.48c0-.22-.1-.4-.31-.53s-.44-.25-.68-.38c-.25-.13-.47-.28-.68-.46s-.31-.44-.31-.77c0-.15.03-.3.09-.43.06-.14.14-.26.25-.36.11-.1.24-.18.39-.24.15-.06.31-.09.49-.09.3,0,.55.06.77.19.22.13.41.29.56.5l-.42.37c-.12-.18-.26-.31-.41-.41s-.32-.14-.5-.14c-.2,0-.35.06-.47.18s-.18.26-.18.43c0,.22.1.4.31.53s.43.25.68.38.47.28.68.46c.21.18.31.44.31.77,0,.18-.03.34-.1.48-.07.15-.16.27-.27.38-.11.1-.25.18-.41.24-.16.06-.33.08-.51.08-.31,0-.59-.06-.82-.17-.24-.12-.45-.29-.63-.52Z"/>
        <path class="cls-1" d="M79.41,47.77v-.52h3.35v.52h-1.39v3.68h-.56v-3.68h-1.39Z"/>
        <path class="cls-1" d="M84.36,51.45v-4.2h2.26v.49h-1.69v1.33h1.45v.49h-1.45v1.4h1.69v.49h-2.26Z"/>
      </g>
      <path class="cls-3" d="M27.67,18.96c-1.26,7.76,3.36,15.46,11.09,17.83,6.62,2.04,13.56-.44,17.49-5.68M25.1,17.87l4.04-3.76,1.23,5.38-5.27-1.62ZM35.12,18.35l8.36-5.18,8.74,5.24M37.04,17.16v11.05h13.07v-11.05"/>
      <path class="cls-5" d="M59,8.38c0,3.31-2.69,6-6,6s-6-2.69-6-6,2.69-6,6-6,6,2.69,6,6"/>
      <polyline class="cls-2" points="56.61 7.01 57.21 7.41 56.13 9.05 53.05 8.74 52.58 9.46"/>
      <path class="cls-4" d="M55.35,7.46l-2.6-1.71c-.32-.21-.4-.63-.19-.95l.42-.64c.21-.32.63-.4.95-.19l2.6,1.71c.32.21.4.63.19.95l-.42.64c-.21.32-.63.4-.95.2ZM50.62,12.43h0c-.28-.18-.36-.56-.17-.84l1.53-2.32c.06-.08.17-.11.25-.05l.71.47c.09.05.11.17.05.25l-1.53,2.32c-.18.28-.56.36-.84.17Z"/>
      <path class="cls-5" d="M66.21,22.21c0,3.31-2.69,6-6,6s-6-2.69-6-6,2.69-6,6-6,6,2.69,6,6"/>
      <path class="cls-2" d="M59.52,18.41c.4.48.43,1.15.14,1.71l4.07,5.01c.16.19.12.47-.06.62l-.16.13c-.19.15-.46.13-.62-.06l-4-4.92c-.68.35-1.51.23-1.98-.35-.25-.3-.35-.68-.32-1.05l.67.39c.26.15.6.06.75-.2l.31-.54c.15-.26.06-.6-.2-.75l-.57-.33c.68-.36,1.52-.23,1.99.34Z"/>
      <path class="cls-5" d="M43.56,6c0,3.31-2.69,6-6,6s-6-2.69-6-6,2.69-6,6-6,6,2.69,6,6"/>
      <path class="cls-4" d="M38.51,7.04l-1.14-1.35M35.49,6.77l-1.17-4.28c-.06-.22.17-.42.38-.32l4.03,1.85c.18.09.22.33.06.46l-2.86,2.43c-.15.13-.39.06-.44-.14ZM40.86,9.66l-.15.13c-.21.18-.52.15-.7-.06l-1.85-2.18c-.05-.06-.05-.16.02-.21l.68-.58c.06-.05.16-.05.21.02l1.85,2.18c.18.21.15.52-.06.7Z"/>
    </g>
  </g>
</svg>