<?xml version="1.0" encoding="UTF-8"?>
<svg id="Calque_2" data-name="Calque 2" xmlns="http://www.w3.org/2000/svg" xmlns:xlink="http://www.w3.org/1999/xlink" viewBox="0 0 107.4 68.09">
  <defs>
    <style>
      .cls-1 {
        fill: url(#Dégradé_sans_nom_5);
      }

      .cls-2 {
        fill: #004a83;
      }

      .cls-3 {
        fill: #fff;
      }

      .cls-4 {
        fill-rule: evenodd;
      }

      .cls-4, .cls-5 {
        fill: #f49b06;
      }

      .cls-6 {
        fill: #d9dadb;
      }

      .cls-7 {
        fill: #af1923;
      }
    </style>
    <linearGradient id="Dégradé_sans_nom_5" data-name="Dégradé sans nom 5" x1="-49.37" y1="129.27" x2="-12.94" y2="129.27" gradientTransform="translate(20.43 -118.59) rotate(-13.88)" gradientUnits="userSpaceOnUse">
      <stop offset="0" stop-color="#4c3088"/>
      <stop offset="1" stop-color="#80368a"/>
    </linearGradient>
  </defs>
  <g id="Calque_1-2" data-name="Calque 1">
    <g>
      <rect class="cls-2" x="55.29" y="23.31" width="52.11" height="44.74"/>
      <rect class="cls-6" x="55.29" y="23.94" width="51.48" height="43.47"/>
      <path class="cls-7" d="M55.3,10.35v13.6h5.94s.6,7.28-6.08,7.47l-.03,4.6s12.97.7,12.97-13.24l.02-12.42h-12.82"/>
      <rect class="cls-2" x="3.18" y="23.33" width="52.11" height="44.74"/>
      <path class="cls-3" d="M12.38,35.57c-4.88,0-8.85,3.96-8.85,8.85s3.96,8.84,8.85,8.84,8.85-3.96,8.85-8.84-3.96-8.85-8.85-8.85M12.36,50.34c-3.31,0-5.99-2.68-5.99-5.99s2.68-5.99,5.99-5.99,5.99,2.68,5.99,5.99-2.68,5.99-5.99,5.99"/>
      <rect class="cls-5" x="15.85" y="42.49" width="2.69" height="13.78" transform="translate(-29.9 26.64) rotate(-45.03)"/>
      <polygon class="cls-4" points="91.3 23.94 101.91 23.94 93.46 37.99 103.88 37.99 96.43 50.29 106.77 50.29 85.99 67.73 95 52.99 84.51 52.99 91.77 40.78 81.69 40.78 91.3 23.94"/>
      <path class="cls-2" d="M60.63,37.7c0-1.26.94-1.96,1.96-1.96h4.83c3.03,0,5.92,1.96,5.92,5.87,0,3.37-2.06,5.85-5.8,5.85h-2.98v3.61c0,1.38-.83,2.09-1.97,2.09s-1.96-.71-1.96-2.09v-13.37ZM64.55,43.96h2.11c1.68,0,2.6-1.14,2.6-2.35,0-1.55-1.04-2.38-2.6-2.38h-2.11v4.73Z"/>
      <path class="cls-2" d="M86.07,42.93c-.92-.62-2.06-.33-2.66.58l-3.17,4.73-3.18-4.73c-.6-.9-1.74-1.2-2.67-.58-.92.62-1.09,1.78-.47,2.69l4.63,6.91c.4.6,1.04.93,1.69.9.65.03,1.28-.3,1.68-.9l4.63-6.91c.61-.91.45-2.07-.48-2.69"/>
      <path class="cls-3" d="M33.73,52.73h-2.73v-1.5c-.83.85-2.06,1.9-4.5,1.9s-4.7-1.05-4.7-4.73v-7.71h2.78v6.68c0,2.38.72,3.38,2.58,3.38,2.21,0,3.11-.92,3.81-1.77v-8.29h2.78v12.03Z"/>
      <path class="cls-3" d="M46.45,50.78c0,.81.04,1.61.21,1.95h-2.73c-.09-.4-.15-.81-.15-1.21-1.12.67-2.77,1.61-5.05,1.61-1.53,0-4.47-.67-4.47-3.63,0-4.05,5.81-4.63,9.53-4.86v-.54c0-.92-.8-1.57-2.99-1.57-2.45,0-2.97.94-3.12,1.59h-2.77c.64-3.27,3.72-3.83,5.87-3.83,5.57,0,5.68,2.82,5.68,4.48v6.01ZM43.78,46.65c-1.55.07-2.9.29-4.15.61-1.66.4-2.43.98-2.45,2.04-.02,1.03.62,1.68,1.94,1.68,2.02,0,3.63-.92,4.67-1.57v-2.76Z"/>
      <rect class="cls-3" x="47.66" y="36.1" width="2.78" height="16.63"/>
      <path class="cls-3" d="M51.53,36.04h2.78v2.46h-2.78v-2.46ZM51.53,40.7h2.78v12.03h-2.78v-12.03Z"/>
      <path class="cls-3" d="M37.24,63.81c0,.16-.02.19-.13.19h-3.46c-.11,0-.14-.04-.14-.17,0-2.24.76-3.25,1.46-3.96.73-.73,1.44-.99,1.44-2.27,0-.77-.32-1.43-1-1.43-1.04,0-1.06,1.45-1.26,1.45-.02,0-.05-.01-.07-.03l-.45-.17s-.08-.05-.08-.12c0-.4.51-2.06,1.92-2.06,1.12,0,1.8.96,1.8,2.41,0,1.76-1.01,2.15-1.84,3.07-.79.89-.91,1.65-.99,2.34h2.69c.11,0,.13.04.13.19v.56Z"/>
      <path class="cls-3" d="M40.61,55.24c1.56,0,2.05,2.05,2.05,4.37,0,2.56-.57,4.57-2.14,4.57-1.45,0-2.1-1.89-2.1-4.41s.72-4.53,2.18-4.53M39.27,59.7c0,2.05.33,3.56,1.27,3.56,1.01,0,1.27-1.57,1.27-3.64,0-1.71-.25-3.44-1.23-3.44s-1.31,1.62-1.31,3.52"/>
      <path class="cls-3" d="M47.52,63.84c0,.11-.04.16-.12.16h-2.77c-.08,0-.13-.05-.13-.16v-.55c0-.1.04-.16.13-.16h1.05v-6.52l-1.43,1.07s-.07.05-.1.05c-.03,0-.06-.03-.09-.12l-.11-.28s-.04-.09-.04-.13.03-.07.08-.12l1.83-1.65h.52c.11,0,.13.03.13.19v7.52h.93c.08,0,.12.05.12.16v.55Z"/>
      <path class="cls-3" d="M49.05,57.04c.1-1.01.64-1.83,1.75-1.83.97,0,1.92.67,1.92,2.1,0,1.21-.5,1.91-1.12,2.02v.03c.96.32,1.26,1.22,1.26,2.14,0,1.76-1.03,2.55-2.1,2.55-1.14,0-1.92-.92-1.93-2.17h.79c.07.93.47,1.45,1.24,1.45.57,0,1.15-.62,1.15-1.8,0-1.42-.59-1.82-1.96-1.82v-.71c1.29,0,1.81-.31,1.81-1.65,0-1.02-.4-1.43-1-1.43-.74,0-1,.62-1.02,1.21l-.79-.1Z"/>
      <g>
        <path class="cls-3" d="M42.08,16.22c-.03-.13-.08-.33-.11-.52-.03-.25-.08-.47-.12-.63-.3-1.23-1.31-1.88-2.33-1.95.34-.31.64-.77.77-1.46.09-.46.02-.87-.05-1.17-.03-.1-.11-.37-.18-.63-.05-.16-.1-.32-.11-.37-.02-.09-.06-.28-.09-.46-.05-.25-.09-.49-.11-.57-.24-.97-.78-1.62-1.52-1.9.64-.62.88-1.52.63-2.52-.02-.09-.09-.32-.15-.53-.04-.13-.07-.24-.08-.28-.03-.11-.07-.36-.11-.61-.08-.43-.11-.61-.14-.75-.33-1.36-1.6-2.13-2.94-1.8-.07.02-.26.07-.45.12-.13.04-.27.08-.32.09l-.51.13c-.09.02-.35.1-.59.18-.14.04-.28.09-.32.1-.15.04-.59.13-1.01.22-.45.1-.88.19-1.03.23l-1.24.31c-.11.02-.36.06-.6.1l-.14.03c-.16.04-.32.07-.44.09-.12.02-.22.04-.29.06-1.35.33-1.92,1.05-2.13,1.83-.59-.72-1.55-1.07-2.53-.83-.14.03-.54.12-.92.2-.41.09-.81.18-.95.21-.85.21-3.75,1.02-5.35,2.57-.75.71-1.58,1.91-1.97,2.84-.08.19-.19.55-.3.99-.79-1.11-2.75-3.66-7.34-2.52-.27.07-.94.25-1.64.45-.57.16-1.22.34-1.41.39-.14.03-.5.12-.84.19-.33.08-.65.15-.76.18-1.75.43-2.65,1.86-2.24,3.54.03.12.12.44.22.76.08.26.15.53.18.63.04.18.16.68.26,1.18.11.51.22,1.01.27,1.18s.18.67.31,1.15c.12.43.23.85.27.99.06.24.23,1.01.38,1.7.16.75.31,1.39.37,1.64.07.3.28,1.02.49,1.78.18.62.38,1.33.43,1.53.07.3.21.92.44,2.15.02.21.06.37.08.47.34,1.37,1.66,2.19,3.01,1.86.16-.04.42-.12.98-.3.3-.09.59-.19.69-.22.23-.06.82-.18.96-.2l.12-.02c.07,0,.19-.02.34-.06.67-.16,1.27-.65,1.56-1.32.61.46,1.31.59,2.14.38.14-.03.26-.07.38-.11.03,0,.06-.02.08-.03l.13-.04c.21-.07,1.07-.31,1.38-.39.09-.02.33-.07.56-.12.3-.06.6-.12.71-.15,1.25-.31,2-1.49,1.7-2.69-.07-.28-.17-.52-.34-.79.04.03.07.06.11.09,1.05.9,1.79,1.47,3.68,1.69.79.1,1.85.19,2.99-.06h.05c.1-.03.74-.18,1.15-.27.21-.05.35-.08.36-.08,2.64-.65,3.51-1.31,3.95-1.77.17-.19.31-.37.42-.56.62.48,1.46.68,2.31.47.08-.02.29-.08.51-.14.17-.05.34-.1.4-.11.11-.03.44-.12.78-.2.31-.08.61-.16.72-.19.06-.01.21-.05.36-.08.2-.04.4-.09.47-.1.08-.02.31-.08.52-.14.15-.04.29-.08.35-.1.23-.06.46-.1.69-.15.27-.05.55-.11.85-.18.09-.02.3-.08.5-.14.13-.04.26-.08.29-.08.07-.01.2-.04.34-.06.23-.04.46-.08.54-.1,1.21-.3,2.27-1.53,1.86-3.21-.02-.1-.09-.35-.16-.6-.05-.19-.1-.37-.12-.44"/>
        <path class="cls-1" d="M7.42,16.01c-.07-.27-.31-1.46-.36-1.68-.1-.39-.28-1.24.66-1.47.82-.2,1.47.54,1.69,1.43.06.24.24,1.2.25,1.43,0,.54-.24,1.01-.94,1.18s-1.17-.38-1.3-.89M4.34,9.48c-.27.07-1.38.32-1.6.37-.77.19-1.22.66-1.01,1.51.05.22.34,1.17.39,1.39.09.36.45,2.02.53,2.36s.5,1.83.58,2.14c.13.51.63,2.87.75,3.33.13.53.8,2.83.92,3.31.1.41.26,1.14.48,2.37,0,.08.02.18.04.25.11.44.49.75.98.63.24-.06,1.45-.46,1.67-.52.24-.06.92-.2,1.15-.23.1-.02.18-.02.27-.04.14-.04.56-.24.43-.75-.04-.15-.26-.84-.29-.96-.04-.17-.19-.85-.22-1-.05-.22-.33-1.15-.38-1.32-.04-.15-.14-.56.2-.64.24-.06.68.47,1.07.99.11.15.23.3.34.45.3.39.67.73.96,1.1.11.15.62.85.73.98.2.21.39.32.85.2.17-.04.31-.1.45-.14.28-.1,1.2-.35,1.51-.42.19-.05,1.08-.22,1.27-.26.36-.09.55-.37.48-.66-.05-.22-.14-.38-1.13-1.47-.14-.17-.29-.34-.43-.51-.12-.18-.25-.38-.4-.57-.23-.33-1.59-1.66-1.68-2.02-.05-.19.05-.32.24-.6.52-.69.7-1.51.76-1.7.3-1.28.19-2.33-.08-3.42-.07-.27-.59-2.27-1.13-3.03-.95-1.36-2.31-2.79-5.65-1.97-.48.12-2.62.72-3.05.83M17.76,6.94c-.62.59-1.3,1.6-1.57,2.26-.18.43-.6,2.15-.55,3.17.02.38.08.75.13,1.15.02.2.03.43.05.63.03.45.11.95.26,1.58.3,1.23,1.01,3.04,1.33,3.6.34.64.89,1.32,1.38,1.74.2.18.39.34.59.5.88.76,1.33,1.13,2.81,1.31.82.1,1.62.14,2.43-.04.12-.03,1.48-.34,1.51-.35.68-.17,2.51-.65,3.12-1.28.41-.43.38-.74.26-1.22l-.17-.68c-.07-.29-.38-1.63-.44-1.89s-.42-1.51-.49-1.78c-.06-.24-.29-1.37-.34-1.58-.05-.19-.3-1.11-.32-1.31-.05-.22-.26-1.17-.31-1.36-.08-.21-.19-.65-.83-.77-.16-.04-.34-.02-.48.02-.1.02-.57.19-.66.24-.27.07-1.18.32-1.49.39-.19.05-1.1.22-1.29.27-.58.14-.94.57-.87,1.06.02.07.54,2.49.57,2.61.12.48.67.53.77.5.07-.02.35-.16.42-.18.22-.05.82,0,.98.63.04.14.14.79.18.93.02.1.19.57.22.69.14.56-.49.71-.73.77-1.18.29-1.69-.4-2.09-1-.23-.3-.48-.6-.69-.91-.24-.35-.29-.57-.35-.81-.05-.19-.28-1.03-.32-1.2-.19-.75-.21-1.18-.21-1.69-.02-.2-.02-.4-.05-.6-.08-.65-.08-.73,0-1.15.19-.79.63-1.59,2.33-2.01.24-.06.47-.09.71-.15.27-.07.56-.14.85-.08.16.01.33.07.46.09.13.02.26.01.38-.02.31-.08.7-.48.74-.85.01-.16-.07-.47-.15-.83l-.42-1.69c-.03-.12-.11-.56-.14-.66-.13-.51-.56-.71-1-.6-.29.07-1.61.35-1.87.41-.56.14-3.25.86-4.6,2.16M28.12,5.53c.07.29.41,1.57.48,1.83.21.85.38,1.73.59,2.58.09.36.54,2,.62,2.31.08.34.42,1.8.49,2.09.04.17.26.94.3,1.11s.17.99.21,1.15c.05.22.34,1.28.39,1.49.1.41.25,1.02.33,1.54.02.1.02.2.05.3.13.51.64.84,1.22.7.15-.04.77-.22.91-.25.22-.05,1.28-.34,1.49-.39.12-.03.71-.15.83-.18.14-.04.74-.21.87-.24.51-.13,1.03-.2,1.54-.33.15-.04.69-.2.82-.23s.74-.13.86-.16c.29-.07.83-.38.63-1.18-.04-.17-.25-.89-.28-1.03-.04-.17-.11-.44-.15-.71-.01-.15-.05-.3-.08-.44-.17-.68-.8-.73-1.11-.65-.17.04-.31.1-.47.17-.16.07-.36.11-.55.16-.17.04-.34.08-.51.1-.22.03-.48.04-.73.08-.31.08-.7.17-.99.17-.65-.02-.75-.46-.87-.94-.17-.68-.26-1.04-.19-1.29.13-.5.64-.64,1.02-.74.29-.07,1.72-.32,1.98-.39.36-.09.72-.18.83-.79.02-.11.02-.24-.04-.45-.04-.17-.26-.86-.3-1-.04-.17-.17-.88-.2-1.03-.17-.68-.46-.91-1.18-.73-.12.03-.67.19-.77.22-.17.04-.86.16-1,.2-.12.03-.62.2-.71.23-.85.21-1.08-.73-1.14-.98-.17-.68-.19-.75-.12-.92.09-.25.31-.51,1.23-.74.17-.04.89-.14,1.03-.18.12-.03.64-.21.74-.23.07-.02.34-.06.41-.1.8-.28.72-.84.63-1.18-.04-.14-.2-.72-.23-.82-.05-.22-.21-1.15-.26-1.35-.11-.46-.48-.68-.91-.57-.12.03-.65.19-.77.22l-.51.13c-.15.04-.79.25-.91.28-.31.08-1.75.38-2.04.45l-1.26.31c-.1.02-.42.08-.71.13-.31.08-.61.13-.73.15-1.23.3-1.07.98-.77,2.17"/>
      </g>
    </g>
  </g>
</svg>