<?xml version="1.0" encoding="UTF-8"?>
<svg id="Calque_2" data-name="Calque 2" xmlns="http://www.w3.org/2000/svg" xmlns:xlink="http://www.w3.org/1999/xlink" viewBox="0 0 106.56 63.53">
  <defs>
    <style>
      .cls-1 {
        fill: none;
      }

      .cls-2 {
        fill: #c5bbd9;
      }

      .cls-3 {
        fill: #c7b9d7;
      }

      .cls-4 {
        fill: url(#Dégradé_sans_nom_686);
      }

      .cls-5 {
        fill: #fff;
      }

      .cls-6 {
        fill: #af1923;
      }

      .cls-7 {
        fill: #77227d;
      }
    </style>
    <linearGradient id="Dégradé_sans_nom_686" data-name="Dégradé sans nom 686" x1="-28.83" y1="131.2" x2="7.61" y2="131.2" gradientTransform="translate(.02 -115.54) rotate(-13.88)" gradientUnits="userSpaceOnUse">
      <stop offset="0" stop-color="#4c3088"/>
      <stop offset="1" stop-color="#80368a"/>
    </linearGradient>
  </defs>
  <g id="Calque_1-2" data-name="Calque 1">
    <g>
      <rect class="cls-7" x="55.25" y="19.39" width="51.31" height="44.14"/>
      <rect class="cls-2" x="55.25" y="20.01" width="50.69" height="42.79"/>
      <path class="cls-6" d="M55.28,6.63v13.37h5.85s.58,7.18-5.99,7.37l-.03,4.53s12.77.69,12.77-13.04l.02-12.23h-12.62"/>
      <rect class="cls-7" x="3.97" y="19.39" width="51.28" height="44.14"/>
      <path class="cls-5" d="M13.04,31.46c-4.81,0-8.71,3.9-8.71,8.71s3.9,8.71,8.71,8.71,8.71-3.9,8.71-8.71-3.9-8.71-8.71-8.71M13.01,45.99c-3.26,0-5.9-2.64-5.9-5.89s2.64-5.9,5.9-5.9,5.9,2.64,5.9,5.9-2.64,5.89-5.9,5.89"/>
      <rect class="cls-2" x="16.44" y="38.27" width="2.64" height="13.56" transform="translate(-26.65 25.75) rotate(-44.98)"/>
      <path class="cls-5" d="M34.07,48.29h-2.69v-1.48c-.82.84-2.03,1.87-4.43,1.87s-4.63-1.04-4.63-4.65v-7.58h2.74v6.57c0,2.34.7,3.33,2.53,3.33,2.18,0,3.06-.9,3.75-1.74v-8.16h2.73v11.84Z"/>
      <path class="cls-5" d="M46.59,46.38c0,.79.05,1.58.21,1.92h-2.69c-.08-.4-.15-.79-.15-1.19-1.1.66-2.73,1.58-4.98,1.58-1.5,0-4.41-.66-4.41-3.57,0-3.99,5.72-4.56,9.38-4.79v-.52c0-.91-.79-1.55-2.95-1.55-2.41,0-2.92.92-3.07,1.57h-2.73c.64-3.22,3.66-3.77,5.78-3.77,5.48,0,5.59,2.78,5.59,4.41v5.91ZM43.96,42.32c-1.53.07-2.86.29-4.09.6-1.63.4-2.39.97-2.41,2.01-.02,1.01.61,1.65,1.9,1.65,1.99,0,3.58-.9,4.6-1.54v-2.71Z"/>
      <rect class="cls-5" x="47.79" y="31.92" width="2.73" height="16.37"/>
      <path class="cls-5" d="M51.6,31.87h2.73v2.42h-2.73v-2.42ZM51.6,36.46h2.73v11.84h-2.73v-11.84Z"/>
      <path class="cls-5" d="M89.52,33.45c-2.9,0-4.84-.81-6.55-1.53-1.35-.57-2.51-1.05-3.92-1.05-2.94,0-5.88,2.21-5.91,2.23-.24.19-.59.14-.77-.11-.18-.24-.14-.59.1-.77.13-.1,3.26-2.46,6.58-2.46,1.63,0,2.95.55,4.35,1.14,1.69.71,3.44,1.44,6.12,1.44,3.63,0,6.21-1.97,6.24-1.99.24-.19.59-.14.77.1.19.24.14.59-.1.77-.12.09-2.89,2.23-6.92,2.23ZM89.52,30.17c-2.9,0-4.84-.81-6.54-1.53-1.35-.56-2.51-1.05-3.92-1.05-2.94,0-5.88,2.21-5.91,2.23-.24.18-.59.14-.77-.11-.18-.24-.14-.59.1-.77.13-.1,3.26-2.46,6.58-2.46,1.63,0,2.95.55,4.35,1.14,1.69.71,3.44,1.44,6.12,1.44,3.63,0,6.21-1.97,6.24-1.99.24-.19.59-.14.77.1.19.24.14.59-.1.77-.12.09-2.89,2.23-6.92,2.23ZM89.52,26.65c-2.9,0-4.84-.81-6.55-1.53-1.35-.57-2.51-1.05-3.92-1.05-2.94,0-5.88,2.21-5.91,2.23-.24.18-.59.14-.77-.11-.18-.24-.14-.59.1-.77.13-.1,3.26-2.46,6.58-2.46,1.63,0,2.95.55,4.35,1.14,1.69.71,3.44,1.44,6.12,1.44,3.63,0,6.21-1.98,6.24-2,.24-.19.59-.14.77.1.19.24.15.59-.09.77-.12.09-2.89,2.23-6.92,2.23Z"/>
      <path class="cls-7" d="M78.06,61.34c-.23,0-.46-.08-.65-.24-.42-.36-.46-.99-.1-1.41,0,0,1.04-1.25,1.04-2.96,0-1.31-.39-2.16-.81-3.06-.37-.81-.75-1.64-.75-2.69,0-2.05,1.49-3.87,1.66-4.08.36-.42.99-.47,1.41-.12.42.36.48.99.12,1.41-.33.4-1.19,1.67-1.19,2.79,0,.62.25,1.16.57,1.86.44.96.99,2.15.99,3.9,0,2.48-1.46,4.2-1.52,4.27-.2.23-.48.35-.76.35ZM73.62,61.19c-.23,0-.46-.08-.65-.24-.42-.36-.47-.99-.11-1.41,0,0,1.04-1.25,1.04-2.97,0-1.31-.39-2.16-.81-3.06-.37-.81-.76-1.64-.76-2.69,0-2.05,1.49-3.88,1.66-4.08.36-.42.99-.47,1.41-.12.42.36.47.98.12,1.41-.33.4-1.19,1.67-1.19,2.79,0,.61.25,1.16.57,1.85.44.96.99,2.15.99,3.9,0,2.47-1.46,4.2-1.52,4.27-.2.23-.48.35-.76.35ZM82.41,61.19c-.23,0-.46-.08-.65-.24-.42-.36-.47-.99-.11-1.41,0,0,1.04-1.25,1.04-2.97,0-1.31-.39-2.16-.81-3.07-.37-.8-.75-1.64-.75-2.69,0-2.05,1.48-3.88,1.65-4.08.35-.42.99-.48,1.41-.12.42.35.48.98.12,1.41h0c-.33.4-1.19,1.67-1.19,2.79,0,.62.25,1.16.57,1.85.44.96.99,2.15.99,3.9,0,2.47-1.46,4.2-1.52,4.27-.2.23-.48.35-.76.35Z"/>
      <path class="cls-7" d="M60.39,33.77c0-1.07.64-1.79,1.79-1.79h4.05c3.36,0,5.86,2.2,5.86,5.47s-2.59,5.43-5.72,5.43h-2.55v3.76c0,1.15-.73,1.79-1.72,1.79s-1.71-.64-1.71-1.79v-12.87ZM63.82,39.86h2.34c1.45,0,2.35-1.05,2.35-2.43s-.91-2.42-2.35-2.42h-2.34v4.85Z"/>
      <path class="cls-7" d="M78,48.87c-3.34,0-5.76-2.8-5.76-6.65s2.53-6.7,5.76-6.7c1.19,0,2.25.43,3,1.18.31-.62.96-1.05,1.71-1.05,1.89,0,1.89,1.67,1.89,2.47v8.15c0,.8,0,2.47-1.89,2.47-1,0-1.46-.52-1.71-1.11-.85.83-1.86,1.25-3.01,1.25M78.45,39.16c-1.58,0-2.3,1.58-2.3,3.05s.72,3.01,2.3,3.01c1.47,0,2.23-1.51,2.23-3.01,0-1.23-.59-3.05-2.23-3.05"/>
      <path class="cls-3" d="M78,35.83c1.21,0,2.4.48,3.14,1.51.09-.8.77-1.37,1.58-1.37,1.58,0,1.58,1.31,1.58,2.15v8.15c0,.85,0,2.16-1.58,2.16-.96,0-1.35-.53-1.58-1.4-.85,1.01-1.88,1.53-3.14,1.53-3.09,0-5.45-2.63-5.45-6.34s2.43-6.39,5.45-6.39M78.45,45.54c1.72,0,2.55-1.74,2.55-3.32s-.8-3.36-2.55-3.36-2.61,1.79-2.61,3.36.82,3.32,2.61,3.32M78,35.21c-3.41,0-6.07,3.08-6.07,7.01,0,1.93.61,3.7,1.72,4.97,1.12,1.29,2.66,1.99,4.35,1.99,1.1,0,2.07-.36,2.92-1.06.32.51.85.92,1.8.92,2.2,0,2.2-2.02,2.2-2.78v-8.15c0-.76,0-2.78-2.2-2.78-.73,0-1.37.34-1.78.88-.78-.65-1.81-1.01-2.94-1.01M78.45,44.91c-1.57,0-1.98-1.76-1.98-2.7s.41-2.74,1.98-2.74c1.41,0,1.92,1.64,1.92,2.74s-.51,2.7-1.92,2.7"/>
      <path class="cls-7" d="M94.37,39.49c-.83,0-1.56-.64-2.61-.64-1.88,0-2.77,1.67-2.77,3.36s.99,3.32,2.77,3.32c.82,0,2.06-.69,2.45-.69.77,0,1.42.66,1.42,1.44,0,1.7-2.84,2.27-4.03,2.27-3.55,0-5.91-2.91-5.91-6.34s2.43-6.39,5.91-6.39c1.3,0,4.03.48,4.03,2.08,0,.69-.48,1.58-1.26,1.58"/>
      <path class="cls-7" d="M55.25,62.9c5-2.85,14.72-4.77,25.69-4.77s20.52,1.92,25.52,4.77"/>
      <path class="cls-5" d="M35.13,60.23c0,.16-.02.19-.14.19h-3.56c-.11,0-.14-.04-.14-.18,0-2.3.78-3.34,1.5-4.07.74-.75,1.48-1.02,1.48-2.33,0-.8-.33-1.47-1.03-1.47-1.07,0-1.09,1.49-1.3,1.49-.02,0-.05-.01-.07-.03l-.47-.18s-.08-.06-.08-.12c0-.41.52-2.12,1.98-2.12,1.15,0,1.85.99,1.85,2.48,0,1.81-1.04,2.21-1.89,3.16-.82.92-.93,1.7-1.02,2.41h2.76c.12,0,.14.04.14.19v.58Z"/>
      <path class="cls-5" d="M38.59,51.41c1.61,0,2.12,2.11,2.12,4.49,0,2.63-.58,4.71-2.2,4.71-1.49,0-2.16-1.95-2.16-4.54s.74-4.66,2.24-4.66M37.22,55.99c0,2.11.34,3.66,1.31,3.66,1.04,0,1.31-1.61,1.31-3.74,0-1.75-.26-3.54-1.27-3.54s-1.35,1.67-1.35,3.62"/>
      <path class="cls-5" d="M45.7,60.26c0,.11-.04.16-.13.16h-2.85c-.09,0-.13-.05-.13-.16v-.56c0-.11.04-.17.13-.17h1.08v-6.71l-1.47,1.1s-.07.05-.11.05c-.03,0-.06-.03-.1-.12l-.11-.29s-.05-.1-.05-.14c0-.04.04-.07.09-.12l1.88-1.7h.53c.12,0,.14.03.14.19v7.73h.96c.09,0,.13.05.13.17v.56Z"/>
      <path class="cls-5" d="M47.3,53.26c.1-1.04.66-1.89,1.8-1.89.99,0,1.97.69,1.97,2.16,0,1.25-.52,1.96-1.15,2.09v.03c.99.33,1.3,1.26,1.3,2.2,0,1.81-1.05,2.62-2.16,2.62-1.18,0-1.97-.95-1.98-2.23h.81c.08.95.49,1.5,1.27,1.5.59,0,1.18-.64,1.18-1.85,0-1.46-.61-1.87-2.01-1.87v-.73c1.32,0,1.86-.32,1.86-1.69,0-1.05-.42-1.47-1.03-1.47-.76,0-1.03.64-1.05,1.25l-.81-.1Z"/>
      <path class="cls-1" d="M9.8,21.64h0,0M9.8,21.64h0,0M17.9,19.48s0-.02,0-.03c0,0,0,.02,0,.03"/>
      <g>
        <path class="cls-5" d="M42.08,16.22c-.03-.13-.08-.33-.11-.52-.03-.25-.08-.47-.12-.63-.3-1.23-1.31-1.88-2.33-1.95.34-.31.64-.77.77-1.46.09-.46.02-.87-.05-1.17-.03-.1-.11-.37-.18-.63-.05-.16-.1-.32-.11-.37-.02-.09-.06-.28-.09-.46-.05-.25-.09-.49-.11-.57-.24-.97-.78-1.62-1.52-1.9.64-.62.88-1.52.63-2.52-.02-.09-.09-.32-.15-.53-.04-.13-.07-.24-.08-.28-.03-.11-.07-.36-.11-.61-.08-.43-.11-.61-.14-.75-.33-1.36-1.6-2.13-2.94-1.8-.07.02-.26.07-.45.12-.13.04-.27.08-.32.09l-.51.13c-.09.02-.35.1-.59.18-.14.04-.28.09-.32.1-.15.04-.59.13-1.01.22-.45.1-.88.19-1.03.23l-1.24.31c-.11.02-.36.06-.6.1l-.14.03c-.16.04-.32.07-.44.09-.12.02-.22.04-.29.06-1.35.33-1.92,1.05-2.13,1.83-.59-.72-1.55-1.07-2.53-.83-.14.03-.54.12-.92.2-.41.09-.81.18-.95.21-.85.21-3.75,1.02-5.35,2.57-.75.71-1.58,1.91-1.97,2.84-.08.19-.19.55-.3.99-.79-1.11-2.75-3.66-7.34-2.52-.27.07-.94.25-1.64.45-.57.16-1.22.34-1.41.39-.14.03-.5.12-.84.19-.33.08-.65.15-.76.18-1.75.43-2.65,1.86-2.24,3.54.03.12.12.44.22.76.08.26.15.53.18.63.04.18.16.68.26,1.18.11.51.22,1.01.27,1.18s.18.67.31,1.15c.12.43.23.85.27.99.06.24.23,1.01.38,1.7.16.75.31,1.39.37,1.64.07.3.28,1.02.49,1.78.18.62.38,1.33.43,1.53.07.3.21.92.44,2.15.02.21.06.37.08.47.34,1.37,1.66,2.19,3.01,1.86.16-.04.42-.12.98-.3.3-.09.59-.19.69-.22.23-.06.82-.18.96-.2l.12-.02c.07,0,.19-.02.34-.06.67-.16,1.27-.65,1.56-1.32.61.46,1.31.59,2.14.38.14-.03.26-.07.38-.11.03,0,.06-.02.08-.03l.13-.04c.21-.07,1.07-.31,1.38-.39.09-.02.33-.07.56-.12.3-.06.6-.12.71-.15,1.25-.31,2-1.49,1.7-2.69-.07-.28-.17-.52-.34-.79.04.03.07.06.11.09,1.05.9,1.79,1.47,3.68,1.69.79.1,1.85.19,2.99-.06h.05c.1-.03.74-.18,1.15-.27.21-.05.35-.08.36-.08,2.64-.65,3.51-1.31,3.95-1.77.17-.19.31-.37.42-.56.62.48,1.46.68,2.31.47.08-.02.29-.08.51-.14.17-.05.34-.1.4-.11.11-.03.44-.12.78-.2.31-.08.61-.16.72-.19.06-.01.21-.05.36-.08.2-.04.4-.09.47-.1.08-.02.31-.08.52-.14.15-.04.29-.08.35-.1.23-.06.46-.1.69-.15.27-.05.55-.11.85-.18.09-.02.3-.08.5-.14.13-.04.26-.08.29-.08.07-.01.2-.04.34-.06.23-.04.46-.08.54-.1,1.21-.3,2.27-1.53,1.86-3.21-.02-.1-.09-.35-.16-.6-.05-.19-.1-.37-.12-.44"/>
        <path class="cls-4" d="M7.42,16.01c-.07-.27-.31-1.46-.36-1.68-.1-.39-.28-1.24.66-1.47.82-.2,1.47.54,1.69,1.43.06.24.24,1.2.25,1.43,0,.54-.24,1.01-.94,1.18s-1.17-.38-1.3-.89M4.34,9.48c-.27.07-1.38.32-1.6.37-.77.19-1.22.66-1.01,1.51.05.22.34,1.17.39,1.39.09.36.45,2.02.53,2.36s.5,1.83.58,2.14c.13.51.63,2.87.75,3.33.13.53.8,2.83.92,3.31.1.41.26,1.14.48,2.37,0,.08.02.18.04.25.11.44.49.75.98.63.24-.06,1.45-.46,1.67-.52.24-.06.92-.2,1.15-.23.1-.02.18-.02.27-.04.14-.04.56-.24.43-.75-.04-.15-.26-.84-.29-.96-.04-.17-.19-.85-.22-1-.05-.22-.33-1.15-.38-1.32-.04-.15-.14-.56.2-.64.24-.06.68.47,1.07.99.11.15.23.3.34.45.3.39.67.73.96,1.1.11.15.62.85.73.98.2.21.39.32.85.2.17-.04.31-.1.45-.14.28-.1,1.2-.35,1.51-.42.19-.05,1.08-.22,1.27-.26.36-.09.55-.37.48-.66-.05-.22-.14-.38-1.13-1.47-.14-.17-.29-.34-.43-.51-.12-.18-.25-.38-.4-.57-.23-.33-1.59-1.66-1.68-2.02-.05-.19.05-.32.24-.6.52-.69.7-1.51.76-1.7.3-1.28.19-2.33-.08-3.42-.07-.27-.59-2.27-1.13-3.03-.95-1.36-2.31-2.79-5.65-1.97-.48.12-2.62.72-3.05.83M17.76,6.94c-.62.59-1.3,1.6-1.57,2.26-.18.43-.6,2.15-.55,3.17.02.38.08.75.13,1.15.02.2.03.43.05.63.03.45.11.95.26,1.58.3,1.23,1.01,3.04,1.33,3.6.34.64.89,1.32,1.38,1.74.2.18.39.34.59.5.88.76,1.33,1.13,2.81,1.31.82.1,1.62.14,2.43-.04.12-.03,1.48-.34,1.51-.35.68-.17,2.51-.65,3.12-1.28.41-.43.38-.74.26-1.22l-.17-.68c-.07-.29-.38-1.63-.44-1.89s-.42-1.51-.49-1.78c-.06-.24-.29-1.37-.34-1.58-.05-.19-.3-1.11-.32-1.31-.05-.22-.26-1.17-.31-1.36-.08-.21-.19-.65-.83-.77-.16-.04-.34-.02-.48.02-.1.02-.57.19-.66.24-.27.07-1.18.32-1.49.39-.19.05-1.1.22-1.29.27-.58.14-.94.57-.87,1.06.02.07.54,2.49.57,2.61.12.48.67.53.77.5.07-.02.35-.16.42-.18.22-.05.82,0,.98.63.04.14.14.79.18.93.02.1.19.57.22.69.14.56-.49.71-.73.77-1.18.29-1.69-.4-2.09-1-.23-.3-.48-.6-.69-.91-.24-.35-.29-.57-.35-.81-.05-.19-.28-1.03-.32-1.2-.19-.75-.21-1.18-.21-1.69-.02-.2-.02-.4-.05-.6-.08-.65-.08-.73,0-1.15.19-.79.63-1.59,2.33-2.01.24-.06.47-.09.71-.15.27-.07.56-.14.85-.08.16.01.33.07.46.09.13.02.26.01.38-.02.31-.08.7-.48.74-.85.01-.16-.07-.47-.15-.83l-.42-1.69c-.03-.12-.11-.56-.14-.66-.13-.51-.56-.71-1-.6-.29.07-1.61.35-1.87.41-.56.14-3.25.86-4.6,2.16M28.12,5.53c.07.29.41,1.57.48,1.83.21.85.38,1.73.59,2.58.09.36.54,2,.62,2.31.08.34.42,1.8.49,2.09.04.17.26.94.3,1.11s.17.99.21,1.15c.05.22.34,1.28.39,1.49.1.41.25,1.02.33,1.54.02.1.02.2.05.3.13.51.64.84,1.22.7.15-.04.77-.22.91-.25.22-.05,1.28-.34,1.49-.39.12-.03.71-.15.83-.18.14-.04.74-.21.87-.24.51-.13,1.03-.2,1.54-.33.15-.04.69-.2.82-.23s.74-.13.86-.16c.29-.07.83-.38.63-1.18-.04-.17-.25-.89-.28-1.03-.04-.17-.11-.44-.15-.71-.01-.15-.05-.3-.08-.44-.17-.68-.8-.73-1.11-.65-.17.04-.31.1-.47.17-.16.07-.36.11-.55.16-.17.04-.34.08-.51.1-.22.03-.48.04-.73.08-.31.08-.7.17-.99.17-.65-.02-.75-.46-.87-.94-.17-.68-.26-1.04-.19-1.29.13-.5.64-.64,1.02-.74.29-.07,1.72-.32,1.98-.39.36-.09.72-.18.83-.79.02-.11.02-.24-.04-.45-.04-.17-.26-.86-.3-1-.04-.17-.17-.88-.2-1.03-.17-.68-.46-.91-1.18-.73-.12.03-.67.19-.77.22-.17.04-.86.16-1,.2-.12.03-.62.2-.71.23-.85.21-1.08-.73-1.14-.98-.17-.68-.19-.75-.12-.92.09-.25.31-.51,1.23-.74.17-.04.89-.14,1.03-.18.12-.03.64-.21.74-.23.07-.02.34-.06.41-.1.8-.28.72-.84.63-1.18-.04-.14-.2-.72-.23-.82-.05-.22-.21-1.15-.26-1.35-.11-.46-.48-.68-.91-.57-.12.03-.65.19-.77.22l-.51.13c-.15.04-.79.25-.91.28-.31.08-1.75.38-2.04.45l-1.26.31c-.1.02-.42.08-.71.13-.31.08-.61.13-.73.15-1.23.3-1.07.98-.77,2.17"/>
      </g>
    </g>
  </g>
</svg>