<?xml version="1.0" encoding="UTF-8"?>
<svg id="Calque_2" data-name="Calque 2" xmlns="http://www.w3.org/2000/svg" xmlns:xlink="http://www.w3.org/1999/xlink" viewBox="0 0 205.9 102.15">
  <defs>
    <style>
      .cls-1 {
        fill: none;
      }

      .cls-2 {
        fill-rule: evenodd;
      }

      .cls-2, .cls-3 {
        fill: #243571;
      }

      .cls-4 {
        mask: url(#mask);
      }

      .cls-5 {
        fill: #e1121a;
      }

      .cls-6 {
        isolation: isolate;
      }

      .cls-7 {
        mask: url(#mask-1);
      }

      .cls-8 {
        clip-path: url(#clippath-1);
      }

      .cls-9 {
        fill: #fff;
      }

      .cls-10 {
        clip-path: url(#clippath);
      }
    </style>
    <clipPath id="clippath">
      <rect class="cls-1" x="0" y=".69" width="33.15" height="32.25"/>
    </clipPath>
    <mask id="mask" x="0" y="0" width="278.84" height="62.1" maskUnits="userSpaceOnUse">
      <g>
        <rect x="0" y=".69" width="33.15" height="32.25"/>
        <g class="cls-6">
          <g class="cls-10">
            <rect class="cls-9" x="0" y="0" width="278.84" height="62.1"/>
          </g>
        </g>
      </g>
    </mask>
    <clipPath id="clippath-1">
      <rect class="cls-1" x="34.03" y="0" width="36.76" height="35.79"/>
    </clipPath>
    <mask id="mask-1" x="0" y="0" width="278.84" height="62.1" maskUnits="userSpaceOnUse">
      <g>
        <rect x="34.03" y="0" width="36.76" height="35.79"/>
        <g class="cls-6">
          <g class="cls-8">
            <rect class="cls-9" x="0" y="0" width="278.84" height="62.1"/>
          </g>
        </g>
      </g>
    </mask>
  </defs>
  <g id="Calque_1-2" data-name="Calque 1">
    <g>
      <g>
        <path class="cls-3" d="M78.52,91.48v-6.12h1.32v4.99h2.47v1.13h-3.79Z"/>
        <path class="cls-3" d="M87.65,90.76c-.22.27-.5.49-.85.65-.35.16-.75.24-1.19.24-.42,0-.78-.06-1.11-.19s-.6-.3-.82-.52-.39-.47-.5-.76c-.11-.29-.17-.59-.17-.91s.05-.63.16-.92c.11-.29.26-.54.47-.76s.46-.39.75-.51c.3-.12.64-.19,1.02-.19.64,0,1.16.18,1.56.55s.59.84.59,1.42c0,.12,0,.24-.02.35-.02.11-.03.2-.05.28h-3.28c.04.36.18.64.44.85s.58.31.97.31c.25,0,.48-.05.69-.14.2-.1.37-.22.49-.38l.85.63ZM85.41,87.83c-.29,0-.52.07-.72.21-.19.14-.33.35-.41.63h2.11c0-.22-.09-.41-.26-.58-.17-.17-.41-.26-.72-.26Z"/>
        <path class="cls-3" d="M90.81,90.84l.78-.68c.14.17.3.31.48.42s.38.17.6.17c.19,0,.33-.04.43-.13.1-.09.15-.2.15-.32,0-.19-.11-.33-.34-.42-.23-.09-.48-.19-.75-.29-.27-.11-.52-.26-.75-.45-.23-.19-.34-.48-.34-.88s.16-.71.47-.97.71-.39,1.19-.39c.36,0,.69.07,1,.21s.55.32.72.54l-.79.66c-.12-.15-.25-.27-.41-.36-.16-.1-.33-.14-.51-.14-.17,0-.31.04-.4.11-.09.07-.14.17-.14.29,0,.19.12.32.34.41.23.09.48.18.75.29.27.1.52.25.75.44.23.19.34.48.34.87,0,.23-.06.44-.15.62s-.22.33-.37.45c-.16.12-.33.21-.54.28-.2.06-.42.1-.63.1-.41,0-.78-.07-1.08-.22-.31-.15-.57-.34-.79-.59Z"/>
        <path class="cls-3" d="M99.77,90.76c-.22.27-.5.49-.85.65-.35.16-.75.24-1.19.24-.42,0-.78-.06-1.11-.19s-.6-.3-.82-.52-.39-.47-.5-.76c-.11-.29-.17-.59-.17-.91s.05-.63.16-.92c.11-.29.26-.54.47-.76s.46-.39.75-.51c.3-.12.64-.19,1.02-.19.64,0,1.16.18,1.56.55s.59.84.59,1.42c0,.12,0,.24-.02.35-.02.11-.03.2-.05.28h-3.28c.04.36.18.64.44.85s.58.31.97.31c.25,0,.48-.05.69-.14.2-.1.37-.22.49-.38l.85.63ZM97.53,87.83c-.29,0-.52.07-.72.21-.19.14-.33.35-.41.63h2.11c0-.22-.09-.41-.26-.58-.17-.17-.41-.26-.72-.26Z"/>
        <path class="cls-3" d="M100.84,91.48v-4.41h1.18v.44c.15-.15.33-.27.53-.37.2-.1.44-.15.7-.15.08,0,.16,0,.22.02.07.01.13.03.19.04v1.16c-.07-.02-.15-.03-.24-.04-.08-.01-.18-.02-.28-.02-.28,0-.52.06-.71.18-.19.12-.33.25-.41.38v2.76h-1.18Z"/>
        <path class="cls-3" d="M104.17,87.07h1.26l1.22,3.15,1.21-3.15h1.27l-1.71,4.41h-1.55l-1.7-4.41Z"/>
        <path class="cls-3" d="M110.47,86.31c-.21,0-.39-.07-.54-.21-.15-.14-.23-.31-.23-.51s.08-.37.23-.51.33-.21.54-.21.39.07.54.21.22.31.22.51-.07.37-.22.51c-.15.14-.33.21-.54.21ZM109.87,91.48v-4.41h1.18v4.41h-1.18Z"/>
        <path class="cls-3" d="M114.71,90.61c.23,0,.43-.05.61-.14.18-.1.32-.22.43-.37l.94.67c-.22.27-.49.48-.83.65-.34.16-.72.25-1.15.25-.4,0-.76-.06-1.09-.19-.32-.13-.59-.3-.81-.52s-.39-.47-.51-.76c-.12-.29-.18-.59-.18-.91s.06-.62.18-.91c.12-.29.29-.54.51-.76s.49-.39.81-.52c.32-.13.68-.19,1.09-.19.43,0,.81.08,1.15.24.34.16.61.38.83.65l-.94.67c-.11-.15-.25-.28-.43-.37-.18-.1-.39-.14-.63-.14-.38,0-.7.12-.96.38s-.38.57-.38.95.13.7.38.95c.26.25.58.38.97.38Z"/>
        <path class="cls-3" d="M121.69,90.76c-.22.27-.5.49-.85.65-.35.16-.75.24-1.19.24-.42,0-.78-.06-1.11-.19s-.6-.3-.82-.52-.39-.47-.5-.76c-.11-.29-.17-.59-.17-.91s.05-.63.16-.92c.11-.29.26-.54.47-.76s.46-.39.75-.51c.3-.12.64-.19,1.02-.19.64,0,1.16.18,1.56.55s.59.84.59,1.42c0,.12,0,.24-.02.35-.02.11-.03.2-.05.28h-3.28c.04.36.18.64.44.85s.58.31.97.31c.25,0,.48-.05.69-.14.2-.1.37-.22.49-.38l.85.63ZM119.46,87.83c-.29,0-.52.07-.72.21-.19.14-.33.35-.41.63h2.11c0-.22-.09-.41-.26-.58-.17-.17-.41-.26-.72-.26Z"/>
        <path class="cls-3" d="M125.27,93.63v-6.56h1.18v.31c.19-.16.4-.28.64-.36.24-.08.51-.13.82-.13.37,0,.7.06,1,.19.29.13.54.3.75.52.2.22.36.47.47.76.11.29.16.59.16.91s-.05.62-.16.91c-.11.29-.26.54-.47.76-.21.22-.45.39-.75.52s-.63.19-1,.19c-.3,0-.58-.04-.82-.13-.24-.08-.46-.21-.64-.36v2.46h-1.18ZM126.46,89.94c.15.22.34.38.55.49s.46.17.73.17c.4,0,.72-.13.96-.38.24-.25.36-.57.36-.95s-.12-.7-.36-.95-.56-.38-.96-.38c-.27,0-.51.06-.73.17-.21.11-.4.28-.55.49h0s0,1.34,0,1.34h0Z"/>
        <path class="cls-3" d="M134.45,89.57v-2.5h1.19v2.45c0,.66-.19,1.18-.58,1.56-.39.38-.93.57-1.61.57s-1.21-.19-1.6-.57c-.39-.38-.58-.9-.58-1.56v-2.45h1.19v2.5c0,.32.09.57.26.75.17.19.42.28.74.28s.56-.09.73-.28c.17-.19.26-.44.26-.75Z"/>
        <path class="cls-3" d="M141.96,89.28c0,.32-.05.62-.16.91-.11.29-.26.54-.47.76-.21.22-.45.39-.75.52s-.63.19-1,.19c-.3,0-.58-.04-.82-.13-.24-.08-.46-.21-.64-.36v.31h-1.18v-6.56h1.18v2.47c.19-.16.4-.28.64-.36.24-.08.51-.13.82-.13.37,0,.7.06,1,.19.29.13.54.3.75.52.2.22.36.47.47.76.11.29.16.59.16.91ZM138.13,89.94c.15.22.34.38.55.49s.46.17.73.17c.4,0,.72-.13.96-.38.24-.25.36-.57.36-.95s-.12-.7-.36-.95-.56-.38-.96-.38c-.27,0-.51.06-.73.17-.21.11-.4.28-.55.49h0s0,1.34,0,1.34h0Z"/>
        <path class="cls-3" d="M143.04,91.48v-6.56h1.18v6.56h-1.18Z"/>
        <path class="cls-3" d="M146.22,86.31c-.21,0-.39-.07-.54-.21-.15-.14-.23-.31-.23-.51s.08-.37.23-.51.33-.21.54-.21.39.07.54.21.22.31.22.51-.07.37-.22.51c-.15.14-.33.21-.54.21ZM145.63,91.48v-4.41h1.18v4.41h-1.18Z"/>
        <path class="cls-3" d="M150.47,90.61c.23,0,.43-.05.61-.14.18-.1.32-.22.43-.37l.94.67c-.22.27-.49.48-.83.65-.34.16-.72.25-1.15.25-.4,0-.76-.06-1.09-.19-.32-.13-.59-.3-.81-.52s-.39-.47-.51-.76c-.12-.29-.18-.59-.18-.91s.06-.62.18-.91c.12-.29.29-.54.51-.76s.49-.39.81-.52c.32-.13.68-.19,1.09-.19.43,0,.81.08,1.15.24.34.16.61.38.83.65l-.94.67c-.11-.15-.25-.28-.43-.37-.18-.1-.39-.14-.63-.14-.38,0-.7.12-.96.38s-.38.57-.38.95.13.7.38.95c.26.25.58.38.97.38Z"/>
        <path class="cls-3" d="M155.83,93.63v-6.56h1.18v.31c.19-.16.4-.28.64-.36.24-.08.51-.13.82-.13.37,0,.7.06,1,.19.29.13.54.3.75.52.2.22.36.47.47.76.11.29.16.59.16.91s-.05.62-.16.91c-.11.29-.26.54-.47.76-.21.22-.45.39-.75.52s-.63.19-1,.19c-.3,0-.58-.04-.82-.13-.24-.08-.46-.21-.64-.36v2.46h-1.18ZM157.02,89.94c.15.22.34.38.55.49s.46.17.73.17c.4,0,.72-.13.96-.38.24-.25.36-.57.36-.95s-.12-.7-.36-.95-.56-.38-.96-.38c-.27,0-.51.06-.73.17-.21.11-.4.28-.55.49h0s0,1.34,0,1.34h0Z"/>
        <path class="cls-3" d="M164.2,86.9c.38,0,.72.06,1.04.19.32.12.59.29.81.51.23.21.4.46.52.76.12.29.19.6.19.93s-.06.63-.19.93c-.12.29-.3.54-.52.76-.23.21-.5.38-.81.51-.32.12-.66.19-1.04.19s-.72-.06-1.04-.19c-.32-.13-.59-.29-.81-.51-.23-.21-.4-.46-.52-.76-.12-.29-.19-.6-.19-.93s.06-.64.19-.93c.12-.29.3-.54.52-.76.23-.21.5-.38.81-.51s.66-.19,1.04-.19ZM164.22,90.61c.37,0,.68-.13.94-.38.25-.25.38-.57.38-.95s-.13-.7-.38-.95-.57-.38-.94-.38-.71.12-.97.38-.38.57-.38.95.13.7.38.95c.26.25.58.38.97.38Z"/>
        <path class="cls-3" d="M170.93,89.57v-2.5h1.19v2.45c0,.66-.19,1.18-.58,1.56-.39.38-.93.57-1.61.57s-1.21-.19-1.6-.57c-.39-.38-.58-.9-.58-1.56v-2.45h1.19v2.5c0,.32.09.57.26.75.17.19.42.28.74.28s.56-.09.73-.28c.17-.19.26-.44.26-.75Z"/>
        <path class="cls-3" d="M173.42,91.48v-4.41h1.18v.44c.15-.15.33-.27.53-.37.2-.1.44-.15.7-.15.08,0,.16,0,.22.02.07.01.13.03.19.04v1.16c-.07-.02-.15-.03-.24-.04-.08-.01-.18-.02-.28-.02-.28,0-.52.06-.71.18-.19.12-.33.25-.41.38v2.76h-1.18Z"/>
        <path class="cls-3" d="M179.7,91.48v-4.41h1.18v.33c.15-.15.34-.27.55-.36.21-.1.46-.14.74-.14.3,0,.58.07.84.2s.46.32.62.57c.17-.2.38-.38.62-.53s.54-.24.91-.24c.24,0,.47.04.68.12.21.08.39.2.55.35.16.15.28.35.37.58.09.24.13.51.13.82v2.71h-1.19v-2.67c0-.27-.07-.48-.22-.63s-.35-.23-.62-.23c-.25,0-.45.07-.6.21-.15.14-.28.28-.37.42,0,.03,0,.06,0,.1v2.81h-1.2v-2.67c0-.27-.07-.48-.21-.63s-.35-.23-.61-.23-.48.07-.63.22c-.15.15-.28.29-.36.43v2.88h-1.18Z"/>
        <path class="cls-3" d="M188.83,86.31c-.21,0-.39-.07-.54-.21-.15-.14-.23-.31-.23-.51s.08-.37.23-.51.33-.21.54-.21.39.07.54.21.22.31.22.51-.07.37-.22.51c-.15.14-.33.21-.54.21ZM188.24,91.48v-4.41h1.18v4.41h-1.18Z"/>
        <path class="cls-3" d="M195.14,90.76c-.22.27-.5.49-.85.65-.35.16-.75.24-1.19.24-.42,0-.78-.06-1.11-.19s-.6-.3-.82-.52-.39-.47-.5-.76c-.11-.29-.17-.59-.17-.91s.05-.63.16-.92c.11-.29.26-.54.47-.76s.46-.39.75-.51c.3-.12.64-.19,1.02-.19.64,0,1.16.18,1.56.55s.59.84.59,1.42c0,.12,0,.24-.02.35-.02.11-.03.2-.05.28h-3.28c.04.36.18.64.44.85s.58.31.97.31c.25,0,.48-.05.69-.14.2-.1.37-.22.49-.38l.85.63ZM192.9,87.83c-.29,0-.52.07-.72.21-.19.14-.33.35-.41.63h2.11c0-.22-.09-.41-.26-.58-.17-.17-.41-.26-.72-.26Z"/>
        <path class="cls-3" d="M199.24,89.57v-2.5h1.19v2.45c0,.66-.19,1.18-.58,1.56-.39.38-.93.57-1.61.57s-1.21-.19-1.6-.57c-.39-.38-.58-.9-.58-1.56v-2.45h1.19v2.5c0,.32.09.57.26.75.17.19.42.28.74.28s.56-.09.73-.28c.17-.19.26-.44.26-.75Z"/>
        <path class="cls-3" d="M202.45,91.48h-1.36l1.65-2.26-1.56-2.14h1.35l.97,1.35.97-1.35h1.36l-1.57,2.14,1.65,2.26h-1.35l-1.06-1.48-1.05,1.48Z"/>
      </g>
      <g>
        <path class="cls-3" d="M78.27,101.97v-4.41h1.18v.44c.15-.15.33-.27.53-.37.2-.1.44-.15.7-.15.08,0,.16,0,.22.02.07.01.13.03.19.04v1.16c-.07-.02-.15-.03-.24-.04-.08-.01-.18-.02-.28-.02-.28,0-.52.06-.71.18-.19.12-.33.25-.41.38v2.76h-1.18Z"/>
        <path class="cls-3" d="M86.16,101.26c-.22.27-.5.49-.85.65-.35.16-.75.24-1.19.24-.42,0-.78-.06-1.11-.19s-.6-.3-.82-.52-.39-.47-.5-.76c-.11-.29-.17-.59-.17-.91s.05-.63.16-.92c.11-.29.26-.54.47-.76s.46-.39.75-.51c.3-.12.64-.19,1.02-.19.64,0,1.16.18,1.56.55s.59.84.59,1.42c0,.12,0,.24-.02.35-.02.11-.03.2-.05.28h-3.28c.04.36.18.64.44.85s.58.31.97.31c.25,0,.48-.05.69-.14.2-.1.37-.22.49-.38l.85.63ZM83.92,98.32c-.29,0-.52.07-.72.21-.19.14-.33.35-.41.63h2.11c0-.22-.09-.41-.26-.58-.17-.17-.41-.26-.72-.26ZM84.57,96.87h-1.13l.97-1.45h1.28l-1.11,1.45Z"/>
        <path class="cls-3" d="M87.23,101.97v-4.41h1.18v.35c.16-.15.35-.27.58-.37.23-.1.49-.15.8-.15.25,0,.49.04.71.12s.41.2.58.37.29.37.39.61c.1.24.14.53.14.86v2.62h-1.2v-2.58c0-.29-.08-.52-.25-.7s-.39-.26-.67-.26-.53.07-.7.22c-.17.15-.3.29-.38.43v2.88h-1.18Z"/>
        <path class="cls-3" d="M95.18,97.39c.38,0,.72.06,1.04.19.32.12.59.29.81.51.23.21.4.46.52.76.12.29.19.6.19.93s-.06.63-.19.93c-.12.29-.3.54-.52.76-.23.21-.5.38-.81.51-.32.12-.66.19-1.04.19s-.72-.06-1.04-.19c-.32-.13-.59-.29-.81-.51-.23-.21-.4-.46-.52-.76-.12-.29-.19-.6-.19-.93s.06-.64.19-.93c.12-.29.3-.54.52-.76.23-.21.5-.38.81-.51s.66-.19,1.04-.19ZM95.2,101.1c.37,0,.68-.13.94-.38.25-.25.38-.57.38-.95s-.13-.7-.38-.95-.57-.38-.94-.38-.71.12-.97.38-.38.57-.38.95.13.7.38.95c.26.25.58.38.97.38Z"/>
        <path class="cls-3" d="M98.1,97.57h1.26l1.22,3.15,1.21-3.15h1.27l-1.71,4.41h-1.55l-1.7-4.41Z"/>
        <path class="cls-3" d="M108.07,101.26c-.22.27-.5.49-.85.65-.35.16-.75.24-1.19.24-.42,0-.78-.06-1.11-.19s-.6-.3-.82-.52-.39-.47-.5-.76c-.11-.29-.17-.59-.17-.91s.05-.63.16-.92c.11-.29.26-.54.47-.76s.46-.39.75-.51c.3-.12.64-.19,1.02-.19.64,0,1.16.18,1.56.55s.59.84.59,1.42c0,.12,0,.24-.02.35-.02.11-.03.2-.05.28h-3.28c.04.36.18.64.44.85s.58.31.97.31c.25,0,.48-.05.69-.14.2-.1.37-.22.49-.38l.85.63ZM105.83,98.32c-.29,0-.52.07-.72.21-.19.14-.33.35-.41.63h2.11c0-.22-.09-.41-.26-.58-.17-.17-.41-.26-.72-.26Z"/>
        <path class="cls-3" d="M109.14,101.97v-4.41h1.18v.44c.15-.15.33-.27.53-.37.2-.1.44-.15.7-.15.08,0,.16,0,.22.02.07.01.13.03.19.04v1.16c-.07-.02-.15-.03-.24-.04-.08-.01-.18-.02-.28-.02-.28,0-.52.06-.71.18-.19.12-.33.25-.41.38v2.76h-1.18Z"/>
        <path class="cls-3" d="M115.42,101.97v-4.41h1.18v.33c.15-.15.34-.27.55-.36.21-.1.46-.14.74-.14.3,0,.58.07.84.2s.46.32.62.57c.17-.2.38-.38.62-.53s.54-.24.91-.24c.24,0,.47.04.68.12.21.08.39.2.55.35.16.15.28.35.37.58.09.24.13.51.13.82v2.71h-1.19v-2.67c0-.27-.07-.48-.22-.63s-.35-.23-.62-.23c-.25,0-.45.07-.6.21-.15.14-.28.28-.37.42,0,.03,0,.06,0,.1v2.81h-1.2v-2.67c0-.27-.07-.48-.21-.63s-.35-.23-.61-.23-.48.07-.63.22c-.15.15-.28.29-.36.43v2.88h-1.18Z"/>
        <path class="cls-3" d="M126.18,97.39c.38,0,.72.06,1.04.19.32.12.59.29.81.51.23.21.4.46.52.76.12.29.19.6.19.93s-.06.63-.19.93c-.12.29-.3.54-.52.76-.23.21-.5.38-.81.51-.32.12-.66.19-1.04.19s-.72-.06-1.04-.19c-.32-.13-.59-.29-.81-.51-.23-.21-.4-.46-.52-.76-.12-.29-.19-.6-.19-.93s.06-.64.19-.93c.12-.29.3-.54.52-.76.23-.21.5-.38.81-.51s.66-.19,1.04-.19ZM126.2,101.1c.37,0,.68-.13.94-.38.25-.25.38-.57.38-.95s-.13-.7-.38-.95-.57-.38-.94-.38-.71.12-.97.38-.38.57-.38.95.13.7.38.95c.26.25.58.38.97.38Z"/>
        <path class="cls-3" d="M129.82,101.97v-4.41h1.18v.35c.16-.15.35-.27.58-.37.23-.1.49-.15.8-.15.25,0,.49.04.71.12s.41.2.58.37.29.37.39.61c.1.24.14.53.14.86v2.62h-1.2v-2.58c0-.29-.08-.52-.25-.7s-.39-.26-.67-.26-.53.07-.7.22c-.17.15-.3.29-.38.43v2.88h-1.18Z"/>
        <path class="cls-3" d="M138.05,101.97v-6.56h1.18v2.5c.16-.15.35-.27.58-.37.23-.1.49-.15.8-.15.25,0,.49.04.71.12s.41.2.58.37.29.37.39.61c.1.24.14.53.14.86v2.62h-1.2v-2.58c0-.29-.08-.52-.24-.7-.16-.17-.39-.26-.68-.26s-.53.07-.7.22c-.17.15-.3.29-.38.43v2.88h-1.18Z"/>
        <path class="cls-3" d="M145.11,102.15c-.46,0-.84-.12-1.14-.36s-.44-.57-.44-.98c0-.33.13-.62.4-.87s.66-.41,1.16-.48l1.41-.23v-.11c0-.23-.08-.42-.25-.55s-.38-.21-.65-.21c-.23,0-.43.05-.62.14-.18.09-.33.22-.43.39l-.87-.62c.21-.27.48-.48.82-.64.34-.16.72-.24,1.14-.24.33,0,.63.04.89.13.26.09.48.21.65.37.17.16.3.34.39.55.09.21.13.44.13.68v2.85h-1.19v-.41c-.15.17-.35.32-.6.42-.25.11-.52.16-.79.16ZM144.7,100.77c0,.14.06.26.18.35.12.09.28.14.47.14.27,0,.5-.06.69-.17.19-.12.35-.27.46-.45v-.6l-1.11.18c-.25.04-.43.11-.53.2-.11.09-.16.21-.16.35Z"/>
        <path class="cls-3" d="M154.05,99.77c0,.32-.05.62-.16.91-.11.29-.26.54-.47.76-.21.22-.45.39-.75.52s-.63.19-1,.19c-.3,0-.58-.04-.82-.13-.24-.08-.46-.21-.64-.36v.31h-1.18v-6.56h1.18v2.47c.19-.16.4-.28.64-.36.24-.08.51-.13.82-.13.37,0,.7.06,1,.19.29.13.54.3.75.52.2.22.36.47.47.76.11.29.16.59.16.91ZM150.22,100.43c.15.22.34.38.55.49s.46.17.73.17c.4,0,.72-.13.96-.38.24-.25.36-.57.36-.95s-.12-.7-.36-.95-.56-.38-.96-.38c-.27,0-.51.06-.73.17-.21.11-.4.28-.55.49h0s0,1.34,0,1.34h0Z"/>
        <path class="cls-3" d="M155.72,96.8c-.21,0-.39-.07-.54-.21-.15-.14-.23-.31-.23-.51s.08-.37.23-.51.33-.21.54-.21.39.07.54.21.22.31.22.51-.07.37-.22.51c-.15.14-.33.21-.54.21ZM155.13,101.97v-4.41h1.18v4.41h-1.18Z"/>
        <path class="cls-3" d="M158.02,100.36v-1.78h-.87v-1.01h.87v-1.1h1.19v1.1h1.43v1.01h-1.43v1.78c0,.24.07.42.2.52.13.1.31.16.54.16.16,0,.3,0,.41-.03s.21-.04.29-.07v.97c-.12.05-.25.08-.39.11s-.31.04-.51.04c-.58,0-1.02-.15-1.3-.45-.29-.3-.43-.71-.43-1.25Z"/>
        <path class="cls-3" d="M163.03,102.15c-.46,0-.84-.12-1.14-.36s-.44-.57-.44-.98c0-.33.13-.62.4-.87s.66-.41,1.16-.48l1.41-.23v-.11c0-.23-.08-.42-.25-.55s-.38-.21-.65-.21c-.23,0-.43.05-.62.14-.18.09-.33.22-.43.39l-.87-.62c.21-.27.48-.48.82-.64.34-.16.72-.24,1.14-.24.33,0,.63.04.89.13.26.09.48.21.65.37.17.16.3.34.39.55.09.21.13.44.13.68v2.85h-1.19v-.41c-.15.17-.35.32-.6.42-.25.11-.52.16-.79.16ZM162.62,100.77c0,.14.06.26.18.35.12.09.28.14.47.14.27,0,.5-.06.69-.17.19-.12.35-.27.46-.45v-.6l-1.11.18c-.25.04-.43.11-.53.2-.11.09-.16.21-.16.35Z"/>
        <path class="cls-3" d="M167.26,100.36v-1.78h-.87v-1.01h.87v-1.1h1.19v1.1h1.43v1.01h-1.43v1.78c0,.24.07.42.2.52.13.1.31.16.54.16.16,0,.3,0,.41-.03s.21-.04.29-.07v.97c-.12.05-.25.08-.39.11s-.31.04-.51.04c-.58,0-1.02-.15-1.3-.45-.29-.3-.43-.71-.43-1.25Z"/>
      </g>
      <polygon class="cls-3" points="78.12 22.77 91.66 22.77 91.66 26.79 82.83 26.79 82.83 32.17 90.34 32.17 90.34 36.18 82.83 36.18 82.83 46.01 78.12 46.01 78.12 22.77"/>
      <g>
        <path class="cls-3" d="M94.55,29.28h4.22v1.66c1.1-1.13,2.52-1.99,4.41-1.99.56,0,1.06.1,1.46.23v4.42c-.53-.13-1.1-.23-1.86-.23-2.06,0-3.39,1.13-4.02,2.16v10.49h-4.22v-16.73Z"/>
        <path class="cls-3" d="M106.37,41.6c0-2.56,1.96-4.51,5.58-5.11l5.05-.86v-.43c0-1.76-1.33-2.89-3.22-2.89-1.63,0-2.99.7-3.75,1.99l-3.12-2.36c1.49-2.06,3.98-3.32,7.01-3.32,4.85,0,7.34,2.89,7.34,6.57v10.82h-4.25v-1.56c-1.06,1.33-3.02,2.22-4.98,2.22-3.35,0-5.64-1.93-5.64-5.08M112.88,43.29c1.89,0,3.25-1,4.12-2.36v-2.29l-3.95.7c-1.79.3-2.49,1.03-2.49,2.09s.9,1.86,2.32,1.86"/>
        <path class="cls-3" d="M126.06,29.28h4.22v1.33c1.16-1.13,2.72-1.99,4.95-1.99,3.62,0,6.51,2.49,6.51,7.44v9.96h-4.28v-9.79c0-2.23-1.23-3.62-3.29-3.62s-3.25,1.43-3.88,2.49v10.92h-4.22v-16.73Z"/>
        <path class="cls-3" d="M158.26,40.73l3.35,2.56c-1.56,2.06-4.02,3.39-7.07,3.39-5.78,0-9.23-4.15-9.23-9.03s3.45-9.03,9.23-9.03c3.05,0,5.51,1.33,7.07,3.39l-3.35,2.56c-.8-1.16-2.06-1.96-3.78-1.96-2.76,0-4.78,2.12-4.78,5.05s2.02,5.05,4.85,5.05c1.63,0,2.92-.8,3.72-1.96"/>
        <path class="cls-3" d="M172.2,46.68c-5.94,0-9.3-4.15-9.3-9.03s3.12-9.03,8.6-9.03c4.65,0,7.7,3.12,7.7,7.5,0,.93-.13,1.83-.26,2.39h-11.72c.27,2.76,2.19,4.38,5.05,4.38,1.83,0,3.32-.8,4.22-1.99l3.02,2.39c-1.56,2.09-4.15,3.39-7.3,3.39M167.49,35.32h7.54c-.07-1.66-1.29-3.19-3.52-3.19-2.06,0-3.45,1-4.02,3.19"/>
        <path class="cls-5" d="M78.12,53.15h7.11c5.11,0,8.27,2.62,8.27,6.94,0,2.79-1.36,4.88-3.72,6.01l7.3,10.29h-5.64l-6.17-9.4h-2.42v9.4h-4.71v-23.24ZM82.83,57.16v5.81h2.66c1.99,0,3.15-1.06,3.15-2.95,0-1.76-1.16-2.86-3.15-2.86h-2.66Z"/>
        <path class="cls-5" d="M107.47,77.05c-5.94,0-9.3-4.15-9.3-9.03s3.12-9.03,8.6-9.03c4.65,0,7.7,3.12,7.7,7.5,0,.93-.13,1.83-.26,2.39h-11.72c.27,2.76,2.19,4.38,5.05,4.38,1.83,0,3.32-.8,4.22-1.99l3.02,2.39c-1.56,2.09-4.15,3.39-7.3,3.39M102.75,65.7h7.54c-.07-1.66-1.3-3.19-3.52-3.19-2.06,0-3.45,1-4.02,3.19M105.04,57l3.45-5.51h4.58l-3.98,5.51h-4.05Z"/>
        <path class="cls-5" d="M118.59,59.65h4.22v1.33c1.16-1.13,2.72-1.99,4.95-1.99,3.62,0,6.51,2.49,6.51,7.44v9.96h-4.28v-9.79c0-2.22-1.23-3.62-3.29-3.62s-3.25,1.43-3.88,2.49v10.92h-4.22v-16.73Z"/>
        <path class="cls-5" d="M156.17,68.02c0,5.01-3.72,9.03-9.16,9.03s-9.16-4.02-9.16-9.03,3.72-9.03,9.16-9.03,9.16,4.02,9.16,9.03M151.79,68.02c0-2.92-2.03-5.05-4.72-5.05s-4.85,2.12-4.85,5.05,2.06,5.05,4.85,5.05,4.72-2.16,4.72-5.05"/>
        <polygon class="cls-5" points="161.94 59.65 166.29 71.6 170.61 59.65 175.16 59.65 169.05 76.39 163.5 76.39 157.43 59.65 161.94 59.65"/>
        <polygon class="cls-5" points="177.38 62.71 180.37 53.14 185.15 53.14 181.3 62.71 177.38 62.71"/>
        <path class="cls-2" d="M50.87,36.19c-.53-.07-1.08-.05-1.63.04-.55.09-1.08.25-1.59.5-.51.24-.99.56-1.41.95-.41.39-.76.86-.87,1.43h-.17c-.03-.64.26-1.26.63-1.76.38-.51.84-.96,1.37-1.34,1.07-.74,2.38-1.18,3.74-1.17.68,0,1.38.07,2.05.27.21.06.41.14.6.23-.42-.99-.92-1.95-1.52-2.84-3.81-5.7-10.7-9.03-17.57-9.18-6.87-.14-13.63,2.69-18.84,7.16l.47-.25c.33-.21.67-.4,1.05-.55l-1.05.55c-2.67,1.73-3.79,5.33-4.49,8.56-.75,3.44-1.4,6.95-1.12,10.46.28,3.51,1.61,7.06,4.27,9.38,2.77,2.41,6.6,3.21,10.26,3.41,5.31.3,10.68-.46,15.7-2.21,4.49-1.57,8.84-4.06,11.54-7.96,2.76-3.97,3.4-9.13,2.21-13.83-.26-.21-.53-.41-.81-.59-.88-.53-1.75-1.12-2.83-1.25M38.25,39.72c-.15-.65-.57-1.18-1.05-1.61-.5-.43-1.06-.79-1.66-1.04-.6-.26-1.22-.43-1.85-.51-.63-.09-1.27-.09-1.88.01-1.24.19-2.22.9-3.21,1.55-1,.68-1.87,1.55-2.76,2.7l-.19-.05c-.1-.75.05-1.51.34-2.22.29-.71.74-1.37,1.31-1.92.57-.55,1.26-.98,2.03-1.24.77-.25,1.57-.36,2.35-.39,1.57-.06,3.1.4,4.36,1.21.62.41,1.17.92,1.63,1.49.45.57.8,1.27.8,2l-.2.02Z"/>
        <g class="cls-4">
          <path class="cls-2" d="M28.19,3.97c-.78.57-1.52,1.18-2.28,1.78l-2.22,1.85c-2.94,2.48-5.51,5.37-8.19,8.12-2.67,2.77-5.3,5.57-7.9,8.4-2.57,2.86-5.13,5.72-7.6,8.66l.18.17c2.76-2.66,5.51-5.34,8.31-7.96,2.77-2.65,5.57-5.26,8.4-7.84,2.82-2.59,5.82-4.99,8.49-7.72,1.35-1.36,2.69-2.73,3.98-4.15,1.3-1.41,2.58-2.85,3.78-4.39l-.17-.19c-1.67,1-3.25,2.12-4.79,3.28"/>
        </g>
        <g class="cls-7">
          <path class="cls-2" d="M70.75,35.29h0c-2.64-3.36-5.5-6.49-8.45-9.53-2.96-3.03-6.21-5.76-9.31-8.65l-9.35-8.6c-3.15-2.84-6.27-5.7-9.44-8.51l-.17.18c2.9,3.09,5.84,6.14,8.76,9.21l8.84,9.12c2.97,3.02,5.78,6.2,8.89,9.08,3.11,2.87,6.32,5.65,9.74,8.2l.53-.47s-.03-.02-.04-.04"/>
        </g>
      </g>
    </g>
  </g>
</svg>