<?xml version="1.0" encoding="UTF-8"?>
<svg id="Calque_2" data-name="Calque 2" xmlns="http://www.w3.org/2000/svg" viewBox="0 0 185.36 117.98">
  <defs>
    <style>
      .cls-1 {
        fill: #a3d5ca;
      }

      .cls-2 {
        fill: #313938;
      }
    </style>
  </defs>
  <g id="Calque_1-2" data-name="Calque 1">
    <g>
      <path class="cls-1" d="M120.33,38.28c-4.49-6.72-12.61-10.64-20.71-10.81-8.1-.17-16.07,3.16-22.22,8.43l.55-.29c.38-.25.79-.47,1.24-.65l-1.24.65c-3.15,2.04-4.47,6.28-5.29,10.08-.88,4.05-1.65,8.19-1.32,12.32.33,4.13,1.9,8.31,5.03,11.04,3.26,2.84,7.77,3.78,12.1,4.02,6.26.35,12.59-.54,18.5-2.61,5.3-1.85,10.42-4.78,13.61-9.38,4.6-6.64,4.23-16.09-.26-22.81"/>
      <path class="cls-2" d="M112.23,46.06c-.03-.74.3-1.47.74-2.07.45-.6.99-1.13,1.61-1.58,1.26-.87,2.8-1.38,4.41-1.38.8,0,1.62.08,2.42.31.79.23,1.52.65,2.11,1.19.6.54,1.08,1.2,1.4,1.92.32.71.5,1.49.42,2.25l-.2.06c-.95-1.15-1.86-2.01-2.91-2.67-1.03-.63-2.06-1.32-3.34-1.47-.62-.08-1.28-.06-1.91.05-.64.1-1.28.3-1.88.59-.6.28-1.16.66-1.66,1.12-.48.46-.89,1.01-1.02,1.68h-.2Z"/>
      <path class="cls-2" d="M104.03,46.79c-.17-.76-.67-1.38-1.24-1.9-.59-.51-1.25-.93-1.96-1.22-.7-.31-1.44-.51-2.19-.6-.74-.11-1.49-.1-2.21.01-1.47.23-2.62,1.07-3.79,1.83-1.19.8-2.21,1.83-3.26,3.19l-.23-.06c-.12-.88.05-1.78.4-2.61.34-.85.87-1.61,1.54-2.26.67-.65,1.49-1.16,2.39-1.46.9-.3,1.85-.43,2.77-.46,1.85-.07,3.65.47,5.14,1.42.74.49,1.38,1.08,1.92,1.75.53.67.95,1.5.94,2.35l-.23.02Z"/>
      <path class="cls-2" d="M92.17,4.67c-.92.68-1.79,1.39-2.69,2.09l-2.62,2.18c-3.47,2.92-6.49,6.32-9.65,9.57-3.14,3.26-6.25,6.56-9.31,9.89-3.03,3.37-6.04,6.74-8.96,10.2l.21.2c3.26-3.14,6.5-6.29,9.8-9.37,3.27-3.12,6.57-6.2,9.91-9.23,3.32-3.05,6.85-5.88,10.01-9.1,1.58-1.61,3.17-3.22,4.69-4.89,1.54-1.66,3.04-3.36,4.46-5.18l-.2-.22c-1.97,1.18-3.83,2.49-5.65,3.86"/>
      <path class="cls-2" d="M142.34,41.57h0c-3.11-3.96-6.49-7.64-9.96-11.22-3.49-3.57-7.32-6.78-10.97-10.19l-11.03-10.13c-3.71-3.34-7.39-6.71-11.12-10.03l-.21.21c3.41,3.64,6.88,7.23,10.33,10.85l10.42,10.75c3.5,3.56,6.81,7.31,10.48,10.69,3.67,3.38,7.45,6.65,11.48,9.66l.62-.55s-.03-.03-.04-.04"/>
      <polygon class="cls-2" points="18.65 101.06 15.43 101.06 15.43 92.12 15.59 87.11 15.54 87.11 13.87 92.33 10.78 101.06 7.85 101.06 4.75 92.33 3.12 87.11 3.07 87.11 3.25 92.12 3.25 101.06 0 101.06 0 83.91 5.2 83.91 8.31 93.27 9.38 97.14 9.43 97.14 10.55 93.29 13.61 83.91 18.65 83.91 18.65 101.06"/>
      <path class="cls-2" d="M28.99,96.82v-1.35l-2.78.62c-1.14.26-1.74.68-1.74,1.53s.55,1.27,1.48,1.27c1.35,0,3.04-.7,3.04-2.08M34.37,98.8l-.26,2.16c-.47.23-1.04.36-1.69.36-1.56,0-2.62-.55-2.99-1.95-.78,1.27-2.42,1.95-4.6,1.95-2.47,0-4.03-1.14-4.03-3.32,0-2.03,1.58-3.46,5.06-4.1l3.12-.6v-.62c0-1.38-.81-2.26-2.21-2.26-1.51,0-2.6.57-2.99,2.21l-2.83-1.19c.54-2.21,2.49-3.61,5.66-3.61,3.61,0,5.9,1.56,5.9,4.78v5.33c0,.68.29.99.96.99.31,0,.62-.03.88-.1"/>
      <path class="cls-2" d="M45.87,89.39c0-1.74-.99-2.62-3.22-2.62h-3.07v5.27h3.07c2.23,0,3.22-.91,3.22-2.65M49.51,89.42c0,3.4-2.34,5.4-6.31,5.4h-3.61v6.24h-3.58v-17.15h7.2c3.97,0,6.31,2,6.31,5.51"/>
      <path class="cls-2" d="M60.42,88.1l-.44,3.12c-.36-.23-.96-.39-1.64-.39-1.56,0-3.09,1.14-3.09,3.51v6.73h-3.58v-12.99h3.09l.23,2.55c.68-1.79,2-2.81,4.03-2.81.57,0,1.09.1,1.4.29"/>
      <path class="cls-2" d="M65.43,101.06h-3.59v-12.99h3.59v12.99ZM61.43,84.3c0-1.27.73-1.92,2.21-1.92s2.21.65,2.21,1.92-.73,1.9-2.21,1.9-2.21-.62-2.21-1.9"/>
      <path class="cls-2" d="M89.28,92.54v8.52h-3.56v-7.82c0-1.9-.93-2.62-2.23-2.62-1.59,0-2.86,1.19-2.86,3.45v6.99h-3.56v-7.82c0-1.9-.93-2.62-2.26-2.62s-2.83,1.04-2.83,3.56v6.88h-3.58v-12.99h3.19l.13,2.29c.86-1.71,2.47-2.55,4.29-2.55s3.53.86,4.23,2.62c.86-1.77,2.6-2.62,4.42-2.62,2.52,0,4.62,1.53,4.62,4.73"/>
      <path class="cls-2" d="M94.97,93.42h6.05c-.29-1.95-1.38-2.99-3.01-2.99s-2.75,1.01-3.04,2.99M104.19,95.91h-9.2c.36,1.87,1.51,2.75,3.25,2.75,1.51,0,2.49-.57,2.86-1.61l2.91,1.07c-.83,2.08-2.83,3.19-5.77,3.19-4.31,0-6.75-2.49-6.75-6.75s2.36-6.75,6.55-6.75,6.26,2.44,6.26,6.7c0,.36-.05,1.07-.1,1.4"/>
      <path class="cls-2" d="M110.29,91.76h3.56c2.08,0,3.04-.78,3.04-2.49s-.96-2.49-3.04-2.49h-3.56v4.99ZM113.51,94.49h-3.22v6.57h-3.53v-17.14h7.56c3.9,0,6.24,1.92,6.24,5.3,0,2.47-1.27,4.18-3.51,4.88l4.52,6.96h-4.03l-4.03-6.57Z"/>
      <path class="cls-2" d="M129.7,86.2h-2.65l1.82-4.42h3.43l-2.6,4.42ZM125.8,93.42h6.05c-.29-1.95-1.38-2.99-3.01-2.99s-2.75,1.01-3.04,2.99M135.02,95.91h-9.2c.36,1.87,1.51,2.75,3.25,2.75,1.51,0,2.49-.57,2.86-1.61l2.91,1.07c-.83,2.08-2.83,3.19-5.77,3.19-4.31,0-6.75-2.49-6.75-6.75s2.36-6.75,6.55-6.75,6.26,2.44,6.26,6.7c0,.36-.05,1.07-.1,1.4"/>
      <path class="cls-2" d="M149.75,92.54v8.52h-3.56v-7.48c0-2.23-.96-2.96-2.31-2.96-1.51,0-2.96.99-2.96,3.58v6.86h-3.59v-12.99h3.2l.13,2.31c.86-1.74,2.47-2.57,4.42-2.57,2.7,0,4.68,1.58,4.68,4.73"/>
      <path class="cls-2" d="M155.52,94.56c0,2.75,1.09,4.1,3.09,4.1s3.09-1.35,3.09-4.1-1.09-4.1-3.09-4.1-3.09,1.35-3.09,4.1M165.26,94.56c0,4.23-2.47,6.75-6.65,6.75s-6.65-2.52-6.65-6.75,2.47-6.75,6.65-6.75,6.65,2.52,6.65,6.75"/>
      <polygon class="cls-2" points="179.57 88.07 174.63 101.06 170.53 101.06 165.59 88.07 169.41 88.07 172.61 98.56 175.88 88.07 179.57 88.07"/>
      <path class="cls-2" d="M185.36,86.07c0,2.05-1.07,3.95-3.33,4.94l-1.64-1.25c1.53-.55,2.62-1.53,2.99-2.73l-.1-.08c-.18.18-.39.26-.78.26-.88,0-1.9-.62-1.9-1.97s.96-2.21,2.26-2.21c1.66,0,2.49,1.22,2.49,3.04"/>
      <polygon class="cls-2" points="7.05 115.9 6.07 115.9 6.07 112.11 6.15 110.29 6.14 110.29 5.55 112.04 4.15 115.9 3.27 115.9 1.86 112.04 1.27 110.29 1.25 110.29 1.33 112.11 1.33 115.9 .36 115.9 .36 109.35 1.94 109.35 3.26 113.14 3.71 114.7 3.73 114.7 4.2 113.15 5.51 109.35 7.05 109.35 7.05 115.9"/>
      <path class="cls-2" d="M9.81,115.9h-1.06v-4.96h1.06v4.96ZM8.57,109.44c0-.42.26-.65.71-.65s.7.24.7.65-.26.65-.7.65-.71-.24-.71-.65"/>
      <path class="cls-2" d="M12.12,113h2.68c-.1-.83-.56-1.33-1.31-1.33-.78,0-1.26.47-1.37,1.33M15.75,113.81h-3.64c.12.87.64,1.34,1.45,1.34.65,0,1.09-.24,1.26-.67l.86.37c-.35.73-1.03,1.15-2.12,1.15-1.57,0-2.48-.96-2.48-2.58s.86-2.58,2.41-2.58,2.3.99,2.3,2.43c0,.19-.02.42-.04.54"/>
      <path class="cls-2" d="M21.5,110.94v4.96h-.94l-.04-.79c-.35.61-.97.89-1.76.89-.99,0-1.78-.5-1.78-1.79v-3.26h1.06v2.99c0,.91.39,1.19,1.02,1.19.75,0,1.39-.45,1.39-1.51v-2.68h1.06Z"/>
      <polygon class="cls-2" points="26.18 115.9 24.93 114.03 23.64 115.9 22.44 115.9 24.32 113.4 22.55 110.94 23.81 110.94 25 112.73 26.18 110.94 27.39 110.94 25.62 113.38 27.42 115.9 26.18 115.9"/>
      <path class="cls-2" d="M35.64,112.23l-.99.4c-.17-.6-.56-.94-1.14-.94-.88,0-1.41.62-1.41,1.74s.54,1.72,1.41,1.72c.64,0,1.05-.35,1.22-.95l.95.31c-.26.9-1,1.49-2.15,1.49-1.57,0-2.48-.96-2.48-2.58s.91-2.58,2.46-2.58c1.19,0,1.84.57,2.13,1.39"/>
      <path class="cls-2" d="M41.37,112.68v3.21h-1.06v-2.88c0-.99-.46-1.31-1.06-1.31-.65,0-1.35.43-1.35,1.57v2.62h-1.06v-7.19h1.06v3.02c.33-.62.91-.89,1.61-.89,1.04,0,1.86.61,1.86,1.84"/>
      <path class="cls-2" d="M43.64,113h2.68c-.1-.83-.57-1.33-1.31-1.33-.78,0-1.26.47-1.37,1.33M47.26,113.81h-3.64c.12.87.64,1.34,1.45,1.34.65,0,1.09-.24,1.26-.67l.86.37c-.35.73-1.03,1.15-2.12,1.15-1.57,0-2.48-.96-2.48-2.58s.86-2.58,2.41-2.58,2.3.99,2.3,2.43c0,.19-.02.42-.04.54"/>
      <polygon class="cls-2" points="52.48 115.06 52.48 115.9 48.21 115.9 48.21 115.14 50.68 112.24 51.17 111.74 50.6 111.76 49.86 111.77 48.23 111.77 48.23 110.94 52.39 110.94 52.39 111.69 50.04 114.47 49.42 115.09 50.07 115.07 50.86 115.06 52.48 115.06"/>
      <path class="cls-2" d="M64.59,112.68v3.21h-1.05v-3.04c0-.82-.45-1.14-1.03-1.14-.69,0-1.29.52-1.29,1.49v2.7h-1.05v-3.04c0-.82-.45-1.14-1.03-1.14s-1.29.44-1.29,1.55v2.64h-1.06v-4.96h.94l.05.82c.35-.62.96-.92,1.61-.92.7,0,1.37.32,1.67.99.33-.68,1.05-.99,1.71-.99.96,0,1.83.58,1.83,1.84"/>
      <path class="cls-2" d="M66.87,113.42c0,1.12.51,1.74,1.41,1.74s1.41-.61,1.41-1.74-.51-1.74-1.41-1.74-1.41.61-1.41,1.74M70.75,113.42c0,1.62-.92,2.58-2.47,2.58s-2.46-.96-2.46-2.58.92-2.58,2.46-2.58,2.47.96,2.47,2.58"/>
      <path class="cls-2" d="M73.06,115.9h-1.06v-4.96h1.06v4.96ZM71.82,109.44c0-.42.26-.65.71-.65s.7.24.7.65-.26.65-.7.65-.71-.24-.71-.65"/>
      <path class="cls-2" d="M75.97,115.61c0,.71-.37,1.4-1.16,1.77l-.51-.44c.56-.19.93-.58,1.05-1.02l-.05-.02c-.05.05-.13.08-.28.08-.29,0-.63-.22-.63-.68,0-.43.33-.74.75-.74.54,0,.83.43.83,1.05"/>
      <path class="cls-2" d="M88.22,112.68v3.21h-1.05v-3.04c0-.82-.45-1.14-1.03-1.14-.69,0-1.29.52-1.29,1.49v2.7h-1.05v-3.04c0-.82-.45-1.14-1.03-1.14s-1.29.44-1.29,1.55v2.64h-1.06v-4.96h.94l.05.82c.35-.62.96-.92,1.61-.92.7,0,1.37.32,1.67.99.33-.68,1.05-.99,1.71-.99.96,0,1.83.58,1.83,1.84"/>
      <path class="cls-2" d="M90.79,115.9h-1.06v-4.96h1.06v4.96ZM89.55,109.44c0-.42.26-.65.71-.65s.7.24.7.65-.26.65-.7.65-.71-.24-.71-.65"/>
      <path class="cls-2" d="M93.09,113h2.68c-.1-.83-.57-1.33-1.31-1.33-.78,0-1.26.47-1.37,1.33M96.72,113.81h-3.64c.12.87.64,1.34,1.45,1.34.65,0,1.09-.24,1.26-.67l.86.37c-.35.73-1.03,1.15-2.12,1.15-1.57,0-2.48-.96-2.48-2.58s.86-2.58,2.41-2.58,2.3.99,2.3,2.43c0,.19-.02.42-.04.54"/>
      <path class="cls-2" d="M102.48,110.94v4.96h-.94l-.04-.79c-.35.61-.97.89-1.76.89-.99,0-1.79-.5-1.79-1.79v-3.26h1.06v2.99c0,.91.39,1.19,1.02,1.19.75,0,1.39-.45,1.39-1.51v-2.68h1.06Z"/>
      <polygon class="cls-2" points="107.16 115.9 105.91 114.03 104.62 115.9 103.42 115.9 105.3 113.4 103.53 110.94 104.79 110.94 105.98 112.73 107.16 110.94 108.37 110.94 106.59 113.38 108.4 115.9 107.16 115.9"/>
      <path class="cls-2" d="M116.1,113.42c0-1.08-.51-1.72-1.37-1.72s-1.37.62-1.37,1.66v.12c0,1.03.54,1.67,1.37,1.67s1.37-.65,1.37-1.72M117.16,113.41c0,1.63-.84,2.59-2.19,2.59-.74,0-1.31-.37-1.61-.9v2.89h-1.06v-7.04h.93l.05.91c.29-.61.89-1.01,1.69-1.01,1.35,0,2.19.95,2.19,2.57"/>
      <path class="cls-2" d="M119.21,113.42c0,1.12.52,1.74,1.41,1.74s1.41-.61,1.41-1.74-.51-1.74-1.41-1.74-1.41.61-1.41,1.74M123.09,113.42c0,1.62-.92,2.58-2.47,2.58s-2.46-.96-2.46-2.58.92-2.58,2.46-2.58,2.47.96,2.47,2.58"/>
      <path class="cls-2" d="M128.84,110.94v4.96h-.94l-.04-.79c-.35.61-.97.89-1.76.89-.99,0-1.79-.5-1.79-1.79v-3.26h1.06v2.99c0,.91.39,1.19,1.02,1.19.75,0,1.39-.45,1.39-1.51v-2.68h1.06Z"/>
      <path class="cls-2" d="M133.49,110.94l-.17.97c-.14-.08-.37-.14-.62-.14-.6,0-1.25.49-1.25,1.5v2.63h-1.06v-4.96h.9l.09.89c.27-.64.79-.99,1.57-.99.2,0,.41.03.54.1"/>
      <path class="cls-2" d="M138.33,114.46c0,.49.12.64.51.64.29,0,.44-.05.66-.12l-.13.84c-.21.11-.52.17-.81.17-.88,0-1.29-.44-1.29-1.4v-5.89h1.06v5.75Z"/>
      <path class="cls-2" d="M143.12,114.25v-.6l-1.09.22c-.66.14-1.01.36-1.01.75,0,.38.28.57.74.57.66,0,1.36-.35,1.36-.94M144.91,115.16l-.08.71c-.16.07-.37.12-.62.12-.54,0-.9-.19-1.01-.73-.31.47-.94.73-1.67.73-.94,0-1.62-.44-1.62-1.3,0-.76.63-1.33,1.93-1.56l1.26-.23v-.26c0-.59-.37-.98-1.01-.98s-1.08.27-1.29.89l-.81-.44c.23-.78.99-1.29,2.07-1.29,1.25,0,2.09.56,2.09,1.75v2.24c0,.25.1.37.37.37.13,0,.27-.01.38-.04"/>
      <path class="cls-2" d="M152.52,113.42c0-1.08-.51-1.72-1.37-1.72s-1.37.62-1.37,1.66v.12c0,1.03.54,1.67,1.37,1.67s1.37-.65,1.37-1.72M153.58,113.41c0,1.63-.84,2.59-2.19,2.59-.74,0-1.31-.37-1.61-.9v2.89h-1.06v-7.04h.93l.05.91c.29-.61.89-1.01,1.69-1.01,1.35,0,2.19.95,2.19,2.57"/>
      <path class="cls-2" d="M155.88,114.46c0,.49.12.64.51.64.29,0,.44-.05.66-.12l-.13.84c-.21.11-.52.17-.81.17-.88,0-1.29-.44-1.29-1.4v-5.89h1.06v5.75Z"/>
      <path class="cls-2" d="M160.67,114.25v-.6l-1.09.22c-.66.14-1.01.36-1.01.75,0,.38.28.57.74.57.66,0,1.36-.35,1.36-.94M162.47,115.16l-.08.71c-.16.07-.37.12-.62.12-.54,0-.9-.19-1.01-.73-.31.47-.94.73-1.67.73-.94,0-1.62-.44-1.62-1.3,0-.76.63-1.33,1.93-1.56l1.26-.23v-.26c0-.59-.37-.98-1.01-.98s-1.08.27-1.29.89l-.81-.44c.23-.78.99-1.29,2.07-1.29,1.25,0,2.09.56,2.09,1.75v2.24c0,.25.1.37.37.37.13,0,.27-.01.38-.04"/>
      <path class="cls-2" d="M167.87,112.68v3.21h-1.06v-2.88c0-.99-.46-1.31-1.06-1.31-.65,0-1.35.42-1.35,1.56v2.63h-1.06v-4.96h.94l.05.81c.34-.63.96-.91,1.68-.91,1.04,0,1.86.61,1.86,1.84"/>
      <path class="cls-2" d="M171.15,110.17l-.98-1.67h1.07l.72,1.67h-.81ZM170.14,113h2.68c-.1-.83-.57-1.33-1.31-1.33-.78,0-1.26.47-1.37,1.33M173.77,113.81h-3.64c.12.87.64,1.34,1.45,1.34.65,0,1.09-.24,1.26-.67l.86.37c-.35.73-1.03,1.15-2.12,1.15-1.57,0-2.48-.96-2.48-2.58s.86-2.58,2.41-2.58,2.3.99,2.3,2.43c0,.19-.02.42-.04.54"/>
      <path class="cls-2" d="M178.12,115.57c-.31.27-.77.43-1.31.43-.85,0-1.51-.39-1.51-1.41v-2.81h-.95v-.83h.95v-1.17l1.05-.29v1.46h1.74v.83h-1.74v2.64c0,.49.29.71.72.71.34,0,.57-.13.8-.33l.24.77Z"/>
      <path class="cls-2" d="M179.78,113h2.68c-.1-.83-.57-1.33-1.31-1.33-.78,0-1.26.47-1.37,1.33M183.41,113.81h-3.64c.12.87.64,1.34,1.45,1.34.65,0,1.09-.24,1.26-.67l.86.37c-.35.73-1.03,1.15-2.12,1.15-1.57,0-2.48-.96-2.48-2.58s.86-2.58,2.41-2.58,2.3.99,2.3,2.43c0,.19-.02.42-.04.54"/>
    </g>
  </g>
</svg>