<?xml version="1.0" encoding="UTF-8"?>
<svg id="Calque_2" xmlns="http://www.w3.org/2000/svg" version="1.1" viewBox="0 0 185.4 127">
  <!-- Generator: Adobe Illustrator 30.0.0, SVG Export Plug-In . SVG Version: 2.1.1 Build 123)  -->
  <defs>
    <style>
      .st0 {
        fill: #a3d5ca;
      }

      .st1 {
        fill: #313938;
      }
    </style>
  </defs>
  <g id="Calque_1-2">
    <g>
      <path class="st0" d="M120.3,38.3c-4.5-6.7-12.6-10.6-20.7-10.8-8.1-.2-16.1,3.2-22.2,8.4l.6-.3c.4-.2.8-.5,1.2-.7l-1.2.7c-3.2,2-4.5,6.3-5.3,10.1-.9,4-1.7,8.2-1.3,12.3s1.9,8.3,5,11c3.3,2.8,7.8,3.8,12.1,4,6.3.3,12.6-.5,18.5-2.6,5.3-1.8,10.4-4.8,13.6-9.4,4.6-6.6,4.2-16.1-.3-22.8"/>
      <path class="st1" d="M112.2,46.1c0-.7.3-1.5.7-2.1.4-.6,1-1.1,1.6-1.6,1.3-.9,2.8-1.4,4.4-1.4s1.6,0,2.4.3c.8.2,1.5.7,2.1,1.2s1.1,1.2,1.4,1.9.5,1.5.4,2.2h-.2c-.9-1.1-1.9-1.9-2.9-2.6-1-.6-2.1-1.3-3.3-1.5h-1.9c-.6,0-1.3.3-1.9.6s-1.2.7-1.7,1.1c-.5.5-.9,1-1,1.7h-.2v.2Z"/>
      <path class="st1" d="M104,46.8c-.2-.8-.7-1.4-1.2-1.9-.6-.5-1.2-.9-2-1.2-.7-.3-1.4-.5-2.2-.6-.7,0-1.5,0-2.2,0-1.5.2-2.6,1.1-3.8,1.8-1.2.8-2.2,1.8-3.3,3.2h-.2c0-.9,0-1.8.4-2.7.3-.8.9-1.6,1.5-2.3.7-.7,1.5-1.2,2.4-1.5s1.8-.4,2.8-.5c1.8,0,3.7.5,5.1,1.4.7.5,1.4,1.1,1.9,1.8s.9,1.5.9,2.3h-.2v.2Z"/>
      <path class="st1" d="M92.2,4.7c-.9.7-1.8,1.4-2.7,2.1l-2.6,2.2c-3.5,2.9-6.5,6.3-9.7,9.6-3.1,3.3-6.2,6.6-9.3,9.9-3,3.4-6,6.7-9,10.2l.2.2c3.3-3.1,6.5-6.3,9.8-9.4,3.3-3.1,6.6-6.2,9.9-9.2s6.8-5.9,10-9.1,3.2-3.2,4.7-4.9,3-3.4,4.5-5.2l-.2-.2c-2,1.2-3.8,2.5-5.7,3.9"/>
      <path class="st1" d="M142.3,41.6h0c-3.1-4-6.5-7.6-10-11.2-3.5-3.6-7.3-6.8-11-10.2l-11-10.1C106.7,6.7,103,3.3,99.3,0l-.2.2c3.4,3.6,6.9,7.2,10.3,10.9l10.4,10.8c3.5,3.6,6.8,7.3,10.5,10.7,3.7,3.4,7.4,6.7,11.5,9.7l.6-.5h0"/>
      <polygon class="st1" points="18.6 101.1 15.4 101.1 15.4 92.1 15.6 87.1 15.5 87.1 13.9 92.3 10.8 101.1 7.8 101.1 4.8 92.3 3.1 87.1 3.1 87.1 3.2 92.1 3.2 101.1 0 101.1 0 83.9 5.2 83.9 8.3 93.3 9.4 97.1 9.4 97.1 10.6 93.3 13.6 83.9 18.6 83.9 18.6 101.1"/>
      <path class="st1" d="M29,96.8v-1.3l-2.8.6c-1.1.3-1.7.7-1.7,1.5s.5,1.3,1.5,1.3,3-.7,3-2.1M34.4,98.8l-.3,2.2c-.5.2-1,.4-1.7.4-1.6,0-2.6-.6-3-1.9-.8,1.3-2.4,1.9-4.6,1.9s-4-1.1-4-3.3,1.6-3.5,5.1-4.1l3.1-.6v-.6c0-1.4-.8-2.3-2.2-2.3s-2.6.6-3,2.2l-2.8-1.2c.5-2.2,2.5-3.6,5.7-3.6s5.9,1.6,5.9,4.8v5.3c0,.7.3,1,1,1h.9"/>
      <path class="st1" d="M45.9,89.4c0-1.7-1-2.6-3.2-2.6h-3.1v5.3h3.1c2.2,0,3.2-.9,3.2-2.7M49.5,89.4c0,3.4-2.3,5.4-6.3,5.4h-3.6v6.2h-3.6v-17.2h7.2c4,0,6.3,2,6.3,5.5"/>
      <path class="st1" d="M60.4,88.1l-.4,3.1c-.4-.2-1-.4-1.6-.4-1.6,0-3.1,1.1-3.1,3.5v6.7h-3.6v-13h3.1l.2,2.6c.7-1.8,2-2.8,4-2.8s1.1,0,1.4.3"/>
      <path class="st1" d="M65.4,101.1h-3.6v-13h3.6v13ZM61.4,84.3c0-1.3.7-1.9,2.2-1.9s2.2.7,2.2,1.9-.7,1.9-2.2,1.9-2.2-.6-2.2-1.9"/>
      <path class="st1" d="M89.3,92.5v8.5h-3.6v-7.8c0-1.9-.9-2.6-2.2-2.6s-2.9,1.2-2.9,3.4v7h-3.6v-7.8c0-1.9-.9-2.6-2.3-2.6s-2.8,1-2.8,3.6v6.9h-3.6v-13h3.2v2.3c1-1.7,2.6-2.6,4.4-2.6s3.5.9,4.2,2.6c.9-1.8,2.6-2.6,4.4-2.6s4.6,1.5,4.6,4.7"/>
      <path class="st1" d="M95,93.4h6.1c-.3-1.9-1.4-3-3-3s-2.8,1-3,3M104.2,95.9h-9.2c.4,1.9,1.5,2.8,3.2,2.8s2.5-.6,2.9-1.6l2.9,1.1c-.8,2.1-2.8,3.2-5.8,3.2-4.3,0-6.8-2.5-6.8-6.8s2.4-6.8,6.6-6.8,6.3,2.4,6.3,6.7,0,1.1,0,1.4"/>
      <path class="st1" d="M110.3,91.8h3.6c2.1,0,3-.8,3-2.5s-1-2.5-3-2.5h-3.6v5h0ZM113.5,94.5h-3.2v6.6h-3.5v-17.1h7.6c3.9,0,6.2,1.9,6.2,5.3s-1.3,4.2-3.5,4.9l4.5,7h-4l-4-6.6h0Z"/>
      <path class="st1" d="M129.7,86.2h-2.7l1.8-4.4h3.4l-2.6,4.4h.1ZM125.8,93.4h6.1c-.3-1.9-1.4-3-3-3s-2.8,1-3,3M135,95.9h-9.2c.4,1.9,1.5,2.8,3.2,2.8s2.5-.6,2.9-1.6l2.9,1.1c-.8,2.1-2.8,3.2-5.8,3.2-4.3,0-6.8-2.5-6.8-6.8s2.4-6.8,6.6-6.8,6.3,2.4,6.3,6.7,0,1.1-.1,1.4"/>
      <path class="st1" d="M149.8,92.5v8.5h-3.6v-7.5c0-2.2-1-3-2.3-3s-3,1-3,3.6v6.9h-3.6v-13h3.2v2.3c1-1.7,2.6-2.6,4.6-2.6s4.7,1.6,4.7,4.7"/>
      <path class="st1" d="M155.5,94.6c0,2.8,1.1,4.1,3.1,4.1s3.1-1.3,3.1-4.1-1.1-4.1-3.1-4.1-3.1,1.3-3.1,4.1M165.3,94.6c0,4.2-2.5,6.8-6.6,6.8s-6.6-2.5-6.6-6.8,2.5-6.8,6.6-6.8,6.6,2.5,6.6,6.8"/>
      <polygon class="st1" points="179.6 88.1 174.6 101.1 170.5 101.1 165.6 88.1 169.4 88.1 172.6 98.6 175.9 88.1 179.6 88.1"/>
      <path class="st1" d="M185.4,86.1c0,2.1-1.1,3.9-3.3,4.9l-1.6-1.2c1.5-.6,2.6-1.5,3-2.7h-.1c-.2,0-.4.2-.8.2-.9,0-1.9-.6-1.9-2s1-2.2,2.3-2.2,2.5,1.2,2.5,3"/>
    </g>
  </g>
  <g>
    <path class="st1" d="M138.7,114.3c-1,0-1.7.6-1.7,2.2s.7,2.2,1.7,2.2,1.6-.7,1.6-2.2-.6-2.2-1.6-2.2Z"/>
    <path class="st1" d="M47.4,114.3c-1,0-1.7.6-1.7,2.2s.7,2.2,1.7,2.2,1.6-.7,1.6-2.2-.6-2.2-1.6-2.2Z"/>
    <path class="st1" d="M52.7,117.7c0,.6.4.9,1,.9s1.6-.5,1.6-1.3v-.5h-1.2c-.8,0-1.4.3-1.4.9Z"/>
    <path class="st1" d="M72.3,114.3c-1.1,0-1.7.8-1.7,2.2s.6,2.2,1.7,2.2,1.7-.9,1.7-2.2-.6-2.2-1.7-2.2Z"/>
    <path class="st1" d="M120.4,114.3c-1.1,0-1.7.8-1.7,2.2s.6,2.2,1.7,2.2,1.7-.9,1.7-2.2-.6-2.2-1.7-2.2Z"/>
    <path class="st1" d="M144,117.7c0,.6.4.9,1,.9s1.6-.5,1.6-1.3v-.5h-1.2c-.8,0-1.4.3-1.4.9Z"/>
    <path class="st1" d="M152.2,121.1c1.2,0,1.7-.2,1.7-.8s-.3-.6-.9-.6h-1.5c-.7,0-.9.4-.9.7s.4.7,1.6.7Z"/>
    <path class="st1" d="M167.8,115.8c0-.9-.5-1.5-1.5-1.5s-1.5.6-1.6,1.5h3.1Z"/>
    <path class="st1" d="M29.7,114.3c-1.1,0-1.7.8-1.7,2.2s.6,2.2,1.7,2.2,1.7-.9,1.7-2.2-.6-2.2-1.7-2.2Z"/>
    <path class="st1" d="M170.8,106.3H14.5c-5.7,0-10.3,4.6-10.3,10.3s4.6,10.3,10.3,10.3h156.3c5.7,0,10.3-4.6,10.3-10.3s-4.6-10.3-10.3-10.3ZM167,111.1h1.3v.2l-1.5,1.5h-1.2l1.4-1.7ZM25.2,119.7h-1.4v-6.3l-2.3,6.3h-1.6l-2.3-6.3v6.3h-1.4v-8.3h2.1l2.4,6.6,2.4-6.6h2.1v8.3ZM29.7,119.8c-2,0-3.1-1.2-3.1-3.3s1.2-3.3,3.1-3.3,3.2,1.2,3.2,3.3-1.2,3.3-3.2,3.3ZM39.6,119.7h-1.4v-4.1c0-.8-.3-1.3-1.2-1.3s-1.6.9-1.6,1.8v3.6h-1.4v-6.3h1.3v.9c.4-.8,1.3-1.1,2.1-1.1,1.3,0,2.2.8,2.2,2.3v4.2ZM47.8,119.8c-1.6,0-1.6-.3-2-1v3.2h-1.4v-8.6h1.3v1c.4-.8,1.3-1.2,2.1-1.2,1.5,0,2.7,1,2.7,3.3s-1.1,3.3-2.7,3.3ZM56.8,119.7h-1.2v-1c-.4.6-1.1,1.1-2.1,1.1s-2.1-.6-2.1-1.9,1.4-2,2.7-2h0c0,0,1.3,0,1.3,0v-.4c0-.8-.5-1.1-1.2-1.1s-1.3.2-1.3,1l-1.2-.3c0-1.5,1.6-1.8,2.6-1.8s2.6.6,2.6,2.4v4.1ZM61.9,114.5h-.2c-1.3,0-2.1.8-2.1,2.2v2.9h-1.4v-6.3h1.4v1.3c.3-1.1,1.2-1.4,2.1-1.4h.2v1.3ZM65.4,118.7c1.1,0,1.5-.6,1.5-1.4h1.3c0,1.8-1.2,2.5-2.8,2.5s-3.1-1.3-3.1-3.3,1.1-3.3,3.1-3.3h0c1.6,0,2.8.8,2.7,2.3h-1.4c0-.7-.5-1.2-1.4-1.2s-1.7.8-1.7,2.2.6,2.2,1.7,2.2ZM72.3,119.8c-2,0-3.1-1.2-3.1-3.3s1.2-3.3,3.1-3.3,3.2,1.2,3.2,3.3-1.2,3.3-3.2,3.3ZM82.2,117.4c0,1.6-1,2.4-2.8,2.4s-2.8-.9-2.8-2.4v-4h1.4v4.1c0,.8.5,1.3,1.4,1.3s1.4-.5,1.4-1.3v-4.1h1.4v4ZM87.3,114.5h-.2c-1.3,0-2.1.8-2.1,2.2v2.9h-1.4v-6.3h1.4v1.3c.3-1.1,1.2-1.4,2.1-1.4h.2v1.3ZM90.7,119.9c-1.3,0-2.7-.4-2.7-1.8l1.2-.2c0,.8.8,1,1.4,1,.9,0,1.3-.4,1.3-.9,0-1.5-3.8,0-3.8-2.7h-.1c0-1.5,1.2-2.1,2.6-2.1s2.5.5,2.5,1.9l-1.1.2h0c0-.8-.6-1-1.3-1s-1.1.3-1.1.8c0,1.4,3.9,0,3.9,2.7s-1.4,2.1-2.7,2.1ZM102.7,119.7h-1.2v-1c-.4.6-1.1,1.1-2.1,1.1s-2.1-.6-2.1-1.9,1.4-2,2.7-2h0c0,0,1.3,0,1.3,0v-.4c0-.8-.5-1.1-1.2-1.1s-1.3.2-1.3,1l-1.2-.3c0-1.5,1.6-1.8,2.6-1.8s2.6.6,2.6,2.4v4.1ZM106.8,118.7c1.1,0,1.5-.6,1.5-1.4h1.3c0,1.8-1.2,2.5-2.8,2.5s-3.1-1.3-3.1-3.3,1.1-3.3,3.1-3.3h.1c1.6,0,2.8.8,2.7,2.3h-1.4c0-.7-.5-1.2-1.4-1.2s-1.7.8-1.7,2.2.6,2.2,1.7,2.2ZM113.5,118.7c1.1,0,1.5-.6,1.5-1.4h1.3c0,1.8-1.2,2.5-2.8,2.5s-3.1-1.3-3.1-3.3,1.1-3.3,3.1-3.3h0c1.6,0,2.8.8,2.7,2.3h-1.4c0-.7-.5-1.2-1.4-1.2s-1.7.8-1.7,2.2.6,2.2,1.7,2.2ZM120.4,119.8c-2,0-3.1-1.2-3.1-3.3s1.2-3.3,3.1-3.3,3.2,1.2,3.2,3.3-1.2,3.3-3.2,3.3ZM134.2,119.8h-1.4v-4.1c0-.8-.3-1.3-1.1-1.3s-1.4.8-1.5,1.7v3.7h-1.4v-4.1h0c0-.9-.3-1.4-1-1.4-1,0-1.5.9-1.5,1.8v3.6h-1.4v-6.3h1.3v1c.4-.8,1.1-1.1,2-1.1s1.6.5,1.9,1.3c.4-.9,1.2-1.3,2-1.3,1.3,0,2.1.8,2.1,2.3v4.2ZM139,119.8c-1.6,0-1.6-.3-2-1v3.2h-1.4v-8.6h1.3v1c.4-.8,1.3-1.2,2.1-1.2,1.5,0,2.7,1,2.7,3.3s-1.1,3.3-2.7,3.3ZM148.1,119.7h-1.2v-1c-.4.6-1.1,1.1-2.1,1.1s-2.1-.6-2.1-1.9,1.4-2,2.7-2h-.1c0,0,1.3,0,1.3,0v-.4c0-.8-.5-1.1-1.2-1.1s-1.3.2-1.3,1l-1.2-.3c0-1.5,1.6-1.8,2.6-1.8s2.6.6,2.6,2.4v4.1ZM155.6,114.5h-1.2c.3.3.4.6.4,1.1,0,1.5-1.2,2.2-2.7,2.2h0c-.4,0-.8,0-1.1-.3-.2,0-.3.3-.3.5s.3.5.7.5h1.8c1.3,0,2.2.5,2.2,1.7s-1.1,2-3.1,2-3-.6-3-1.6.3-1.1,1-1.2c-.5-.2-.8-.6-.8-1.1s.2-.9.8-1.1c-.5-.4-.8-.9-.8-1.7,0-1.4,1-2.3,2.7-2.3s.9,0,1.2.2h2.3v1.1ZM162,119.7h-1.4v-4.1c0-.8-.3-1.3-1.2-1.3s-1.6.9-1.6,1.8v3.6h-1.4v-6.3h1.3v.9c.4-.8,1.3-1.1,2.1-1.1,1.3,0,2.2.8,2.2,2.3v4.2ZM169.3,117.7c0,1.4-1.3,2.1-2.9,2.1s-3-1.1-3-3.3,1.2-3.3,3-3.3,2.9,1.2,2.9,2.8v.8h-4.5c0,1.3.6,1.9,1.6,1.9s1.5-.3,1.6-1.2l1.3.2h0Z"/>
    <path class="st1" d="M152,114.3c-.8,0-1.2.5-1.2,1.2s.4,1.2,1.2,1.2,1.2-.4,1.2-1.2-.4-1.2-1.2-1.2Z"/>
    <path class="st1" d="M98.6,117.7c0,.6.4.9,1,.9s1.6-.5,1.6-1.3v-.5h-1.2c-.8,0-1.4.3-1.4.9Z"/>
  </g>
</svg>