<?xml version="1.0" encoding="UTF-8"?>
<svg id="Calque_2" data-name="Calque 2" xmlns="http://www.w3.org/2000/svg" xmlns:xlink="http://www.w3.org/1999/xlink" viewBox="0 0 87.61 107.62">
  <defs>
    <style>
      .cls-1 {
        fill: none;
        stroke: #2693cd;
        stroke-miterlimit: 10;
        stroke-width: .3px;
      }

      .cls-2 {
        fill: url(#Dégradé_sans_nom_686);
      }

      .cls-3 {
        fill: #fff;
      }

      .cls-4 {
        fill: #2693cd;
        fill-rule: evenodd;
      }

      .cls-5 {
        fill: #1e96d0;
      }
    </style>
    <linearGradient id="Dégradé_sans_nom_686" data-name="Dégradé sans nom 686" x1="6.98" y1="98.82" x2="43.41" y2="98.82" gradientTransform="translate(-26.97 -75.51) rotate(-13.88)" gradientUnits="userSpaceOnUse">
      <stop offset="0" stop-color="#4c3088"/>
      <stop offset="1" stop-color="#80368a"/>
    </linearGradient>
  </defs>
  <g id="Calque_1-2" data-name="Calque 1">
    <g>
      <g>
        <path class="cls-4" d="M11.44,18.85h74.2v.11s0,.1,0,.1c0,0-12.51.01-18.5.01H11.41v-.07s0-.12,0-.14h.04Z"/>
        <polygon class="cls-4" points="48.7 19.03 49.62 20.15 48.7 20.63 48.7 19.03"/>
        <polygon class="cls-4" points="48.38 19.07 48.38 20.63 47.43 20.13 48.38 19.07"/>
        <path class="cls-4" d="M46.44,20.94c.61.3,1.36.66,1.93,1v2.37c-1.11-.54-2.19-1.11-3.31-1.65l1.04-1.22H11.41v-.23s3,.01,4.28.01h28.74c.6,0,1.79,0,1.79,0l.23-.28Z"/>
        <path class="cls-4" d="M50.74,21.22h34.89v.25l-32.89.02h-1.86s-.15-.27-.15-.27"/>
        <polygon class="cls-4" points="51.76 22.37 48.74 24.2 48.7 22.84 50.89 21.47 51.76 22.37"/>
        <path class="cls-4" d="M44.23,23.4c1.38.75,2.81,1.59,4.14,2.38v2.43l-.33-.18-5.2-2.98.47-.57.56-.57c-10.44,0-21.08,0-31.57,0h-.9s0-.11,0-.11v-.14s5.55.03,8.08.03h24.54l.2-.3Z"/>
        <path class="cls-4" d="M52.97,23.7h32.66v.22s-21.74,0-30.68,0c-.6,0-1.75,0-1.75,0,0,0-.23-.22-.23-.22"/>
        <path class="cls-4" d="M54.13,24.89c-1.83,1.06-3.67,2.26-5.45,3.36v-1.43s.76-.48,1.14-.71c1.12-.69,2.32-1.41,3.45-2.12l.86.9Z"/>
        <path class="cls-4" d="M41.73,26.02c2.2,1.23,4.5,2.51,6.65,3.79v2.37c-.07.11-.17-.05-.21-.07-2.57-1.4-5.22-3.01-7.83-4.42l.5-.65.54-.58H11.41v-.22s5.18,0,7.55,0c6.94,0,13.91,0,21,0h1.6s.19-.22.19-.22Z"/>
        <path class="cls-4" d="M55.31,26.29s.01-.03.04-.04h30.29v.22s-20.12,0-28.42,0c-.56,0-1.6.09-1.8-.07,0,0-.04-.1-.11-.11"/>
        <path class="cls-4" d="M56.5,27.44c-2.63,1.54-5.17,3.17-7.8,4.71v-1.37c2.32-1.41,4.64-2.83,6.97-4.24h.07c.2.2.4.44.61.68.05.06.22.11.14.22"/>
        <path class="cls-4" d="M39.4,28.62c3.01,1.67,6,3.36,8.98,5.07v2.37c-.04.15-.21-.07-.29-.11-3.36-1.84-6.81-3.86-10.2-5.71.29-.43,1.04-1.19,1.04-1.19H11.41s0-.07,0-.07v-.15s2.36,0,3.38,0c7.56,0,16.58,0,24.27,0l.35-.22Z"/>
        <path class="cls-4" d="M85.64,28.95v.1s-4.66,0-6.79,0c-6.83,0-13.9,0-20.74,0l.72.86c-2.55,1.49-5.07,3.08-7.62,4.64-.84.51-1.68,1.01-2.52,1.47v-1.29c.14-.19.38-.28.58-.39,2.67-1.64,8.69-5.28,8.69-5.28l-.17-.22h27.85v.11Z"/>
        <path class="cls-4" d="M37.13,31.07c3.76,2.18,7.51,4.37,11.25,6.58v2.41c-.04.1-.24-.07-.36-.14-4.05-2.4-8.32-4.83-12.36-7.26-.15-.04.12-.19.18-.25.22-.26.53-.6.75-.86H11.41s0-.11,0-.11v-.11s4.31,0,6.29,0h19.11c.12-.05.23-.3.32-.25"/>
        <path class="cls-4" d="M85.64,31.43v.1s-2.14,0-3.05,0c-7.27,0-14.86,0-22.17,0l.2.21.61.67c-4.19,2.51-8.33,5.09-12.52,7.59v-1.29l.69-.48c3.44-2.1,7.4-4.51,10.92-6.65l-.19-.26s16.57-.02,24.83-.02h.69s0,.11,0,.11Z"/>
        <path class="cls-4" d="M34.73,33.55c4.57,2.68,9.12,5.38,13.65,8.08v2.41c-.04.09-.19-.02-.22-.04-.51-.28-1.07-.69-1.62-1.01-4.4-2.54-8.89-5.27-13.29-7.83.29-.47.74-.79,1.08-1.22H11.41s0-.07,0-.07v-.14c7.02,0,14.81,0,21.88,0,.45,0,.93.05,1.37-.07,0-.06.03-.09.07-.11"/>
        <path class="cls-4" d="M62.42,33.73h.04s22.56,0,22.56,0h.61v.23s-3.95-.01-5.75-.01c-5.29,0-10.59.01-16.02.01h-1.2s-.25-.22-.25-.22Z"/>
        <path class="cls-4" d="M63.65,34.91c-4.94,3.04-10.02,6.15-14.95,9.09v-1.29c.24-.26.56-.39.86-.58,2-1.22,4.09-2.49,6.14-3.74,2.38-1.44,4.74-2.91,7.11-4.35.27.29.54.58.83.86"/>
        <path class="cls-4" d="M32.39,36.06c2.7,1.53,5.35,3.16,8.01,4.74,2.66,1.59,5.37,3.09,7.98,4.74v2.37c-.08.11-.19-.04-.25-.07-1.36-.74-2.72-1.63-4.1-2.44-4.34-2.56-8.79-5.19-13.15-7.76l.93-1.07-20.41-.04v-.26c4-.02,11.43.03,20.7,0,.11-.03.21-.27.29-.22"/>
        <path class="cls-4" d="M64.83,36.31s.01-.03.04-.04h20.77v.23c-6.22.03-13.11-.01-19.47-.01-.49,0-1.08.05-1.22-.07,0,0-.04-.1-.11-.11"/>
        <path class="cls-4" d="M65.98,37.39c-2.85,1.79-5.78,3.51-8.66,5.28-2.17,1.33-4.32,2.62-6.5,3.95-.71.43-1.38.91-2.12,1.26.1-.33-.13-.88,0-1.26.06-.17.64-.48.97-.68,5.07-3.1,10.54-6.38,15.49-9.41.28.28.55.58.83.86"/>
        <path class="cls-4" d="M29.91,38.65c6.14,3.66,12.33,7.29,18.47,10.96v2.41c.02.12-.2-.02-.29-.07-1.52-.87-3.11-1.89-4.67-2.8-4.98-2.93-10.03-5.95-15.02-8.87l1.08-1.22H11.41v-.22h9.16s7.01,0,7.01,0h2.15s.18-.18.18-.18Z"/>
        <path class="cls-4" d="M67.28,38.86s.01-.03.04-.04h18.32v.23s-11.67-.01-17.21-.01c-.36,0-.74.06-1.08-.07,0-.06-.03-.09-.07-.11"/>
        <path class="cls-4" d="M67.6,39.11c.27.29.55.57.83.86-6.55,4.02-13.12,8.03-19.72,12v-1.29c.33-.33.76-.51,1.15-.75,5.85-3.59,11.85-7.21,17.75-10.82"/>
        <path class="cls-4" d="M27.54,41.16c6.94,4.13,13.91,8.22,20.84,12.36v2.41c-.04.11-.22-.05-.32-.11-3.59-2.07-7.2-4.31-10.82-6.43-3.74-2.2-7.49-4.44-11.21-6.61l1.04-1.19c-6.69,0-14.79,0-14.79,0h-.88s0-.1,0-.1v-.11h15.92l.22-.22Z"/>
        <path class="cls-4" d="M69.68,41.41s.01-.03.04-.04h15.05c.15,0,.86,0,.86,0v.24s-5.32-.02-7.76-.02h-7.87c.07.32.68.59.72.93-7.34,4.43-14.73,9.01-22.02,13.37v-1.29c.16-.22.42-.3.65-.43,1.51-.91,3.13-1.89,4.67-2.84,5.28-3.24,10.63-6.48,15.92-9.74-.14,0-.14-.15-.25-.18"/>
        <path class="cls-4" d="M25.03,43.71c7.79,4.57,15.62,9.2,23.34,13.84v2.41s-.25-.12-.36-.18c-8.09-4.78-16.28-9.64-24.4-14.41l.23-.31.81-.91h-13.26s0-.07,0-.07v-.14h3.31s7.17,0,10.13,0l.19-.22Z"/>
        <path class="cls-4" d="M85.64,44.04v.1s-6.58,0-6.58,0h-6.65c.09.31.57.55.75.9-6.12,3.68-12.25,7.44-18.36,11.17-1.02.62-2.03,1.26-3.05,1.87-1.01.61-2.03,1.22-3.05,1.8v-1.29c.2-.21.47-.35.72-.5,6.66-4.04,13.31-8.09,20.05-12.18.62-.38,1.44-.89,2.23-1.36.07-.04.31-.15.39-.22.23-.17.24-.2.04-.36,0-.03.01-.03.04-.04h13.47v.11Z"/>
        <path class="cls-4" d="M48.38,61.61v2.41c-.04.1-.16-.02-.18-.04-1.04-.56-2.14-1.26-3.2-1.9-3.36-2.03-6.84-4-10.24-6.04-4.54-2.72-9.09-5.43-13.62-8.08l1.08-1.22h-10.81s0-.07,0-.07v-.15l10.95.03.2-.22c8.6,5.05,17.27,10.18,25.83,15.28"/>
        <path class="cls-4" d="M85.64,46.59v.15c-3.31.02-7.44-.02-10.78,0,.07.31.68.59.72.93-8.99,5.41-17.88,10.91-26.88,16.31.1-.38-.14-.9,0-1.29.05-.15.49-.36.79-.54l5.71-3.48,19.58-11.93c-.1-.04-.12-.14-.22-.18,0-.03.01-.03.04-.04h11.03s0,.07,0,.07Z"/>
        <path class="cls-4" d="M20.13,48.79c9.38,5.55,18.88,11.16,28.24,16.73v2.41c-.04.11-.18-.02-.21-.04-1.12-.63-2.3-1.41-3.45-2.08-8.62-5.06-17.33-10.28-25.98-15.34l1.11-1.26h-8.45s0-.1,0-.1v-.11s8.57.01,8.57.01l.17-.22Z"/>
        <path class="cls-4" d="M85.64,49.1v.13s-8.44-.02-8.44-.02l.75.9c-9.75,5.93-19.47,11.88-29.25,17.79.1-.39-.14-.9,0-1.29.06-.18.55-.38.86-.57,8.91-5.44,17.78-10.89,26.73-16.28l.83-.57-.14-.12-.09-.1h8.74v.16Z"/>
        <path class="cls-4" d="M17.84,51.44c10.21,6,20.36,12.05,30.54,18.07v2.41c-.08.14-.19-.06-.22-.07-2.6-1.44-5.18-3.09-7.76-4.6-8.01-4.68-16.07-9.51-24.07-14.23l1.06-1.16h-5.98v-.13s0-.13,0-.13l6.24-.02.19-.14Z"/>
        <path class="cls-4" d="M79.46,51.62h6.18s0,.11,0,.11v.1s-5.96,0-5.96,0l.65.83c-10.52,6.4-21.13,12.9-31.62,19.22v-1.29c.26-.25.6-.44.93-.65,4.78-2.92,9.62-5.87,14.48-8.8,4.78-2.89,9.59-5.84,14.48-8.8.26-.16.93-.61.93-.61,0,.01-.07-.11-.07-.11"/>
        <path class="cls-4" d="M76.04,77.09c-.02.36.07.84-.04,1.26.85-.13,1.77-.17,2.7-.22v8.91c.77-.07,1.42-.06,2.19,0,.02-2.96-.05-6.01.04-8.91.88.05,1.73.11,2.55.22-.1-.38-.09-.88,0-1.26h-7.44ZM59.34,77.2v9.77c1.32-.07,2.69.09,3.88,0,1.16-.09,2.16-.65,2.62-1.4.49-.8.52-2.16-.11-2.91-.35-.41-.96-.69-1.51-.83-.2-.05-.5,0-.61-.18,1.23-.32,2.31-.86,2.37-2.26.12-2.93-3.7-2.22-6.61-2.3-.04,0-.04.06-.04.11M54.77,77.2v9.84c.77-.06,1.42-.07,2.19,0v-9.95c-.63.1-1.5.11-2.12,0-.05.02-.07.05-.07.11M47.48,77.2v9.77h5.5c-.07-.45-.05-.8,0-1.26-1.04.13-2.14.21-3.3.22v-8.84c-.62.09-1.5.11-2.12,0-.04.02-.07.05-.07.11M26.89,77.2v4.31c0,1.48-.08,2.87.43,3.88.71,1.43,2.88,2.11,4.92,1.8,1.21-.19,2.43-.93,2.84-1.8,1-2.11.27-5.43.5-8.3-.32.08-.93,0-1.19.04v3.59c0,1.25.08,2.54-.14,3.49-.13.57-.51,1.16-.86,1.47-.59.52-1.8.78-2.73.43-1.64-.62-1.58-2.64-1.58-4.89v-4.1c-.58,0-1.53.1-2.16-.04-.04,0-.04.06-.04.11M67.13,87.04c.45-.07.92-.07,1.36,0,.35-1.01.65-2.08,1.08-3.02h3.34c.35.99.69,1.99,1.01,3.02.86-.09,1.71,0,2.51-.04-1.29-3.09-2.54-6.33-3.81-9.41-.08-.2-.12-.45-.29-.61-.34.05-.7.04-1.04,0-1.43,3.31-2.79,6.69-4.17,10.06M36.95,87.04c.45-.07.92-.08,1.36,0,.35-1.02.66-2.07,1.08-3.02h3.34c.35.99.7,1.99,1.01,3.02.87-.09,1.71,0,2.51-.04-1.27-3.13-2.58-6.32-3.81-9.41-.08-.2-.12-.45-.29-.61-.34.05-.7.04-1.04,0-1.43,3.32-2.79,6.69-4.17,10.06M25.17,81.47c-.21-2.92-2.52-4.85-5.82-4.63-3.15.2-5.46,2.27-5.25,5.78.18,2.85,2.12,4.55,5.35,4.63,1.29.88,2.55,1.79,3.77,2.73.56-.39,1.28-.61,2.01-.83-1.27-.69-2.53-1.39-3.7-2.19,2.19-.75,3.84-2.63,3.63-5.5M11.4,54.64h3.67c11.14,6.68,22.31,13.33,33.45,20.01,10.99-6.43,21.79-12.93,32.84-19.4l.95-.61h3.32v35.83H11.41v-35.72s-.01-.1-.01-.1Z"/>
        <path class="cls-4" d="M19.24,77.77c2.62-.3,3.67,1.98,3.48,4.46-.11,1.53-.59,2.94-1.54,3.63-1.16.84-2.94.6-3.81-.47-.57-.7-.92-1.99-.86-3.38.05-1.04.23-1.93.47-2.48.37-.87,1.08-1.62,2.26-1.76"/>
        <path class="cls-4" d="M61.53,81.37c.02-.98-.03-2.03,0-3.05,0-.1-.06-.3.07-.36.44-.08,1.16-.05,1.47.11.88.44,1.01,2.09.21,2.88-.43.43-1.02.44-1.76.43"/>
        <path class="cls-4" d="M41.08,79.79c.46,1.07.84,2.22,1.29,3.3-.8.08-1.76.01-2.62.04.44-1.12.91-2.2,1.33-3.34"/>
        <path class="cls-4" d="M71.27,79.82c.48,1.04.83,2.21,1.29,3.27-.8.08-1.76.01-2.62.04.44-1.11.89-2.2,1.33-3.31"/>
        <path class="cls-4" d="M61.53,86.15c.02-1.29-.05-2.68.04-3.92.6-.11,1.52.09,1.87.43.45.43.57,1.23.5,1.83-.12,1.12-1.1,1.83-2.41,1.65"/>
        <path class="cls-1" d="M85.83,105.84h-21.79v-13.79h21.79v13.79ZM62.51,105.84H11.5v-13.79h51.01v13.79Z"/>
        <path class="cls-5" d="M66.97,95.86l-1.03-.03c.03.7.05,1.11.05,1.23v.84s0,3.28,0,3.28l-.06,1.2c.09,0,.23,0,.4,0,.18,0,.31,0,.39,0,.1,0,.24,0,.42,0,.19,0,.33,0,.42,0,.27,0,.67,0,1.18.03h.66c0-.12-.01-.31-.01-.56-.31.05-.6.08-.87.08-.57.03-1.14.04-1.72.04-.01-.19-.02-.47-.02-.84v-1.96h1.48c.21.01.5.04.86.08-.03-.18-.04-.28-.04-.29,0,0,.02-.1.04-.28-.1,0-.24.01-.42.02-.19,0-.33.02-.43.02l-.51.03h-.97v-.97l.04-1.44h.71l.96.03c.14,0,.3.02.46.03.17.02.29.02.39.03-.02-.06-.03-.16-.03-.29,0-.04,0-.09.01-.15,0-.06.02-.11.02-.13-.44.02-.77.03-.99.03h-1.38ZM71.22,101.13c-.01.28-.03.69-.07,1.26.07-.02.18-.03.33-.03s.26.01.33.03l-.06-.91-.02-1.14v-2.19l.02-.9,2.67,2.84,1.57,1.73c.15.17.34.4.59.68h.13l-.03-1.08.03-2.14.09-2.27.04-.95s0-.06.01-.11c0-.05.01-.09.02-.11-.12.02-.2.03-.24.03-.1,0-.24,0-.42-.03l.02.08.03.76v3.07c0,.47,0,.82-.03,1.05l-.06-.06-4.71-5.04h-.16v3.2l-.06,2.23Z"/>
        <path class="cls-5" d="M79.83,96.22c.17-.01.43-.02.79-.02.28,0,.48,0,.6.02.32.05.56.18.74.36.21.21.31.49.31.85s-.11.66-.34.9c-.22.24-.52.4-.89.48-.25.04-.52.06-.79.06-.05,0-.13,0-.23,0-.1,0-.17,0-.22,0l.03-2.63ZM78.98,95.84v.24l.06,1.86-.04,3.36c0,.18-.02.38-.03.57-.01.19-.02.37-.02.54.2-.02.35-.03.46-.03s.25,0,.43.03l-.03-1.99v-1.18h.36l.76.9,1.14,1.47c.1.13.21.29.33.46.13.17.21.29.25.34.07,0,.16-.01.28-.02.12-.01.2-.02.26-.02.06,0,.16,0,.28.02.12.01.22.02.29.02l-.16-.21-.46-.54-1.97-2.5c.55-.1,1.02-.29,1.39-.59.38-.3.56-.71.56-1.23,0-.26-.06-.51-.19-.73-.16-.32-.4-.52-.74-.61-.33-.09-.73-.14-1.19-.14l-1.27.03-.75-.03Z"/>
        <path class="cls-5" d="M14.56,93.99l-.66-.02c.02.45.03.71.03.79v.54s0,2.1,0,2.1l-.04.77c.06,0,.15,0,.26,0,.11,0,.2,0,.25,0,.06,0,.15,0,.27,0,.12,0,.21,0,.27,0,.17,0,.42,0,.76.02h.42c0-.07,0-.19,0-.36-.2.03-.38.05-.56.05-.37.02-.73.03-1.1.03,0-.12,0-.3,0-.54v-1.26h.95c.14.01.32.02.55.05-.02-.12-.03-.18-.03-.18,0,0,.01-.07.03-.18-.06,0-.15,0-.27.01-.12,0-.21.01-.28.01l-.33.02h-.62v-.62l.03-.92h.45l.61.02c.09,0,.19.01.3.02.11.01.19.02.25.02-.01-.04-.02-.1-.02-.18,0-.03,0-.06.01-.1,0-.04,0-.07,0-.09-.28.01-.49.02-.63.02h-.88ZM18.2,93.99l-.66-.02c.02.45.03.71.03.79v.54s0,2.1,0,2.1l-.04.77h.56v-1.58s0-.49,0-.49h.95c.14.01.32.02.55.05-.02-.12-.03-.18-.03-.18,0,0,0-.07.03-.18-.06,0-.15,0-.27.01-.12,0-.21.01-.28.01l-.33.02h-.62v-.62l.03-.92h.45l.61.02c.09,0,.19.01.3.02.11.01.19.02.25.02-.01-.04-.02-.1-.02-.18,0-.03,0-.06,0-.1s.01-.07.01-.09c-.28.01-.49.02-.63.02h-.88ZM21.84,93.99l-.66-.02c.02.45.03.71.03.79v.54s0,2.1,0,2.1l-.04.77h.56v-1.58s0-.49,0-.49h.95c.14.01.32.02.55.05-.02-.12-.03-.18-.03-.18,0,0,0-.07.03-.18-.06,0-.15,0-.27.01-.12,0-.21.01-.28.01l-.33.02h-.62v-.62l.03-.92h.45l.61.02c.09,0,.19.01.3.02.1.01.19.02.25.02-.01-.04-.02-.1-.02-.18,0-.03,0-.06.01-.1,0-.04,0-.07,0-.09-.28.01-.49.02-.63.02h-.88ZM25.45,93.99c-.06.02-.16.04-.3.04-.01,0-.11,0-.28-.03l.03,1.3v.97c0,.06,0,.16,0,.29,0,.13,0,.23-.01.29l-.06,1.32c.14-.01.25-.02.32-.02s.17,0,.3.02l-.06-1.3s0-.1,0-.19c0-.08,0-.15,0-.19,0-.26,0-.64.02-1.15l.06-1.36ZM30.29,94.66c.04-.19.08-.35.13-.47-.42-.19-.86-.28-1.31-.28-.65,0-1.19.18-1.61.54-.22.18-.39.43-.52.72-.13.3-.19.6-.19.89,0,.45.09.84.26,1.17.17.33.42.58.75.76.33.18.71.27,1.16.27.56,0,1.01-.12,1.35-.35l.06-.37s-.07.02-.1.05c-.4.3-.81.44-1.23.44-.24,0-.47-.05-.7-.15-.22-.1-.4-.25-.55-.43-.14-.17-.24-.36-.31-.59-.07-.32-.11-.57-.11-.77,0-.35.07-.68.19-.98.13-.3.32-.54.58-.71.26-.18.57-.26.93-.26.42,0,.79.15,1.1.46.02,0,.03.02.04.03.01.01.02.02.03.04h.05ZM33.24,93.9l-1.92,4.27c.1-.01.18-.02.23-.02.1,0,.17,0,.21.02.1-.33.3-.87.6-1.64l.83-.02.74.02.3.73.28.73.05.18c.07-.01.18-.02.34-.02.06,0,.17,0,.31.02l-.11-.22-1.74-4.05h-.12ZM33.22,96.27h-.74l.67-1.57.68,1.57h-.61ZM39.63,94.66c.04-.19.08-.35.13-.47-.42-.19-.86-.28-1.31-.28-.65,0-1.19.18-1.61.54-.22.18-.39.43-.52.72-.13.3-.19.6-.19.89,0,.45.08.84.26,1.17.17.33.42.58.75.76.33.18.71.27,1.16.27.56,0,1.01-.12,1.35-.35l.05-.37s-.06.02-.1.05c-.4.3-.81.44-1.23.44-.24,0-.48-.05-.7-.15-.22-.1-.4-.25-.55-.43-.14-.17-.24-.36-.31-.59-.07-.32-.11-.57-.11-.77,0-.35.06-.68.19-.98.13-.3.32-.54.58-.71.26-.18.57-.26.93-.26.42,0,.78.15,1.1.46.02,0,.03.02.04.03.01.01.02.02.03.04h.05ZM41.73,93.99c-.06.02-.16.04-.3.04-.01,0-.11,0-.28-.03l.03,1.3v.97c0,.06,0,.16,0,.29,0,.13,0,.23-.01.29l-.06,1.32c.14-.01.25-.02.32-.02s.17,0,.3.02l-.06-1.3s0-.1,0-.19c0-.08,0-.15,0-.19,0-.26,0-.64.02-1.15l.06-1.36ZM45.95,94.35s.1,0,.17.02c-.01-.09-.02-.15-.02-.19,0-.05,0-.11.02-.19l-.76.03-.76.02h-.81c-.09-.02-.23-.02-.41-.03-.19,0-.33-.02-.42-.02,0,.16,0,.28,0,.36l.59-.04c.09,0,.21-.01.38-.02.17,0,.3,0,.38-.01v.63l-.03,2.46-.03.64c0,.07,0,.12,0,.15.1-.02.2-.03.32-.03.04,0,.09,0,.15.01.06,0,.11.01.14.02v-.04s-.05-.61-.05-.61v-2.44l.02-.64c0-.06,0-.11,0-.14h.47l.65.06ZM48.03,93.99l-.66-.02c.02.45.03.71.03.79v.54s0,2.1,0,2.1l-.04.77c.06,0,.14,0,.26,0,.11,0,.2,0,.25,0,.06,0,.15,0,.27,0,.12,0,.21,0,.27,0,.17,0,.43,0,.76.02h.42c0-.07,0-.19,0-.36-.2.03-.38.05-.56.05-.36.02-.73.03-1.1.03,0-.12,0-.3,0-.54v-1.26h.95c.14.01.32.02.55.05-.02-.12-.03-.18-.03-.18,0,0,0-.07.03-.18-.06,0-.15,0-.27.01-.12,0-.21.01-.28.01l-.33.02h-.62v-.62l.03-.92h.45l.61.02c.09,0,.19.01.3.02.1.01.19.02.25.02-.01-.04-.02-.1-.02-.18,0-.03,0-.06.01-.1,0-.04,0-.07,0-.09-.28.01-.49.02-.63.02h-.88Z"/>
        <path class="cls-5" d="M14.56,99.69l-.66-.02c.02.45.03.71.03.79v.54s0,2.1,0,2.1l-.04.77c.06,0,.15,0,.26,0,.11,0,.2,0,.25,0,.06,0,.15,0,.27,0,.12,0,.21,0,.27,0,.17,0,.43,0,.76.02h.42c0-.07,0-.19,0-.36-.2.03-.38.05-.56.05-.36.02-.73.03-1.1.03,0-.12-.01-.3-.01-.54v-1.26h.95c.14.01.32.02.55.05-.02-.12-.03-.18-.03-.18,0,0,0-.07.03-.18-.06,0-.15,0-.27.01-.12,0-.21.01-.28.01l-.33.02h-.62v-.62l.03-.92h.45l.61.02c.09,0,.19.01.3.02.11.01.19.02.25.02-.01-.04-.02-.1-.02-.18,0-.02,0-.06,0-.1,0-.04.01-.07.01-.09-.28.01-.49.02-.63.02h-.88ZM17.62,103.06c0,.18-.02.45-.05.81.04-.01.11-.02.21-.02s.17,0,.21.02l-.04-.59v-.73s-.01-.49-.01-.49v-1.49s1.71,1.82,1.71,1.82l1.01,1.11c.09.11.22.25.37.43h.08l-.02-.69.02-1.37.06-1.45.03-.61s0-.04,0-.07c0-.03,0-.06.01-.07-.07.01-.13.02-.15.02-.06,0-.15,0-.27-.02v.05s.03.49.03.49v1.96c0,.3,0,.52-.02.67l-.04-.04-3.02-3.23h-.1v2.05l-.04,1.43ZM23.55,99.69l-.66-.02c.02.45.03.71.03.79v.54s0,2.1,0,2.1l-.04.77c.06,0,.15,0,.26,0,.11,0,.2,0,.25,0,.06,0,.15,0,.27,0,.12,0,.21,0,.27,0,.17,0,.42,0,.76.02h.42c0-.07-.01-.19-.01-.36-.2.03-.38.05-.56.05-.37.02-.73.03-1.1.03,0-.12,0-.3,0-.54v-1.26h.95c.14.01.32.02.55.05-.02-.12-.03-.18-.03-.18,0,0,0-.07.03-.18-.06,0-.15,0-.27.01-.12,0-.21.01-.28.01l-.33.02h-.62v-.62l.03-.92h.45l.61.02c.09,0,.19.01.3.02.1.01.19.02.25.02-.01-.04-.02-.1-.02-.18,0-.02,0-.06.01-.1,0-.04,0-.07,0-.09-.28.01-.49.02-.63.02h-.88ZM27.1,99.91c.11,0,.28,0,.51,0,.18,0,.31,0,.38,0,.2.04.36.11.47.23.13.13.2.32.2.54s-.07.42-.21.58c-.14.15-.33.26-.57.31-.16.03-.33.04-.51.04-.03,0-.08,0-.14,0-.06,0-.11,0-.14,0l.02-1.69ZM26.56,99.67v.15l.04,1.19-.03,2.15c0,.12-.01.24-.02.36,0,.12-.01.24-.01.35.13-.01.23-.02.3-.02s.16,0,.28.02l-.02-1.27v-.76h.23l.49.57.73.94c.06.08.13.18.21.29.08.11.13.19.16.22.04,0,.1,0,.18-.02.07,0,.13-.01.17-.01.04,0,.1,0,.18.01.08,0,.14.01.18.02l-.11-.13-.3-.35-1.26-1.6c.35-.06.65-.19.89-.38.24-.19.36-.46.36-.79,0-.17-.04-.32-.12-.47-.1-.2-.26-.33-.47-.39-.21-.06-.47-.09-.76-.09l-.81.02-.48-.02ZM34.41,100.43s.04-.12.06-.22c.03-.1.06-.19.08-.26,0,0-.02-.01-.04-.02-.02,0-.03-.02-.04-.03-.24-.11-.48-.18-.71-.23-.23-.05-.49-.07-.77-.07-.46,0-.87.08-1.23.25-.36.17-.64.42-.85.75-.21.33-.31.73-.31,1.19s.07.82.22,1.09c.22.38.5.65.85.8.37.18.77.27,1.21.27.57,0,1.12-.09,1.67-.28v-.94l.02-.61v-.18s-.13.04-.27.04c-.05,0-.14,0-.3-.02.01.12.02.31.02.56v1c-.26.13-.59.2-.98.2-.57,0-1.01-.17-1.33-.5-.17-.18-.29-.4-.38-.66-.09-.26-.13-.53-.13-.8,0-.56.15-1.02.45-1.36.17-.18.36-.33.6-.43.23-.1.48-.15.73-.15s.52.05.76.16c.24.11.45.26.62.45h.07ZM36.86,99.69l-.66-.02c.02.45.03.71.03.79v.54s0,2.1,0,2.1l-.04.77c.06,0,.14,0,.26,0,.11,0,.2,0,.25,0,.06,0,.15,0,.27,0,.12,0,.21,0,.27,0,.17,0,.43,0,.76.02h.42c0-.07,0-.19,0-.36-.2.03-.38.05-.56.05-.36.02-.73.03-1.1.03,0-.12,0-.3,0-.54v-1.26h.95c.14.01.32.02.55.05-.02-.12-.03-.18-.03-.18,0,0,0-.07.03-.18-.06,0-.15,0-.27.01-.12,0-.21.01-.28.01l-.33.02h-.62v-.62l.03-.92h.45l.61.02c.09,0,.19.01.3.02.11.01.19.02.25.02-.01-.04-.02-.1-.02-.18,0-.02,0-.06,0-.1s0-.07,0-.09c-.28.01-.49.02-.63.02h-.88ZM42.41,100.04s.1,0,.17.02c-.01-.09-.02-.15-.02-.19,0-.05,0-.11.02-.19l-.76.03-.76.02h-.8c-.09-.02-.23-.02-.41-.03-.19,0-.33-.02-.42-.02,0,.16,0,.28,0,.36l.59-.04c.08,0,.21-.01.38-.02.17,0,.3,0,.38-.01v.63l-.03,2.46-.03.64c0,.07,0,.12,0,.15.1-.02.2-.03.32-.03.04,0,.08,0,.15.01.06,0,.11.01.14.02v-.04s-.05-.61-.05-.61v-2.44l.02-.64c0-.06,0-.11.01-.14h.47l.65.06ZM44.45,99.68c-.06.02-.16.04-.3.04-.01,0-.11,0-.28-.03l.03,1.3v.97c0,.06,0,.16,0,.29,0,.13,0,.23-.01.29l-.06,1.32c.14-.01.25-.02.32-.02s.17,0,.3.02l-.06-1.3s0-.1,0-.19c0-.08,0-.15,0-.19,0-.26,0-.64.02-1.15l.06-1.36ZM49.31,104.27c-.09-.07-.26-.21-.51-.41.48-.12.87-.38,1.16-.77.3-.4.45-.87.45-1.42,0-.44-.1-.82-.31-1.14-.2-.32-.48-.56-.84-.72-.36-.16-.75-.25-1.19-.25s-.8.09-1.14.28c-.35.19-.62.45-.82.79-.2.34-.3.72-.3,1.14,0,.46.1.86.3,1.19.2.33.47.58.83.75.36.17.76.26,1.21.26.03-.01.08-.02.14-.02.49.36.94.74,1.35,1.16.01,0,.03.02.04.05.07-.05.23-.14.48-.26l-.52-.38-.34-.25ZM49.73,100.99c.05.21.08.47.08.75,0,.19-.02.38-.06.55-.05.28-.15.53-.31.75-.15.22-.35.4-.58.53-.24.13-.49.2-.77.2-.5,0-.91-.19-1.24-.56-.29-.33-.44-.78-.44-1.35,0-.38.06-.73.19-1.04.12-.32.32-.57.58-.76.26-.19.58-.28.97-.28.25,0,.49.05.71.15.22.1.41.25.56.44.15.19.25.4.3.61M51.83,102.14c0,.31.03.58.08.81.05.23.17.42.34.57.12.1.21.17.28.2.29.15.64.23,1.06.23.55,0,.98-.16,1.3-.48.15-.14.27-.34.34-.6.06-.16.09-.41.11-.75l.06-1.7c0-.08.01-.21.02-.37.01-.16.02-.29.02-.37-.04.01-.1.02-.18.02-.12-.01-.2-.02-.25-.02l.02.56c.01.29.02.51.02.66,0,.08,0,.2,0,.36,0,.16,0,.27,0,.35,0,.33-.02.6-.04.8-.02.2-.06.39-.13.55-.09.21-.24.39-.43.52-.08.06-.2.11-.35.14-.15.04-.28.06-.39.06-.35,0-.64-.08-.88-.25-.23-.16-.38-.42-.44-.76-.03-.17-.05-.38-.05-.63,0-.05,0-.14,0-.24,0-.11,0-.19,0-.24l.03-1.3.02-.41c0-.07,0-.12,0-.15-.02,0-.05,0-.08,0-.03,0-.07,0-.1.01-.04,0-.06,0-.08,0-.02,0-.05,0-.1,0-.04,0-.09,0-.13-.01-.04,0-.08,0-.1,0l.02.16.02.96v.66l-.03.68ZM57.79,99.69l-.66-.02c.02.45.03.71.03.79v.54s0,2.1,0,2.1l-.04.77c.06,0,.15,0,.26,0,.11,0,.2,0,.25,0,.06,0,.15,0,.27,0,.12,0,.21,0,.27,0,.17,0,.42,0,.76.02h.42c0-.07,0-.19,0-.36-.2.03-.38.05-.56.05-.36.02-.73.03-1.1.03,0-.12,0-.3,0-.54v-1.26h.95c.14.01.32.02.55.05-.02-.12-.03-.18-.03-.18,0,0,0-.07.03-.18-.06,0-.15,0-.27.01-.12,0-.21.01-.28.01l-.33.02h-.62v-.62l.03-.92h.45l.61.02c.09,0,.19.01.3.02.11.01.19.02.25.02-.01-.04-.02-.1-.02-.18,0-.02,0-.06,0-.1,0-.04.01-.07.01-.09-.28.01-.49.02-.63.02h-.88Z"/>
      </g>
      <g>
        <path class="cls-3" d="M42.08,16.22c-.03-.13-.08-.33-.11-.52-.03-.25-.08-.47-.12-.63-.3-1.23-1.31-1.88-2.33-1.95.34-.31.64-.77.77-1.46.09-.46.02-.87-.05-1.17-.03-.1-.11-.37-.18-.63-.05-.16-.1-.32-.11-.37-.02-.09-.06-.28-.09-.46-.05-.25-.09-.49-.11-.57-.24-.97-.78-1.62-1.52-1.9.64-.62.88-1.52.63-2.52-.02-.09-.09-.32-.15-.53-.04-.13-.07-.24-.08-.28-.03-.11-.07-.36-.11-.61-.08-.43-.11-.61-.14-.75-.33-1.36-1.6-2.13-2.94-1.8-.07.02-.26.07-.45.12-.13.04-.27.08-.32.09l-.51.13c-.09.02-.35.1-.59.18-.14.04-.28.09-.32.1-.15.04-.59.13-1.01.22-.45.1-.88.19-1.03.23l-1.24.31c-.11.02-.36.06-.6.1l-.14.03c-.16.04-.32.07-.44.09-.12.02-.22.04-.29.06-1.35.33-1.92,1.05-2.13,1.83-.59-.72-1.55-1.07-2.53-.83-.14.03-.54.12-.92.2-.41.09-.81.18-.95.21-.85.21-3.75,1.02-5.35,2.57-.75.71-1.58,1.91-1.97,2.84-.08.19-.19.55-.3.99-.79-1.11-2.75-3.66-7.34-2.52-.27.07-.94.25-1.64.45-.57.16-1.22.34-1.41.39-.14.03-.5.12-.84.19-.33.08-.65.15-.76.18-1.75.43-2.65,1.86-2.24,3.54.03.12.12.44.22.76.08.26.15.53.18.63.04.18.16.68.26,1.18.11.51.22,1.01.27,1.18s.18.67.31,1.15c.12.43.23.85.27.99.06.24.23,1.01.38,1.7.16.75.31,1.39.37,1.64.07.3.28,1.02.49,1.78.18.62.38,1.33.43,1.53.07.3.21.92.44,2.15.02.21.06.37.08.47.34,1.37,1.66,2.19,3.01,1.86.16-.04.42-.12.98-.3.3-.09.59-.19.69-.22.23-.06.82-.18.96-.2l.12-.02c.07,0,.19-.02.34-.06.67-.16,1.27-.65,1.56-1.32.61.46,1.31.59,2.14.38.14-.03.26-.07.38-.11.03,0,.06-.02.08-.03l.13-.04c.21-.07,1.07-.31,1.38-.39.09-.02.33-.07.56-.12.3-.06.6-.12.71-.15,1.25-.31,2-1.49,1.7-2.69-.07-.28-.17-.52-.34-.79.04.03.07.06.11.09,1.05.9,1.79,1.47,3.68,1.69.79.1,1.85.19,2.99-.06h.05c.1-.03.74-.18,1.15-.27.21-.05.35-.08.36-.08,2.64-.65,3.51-1.31,3.95-1.77.17-.19.31-.37.42-.56.62.48,1.46.68,2.31.47.08-.02.29-.08.51-.14.17-.05.34-.1.4-.11.11-.03.44-.12.78-.2.31-.08.61-.16.72-.19.06-.01.21-.05.36-.08.2-.04.4-.09.47-.1.08-.02.31-.08.52-.14.15-.04.29-.08.35-.1.23-.06.46-.1.69-.15.27-.05.55-.11.85-.18.09-.02.3-.08.5-.14.13-.04.26-.08.29-.08.07-.01.2-.04.34-.06.23-.04.46-.08.54-.1,1.21-.3,2.27-1.53,1.86-3.21-.02-.1-.09-.35-.16-.6-.05-.19-.1-.37-.12-.44"/>
        <path class="cls-2" d="M7.42,16.01c-.07-.27-.31-1.46-.36-1.68-.1-.39-.28-1.24.66-1.47.82-.2,1.47.54,1.69,1.43.06.24.24,1.2.25,1.43,0,.54-.24,1.01-.94,1.18s-1.17-.38-1.3-.89M4.34,9.48c-.27.07-1.38.32-1.6.37-.77.19-1.22.66-1.01,1.51.05.22.34,1.17.39,1.39.09.36.45,2.02.53,2.36s.5,1.83.58,2.14c.13.51.63,2.87.75,3.33.13.53.8,2.83.92,3.31.1.41.26,1.14.48,2.37,0,.08.02.18.04.25.11.44.49.75.98.63.24-.06,1.45-.46,1.67-.52.24-.06.92-.2,1.15-.23.1-.02.18-.02.27-.04.14-.04.56-.24.43-.75-.04-.15-.26-.84-.29-.96-.04-.17-.19-.85-.22-1-.05-.22-.33-1.15-.38-1.32-.04-.15-.14-.56.2-.64.24-.06.68.47,1.07.99.11.15.23.3.34.45.3.39.67.73.96,1.1.11.15.62.85.73.98.2.21.39.32.85.2.17-.04.31-.1.45-.14.28-.1,1.2-.35,1.51-.42.19-.05,1.08-.22,1.27-.26.36-.09.55-.37.48-.66-.05-.22-.14-.38-1.13-1.47-.14-.17-.29-.34-.43-.51-.12-.18-.25-.38-.4-.57-.23-.33-1.59-1.66-1.68-2.02-.05-.19.05-.32.24-.6.52-.69.7-1.51.76-1.7.3-1.28.19-2.33-.08-3.42-.07-.27-.59-2.27-1.13-3.03-.95-1.36-2.31-2.79-5.65-1.97-.48.12-2.62.72-3.05.83M17.76,6.94c-.62.59-1.3,1.6-1.57,2.26-.18.43-.6,2.15-.55,3.17.02.38.08.75.13,1.15.02.2.03.43.05.63.03.45.11.95.26,1.58.3,1.23,1.01,3.04,1.33,3.6.34.64.89,1.32,1.38,1.74.2.18.39.34.59.5.88.76,1.33,1.13,2.81,1.31.82.1,1.62.14,2.43-.04.12-.03,1.48-.34,1.51-.35.68-.17,2.51-.65,3.12-1.28.41-.43.38-.74.26-1.22l-.17-.68c-.07-.29-.38-1.63-.44-1.89s-.42-1.51-.49-1.78c-.06-.24-.29-1.37-.34-1.58-.05-.19-.3-1.11-.32-1.31-.05-.22-.26-1.17-.31-1.36-.08-.21-.19-.65-.83-.77-.16-.04-.34-.02-.48.02-.1.02-.57.19-.66.24-.27.07-1.18.32-1.49.39-.19.05-1.1.22-1.29.27-.58.14-.94.57-.87,1.06.02.07.54,2.49.57,2.61.12.48.67.53.77.5.07-.02.35-.16.42-.18.22-.05.82,0,.98.63.04.14.14.79.18.93.02.1.19.57.22.69.14.56-.49.71-.73.77-1.18.29-1.69-.4-2.09-1-.23-.3-.48-.6-.69-.91-.24-.35-.29-.57-.35-.81-.05-.19-.28-1.03-.32-1.2-.19-.75-.21-1.18-.21-1.69-.02-.2-.02-.4-.05-.6-.08-.65-.08-.73,0-1.15.19-.79.63-1.59,2.33-2.01.24-.06.47-.09.71-.15.27-.07.56-.14.85-.08.16.01.33.07.46.09.13.02.26.01.38-.02.31-.08.7-.48.74-.85.01-.16-.07-.47-.15-.83l-.42-1.69c-.03-.12-.11-.56-.14-.66-.13-.51-.56-.71-1-.6-.29.07-1.61.35-1.87.41-.56.14-3.25.86-4.6,2.16M28.12,5.53c.07.29.41,1.57.48,1.83.21.85.38,1.73.59,2.58.09.36.54,2,.62,2.31.08.34.42,1.8.49,2.09.04.17.26.94.3,1.11s.17.99.21,1.15c.05.22.34,1.28.39,1.49.1.41.25,1.02.33,1.54.02.1.02.2.05.3.13.51.64.84,1.22.7.15-.04.77-.22.91-.25.22-.05,1.28-.34,1.49-.39.12-.03.71-.15.83-.18.14-.04.74-.21.87-.24.51-.13,1.03-.2,1.54-.33.15-.04.69-.2.82-.23s.74-.13.86-.16c.29-.07.83-.38.63-1.18-.04-.17-.25-.89-.28-1.03-.04-.17-.11-.44-.15-.71-.01-.15-.05-.3-.08-.44-.17-.68-.8-.73-1.11-.65-.17.04-.31.1-.47.17-.16.07-.36.11-.55.16-.17.04-.34.08-.51.1-.22.03-.48.04-.73.08-.31.08-.7.17-.99.17-.65-.02-.75-.46-.87-.94-.17-.68-.26-1.04-.19-1.29.13-.5.64-.64,1.02-.74.29-.07,1.72-.32,1.98-.39.36-.09.72-.18.83-.79.02-.11.02-.24-.04-.45-.04-.17-.26-.86-.3-1-.04-.17-.17-.88-.2-1.03-.17-.68-.46-.91-1.18-.73-.12.03-.67.19-.77.22-.17.04-.86.16-1,.2-.12.03-.62.2-.71.23-.85.21-1.08-.73-1.14-.98-.17-.68-.19-.75-.12-.92.09-.25.31-.51,1.23-.74.17-.04.89-.14,1.03-.18.12-.03.64-.21.74-.23.07-.02.34-.06.41-.1.8-.28.72-.84.63-1.18-.04-.14-.2-.72-.23-.82-.05-.22-.21-1.15-.26-1.35-.11-.46-.48-.68-.91-.57-.12.03-.65.19-.77.22l-.51.13c-.15.04-.79.25-.91.28-.31.08-1.75.38-2.04.45l-1.26.31c-.1.02-.42.08-.71.13-.31.08-.61.13-.73.15-1.23.3-1.07.98-.77,2.17"/>
      </g>
    </g>
  </g>
</svg>