<?xml version="1.0" encoding="UTF-8"?>
<svg id="Calque_2" data-name="Calque 2" xmlns="http://www.w3.org/2000/svg" xmlns:xlink="http://www.w3.org/1999/xlink" viewBox="0 0 100.42 54.12">
  <defs>
    <style>
      .cls-1 {
        fill: url(#Dégradé_sans_nom_5);
      }

      .cls-2 {
        fill: #fff;
      }
    </style>
    <linearGradient id="Dégradé_sans_nom_5" data-name="Dégradé sans nom 5" x1="-57.93" y1="168.71" x2="34.03" y2="168.71" gradientTransform="translate(62.16 -141.65)" gradientUnits="userSpaceOnUse">
      <stop offset="0" stop-color="#4c3088"/>
      <stop offset="1" stop-color="#80368a"/>
    </linearGradient>
  </defs>
  <g id="Calque_1-2" data-name="Calque 1">
    <g>
      <path class="cls-2" d="M100.29,44.23c0-.35,0-.86.04-1.33.09-.64.09-1.2.09-1.62,0-3.21-2.08-5.4-4.54-6.18,1.02-.56,2.04-1.5,2.76-3.12.51-1.08.58-2.12.58-2.91,0-.27-.04-.97-.07-1.65-.02-.43-.05-.84-.05-.98,0-.22.03-.71.06-1.19.04-.64.07-1.26.07-1.47,0-2.51-.93-4.45-2.57-5.59,1.93-1.14,3.08-3.2,3.08-5.8,0-.23-.02-.85-.04-1.4-.01-.33-.02-.64-.02-.73,0-.28.05-.93.09-1.56.07-1.09.1-1.57.1-1.92,0-3.52-2.63-6.18-6.12-6.18-.18,0-.67.02-1.17.03-.35.01-.7.03-.85.03h-1.32c-.24,0-.91.04-1.55.08-.37.02-.73.05-.84.05-.4,0-1.52-.03-2.61-.06-1.15-.03-2.28-.06-2.67-.06h-3.22c-.28,0-.92-.06-1.52-.11h-.35c-.43-.01-.83-.04-1.15-.05-.32-.02-.57-.03-.74-.03-3.5,0-5.34,1.41-6.33,3.19-1-2.12-3.15-3.57-5.69-3.57-.37,0-1.39-.03-2.38-.06C60.29.03,59.25,0,58.89,0c-2.21,0-9.8.22-14.67,3.07-2.28,1.29-5.02,3.71-6.54,5.77-.31.42-.79,1.23-1.33,2.23C35.1,7.87,31.83.44,19.89.44c-.7,0-2.45.05-4.29.1-1.5.04-3.2.09-3.7.09-.35,0-1.29-.02-2.18-.03-.87-.02-1.69-.03-1.97-.03-4.56,0-7.63,2.94-7.63,7.31,0,.31.03,1.15.07,2,.03.69.06,1.39.06,1.65,0,.46-.03,1.76-.06,3.04-.03,1.32-.06,2.61-.06,3.06s.03,1.75.07,3c.03,1.12.06,2.21.06,2.6,0,.62-.05,2.62-.1,4.39-.05,1.93-.09,3.59-.09,4.23,0,.78.06,2.67.13,4.66.06,1.63.12,3.47.12,4.02,0,.79-.04,2.38-.23,5.54C0,46.57,0,47,0,47.25c0,3.57,2.74,6.37,6.24,6.37.42,0,1.11-.04,2.58-.14.78-.05,1.55-.11,1.82-.11.6,0,2.13.06,2.48.1l.31.03c.19.03.49.06.86.06,1.74,0,3.51-.82,4.61-2.3,1.21,1.5,2.85,2.24,5.01,2.24.35,0,.68-.02.99-.05.08,0,.15-.01.2-.02h.34c.57-.06,2.8-.12,3.61-.12.24,0,.84.03,1.45.06.77.03,1.55.07,1.83.07,3.25,0,5.8-2.44,5.8-5.55,0-.74-.11-1.39-.37-2.13.07.09.14.19.21.29,2.02,2.84,3.51,4.68,7.99,6.36,1.89.73,4.43,1.58,7.37,1.67h.12c.25,0,1.92.03,2.97.05.53,0,.92.02.94.02,6.87,0,9.39-1.09,10.74-1.94.54-.35.99-.73,1.37-1.11,1.24,1.56,3.17,2.56,5.39,2.56.21,0,.77-.02,1.33-.03.44-.01.88-.03,1.06-.03.3,0,1.16-.02,2.02-.03.8-.01,1.6-.03,1.87-.03.16,0,.54.01.93.03.52.02,1.04.03,1.21.03.22,0,.8-.02,1.35-.03.39-.01.77-.03.91-.03.59,0,1.19.03,1.78.06.7.03,1.42.07,2.18.07.22,0,.78-.02,1.3-.04.35-.01.69-.03.77-.03.17,0,.52.03.88.05.59.04,1.19.07,1.39.07,3.15,0,6.49-2.36,6.49-6.74,0-.25-.02-.92-.04-1.56-.01-.49-.03-.97-.03-1.14"/>
      <path class="cls-1" d="M15.49,22.72c0-.69.13-3.77.13-4.34,0-1,.06-3.21,2.52-3.21,2.14,0,3.27,2.2,3.27,4.53,0,.63-.13,3.08-.25,3.65-.32,1.32-1.19,2.33-3.02,2.33-1.76,0-2.64-1.64-2.64-2.96M11.9,4.86c-.69,0-3.58-.06-4.15-.06-2.01,0-3.4.88-3.4,3.08,0,.57.13,3.08.13,3.65,0,.94-.13,5.22-.13,6.1s.13,4.78.13,5.6c0,1.32-.19,7.42-.19,8.62,0,1.38.25,7.42.25,8.68,0,1.07-.06,2.96-.25,6.1-.06.19-.06.44-.06.63,0,1.13.75,2.14,2.01,2.14.63,0,3.84-.25,4.4-.25.63,0,2.39.06,2.96.13.25,0,.44.06.69.06.38,0,1.51-.25,1.51-1.57,0-.38-.12-2.2-.12-2.52,0-.44.06-2.2.06-2.58,0-.57-.12-3.02-.12-3.46,0-.38,0-1.45.88-1.45.63,0,1.38,1.57,2.01,3.08.19.44.38.88.57,1.32.5,1.13,1.19,2.2,1.7,3.27.19.44,1.01,2.45,1.2,2.83.38.63.75,1.01,1.95,1.01.44,0,.82-.06,1.2-.06.75-.06,3.14-.12,3.96-.12.5,0,2.77.12,3.27.12.94,0,1.57-.57,1.57-1.32,0-.57-.12-1.01-1.89-4.28-.25-.5-.5-1.01-.76-1.51-.19-.5-.38-1.07-.63-1.64-.38-.94-2.89-5.03-2.89-5.98,0-.5.31-.75.94-1.32,1.7-1.38,2.64-3.27,2.89-3.71,1.51-2.96,1.89-5.6,1.89-8.43,0-.69-.06-5.91-.94-8.11-1.51-3.9-3.96-8.24-12.64-8.24-1.26,0-6.86.19-7.99.19M46.31,6.75c-1.88,1.07-4.15,3.14-5.22,4.59-.69.94-2.77,4.91-3.27,7.42-.19.94-.25,1.89-.38,2.89-.06.5-.19,1.07-.25,1.57-.19,1.13-.32,2.39-.32,4.03,0,3.21.63,8.05,1.07,9.62.44,1.76,1.38,3.77,2.33,5.09.38.57.75,1.07,1.13,1.57,1.7,2.39,2.58,3.58,6.1,4.91,1.95.75,3.9,1.32,5.97,1.38.32,0,3.84.06,3.9.06,1.76,0,6.54-.06,8.43-1.26,1.26-.82,1.38-1.57,1.38-2.83v-1.76c0-.76.06-4.22.06-4.91s-.12-3.96-.12-4.65c0-.63.12-3.52.12-4.09,0-.5-.06-2.89,0-3.4,0-.57.06-3.02.06-3.52-.06-.57-.06-1.7-1.57-2.39-.38-.19-.82-.25-1.19-.25-.25,0-1.51.13-1.76.19-.69,0-3.08.06-3.9.06-.5,0-2.83-.13-3.33-.13-1.51,0-2.64.82-2.77,2.08,0,.19-.19,6.41-.19,6.73,0,1.26,1.32,1.7,1.57,1.7.19,0,.94-.19,1.13-.19.57,0,2.01.5,2.01,2.14,0,.38-.12,2.01-.12,2.39,0,.25.12,1.51.12,1.82,0,1.45-1.63,1.45-2.26,1.45-3.08,0-3.9-2.01-4.53-3.71-.38-.88-.82-1.76-1.14-2.64-.37-1.01-.37-1.57-.37-2.2,0-.5-.06-2.7-.06-3.14,0-1.95.19-3.02.5-4.28.06-.5.19-1.01.25-1.51.19-1.64.25-1.83.69-2.83.94-1.82,2.52-3.52,6.92-3.52.63,0,1.2.06,1.82.06.69,0,1.45,0,2.14.31.38.13.76.38,1.07.5.31.13.63.19.94.19.82,0,2.01-.75,2.33-1.63.13-.38.13-1.19.13-2.14v-4.4c0-.32.06-1.45.06-1.7,0-1.32-.94-2.08-2.08-2.08-.76,0-4.15-.13-4.84-.13-1.45,0-8.49.13-12.58,2.52M72.54,9.58c0,.75.06,4.09.06,4.78,0,2.2-.13,4.47-.13,6.67,0,.94.13,5.22.13,6.04,0,.88-.06,4.65-.06,5.41,0,.44.06,2.45.06,2.89s-.19,2.51-.19,2.96c0,.57.06,3.33.06,3.9,0,1.07,0,2.64-.13,3.96,0,.25-.06.5-.06.76,0,1.32,1.07,2.45,2.58,2.45.38,0,2.01-.06,2.39-.06.57,0,3.33-.06,3.9-.06.31,0,1.82.06,2.14.06.38,0,1.95-.06,2.26-.06,1.32,0,2.64.13,3.96.13.38,0,1.82-.06,2.14-.06s1.89.13,2.2.13c.75,0,2.26-.44,2.26-2.51,0-.44-.06-2.33-.06-2.71,0-.44,0-1.13.06-1.82.06-.38.06-.75.06-1.13,0-1.76-1.51-2.26-2.33-2.26-.44,0-.82.06-1.26.13-.44.06-.94.06-1.45.06-.44,0-.88,0-1.32-.06-.56-.06-1.19-.19-1.82-.25-.82,0-1.82,0-2.52-.19-1.57-.44-1.57-1.57-1.57-2.83,0-1.76,0-2.71.32-3.27.63-1.13,1.95-1.2,2.95-1.2.76,0,4.4.25,5.1.25.94,0,1.88,0,2.51-1.44.13-.25.19-.57.19-1.13,0-.44-.13-2.26-.13-2.64,0-.44.13-2.26.13-2.64,0-1.76-.56-2.52-2.45-2.52-.32,0-1.76.06-2.01.06-.44,0-2.2-.13-2.58-.13-.32,0-1.64.13-1.89.13-2.2,0-2.2-2.45-2.2-3.08,0-1.76,0-1.95.25-2.33.38-.57,1.07-1.07,3.46-1.07.44,0,2.26.19,2.64.19.31,0,1.7-.13,1.95-.13.19,0,.88.06,1.07,0,2.14-.19,2.26-1.63,2.26-2.52,0-.38-.06-1.89-.06-2.14,0-.57.19-2.96.19-3.46,0-1.19-.76-1.95-1.89-1.95-.32,0-1.7.06-2.01.06h-1.32c-.38,0-2.07.13-2.39.13-.82,0-4.53-.13-5.28-.13h-3.27c-.25,0-1.07-.06-1.83-.13-.82,0-1.57-.06-1.89-.06-3.21,0-3.21,1.76-3.21,4.84"/>
    </g>
  </g>
</svg>