<?xml version="1.0" encoding="UTF-8"?>
<svg id="Calque_2" data-name="Calque 2" xmlns="http://www.w3.org/2000/svg" viewBox="0 0 434.23 136.06">
  <defs>
    <style>
      .cls-1 {
        fill: #fff;
      }
    </style>
  </defs>
  <g id="Calque_2-2" data-name="Calque 2">
    <path class="cls-1" d="m72.6,0c-3.71,0-7.03,2.33-8.3,5.82l-26.31,72.28-7.54-20.89H7.1c-4.92,0-8.35,4.9-6.66,9.52l19.49,53.39h30.2L93.85,0h-21.24Z"/>
    <path class="cls-1" d="m130.5,0c-3.87,0-7.29,2.53-8.44,6.22l-24.22,72.25-10.33-37.61-17.14,47.09,11.74,32.19h29.71L151.61,0h-21.11Z"/>
    <path class="cls-1" d="m139.56,102.23c.63,5.2,3,8.75,9.62,8.75,3.08,0,6.94-.79,9.15-2.13l3.55,9.23c-3.15,1.58-8.28,2.84-13.41,2.84-14.98,0-19.24-10.57-19.24-21.77s4.02-21.37,17.74-21.37c12.38,0,16.64,8.04,16.64,18.93,0,1.81-.08,3.63-.31,5.52h-23.74Zm0-7.33h14.51c-.63-5.84-3-8.04-7.02-8.04-4.42,0-6.78,2.52-7.49,8.04Zm43.45-35.41v23.03c2.29-2.6,5.92-4.73,10.73-4.73s13.33,2.37,13.33,19.4c0,15.22-6.62,23.74-21.14,23.74-4.42,0-10.17-.79-14.12-1.97v-59.46h11.2Zm0,31.7v19.4c1.81.24,3.39.31,4.26.31,5.36,0,8.91-4.34,8.91-13.33s-3.47-9.62-6.07-9.62c-3,0-5.52,1.34-7.1,3.23Zm46.68-13.41c3.31,0,5.99.47,8.2,1.34,2.84-.47,6.07-.71,9.38-.71h3.16v9.15h-1.97c-1.1,0-2.21-.16-3.39-.4.4,1.34.55,2.76.55,4.34,0,8.12-4.34,13.96-15.93,13.96-2.6,0-4.81-.24-6.7-.79-.47.79-.71,1.73-.71,2.68,0,1.97,1.02,3.16,3.86,3.16h8.04c10.33,0,15.77,3.23,15.77,11.28,0,8.6-5.99,14.27-20.11,14.27s-18.3-5.84-18.3-11.67c0-4.18,2.13-6.86,4.81-8.6-1.34-1.66-2.05-3.71-2.05-6.15,0-3.15,1.18-5.99,3.16-8.04-2.52-2.52-3.63-5.99-3.63-10.09,0-8.12,4.26-13.72,15.85-13.72Zm-6.47,41.32c-.63.95-1.03,2.13-1.03,3.63,0,3.39,1.89,5.36,8.12,5.36s8.6-1.81,8.6-5.28c0-2.76-1.66-3.63-6.15-3.63h-7.33c-.79,0-1.5,0-2.21-.08Zm7.02-21.21c4.97,0,6.62-1.89,6.62-6.15s-1.66-6.15-6.62-6.15-6.63,1.89-6.63,6.15,1.74,6.15,6.63,6.15Zm35.17,4.34c.63,5.2,3,8.75,9.62,8.75,3.08,0,6.94-.79,9.15-2.13l3.55,9.23c-3.15,1.58-8.28,2.84-13.41,2.84-14.98,0-19.24-10.57-19.24-21.77s4.02-21.37,17.74-21.37c12.38,0,16.64,8.04,16.64,18.93,0,1.81-.08,3.63-.31,5.52h-23.74Zm0-7.33h14.51c-.63-5.84-3-8.04-7.02-8.04-4.42,0-6.78,2.52-7.49,8.04Zm42.66-16.48v5.28c2.92-4.02,7.18-5.91,12.3-5.91,8.05,0,12.54,4.58,12.54,16.25v26.1h-11.04v-23.82c0-6.55-2.13-8.36-5.52-8.36-2.76,0-5.76,1.18-7.49,3.39v28.78h-11.2v-41.72h10.41Zm46.29-12.7c0,3.63-2.68,6.39-6.23,6.39s-6.07-2.76-6.07-6.39,2.6-6.15,6.07-6.15,6.23,2.68,6.23,6.15Zm-.63,12.7v41.72h-11.2v-41.72h11.2Zm20.66,0v23.82c0,6.55,2.13,8.36,5.52,8.36,2.52,0,5.28-1.03,7.02-2.84v-29.34h11.28v41.72h-10.49v-4.65c-3,3.55-7.02,5.28-11.91,5.28-7.96,0-12.46-4.57-12.46-16.25v-26.1h11.04Zm56.7,10.65c-3.16-1.18-7.1-1.97-10.17-1.97-3.23,0-4.42.95-4.42,2.52,0,1.26.87,2.13,2.68,3.15,3.87,2.29,7.81,4.02,10.33,5.91,3.39,2.52,4.73,5.6,4.73,9.54,0,7.81-5.36,12.85-16.56,12.85-4.81,0-9.86-.95-13.17-1.97l1.1-10.33c3.23,1.5,8.12,2.68,12.22,2.68s5.84-1.1,5.84-3.15c0-1.5-1.1-2.6-3.08-3.71-4.49-2.6-8.04-4.02-10.88-6.15-2.76-2.29-4.42-4.49-4.42-8.6,0-7.73,5.68-11.99,15.22-11.99,4.26,0,8.99.87,11.59,1.89l-1.02,9.31Z"/>
  </g>
</svg>