<?xml version="1.0" encoding="UTF-8"?>
<svg id="Calque_2" data-name="Calque 2" xmlns="http://www.w3.org/2000/svg" viewBox="0 0 287.37 383.36">
  <defs>
    <style>
      .cls-1 {
        fill: #fff;
      }
    </style>
  </defs>
  <g id="Calque_1-2" data-name="Calque 1">
    <g>
      <g>
        <path class="cls-1" d="M215.82,106.97c-30.26.78-56.8,16.97-72.14,43.03-15.45-26.34-42.47-42.48-72.55-43.02-6.97-.12-12.21,4.45-12.18,11.42l.05,14.18c.15,43.16,32.36,78.93,73.79,84.15l-.17,67.06-73.61.06-.25-24.11C17.03,229.2-4.99,178.6.96,127.54,8.82,60,62.54,7.53,130.2.68c8.75-.89,17.61-.91,26.33-.07,68.78,6.68,123.13,60.35,130.11,129.03,5.12,50.35-16.87,99.97-58.02,130.11l-.26,24.09h-73.58s-.2-67.11-.2-67.11c41.44-5.22,73.66-40.99,73.8-84.15l.05-14.17c.02-6.98-5.11-11.64-12.6-11.44Z"/>
        <path class="cls-1" d="M132.68,194.33c-29.95-4.97-53.14-32.63-51.47-64.19,30.19,5.6,52.2,31.74,51.47,64.19Z"/>
        <path class="cls-1" d="M154.79,194.47c-1.33-30.6,20.11-58.73,51.41-64.29,1.37,30.61-19.77,58.21-51.41,64.29Z"/>
      </g>
      <g>
        <path class="cls-1" d="M202.07,383.36h-116.77c-.54-1.09-1.75-1.22-3.13-1.65-16.84-5.25-25.12-21.42-23.07-38.91h169.18c2.04,17.49-6.24,33.66-23.07,38.91-1.38.43-2.59.56-3.13,1.65Z"/>
        <rect class="cls-1" x="58.88" y="305.96" width="169.61" height="14.78"/>
      </g>
    </g>
  </g>
</svg>