<?xml version="1.0" encoding="UTF-8"?>
<svg id="Calque_2" data-name="Calque 2" xmlns="http://www.w3.org/2000/svg" viewBox="0 0 383.31 383.32">
  <defs>
    <style>
      .cls-1 {
        fill: #004836;
      }

      .cls-2 {
        fill: #9aaf9c;
      }
    </style>
  </defs>
  <g id="Calque_1-2" data-name="Calque 1">
    <g>
      <path class="cls-1" d="M382.66,368.5c-1.45-4.39-5.66-7.69-10.94-7.77-7.41-.12-14.7.29-22.28-.23V113.41c6.17,2.64,11.43,6.34,17.25,9.31,5.5,2.81,11.96.85,14.93-4.12,3.11-5.19,1.77-12.35-4.04-15.62L197.24,1.54c-3.67-2.06-7.56-2.04-11.22.02L3.88,104.05l-3.88,5.3v7.49c.84.32,1.24,1.13,1.83,2.05,3.2,4.94,9.46,6.51,14.73,3.84,5.82-2.95,11.07-6.65,17.24-9.28v247.05s-22.87.29-22.87.29c-6.27.09-8.2,4.4-10.93,7.56v14.97h375.57c5.35-3.5,9.37-7.95,7.09-14.82ZM166.05,154.16l-28.55,28.58c-4.97,4.98-11.96,3.84-16.41-.63l-27.98-28.17c-4.37-4.4-3.58-11.52.63-15.5,4.42-4.19,11.45-4.13,15.91.42l8.82,8.97-.03-69.15c0-6.43,5.57-11.01,11.36-10.94,6.15.08,11.09,5.04,11.1,11.69l.07,67.72c3.46-2.69,5.87-5.71,8.85-8.5,4.58-4.3,11.33-4.28,15.57-.32,4.35,4.07,5.16,11.32.66,15.83ZM290.15,153.94l-29.01,29.04c-4.22,4.22-11.14,3.99-15.14-.02l-28.81-28.81c-4.32-4.33-3.74-11.29.28-15.43,4.01-4.14,10.83-4.58,15.55-.43,3.2,2.81,5.64,6.01,9.26,8.85l.07-67.71c0-6.4,4.59-11.22,10.38-11.65,6.13-.46,12.08,4.2,12.08,10.89l-.03,69.16,9.23-9.31c4.34-4.38,11.23-4.11,15.49-.09,4.17,3.94,5.04,11.11.65,15.51Z"/>
      <path class="cls-2" d="M290.15,153.94l-29.01,29.04c-4.22,4.22-11.14,3.99-15.14-.02l-28.81-28.81c-4.32-4.33-3.74-11.29.28-15.43,4.01-4.14,10.83-4.58,15.55-.43,3.2,2.81,5.64,6.01,9.26,8.85l.07-67.71c0-6.4,4.59-11.22,10.38-11.65,6.13-.46,12.08,4.2,12.08,10.89l-.03,69.16,9.23-9.31c4.34-4.38,11.23-4.11,15.49-.09,4.17,3.94,5.04,11.11.65,15.51Z"/>
      <path class="cls-2" d="M166.05,154.16l-28.55,28.58c-4.97,4.98-11.96,3.84-16.41-.63l-27.98-28.17c-4.37-4.4-3.58-11.52.63-15.5,4.42-4.19,11.45-4.13,15.91.42l8.82,8.97-.03-69.15c0-6.43,5.57-11.01,11.36-10.94,6.15.08,11.09,5.04,11.1,11.69l.07,67.72c3.46-2.69,5.87-5.71,8.85-8.5,4.58-4.3,11.33-4.28,15.57-.32,4.35,4.07,5.16,11.32.66,15.83Z"/>
    </g>
  </g>
</svg>