<?xml version="1.0" encoding="UTF-8"?>
<svg id="Calque_2" data-name="Calque 2" xmlns="http://www.w3.org/2000/svg" viewBox="0 0 383.3 383.31">
  <defs>
    <style>
      .cls-1 {
        fill: #fff;
      }
    </style>
  </defs>
  <g id="Calque_1-2" data-name="Calque 1">
    <g>
      <path class="cls-1" d="M375.57,383.31H0v-14.97c3.47-4.02,4.24-7.2,11.53-7.57l22.27-.27.03-175.61,157.83-87.42,157.8,87.42-.03,175.6,22.89.29c5.25.15,9.3,3.93,10.5,8.25,1.88,6.81-2.16,10.86-7.27,14.27Z"/>
      <path class="cls-1" d="M0,116.83v-7.49l3.88-5.31L186.02,1.56c3.66-2.06,7.54-2.08,11.22-.02l180.33,101.44c5.82,3.27,7.15,10.43,4.04,15.63-2.95,4.94-9.53,7.07-14.91,4.11l-17.05-9.38-.27,45.82-152.31-84.4c-3.2-1.78-7.09-2.06-10.36-.25L33.84,159.22l-.09-45.84-16.25,8.82c-5.35,3.35-12.25,1.98-15.68-3.31-.6-.92-.99-1.73-1.83-2.05Z"/>
    </g>
  </g>
</svg>