<?xml version="1.0" encoding="UTF-8"?>
<svg id="Calque_2" data-name="Calque 2" xmlns="http://www.w3.org/2000/svg" viewBox="0 0 383.3 383.31">
  <defs>
    <style>
      .cls-1 {
        fill: #004836;
      }

      .cls-2 {
        fill: #9aaf9c;
      }
    </style>
  </defs>
  <g id="Calque_1-2" data-name="Calque 1">
    <g>
      <path class="cls-1" d="M0,116.83v-7.49l3.88-5.31L186.02,1.56c3.66-2.06,7.54-2.08,11.22-.02l180.33,101.44c5.81,3.27,7.16,10.43,4.04,15.63-2.97,4.96-9.44,6.93-14.92,4.11l-17.24-9.34-.03,191-315.54.02-.11-190.99-17.23,9.32c-8.23,3.51-12.25-.46-16.56-5.89Z"/>
      <path class="cls-2" d="M375.57,383.31H0v-14.97c3.05-3.61,4.73-7.54,11.52-7.6l22.24-.19.16-33.6h315.34s.26,33.61.26,33.61l22.82.23c5.24.05,9.3,3.93,10.5,8.26,1.88,6.81-2.16,10.86-7.27,14.27Z"/>
    </g>
  </g>
</svg>