<?xml version="1.0" encoding="UTF-8"?>
<svg id="Calque_2" data-name="Calque 2" xmlns="http://www.w3.org/2000/svg" viewBox="0 0 329.64 354.01">
  <g id="Calque_1-2" data-name="Calque 1">
    <g>
      <g>
        <path d="M170.09,107.66c0,3.73-2.25,5.66-4.98,5.83-2.89.17-5.5-1.99-5.5-5.44V14.09s-33.09,17.24-33.09,17.24c-2.69,1.4-5.82-.31-6.77-2.56-1.01-2.41-.42-5.44,2.25-6.86L162.05.73c1.81-.96,3.76-.99,5.59-.02l40.02,21.18c2.5,1.33,3.13,3.97,2.48,6.35-.56,2.06-3.65,4.69-6.39,3.27l-33.66-17.44v93.59Z"/>
        <path d="M89.37,104.47c-.01,3.56-2.3,5.54-5.05,5.66-2.71.11-5.42-1.75-5.43-5.05l-.08-60.81-32.91,17.25c-2.67,1.4-5.78-.24-6.79-2.31-1.27-2.63-.46-5.68,2.25-7.12l39.08-20.72c1.94-1.03,4.13-1.69,6.24-.57l40.52,21.46c2.52,1.34,3.06,4.58,1.86,7-1.05,2.13-4.15,3.59-6.87,2.18l-32.64-16.94-.18,59.98Z"/>
        <path d="M250.84,104.33c0,3.3-1.81,5.57-4.82,5.79-2.38.18-5.61-1.44-5.62-4.64l-.28-60.97-32.11,16.71c-2.71,1.41-5.73.64-7.11-1.53-1.76-2.75-.87-6.16,2.04-7.71l39.06-20.69c2.3-1.22,4.44-1.44,6.79-.2l39.54,20.96c2.71,1.44,3.51,4.54,2.25,7.13-1.01,2.07-4.12,3.72-6.78,2.32l-32.92-17.28-.02,60.09Z"/>
        <path d="M261.74,95.85l67.9,27.24-164.76,66.46L0,123.07l68.02-27.25.34,9.74c.42,8.71,7.59,15.25,15.99,15.11s15.44-6.77,15.49-15.57l.14-22.21,49-19.71.09,44.89c.02,8.92,6.92,15.74,15.43,15.93s15.99-6.33,16.03-15.24l.18-45.62,48.99,19.71.13,22.24c.05,8.82,7.22,15.46,15.51,15.57,8.72.12,15.96-6.88,15.98-15.86l.43-8.97Z"/>
      </g>
      <g>
        <polygon points="21.44 233.33 .24 224.99 .2 180.71 21.96 189.37 21.44 233.33"/>
        <polygon points="329.58 224.77 310.68 232.34 310.99 188.03 329.44 180.76 329.58 224.77"/>
        <polygon points="254.24 255.62 254.63 210.89 272.34 203.41 272 248.08 254.24 255.62"/>
        <path d="M50.05,205.82l-.12,39.03-17.94-7.1.45-43.97,18.53,7.28c-.72,1.34-.92,2.69-.93,4.77Z"/>
        <polygon points="134.29 278.91 116.58 271.9 117.14 227.82 134.73 234.82 134.29 278.91"/>
        <polygon points="77.93 255.84 60.23 249.17 60.46 204.92 78.33 212.12 77.93 255.84"/>
        <path d="M216.36,270.5l-18.35,7.32.19-44.28,17.67-6.98-.28,39.47c-.01,1.51.03,2.65.77,4.47Z"/>
        <polygon points="282.59 244 282.82 199.44 300.32 192.09 300.53 236.46 282.59 244"/>
        <polygon points="243.95 259.48 225.94 266.54 226.46 222.14 243.92 215.19 243.95 259.48"/>
        <polygon points="106.11 267.31 88.41 260.51 88.77 216.18 106.55 223.54 106.11 267.31"/>
        <polygon points="170.27 289.01 170.4 244.73 187.64 237.96 187.49 282.1 170.27 289.01"/>
        <polygon points="159.55 288.99 144.66 283.07 145.21 239.23 159.96 245.01 159.55 288.99"/>
      </g>
      <g>
        <path d="M265.81,261.91l63.67,25.67-164.59,66.44L.16,287.55l63.7-25.64,95.76,38.59c3.17,1.35,6.08,1.77,9.37.44l96.81-39.03Z"/>
        <path d="M272.25,157.54l43.19,17.45-150.58,60.71L14.28,174.98l43.29-17.41,103.11,41.57c2.96,1.08,5.35,1.04,8.32.02l103.25-41.61Z"/>
      </g>
    </g>
  </g>
</svg>