<?xml version="1.0" encoding="UTF-8"?>
<svg id="Calque_2" data-name="Calque 2" xmlns="http://www.w3.org/2000/svg" viewBox="0 0 383.29 383.38">
  <defs>
    <style>
      .cls-1 {
        fill: #fff;
      }
    </style>
  </defs>
  <g id="Calque_1-2" data-name="Calque 1">
    <g>
      <path class="cls-1" d="M380.64,383.38H0V.13c13.96.48,28.23-.85,41.91.47,70.19,6.76,124.21,61.64,131.14,131.29,5.45,54.8,38.77,103.77,88.08,128.97,36.89,18.86,68.66,45.53,91.64,80.31l27.87,42.21Z"/>
      <path class="cls-1" d="M282.22,180.5l-71.47.03c-7.35-13.88-11.98-28.9-14.44-44.88l85.9-.05v44.9Z"/>
      <rect class="cls-1" x="304.65" y="135.62" width="78.6" height="44.91"/>
      <rect class="cls-1" x="226.06" y=".13" width="67.37" height="45.66"/>
      <rect class="cls-1" x="315.88" y=".13" width="67.37" height="45.66"/>
      <path class="cls-1" d="M203.62,45.74h-40.38C149.34,26.85,132.33,11.5,113.51.3l90.11-.23v45.67Z"/>
      <rect class="cls-1" x="259.74" y="68.25" width="56.14" height="44.91"/>
      <rect class="cls-1" x="327.11" y="202.99" width="56.14" height="44.91"/>
      <path class="cls-1" d="M304.63,247.93c-28.72-.55-15.18,2.74-36.96-8.97-16.48-8.86-29.93-21.27-42.18-35.9l79.17-.11-.03,44.99Z"/>
      <path class="cls-1" d="M237.3,113.12l-44.53-.02c-2.95-16.03-8.27-30.46-15.23-44.82l59.76-.06v44.9Z"/>
      <path class="cls-1" d="M383.16,345.9l-11.16-16.4c-15.27-22.4-33.38-42.32-55.15-59.05l66.43-.13-.12,75.59Z"/>
      <rect class="cls-1" x="338.34" y="68.25" width="44.91" height="44.91"/>
    </g>
  </g>
</svg>