<?xml version="1.0" encoding="UTF-8"?>
<svg id="Calque_2" data-name="Calque 2" xmlns="http://www.w3.org/2000/svg" viewBox="0 0 383.21 367.3">
  <defs>
    <style>
      .cls-1 {
        fill: #fff;
      }
    </style>
  </defs>
  <g id="Calque_1-2" data-name="Calque 1">
    <g>
      <path class="cls-1" d="M0,131.25v-6.74l17.83-17.96c3.59-3.62,9.11-3.64,12.24.17s2.26,8.07-2,12.85l74.44.14c5.06,0,8.97,2.81,9.21,7.58s-3.32,8.45-8.45,8.46l-75.77.11c4.44,3.85,5.81,8.54,2.81,12.66-2.65,3.63-8.32,4.48-11.89.95L0,131.25Z"/>
      <path class="cls-1" d="M254.59,208.57l14.86,14.93-15.49,15.76c-9.16,9.32-8.49,24.11.7,33.28l14.62,14.61c6.37,6.36,14.45,9.57,23.52,7.65,7.86-1.66,13.7-7.45,18.22-16.25l.44,48.82-246.93-.02c-5.11,0-8.64-3.28-8.64-8.4v-167.21s48.18-.11,48.18-.11c13.89-.03,24.07-11.61,23.7-25.22,7.51,2.3,15.13,1.52,21.64-3.03,5.85-4.09,10.19-11.06,10.21-19.09l.12-48.28c5.41-.23,10.45-.22,15.88,0l.05,47.56c.02,13.31,10.39,23.68,23.13,24.11,13.06.45,24.61-9.79,24.66-23.37l.16-48.42,87.78-.02-.35,48.79c-4.41-8.33-9.84-14.13-17.27-15.97-9.22-2.28-17.66.48-24.01,6.9l-16.05,16.21c-8.85,8.94-8.32,23.59.47,32.47l15.24,15.41-15.23,15.4c-9.13,9.24-8.99,24.05.39,33.48Z"/>
      <path class="cls-1" d="M104.02,103.83l-48.27.08.15-39.97c.07-4.78,3.68-8.12,8.48-8.07l47.33.05.2,49.6c-2.07-1.02-4.81-1.69-7.89-1.69Z"/>
      <path class="cls-1" d="M207.63,103.12c0,5.41-3.82,8.71-8.17,8.61-4.93-.12-7.86-3.92-7.86-8.98l-.06-75.15c-4.09,4.4-8.63,5.64-12.56,2.78s-4.49-8.55-.81-12.24l15.64-15.65c3.21-3.21,8.27-3.4,11.55-.12l15.64,15.59c3.59,3.58,3.3,9.15-.43,12.2s-8.4,1.77-12.85-2.04l-.09,74.99Z"/>
      <path class="cls-1" d="M143.76,102.4c0,5.27-2.5,8.75-7.2,9.29-4.1.47-8.73-2.59-8.75-7.57l-.21-75.99c-4.41,3.81-9.04,5.16-12.83,2.05-3.75-3.08-3.99-8.57-.41-12.14l15.72-15.67c3.24-3.23,8.24-3.1,11.46.13l15.62,15.61c3.52,3.52,3.25,8.94-.38,11.95-3.87,3.22-8.74,2.15-12.97-2.47l-.06,74.82Z"/>
      <path class="cls-1" d="M135.82,367.25l-31.74.04c-3.89,0-7.15-2.47-8.06-6.19l-4.32-17.72h56.13s-4.33,17.72-4.33,17.72c-.83,3.39-3.74,6.14-7.69,6.14Z"/>
      <g>
        <path class="cls-1" d="M290.99,135.85c4.43,3.85,5.81,8.54,2.81,12.65-2.8,3.84-8.61,4.34-12.31.63l-15.65-15.71c-3.28-3.3-3.01-8.37.23-11.6l15.65-15.61c3.45-3.45,8.91-3.05,11.82.49s2.27,8.08-1.98,12.87l83.36.21c4.72.01,8.06,3.4,8.27,7.41.25,4.79-3.13,8.53-8.2,8.54l-84,.13Z"/>
        <path class="cls-1" d="M291.69,199.7c3.33,4.43,5.21,8.56,2.2,12.59-2.85,3.8-8.51,4.53-12.17.88l-15.63-15.6c-3.24-3.23-3.52-8.3-.24-11.6l15.66-15.72c3.52-3.53,9.05-3.27,11.97.23,3.38,4.04,2.15,9.09-2.49,13.06l84,.13c4.83,0,8.1,3.41,8.22,7.82s-3.32,8.13-8.28,8.13l-83.23.08Z"/>
        <path class="cls-1" d="M291.53,263.61c4.13,4.76,5.12,9.12,2.09,12.85s-8.44,4.05-11.96.53l-15.71-15.71c-3.24-3.24-3.25-8.31-.01-11.54l15.72-15.71c3.52-3.51,8.96-3.17,11.95.54s2.14,8.16-2.17,12.79l83.53.18c4.74.01,8.05,3.45,8.22,7.62.19,4.52-3.25,8.33-8.21,8.33l-83.46.13Z"/>
        <path class="cls-1" d="M359.33,64.19l-.13,39.63-31.77-.05-.05-47.8,23.7-.08c4.55-.01,8.13,3.34,8.24,8.29Z"/>
        <path class="cls-1" d="M359.3,318.81c.07,5.08-3.54,8.56-8.21,8.54l-23.72-.09v-47.73s31.94-.09,31.94-.09v39.37Z"/>
        <path class="cls-1" d="M311.7,367.23l-32.45.03c-3.57,0-6.65-2.6-7.5-5.97-1.54-6.07-3.15-11.76-4.35-17.92l56.42-.07-4.78,18.15c-.83,3.15-3.59,5.78-7.34,5.78Z"/>
        <rect class="cls-1" x="327.35" y="151.69" width="31.95" height="16"/>
        <rect class="cls-1" x="327.35" y="215.56" width="31.95" height="15.99"/>
        <path class="cls-1" d="M311.07,167.92c-2.82-2.5-3.59-5.77-5.88-8.54,2.95-2.5,3.07-5.35,5.78-8.14.72,5.57.61,10.43.1,16.68Z"/>
        <path class="cls-1" d="M311.03,232.12c-2.72-2.99-3.45-6.38-6.11-8.42,2.22-2.13,3.51-5.53,6.1-8.63.6,5.79.63,10.91,0,17.04Z"/>
      </g>
    </g>
  </g>
</svg>