<?xml version="1.0" encoding="UTF-8"?>
<svg id="Calque_2" data-name="Calque 2" xmlns="http://www.w3.org/2000/svg" viewBox="0 0 301.97 336.51">
  <defs>
    <style>
      .cls-1 {
        fill: #004836;
      }

      .cls-2 {
        fill: #9aaf9c;
      }
    </style>
  </defs>
  <g id="Calque_1-2" data-name="Calque 1">
    <g id="w6dF6v">
      <g>
        <path class="cls-2" d="M154.39,107.8c-2.9-1.8-4.24-1.56-6.7-.03L15.12,190.34c-3.62,2.25-7.83,1.25-10-2.08-1.92-2.94-1.59-7.57,2.18-9.92l139.98-87.2c2.43-1.51,5.24-1.4,7.68.11l139.48,86.9c3.54,2.21,4.37,6.16,2.84,9.41s-6.04,5.46-9.74,3.15l-133.14-82.92Z"/>
        <path class="cls-2" d="M295.11,336.51H6.5c-3.98-.01-6.35-2.96-6.5-6.1-.16-3.42,2.29-6.71,6.49-6.71h288.59c4.21-.01,6.72,2.63,6.87,6.02.17,3.82-2.4,6.78-6.86,6.78Z"/>
        <path class="cls-1" d="M78.25,111.92c-1.41-3.11-11.75-9.29-4.56-19.29,1.25-1.73,3.04-3.23,3.8-5.25-3.56-3.23-6.67-6.87-6.22-11.63.41-4.33,3.47-7.52,6.24-10.83-.79-1.73-2.47-2.92-3.64-4.34-7.59-9.22,3.09-16.84,4.34-20.19,1.35-3.59,3.87-5.99,7.59-5.36s5.77,4,5.2,8.04-4.26,6.88-6.01,10.33c1.74,2.74,5.51,5.39,6,9.15,1.01,7.75-5.44,11.35-5.67,13.45-.28,2.55,8.36,6.58,5.12,15.04-1.22,3.2-3.62,5.56-5.74,8.36,2.52,2.65,4.98,4.98,6.03,8.33,1.17,3.72-.55,7.44-3.53,8.57-4.02,1.52-7.18-.44-8.96-4.37Z"/>
        <path class="cls-1" d="M191.82,97.35c-6.71,2.38-7.05-3.43-12.16-8.55-4.27-4.28-4.88-10.1-1.32-15,1.32-1.82,3.04-3.45,3.96-5.47-2.82-2.63-5.43-5.16-6.14-8.82-1.4-7.13,5.38-11.62,5.64-13.51.31-2.27-10.71-8.33-3.37-18.5,1.38-1.92,3.59-3.71,4.44-5.95,1.4-3.68,3.8-6.25,7.86-5.5,3.42.63,5.83,4.18,4.95,8.21s-3.81,6.76-6.2,10.15c2.98,2.95,5.95,5.91,6.33,10.03.63,6.75-6.07,11.4-6.05,12.88.02,1.34,10.76,8.24,3.81,17.8-1.33,1.84-2.98,3.5-4,5.59,2.83,2.7,5.33,5.22,6.11,8.86s-1.03,6.79-3.87,7.8Z"/>
        <path class="cls-1" d="M148.2,77.15c-1.25-2.93-12.04-9.6-4.61-19.47,1.23-1.64,2.77-3.17,3.68-5.2-2.68-2.72-5.4-5.28-6.05-9.06-1.28-7.49,6.04-11.78,5.79-13.83-.1-.78-1.02-1.67-1.69-2.26-5.32-4.69-5.46-11.42-1-16.76,1.28-1.53,3.12-3.25,3.79-5.19,1.35-3.87,4.3-6.15,8.25-5.12,3.42.89,5.3,4.58,4.34,8.5s-3.82,6.52-6.17,9.75c2.64,2.71,5.37,5.13,6.18,8.7,1.63,7.2-5.19,12.09-5.56,13.7-.56,2.45,10.87,8.63,3.33,18.59-1.18,1.56-2.53,3.07-3.75,5.06,2.5,2.92,5.25,5.28,6.03,8.98s-.87,6.94-4.11,8.03c-3.45,1.16-6.78-.5-8.45-4.4Z"/>
        <path class="cls-1" d="M125.66,88.84c.97,3.59-.22,6.72-3.02,8.2-2.57,1.36-6.6.95-8.24-2.13-1.14-2.14-2.29-4.13-4.11-5.72-5.66-4.93-5.2-12.31-.02-17.62.64-.66,1.52-1.7,1.72-2.43.31-1.15-.97-2.24-1.79-2.99-5.58-5.14-5.09-12.39.14-17.69.64-.65,1.49-1.73,1.68-2.5.51-2.13-10.64-7.89-3.62-18.15,1.43-2.09,3.78-3.98,4.69-6.35,1.4-3.62,3.69-5.98,7.42-5.49,3.74.5,6.09,3.88,5.38,8.01-.91,5.24-5.68,8.59-5.81,10.13-.17,1.99,5.47,4.3,5.92,10.46.5,6.9-5.91,10.73-5.86,12.7.04,1.7,10.67,8.4,3.42,18.14-1.26,1.7-2.91,3.17-3.71,5.28,2.41,2.48,4.89,4.64,5.83,8.14Z"/>
        <g>
          <path class="cls-1" d="M237.01,209.59l-70.32-.05c-2.22,0-3.49,1.65-3.75,3.87l.09,102.87-129.95-.07v-128.34s117.92-73.47,117.92-73.47l117.9,73.44-.06,128.33-28.52.03-.1-102.8c0-1.59-1.14-3.81-3.22-3.81ZM119.04,274.93c8.18-.02,13.64-6.91,13.64-14.42v-38.22c0-7.93-5.96-14.52-14.06-14.51l-43.47.07c-7.47.01-13.39,6.55-13.39,13.84v39.39c0,7.7,6.38,13.95,14.15,13.93l43.13-.08Z"/>
          <g>
            <path class="cls-1" d="M93.47,237.57l-24.13.12c-.44-5.24-.1-10.13-.2-15.42-.08-3.93,2.81-7.12,6.78-7.11l17.42.03.12,22.38Z"/>
            <path class="cls-1" d="M93.46,267.48c-5.92.31-11.55.14-17.54.12-3.94-.01-6.84-3.17-6.77-7.07.1-5.3-.24-10.19.2-15.42l24.07.1.05,22.26Z"/>
            <path class="cls-1" d="M125.22,221.85l-.02,15.73-24.17.05-.08-22.3c5.59-.51,11.09-.1,16.96-.23,3.83-.09,7.33,2.44,7.32,6.75Z"/>
            <path class="cls-1" d="M125.08,245.12c-.55,8.14,3.71,22.63-7.19,22.54l-16.86-.14-.07-22.26,24.13-.15Z"/>
          </g>
        </g>
        <path class="cls-1" d="M230.36,107.6c1.04,3.57-.04,6.85-2.77,8.36s-6.82,1.02-8.5-2.15c-1.06-2-2.1-3.89-3.82-5.34-5.9-5-5.54-12.67-.07-18.03.67-.66,1.45-1.72,1.58-2.55s-.77-1.86-1.51-2.49c-5.79-4.91-5.59-12.34-.33-17.72.65-.66,1.47-1.69,1.76-2.35,1.16-2.58-10.98-7.99-3.4-18.74,1.36-1.93,3.61-3.7,4.45-5.93,1.39-3.65,3.82-6.22,7.44-5.68,3.99.59,6.3,4.26,5.37,8.4-1.26,5.62-6,8.29-5.73,10.09.24,1.63,5.72,4.41,5.94,10.55s-5.62,10.35-5.9,12.05c-.34,2.04,10.81,8.37,3.55,18.19-1.26,1.7-2.77,3.27-3.89,5.33,2.19,2.62,4.82,4.53,5.83,8.02Z"/>
        <g>
          <path class="cls-1" d="M232.88,216.94v99.31h-62.51v-99.31h62.51ZM201.55,266.59c0-6.95-5.63-12.59-12.59-12.59s-12.59,5.63-12.59,12.59,5.63,12.59,12.59,12.59,12.59-5.63,12.59-12.59Z"/>
          <circle class="cls-1" cx="188.97" cy="266.59" r="5.17"/>
        </g>
      </g>
    </g>
  </g>
</svg>