<?xml version="1.0" encoding="UTF-8"?>
<svg id="Calque_2" data-name="Calque 2" xmlns="http://www.w3.org/2000/svg" viewBox="0 0 263.83 359.37">
  <g id="Calque_1-2" data-name="Calque 1">
    <g>
      <rect x=".38" y=".02" width="263.45" height="359.35" rx="18.35" ry="18.35"/>
      <g>
        <path d="M79.72,211.72c-34.61,42.25-56.65,92.5-68.86,145.8-6.05-2.78-10.74-9.04-10.48-16.18,1.75-48.05-7.25-47.74,15.01-89.9,14.09-26.68,39.87-54.39,60.06-76.84l41-45.6c-17.06,59.76-5.81,112.79,21.17,166.3,11.46,22.31,24.33,43.15,39.14,63.99l-49.61.02c-1.97-16.65-5.89-31.98-10.7-47.67l-14.62-45.28c-5.52-17.09-9.45-34.02-11.76-51.78-.3-2.29-2.13-3.89-3.95-4.57s-4.49-.61-6.39,1.71Z"/>
        <path d="M23.31,217.35c-8.8,11.89-16.22,23.19-22.81,36.48l-.18-86.21c30.78-21.68,61.91-43.4,86.31-72.34,8.65-10.42,15.94-21.01,21.42-33.39,8.9-19.53,10.95-40.76,5.46-61.79l42.8-.07c.03,12.97-.58,25.53-2.62,38.36-2.2,14.16-6.97,26.98-14.9,38.88-9.76,16.75-20.52,32.06-33.54,46.45l-42.63,47.14c-13.8,15.13-26.87,29.81-39.32,46.49Z"/>
        <g>
          <path d="M224.98,359.12l-33.63.21c-47.88-67.54-88.61-141.79-63.54-226.85,4.15-14.08,8.33-27.74,15.87-40.18l7.64-12.62c7.38-12.07,11.84-25.09,14.1-39.16,2.31-13.6,2.67-26.85,2.99-40.51l55.77.06c-6.55,17.13-14.72,32.59-23.8,48.14l-20.36,35.04c-14.3,25.2-21.75,52.46-23.53,81.44-2.36,38.28,4.82,75.33,21.3,109.86,7.77,16.28,16.66,31.17,26.06,46.57,7.53,12.34,14.74,24.07,21.16,37.99Z"/>
          <g>
            <path d="M263.83,341.1c0,9.46-6.73,16.77-15.66,18.09-3.36.21-6.33.23-9.94.08-3.97-9.39-8.4-18.2-13.74-27.05l-20.01-33.14c-25.45-42.14-38.31-80.67-36.28-130.6,1.19-29.19,8.55-56.42,23.28-81.52l19.66-33.49c10.11-17.21,18.88-34.56,25.81-53.17,2.63-.57,4.87-.1,7.45-.26,10.51-.63,19.44,7.3,19.4,17.95l-.1,24.43c-32.63,42.4-56.72,73.54-59.52,129.04-1.32,26.14,2.69,51.16,13.78,74.89,12.68,27.13,28.1,47.92,45.87,71.73v23.01Z"/>
            <path d="M263.83,297.97c-29.46-40.66-50.74-73.79-47.73-126.54,2.69-47.12,20.5-72.92,47.72-109.92v236.46Z"/>
          </g>
        </g>
        <path d="M101.06.02C122.17,66.53,47.57,119.88.42,152.71l-.04-55.98c31.72-10.16,57.92-23.87,67.34-58.05,3.62-12.59,4.47-25.25,4.7-38.57l28.64-.1Z"/>
        <path d="M91.69,359.36l-13.6-66.92c-.56-2.76-2.69-4.46-5.06-4.87-2.56-.44-4.93,1.07-6.36,3.61-11.8,20.87-18.6,43.69-18.68,68.08l-25.09-.03c11.05-46.75,30.8-90.17,59.24-128.7,2.69,16.29,7.2,31.99,12.1,48.13l12.71,41.93c3.56,12.84,6.53,25.27,8.08,38.68l-23.34.09Z"/>
        <path d="M56.36,35c-4.03,15.43-13.08,27.55-26.27,35.82-9.23,5.88-19.03,9.87-29.72,13.4V18.03C.53,7.96,8.26.07,18.32.06l42.07-.02c-.06,11.86-.77,23.17-4.03,34.96Z"/>
        <path d="M79.47,359.07l-19.37.2c.63-15.64,4.34-30.25,10.23-44.83l9.14,44.63Z"/>
      </g>
    </g>
  </g>
</svg>