<?xml version="1.0" encoding="UTF-8"?>
<svg id="Calque_2" data-name="Calque 2" xmlns="http://www.w3.org/2000/svg" viewBox="0 0 383.22 376.95">
  <defs>
    <style>
      .cls-1 {
        fill: #fff;
      }
    </style>
  </defs>
  <g id="Calque_1-2" data-name="Calque 1">
    <g>
      <path class="cls-1" d="M363.35,376.94h-92.33c-3.63.01-6.68-2.76-6.68-6.48l-.06-91.96c-1.84-1.13-3.98-.59-5.85-.59-4.21,0-7.25-2.85-7.3-6.6-.05-4.18,3.38-7.02,7.85-6.73,1.78.12,3.42.25,5.56-.45-3.36-31.75,21.1-58.86,52.42-58.99,31.32-.13,55.8,26.66,52.97,58.5,1.31,2.27,12.9-1.54,13.28,6.94.19,4.2-2.86,7.43-7.54,7.31-1.74-.05-3.42-.39-5.59.57l-.09,91.93c0,3.52-2.67,6.54-6.65,6.54ZM356.44,264.59c3.54-25.13-15.53-46.66-40.12-46.17-23.91.47-42.09,22.17-38.36,46.23l78.48-.06ZM297.32,323.71v-45.56c-4.55-.45-8.49-.45-13.15,0v45.95c.01,3.93,3.21,6.51,6.63,6.5s6.52-2.59,6.52-6.9ZM323.75,303.94l-.08-25.81c-4.68-.4-8.69-.45-13.09.03l-.02,25.7c0,3.97,2.92,6.91,6.47,6.95s6.72-2.85,6.71-6.87Z"/>
      <g>
        <path class="cls-1" d="M0,344.33V0l26.46.44-.11,104.28c-.02,15.42,11.27,27.56,26.41,27.69,14.36.13,26.46-11.54,26.51-26.42l.04-13.23c.02-7.4,5.9-13.08,13.11-13.15,6.55-.06,13.2,5.2,13.21,12.64l.1,66.4c.02,14.98,11.95,26.58,26.39,26.61s26.42-11.64,26.43-26.58l.02-32.82c0-7.5,6.09-13.23,13.19-13.22,6.9,0,12.73,5.35,13.25,12.61l.03,33.42c0,8.62,5.16,15.72,13.14,18.87l.06,52.98c-.33,7.79,5.16,13.86,13.2,14.31l-.08,99.01-211.38.47Z"/>
        <path class="cls-1" d="M0,370.53v-13.47l224.56.09c.23,4.5.23,8.72-.01,13.15l-224.55.23Z"/>
        <path class="cls-1" d="M211.54,121c-7.96,6.12-11.97,14.31-13.51,24.36l.28-16.59c.26-15.43-9.95-28.45-25.08-29.26-15.18-.81-27.86,11.31-27.88,26.99l-.04,32.79c0,7.42-6.36,12.83-13.18,12.79-7.42-.04-13.21-5.84-13.21-13.57l-.02-65.66c0-14.9-12.07-26.42-26.42-26.41-14.32,0-26.31,11.58-26.36,26.35l-.04,13.47c-.03,7.52-6.52,13.11-13.33,12.96-8.05-.17-13.16-6.41-13.15-14.5l.14-104.44,171.65.03-.04,19.77-72.74.1c-7.54.01-12.97,6.19-13.05,13.43-.05,4.55.26,8.65-.2,12.95-3.9.42-6.43,3.29-6.34,6.85s2.77,5.95,6.45,6.47l.1,12.71c.06,8.31,6.31,13.69,14.47,13.69l71.41-.02.12,34.74Z"/>
        <g>
          <rect class="cls-1" x="138.75" y="33.33" width="145.4" height="39.68"/>
          <path class="cls-1" d="M211.78,152.32c-1.58-8.91,1.98-18.46,10.72-22.55l83.99-39.31c2.44-1.14,3.98-3.19,3.99-5.86l.04-18.01c.01-4.2-3.25-6.95-7.35-6.84-1.99.06-3.77.15-5.74-.2l.02-12.85c3.2-.21,6.21-.37,9.42.1,9.9,1.45,16.91,9.77,16.91,19.77v17.28c0,8.14-4.2,15.12-11.66,18.61l-84.55,39.62c-3.65,1.71-2.84,6.73-2.78,10-4.11.53-7.88.1-13.02.23Z"/>
          <rect class="cls-1" x="211.44" y="165.49" width="13.34" height="66.12"/>
        </g>
      </g>
    </g>
  </g>
</svg>